<?xml version="1.0" encoding="utf-8"?>
<!-- Generator: Adobe Illustrator 16.0.0, SVG Export Plug-In . SVG Version: 6.00 Build 0)  -->
<!DOCTYPE svg PUBLIC "-//W3C//DTD SVG 1.1//EN" "http://www.w3.org/Graphics/SVG/1.1/DTD/svg11.dtd">
<svg version="1.1" id="Layer_1" xmlns="http://www.w3.org/2000/svg" xmlns:xlink="http://www.w3.org/1999/xlink" x="0px" y="0px"
	 width="67px" height="72px" viewBox="0 0 67 72" enable-background="new 0 0 67 72" xml:space="preserve">
<path fill="#03534D" d="M54.92,49.223h-42.6v-1.8h42.6V49.223z M45.2,43.883v-0.06h9.72v1.8H45.2V43.883z M45.2,40.163h9.72v1.86
	H45.2V40.163z M24.26,44.123h0.06l0.12,0.061v0.06l0.06,0.06v0.061h0.18c0.06,0.06,0.06,0.06,0.06,0.06l0.06,0.06v0.121h0.06
	l0.06,0.119v0.061l0.06,0.06v0.24c-2.58,0.84-5.16,0.84-7.62,0v-0.36h0.12v-0.18h0.12v-0.12h0.06v-0.06h0.18v-0.12h0.06v-0.12h0.12
	c2.04,0,4.08,0,6.12,0H24.26z M28.04,40.643H23.9c-0.06,0.66,0,1.2,0.12,1.681l0.06,0.06v0.061h0.54v0.06h0.36v0.12h0.18l0.06,0.061
	v0.06h0.12l0.06,0.06h0.12v0.061c0,0.06,0.06,0.06,0.12,0.06v0.06h0.06v0.121h0.18l0.06,0.06v0.06h0.12v0.12l0.06,0.06h0.06v0.121
	l0.06,0.06l0.12,0.06v0.121l0.06,0.06v0.18h0.12v0.12h0.06v0.12c-0.02,0.364,0.095,0.106,0.06,0.659v0.121h0.06l0.06,0.06
	c0.06,0.54,0.48,0.72,1.26,0.54h0.12c0.06-1.74,0.06-3.42,0-4.98H28.04z M20.84,33.503v-0.06h0.66l0.06,0.06h0.12l0.06,0.12h0.06
	v0.06h0.06l0.06,0.12h0.06v0.18h0.12v8.4h-1.8v-8.52h0.06v-0.06h0.12v-0.12h0.06v-0.06h0.12v-0.12H20.84z M21.92,24.863v0.06h0.06
	v0.18l0.06,0.12h0.06v0.18h-0.12v0.24h-0.06v0.18H21.8v0.12h-0.06v0.12h-0.18v0.06h-0.3v0.12h-0.18v-0.12h-0.24v-0.06h-0.18
	l-0.06-0.12h-0.06v-0.12h-0.06v-0.06l-0.12-0.12v-0.24H20.3v-0.18h0.06v-0.3h0.06c0.06,0,0.06,0,0.06-0.06v-0.12h0.06v-0.06h0.06
	l0.06-0.12h0.18v-0.12h0.24v-0.06h0.18l0.06,0.06h0.24v0.12h0.18v0.12h0.06l0.06,0.06h0.06V24.863z M45.2,36.684v-0.121h9.72v1.801
	H45.2V36.684z M38.359,32.603h0.24v0.12h0.121c0.139,0,0.279,0,0.42,0h0.06c0.06,0.06,0.06,0.06,0.06,0.06h0.061
	c0.24,0,0.479,0,0.72,0h0.12v-0.06h0.061c0.159,0,0.319,0,0.479,0h0.06v-0.12h0.18l0.181,0.06v0.18l-0.06,0.06v0.06
	c0,0.06,0,0.06-0.061,0.06h-0.061v0.3H40.82v0.18H40.76v0.24c0,0.06,0,0.06-0.06,0.06v0.18h-0.06c0,0.06,0,0.06-0.061,0.06v0.18
	H40.52v0.24l-0.119,0.06v0.18c0,0.06,0,0.06-0.061,0.06v0.12l-0.061,0.06h-0.059v0.24c0,0.06,0,0.06-0.061,0.06v0.18
	c0,0.06,0,0.06-0.061,0.06h-0.06v0.18h-0.12v0.24l-0.061,0.06v0.24H39.8v0.24l-0.12-0.06h-0.06v-0.18h-0.06l-0.061-0.06v-0.18
	l-0.061-0.06h-0.06v-0.24l-0.06-0.06v-0.12H39.26v-0.24l-0.119-0.06v-0.24H39.08l-0.061-0.06v-0.12h-0.06v-0.24l-0.06-0.06v-0.24
	H38.84l-0.061-0.06v-0.12l-0.059-0.06v-0.18l-0.121-0.12v-0.18h-0.06l-0.06-0.06v-0.12H38.42v-0.3h-0.061v-0.24H38.3l-0.06-0.06
	v-0.12H38.359z M35.721,33.683h0.299v-0.06h0.36v-0.12h0.12l0.18,0.06v0.12h0.12v0.18l0.12,0.12v0.18h0.061v0.24l0.06,0.06
	l0.06,0.06v0.12l0.061,0.06v0.18h0.061l0.059,0.06v0.18l0.061,0.06v0.12H37.4l0.06,0.12v0.18h0.06v0.3h0.061v0.12l0.12,0.06v0.24
	l0.06,0.06h0.061v0.18l0.06,0.061v0.18h0.06L38,36.863v0.18c0.061,0.061,0.061,0.061,0.061,0.061v0.239h0.06v0.12l0.12,0.061v0.24
	l0.06,0.06h0.06v0.18l0.061,0.06v0.181h0.061v0.239H38.6v0.301h0.061l0.061,0.06v0.06l0.06,0.061v0.24h0.12v0.3h0.06v0.06
	l0.06,0.061v0.061h0.121v0.06h0.06l0.06,0.06h0.12l0.06,0.061l0.061,0.06h0.359v-0.12h0.301v-0.06h0.061v-0.06h0.119v-0.121H40.4
	v-0.06h0.119v-0.3h0.061v-0.18h0.12v-0.24h0.06v-0.301h0.061v-0.239h0.119v-0.24h0.121v-0.239h0.06v-0.301h0.12v-0.12h0.06v-0.3
	h0.12v-0.24h0.061v-0.24H41.6v-0.239h0.061v-0.3h0.12v-0.12h0.06v-0.3h0.12v-0.3h0.06v-0.18h0.121v-0.24h0.119v-0.3h0.061v-0.18
	h0.06v-0.24h0.12v-0.3h0.061v-0.18h0.119v-0.18h0.301l0.06,0.12h0.3c0.061,0.06,0.061,0.06,0.061,0.06h0.42v0.12h0.42
	c0.06,0.06,0.06,0.06,0.06,0.06h0.3l0.061,0.06v0.06h0.42l0.061,0.06H45.5l0.061,0.06v0.06h0.359v0.06h0.36l0.06,0.06v0.06h0.36
	l0.06,0.06H47l0.061,0.06v0.06h0.18v0.06h0.24l0.06,0.06v0.12H44.3c0,0.06,0,0.06-0.06,0.06c0,0.06,0,0.06-0.061,0.06h-0.24
	l-0.06,0.06h-0.12l-0.06,0.12l-0.06,0.06H43.58v0.12c0,0.06,0,0.06-0.061,0.06h-0.06v0.24c0,0.06,0,0.06-0.06,0.06v10.02H29.96
	l-0.06-4.98h1.02v-0.06h0.36v-0.12h0.24v-0.06h0.06v-0.12h0.12v-0.18h0.06v-0.36h0.06v-5.04h0.12v-0.12h0.18v-0.06h0.3v-0.12h0.24
	v-0.061h0.36v-0.12h0.42v-0.06h0.48v-0.12h0.359v-0.06h0.48v-0.12h0.301v-0.06h0.479v-0.12H35.721L35.721,33.683z M40.76,24.143
	h0.18v-0.12h0.121v-0.06h0.06v-0.06h0.18v-0.12h0.12v-0.12h0.061v-0.06h0.18v0.06h0.119l0.061,0.06v0.06h0.18v0.12h0.121v0.06h0.119
	l0.061,0.06h0.119l0.061,0.12h0.12c0.06,0.06,0.06,0.06,0.06,0.06l0.061,0.06v0.06h0.18v0.06h0.12l0.06,0.06h0.061l0.061,0.06v0.06
	h0.059l0.121,0.12h0.119c0.061,0.06,0.061,0.06,0.061,0.06l0.061,0.06l0.06,0.06h0.12v0.06H44v0.12c0,0.74,0,1.48,0,2.22v0.12
	h-0.061v0.36c0,0.06,0,0.06-0.06,0.06c0,0.06,0,0.06-0.06,0.06v0.24H43.76v0.18c0,0.06,0,0.06-0.06,0.06v0.12
	c0,0.06,0,0.06-0.06,0.06c0,0.06,0,0.06-0.061,0.06v0.06c0,0.06,0,0.06-0.061,0.06h-0.06v0.18H43.4l-0.061,0.12h-0.061v0.18h-0.059
	v0.06l-0.061,0.06v0.06c0,0.06,0,0.06-0.061,0.06c0,0.06,0,0.06-0.06,0.06h-0.06c0,0.06,0,0.06-0.061,0.06v0.06l-0.061,0.06v0.06
	H42.74v0.06H42.68l-0.06,0.12h-0.06v0.06H42.5l-0.061,0.12h-0.06v0.06c0,0.06,0,0.06-0.06,0.06H42.26l-0.06,0.06h-0.06v0.06H41.96
	v0.12h-0.12v0.06l-0.061,0.06H41.66v0.06h-0.18v0.06h-0.24v0.12h-0.301v0.06c0,0.06-0.06,0.06-0.119,0.06h-0.24v0.06h-0.54v0.12
	h-0.66l-0.06-0.12h-0.48l-0.061-0.06H38.48c0,0,0,0-0.061-0.06v-0.06h-0.24l-0.06-0.12H38v-0.06h-0.24l-0.06-0.06l-0.06-0.06
	l-0.061-0.06h-0.12v-0.12h-0.181v-0.06H37.16v-0.06l-0.061-0.06v-0.06h-0.18v-0.12H36.8v-0.06h-0.06l-0.061-0.12h-0.06v-0.06h-0.06
	l-0.061-0.06v-0.06l-0.061-0.06l-0.06-0.06v-0.12l-0.12-0.06l-0.119-0.12H36.08v-0.18H36.02v-0.18H35.9v-0.18l-0.061-0.06h-0.061
	v-0.12c0,0,0,0-0.059-0.06v-0.12H35.66v-0.3h-0.12v-0.24l-0.06-0.06l-0.061-0.06v-0.42h-0.061v-0.06c0-0.56,0-1.12,0-1.68v-0.06
	h0.061c0.641,0,1.28,0,1.92,0h0.12v-0.06h0.06c0.181,0,0.36,0,0.541,0h0.06v-0.12H38.6v-0.12h0.36v-0.06h0.3v-0.12h0.24v-0.06h0.18
	v-0.12h0.18v-0.06h0.181v-0.12h0.181v-0.12h0.18v-0.06h0.18v-0.06h0.12v-0.12h0.06V24.143z M37.88,19.343H38v-0.06h0.24v-0.12h0.24
	v-0.06h0.42v-0.12h0.06c0.479,0,0.96,0,1.44,0l0.119,0.06v0.06h0.301v0.06h0.3v0.12h0.239c0.061,0.06,0.061,0.06,0.061,0.06h0.12
	l0.06,0.12h0.121c0.059,0.06,0.059,0.06,0.059,0.06h0.181v0.06h0.06v0.12h0.121l0.239,0.24v0.06h0.181v0.06h0.06
	c0.06,0,0.06,0.06,0.06,0.12h0.061v0.06h0.119v0.12h0.061v0.06l0.061,0.06h0.06v0.12l0.06,0.06l0.061,0.06h0.061v0.06h0.059v0.18
	h0.061l0.061,0.12h0.06v0.12l0.12,0.12v0.06l0.12,0.12v0.18l0.06,0.12v0.06h0.061v0.36l0.06,0.06l0.06,0.06v0.36H44v0.24h-0.12
	l-0.06-0.06H43.7v-0.12h-0.12v-0.06h-0.12c0,0,0,0-0.06-0.06v-0.06h-0.18v-0.06l-0.061-0.06v-0.06h-0.12
	c-0.114-0.017-0.218-0.087-0.3-0.18H42.68v-0.12H42.5v-0.06h-0.18v-0.06H42.26v-0.12h-0.18l-0.061-0.06h-0.06l-0.06-0.06
	l-0.061-0.06h-0.18v-0.06h-0.42v0.06h-0.18c0,0.06,0,0.06-0.061,0.06c0,0.06,0,0.06-0.061,0.06H40.82v0.06H40.76v0.12H40.7
	l-0.06,0.06H40.58v0.06H40.52v0.12H40.4c0,0.06,0,0.06-0.061,0.06v0.06c0,0.06,0,0.06-0.061,0.06h-0.059v0.06
	c0,0.06,0,0.06-0.061,0.06c0,0.06,0,0.06-0.061,0.06h-0.06v0.06c0,0.06-0.06,0.06-0.12,0.06h-0.061v0.06H39.8v0.12h-0.18v0.06h-0.24
	v0.06c0,0.06,0,0.06-0.06,0.06v0.06h-0.18v0.06c0,0.06-0.061,0.06-0.121,0.06H38.9v0.06h-0.18l-0.061,0.12h-0.24v0.06h-0.359
	c0,0.06,0,0.06-0.061,0.06v0.06h-0.54l-0.06,0.06h-2.041v-0.9h0.061v-0.54h0.12v-0.24h0.12v-0.3h0.061v-0.18h0.059v-0.3H35.9v-0.06
	h0.119v-0.18h0.061v-0.18h0.061v-0.06h0.119v-0.12h0.12v-0.12h0.06v-0.12H36.5v-0.12h0.12v-0.06h0.06v-0.12h0.12v-0.06h0.12v-0.12
	h0.18v-0.06h0.061v-0.12h0.18v-0.12h0.12v-0.06h0.12v-0.06h0.24v-0.12H37.88z M34.939,19.523c0.061,0,0.061,0,0.061-0.06
	c0.061,0,0.061,0,0.061-0.06v-0.06h0.119v-0.06c0.061,0,0.061,0,0.061-0.06v-0.12l0.119-0.06v-0.06h0.061v-0.12h0.18
	c0.061,0,0.061,0,0.061-0.06l0.061-0.12h0.059v-0.06H35.9v-0.06c0.06,0,0.06,0,0.06-0.06c0.06,0,0.06,0,0.06-0.06h0.121v-0.06
	l0.119-0.06v-0.06c0.061,0,0.061,0,0.061-0.06c0.06,0,0.06,0,0.06-0.06h0.12v-0.06h0.18v-0.06h0.12c0.06,0,0.06,0,0.06-0.06
	c0.061,0,0.061,0,0.061-0.06h0.12l0.06-0.12h0.121l0.059-0.06H37.4l0.06-0.06h0.06l0.061-0.06v-0.06h0.3v-0.06h0.24
	c0.06,0,0.12,0,0.12-0.06v-0.06h0.24l0.119-0.06v-0.06h0.121c0.26,0,0.52,0,0.779,0h0.12v-0.06h0.239c0,0.06,0.061,0.06,0.121,0.06
	h0.06c0.22,0,0.44,0,0.66,0h0.06v0.06c0.061,0.06,0.061,0.06,0.061,0.06h0.42v0.06l0.06,0.06h0.181l0.06,0.06h0.239v0.06l0.061,0.06
	h0.18l0.061,0.06h0.18v0.06h0.12v0.12h0.181l0.119,0.12v0.06h0.18v0.06h0.181v0.06l0.12,0.06v0.06l0.061,0.06h0.059l0.061,0.06H43.4
	v0.06c0.06,0.06,0.06,0.06,0.06,0.06l0.06,0.06h0.061v0.06h0.18v0.12h0.061l0.06,0.06h0.06v0.12H44l0.12,0.12h0.06v0.06l0.12,0.12
	v0.06h0.06v0.12l0.061,0.06h0.061v0.06H44.6v0.12h0.061v0.18h0.061v0.06l0.119,0.06v0.12l0.12,0.06v0.12l0.06,0.061v0.06l0.061,0.06
	h0.061v0.18l0.06,0.06v0.12l0.06,0.06v0.06l0.12,0.12v0.24h0.12v0.24l0.061,0.06v0.24l0.06,0.12v0.42l0.12,0.12v0.18
	c0,1.56,0,3.12,0,4.68v0.18h-0.12v0.54h-0.06v0.3H45.5v0.24h-0.12v0.24h-0.12v0.3H45.2v0.18h-0.06v0.18H45.02v0.18h-0.06v0.06h-0.12
	v0.18h-0.119v0.12H44.66v0.18H44.6v0.06H44.48v0.12h-0.121v0.18H44.3v0.06h-0.12v0.12h-0.06v0.12H44v0.06h-0.061v0.12H43.82v0.06
	H43.76v0.06H43.7v0.12h-0.24v0.12H43.4v0.06h-0.121v0.12h-0.059v0.06H43.16v0.06l0.061,0.06v0.06H43.7v0.06l0.06,0.06H44l0.061,0.06
	h0.42v0.06h0.479v0.12h0.3l0.12,0.12h0.36v0.06h0.18c0.314,0.018,0.166-0.069,0.359,0.12h0.301l0.061,0.06H47v0.06
	c0.061,0.06,0.061,0.06,0.061,0.06h0.299l0.061,0.06h0.24v0.06c0.061,0.06,0.061,0.06,0.061,0.06h0.18l0.06,0.06h0.12l0.061,0.06
	h0.119v0.12h0.18v0.06l0.121,0.06h0.06l0.06,0.06h0.12l0.06,0.12l0.061,0.06h0.061v0.06l0.119,0.06h0.061v0.06h0.119v0.06
	c0.061,0.06,0.061,0.06,0.061,0.06v0.06h0.12v0.06l0.06,0.06h0.061v0.06l0.061,0.12h0.06l0.06,0.06h0.061v0.12h0.06l0.06,0.06H50
	v0.06c0.061,0.06,0.061,0.06,0.061,0.06v0.06h0.119v0.18h5.641l0.06,0.06l0.06,0.06h0.24l0.061,0.06h0.119l0.061,0.12h0.061v15.72
	h-0.121v0.06h-0.18v0.061H55.82v0.12h-44.4v-0.061l-0.06-0.06h-0.3v-0.061h-0.18v-0.06h-0.06c-0.134-0.098-0.203-0.313-0.18-0.48
	v-0.06c0-0.06,0-0.12-0.06-0.12h-0.06v-3.78l0.12,0.061v-0.3c0.06,0,0.06,0,0.06-0.061v-0.061c0.06,0,0.06,0,0.06-0.06h0.06
	c0.06,0,0.06,0,0.06-0.06v-0.061H11l0.06-0.06v-0.06h0.36v-0.061h4.14v-0.721h0.12v-0.479h0.06c0.06,0,0.06,0,0.06-0.06v-0.24h0.06
	v-0.12h0.06l0.06-0.12v-0.119c0.06,0,0.06,0,0.06-0.061v-0.061c0.06,0,0.06,0,0.06-0.06c0.06,0,0.12,0,0.12-0.06v-0.181h0.06
	l0.06-0.12h0.06v-0.06h0.06v-0.06h0.06l0.06-0.121h0.18v-0.06c0.06,0,0.06,0,0.06-0.06v-0.061H17v-0.06h0.12
	c0.06,0,0.06,0,0.06-0.06c0.06,0,0.06,0,0.06-0.061h0.12v-0.12h0.36c0.06,0,0.06,0,0.06-0.06h0.48l0.06-0.061v-0.06
	c0.18-0.48,0.24-1.021,0.18-1.681h-7.08v-0.06h-0.36v-0.12h-0.18v-0.061h-0.06l-0.06-0.119H10.7v-0.12h-0.06v-0.36l-0.06-0.06h-0.06
	v-14.52h0.06l0.06-0.12v-0.18c0.06,0,0.06,0,0.06-0.06v-0.12h0.06c0.06,0,0.06,0,0.06-0.06h0.06v-0.12h0.18v-0.12h0.36v-0.06h6.18
	v0.06h0.3l0.06,0.12h0.18v0.12h0.06l0.06,0.06h0.06v0.18h0.06v0.12c0,0.18,0,0.36,0,0.54v0.06h-0.06v0.18H18.2v0.12h-0.06v0.12H17.9
	v0.06h-0.3v0.12h-5.28v12.6h6.18v-4.68c-0.018-0.323,0.087,0.094,0.06-0.48v-0.06c0.06,0,0.06,0,0.06-0.06c0.06,0,0.06,0,0.06-0.06
	v-0.18h0.06v-0.18h0.06v-0.18h0.12v-0.18h0.06c0.06,0,0.06,0,0.06-0.06l0.06-0.06v-0.06l0.12-0.06v-0.06c0.06,0,0.06,0,0.06-0.06
	h0.06c0.06,0,0.06,0,0.06-0.06c0.06,0,0.06,0,0.06-0.06v-0.06h0.06l0.06-0.12h0.12v-0.06h0.12v-0.06h0.12l0.06-0.06v-0.06h0.18
	v-0.06h0.18c0.06,0,0.06,0,0.06-0.06c0.06,0,0.06,0,0.06-0.06h0.54c0.06,0,0.06,0,0.06-0.06h0.24l0.06,0.06h0.54v0.06
	c0.06,0.06,0.06,0.06,0.06,0.06h0.18l0.06,0.06h0.12l0.12,0.12h0.12v0.06h0.06v0.06h0.18v0.12h0.06l0.12,0.12v0.06h0.06l0.18,0.18
	l0.06,0.06l0.06,0.06v0.12l0.12,0.06v0.06h0.06v0.18h0.06v0.18l0.06,0.12h0.06v0.24h0.06v0.12c0,0.14,0,0.28,0,0.42l0.06,0.12h0.06
	v4.5h6.12v-12.6H24.8v-0.12h-0.36v-0.06h-0.18l-0.06-0.12h-0.06v-0.12h-0.06v-0.06l-0.06-0.06v-0.3l-0.06-0.06H23.9v-0.12h0.06
	l0.06-0.12v-0.18c0.06,0,0.06,0,0.06-0.06v-0.12h0.06v-0.06h0.06l0.06-0.12h0.18v-0.12h0.36v-0.06h6.12v0.06h0.36v0.12h0.24v0.12
	h0.06v0.06h0.12v0.18h0.06v0.36l0.06,0.06v7.44h0.3v-0.06h0.12l0.12-0.06c0.06,0,0.06,0,0.06-0.06h0.06
	c0.449,0.027,0.152-0.088,0.6-0.06h0.06c0.06,0,0.12,0,0.12-0.06c0.06,0,0.06,0,0.06-0.06h0.3v-0.06h0.42v-0.06
	c0.06,0,0.06,0,0.06-0.06h0.36v-0.12h0.06c0.666,0.031,0.146-0.084,0.66-0.06h0.061v-0.06h0.42v-0.06c0.061,0,0.061,0,0.061-0.06
	h0.359v-0.06h0.24l-0.061-0.12v-0.06h-0.18v-0.06l-0.061-0.06c0,0,0,0-0.06-0.06H35.9v-0.12h-0.18l-0.061-0.06v-0.06
	c0,0,0,0-0.061-0.06h-0.06v-0.06h-0.12v-0.06l-0.061-0.06v-0.06H35.24v-0.12H35.18v-0.06l-0.119-0.06v-0.12H35l-0.061-0.06v-0.06
	l-0.06-0.06l-0.06-0.06c0,0,0,0-0.061-0.06v-0.06l-0.24-0.24v-0.12l-0.06-0.06v-0.12h-0.12v-0.18h-0.061v-0.18H34.16v-0.18
	l-0.061-0.06v-0.06l-0.06-0.06v-0.24h-0.06l-0.06-0.06v-0.24l-0.06-0.12H33.8v-0.36h-0.06v-0.54h-0.12v-0.12c0-1.52,0-3.04,0-4.56
	v-0.12h0.12v-0.54h0.06v-0.36h0.06c0.06,0,0.06,0,0.06-0.06v-0.24h0.06c0.06,0,0.06,0,0.06-0.06v-0.18l0.06-0.06v-0.18
	c0.061,0,0.061,0,0.061-0.06v-0.12l0.119-0.06v-0.18h0.061v-0.12l0.12-0.06v-0.12c0.06,0,0.06,0,0.06-0.06v-0.06h0.061l0.061-0.06
	v-0.12h0.06l0.06-0.06v-0.06c0.061,0,0.061,0,0.061-0.06v-0.12h0.06C34.939,19.583,34.939,19.583,34.939,19.523z M19.46,8.243h0.12
	v0.06h0.06v0.18c0.06,0.06,0.06,0.06,0.06,0.06v4.2l0.06,0.06l0.06,0.06h0.06l0.06,0.06v0.12H20l0.06,0.06h0.06v0.06l0.06,0.06v0.06
	h0.12v0.06c0.06,0.06,0.06,0.06,0.06,0.06v0.06h0.12v0.06c0.06,0.06,0.06,0.06,0.06,0.06l0.06,0.06h0.06v0.12h0.06l0.06,0.06h0.06
	v0.06l0.12,0.12h0.06v0.18c0.06,0.06,0.06,0.06,0.06,0.06v0.54h-0.06v0.18H20.9v0.12h-0.06v0.12h-0.12v0.06h-0.18v0.12H20v-0.06
	l-0.06-0.06h-0.12v-0.06h-0.18v-0.06l-0.06-0.06c0,0,0,0-0.06-0.06h-0.06v-0.06H19.4l-0.06-0.12h-0.06l-0.06-0.06v-0.12H19.1v-0.06
	l-0.12-0.12h-0.06v-0.06l-0.12-0.06v-0.06h-0.06v-0.06h-0.06l-0.06-0.12h-0.06v-0.06l-0.06-0.06c0,0,0,0-0.06-0.06h-0.06l-0.06-0.06
	v-0.06l-0.06-0.06H18.2v-0.18h-0.06v-0.12c0,0,0,0-0.06-0.06h-0.06v-4.86c0.06,0,0.06,0,0.06-0.06c0.06,0,0.06,0,0.06-0.06v-0.12
	h0.06v-0.06h0.06l0.06-0.06v-0.06c0.06,0,0.06,0,0.06-0.06h0.06c0.06,0,0.06-0.06,0.06-0.12h0.3v-0.06h0.12l0.06,0.06h0.3v0.12h0.12
	v0.06c0.06,0.06,0.06,0.06,0.06,0.06V8.243z M24.02,9.023v0.06l0.06,0.06v0.06l0.06,0.06v0.06l0.12,0.12h0.06v0.18h0.12v0.06h0.06
	v0.18l0.06,0.06l0.06,0.06v0.06l0.06,0.06h0.06v0.12l0.06,0.06v0.12l0.12,0.12v0.06h0.06v0.18l0.06,0.06v0.18l0.12,0.12v0.3h0.06
	v0.24h0.12v0.54l0.12,0.12v0.54c0,0.36,0,0.72,0,1.08v0.18c0,0.06,0,0.06-0.06,0.06c0,0.06,0,0.06-0.06,0.06v0.42h-0.12v0.3
	c0,0.06,0,0.06-0.06,0.06v0.18c0,0.06,0,0.06-0.06,0.06h-0.06v0.24c0,0.06,0,0.06-0.06,0.06v0.18h-0.06v0.06
	c0,0.061,0,0.061-0.06,0.061c0,0.06,0,0.06-0.06,0.06v0.18h-0.06v0.12h-0.06l-0.06,0.06v0.06c0,0.06,0,0.06-0.06,0.06
	c0,0.06,0,0.06-0.06,0.06v0.18h-0.06v0.06h-0.12v0.18h-0.06l-0.06,0.12h-0.06v0.06l-0.06,0.06v0.06c0,0.06,0,0.06-0.06,0.06
	c0,0.06,0,0.06-0.06,0.06c0,0.061,0,0.061-0.06,0.061v0.06l-0.12,0.06v0.06h-0.06c0,0.06,0,0.06-0.06,0.06c0,0.06,0,0.06-0.06,0.06
	v0.12h-0.06v0.12h-0.18c0,0.06,0,0.06-0.06,0.06c0,0.06,0,0.06-0.06,0.06v0.06h-0.06v0.06h-0.12v0.06c0,0.06,0,0.06-0.06,0.06v0.06
	l-0.12,0.06v0.06H22.7v0.06c0,0.06,0,0.06-0.06,0.06c0,0.06,0,0.06-0.06,0.06c0,0.06,0,0.06-0.06,0.06h-0.18v0.12h-0.18v0.06h-0.18
	v0.12H21.8v0.06c0,0.06,0,0.06-0.06,0.06h-0.12c0,0.06,0,0.06-0.06,0.06h-0.12v0.06l-0.06,0.06h-0.12v0.06h-0.24
	c0,0.06,0,0.06-0.06,0.06c0,0.06,0,0.06-0.06,0.06h-0.18v0.06h-0.36v0.06h-0.42v0.12h-0.12c-0.64,0-1.28,0-1.92,0h-0.06v-0.12h-0.42
	l-0.06-0.06h-0.3L17,19.463h-0.18v-0.06l-0.06-0.06h-0.24l-0.06-0.06H16.4l-0.06-0.06v-0.06h-0.12c0,0,0,0-0.06-0.06h-0.12
	l-0.06-0.06v-0.06H15.8v-0.12h-0.18l-0.06-0.06h-0.12l-0.06-0.12h-0.12v-0.06h-0.12v-0.06l-0.06-0.06v-0.06H14.9l-0.12-0.12v-0.06
	l-0.12-0.12H14.6v-0.06h-0.06l-0.06-0.06h-0.06l-0.06-0.06v-0.06h-0.12v-0.12h-0.06l-0.06-0.06v-0.06c0,0,0,0-0.06-0.06v-0.06H14
	c-0.298-0.276,0.058-0.024-0.24-0.3H13.7v-0.12l-0.06-0.06v-0.06h-0.12v-0.12h-0.06l-0.06-0.06v-0.12h-0.06v-0.06h-0.06l-0.06-0.12
	v-0.06c0,0,0,0-0.06-0.06v-0.12l-0.06-0.06h-0.06v-0.12h-0.06v-0.18l-0.06-0.06l-0.06-0.06v-0.06H12.8v-0.18l-0.06-0.06v-0.24h-0.12
	v-0.24l-0.12-0.06v-0.3h-0.06v-0.54l-0.12-0.12v-0.6c0-0.36,0-0.72,0-1.08v-0.18h0.12v-0.48h0.06v-0.36h0.12v-0.3h0.12v-0.24h0.06
	v-0.18h0.06v-0.18h0.12v-0.18h0.06v-0.18h0.12v-0.18h0.06v-0.18h0.12v-0.06h0.06v-0.18h0.12v-0.12h0.12v-0.18h0.06v-0.12h0.06v-0.06
	h0.12v-0.06h0.06v-0.12h0.12v-0.12h0.06v-0.12h0.12v-0.12h0.18v-0.12h0.06v-0.06h0.12v-0.06h0.06v-0.12h0.12v-0.12h0.06v-0.06h0.24
	v-0.12h0.06v-0.06h0.18v-0.12h0.06v-0.06h0.18v-0.06h0.24v-0.12h0.18v-0.06h0.12v-0.12h0.24v-0.12h0.12v-0.06h0.3v-0.12H17v-0.06
	h0.36v-0.12h0.54v-0.06h0.12c0.56,0,1.12,0,1.68,0h0.12v0.06h0.48l0.06,0.06v0.06h0.36v0.06h0.18l0.06,0.06l0.06,0.06h0.18
	l0.06,0.06h0.12l0.06,0.06v0.06h0.18v0.12h0.18v0.06h0.18v0.12h0.18v0.06h0.18v0.06l0.12,0.06v0.06h0.12v0.06h0.06l0.06,0.06v0.06
	h0.18v0.06L23,8.003v0.06h0.06v0.12h0.12v0.06h0.06v0.06l0.06,0.06l0.06,0.06h0.18v0.12h0.06v0.12l0.12,0.12h0.06v0.12h0.12v0.06
	l0.06,0.06H24.02z M24.32,6.863l0.06,0.12h0.12l0.06,0.06h0.06v0.12h0.12v0.06c0.06,0.06,0.06,0.06,0.06,0.06l0.12,0.06v0.06
	l0.06,0.06v0.06h0.06v0.18h0.12l0.06,0.06l0.06,0.12h0.06l0.06,0.06h0.06v0.18l0.06,0.06v0.06h0.12v0.06h0.06v0.18l0.12,0.06v0.06
	h0.06v0.06l0.06,0.12v0.06l0.12,0.06v0.06l0.06,0.06h0.06v0.18h0.06v0.18l0.12,0.06v0.12l0.06,0.06v0.12c0,0.06,0.06,0.06,0.12,0.06
	v0.12l0.06,0.06v0.12l0.06,0.12v0.18l0.12,0.12v0.18l0.06,0.06v0.18l0.06,0.06h0.06v0.42h0.12v0.48l0.06,0.06v0.18
	c0,0.18,0,0.36,0,0.54v0.18l0.12,0.06v0.72h-0.12v0.12c0,0.2,0,0.4,0,0.6v0.12h-0.06v0.48h-0.12v0.3h-0.12v0.42h-0.06v0.24h-0.12
	v0.3H26.6v0.12h-0.06v0.18h-0.12v0.18h-0.06v0.18h-0.12v0.24h-0.06v0.12h-0.12v0.24h-0.12v0.06h-0.06v0.18h-0.06v0.06H25.7v0.24
	h-0.06v0.06h-0.12v0.06h-0.06v0.24h-0.12v0.06h-0.12v0.12h-0.06v0.06h-0.12v0.18h-0.06v0.061h-0.06v0.12H24.8v0.12h-0.06v0.06h-0.12
	v0.12H24.5v0.06h-0.18v0.12h-0.06v0.06h-0.12v0.06h-0.06v0.12h-0.06v0.12h-0.24v0.06h-0.06v0.12h-0.18v0.06h-0.06v0.12h-0.24v0.06
	h-0.06v0.12H23v0.06h-0.18v0.06h-0.18v0.12h-0.18v0.12h-0.18v0.06H22.1v0.12h-0.3v0.06h-0.18v0.12h-0.24v0.06h-0.3v0.06h-0.42v0.12
	h-0.48v0.06h-0.06c-0.22,0-0.44,0-0.66,0H19.4v0.12h-1.02l-0.06-0.06v-0.06H18.2c-0.522,0.043-0.653-0.074-1.08-0.06H17v-0.06
	l-0.06-0.06h-0.3l-0.06-0.06H16.4v-0.06h-0.3v-0.12h-0.24v-0.06h-0.18v-0.12h-0.3v-0.06h-0.12l-0.12-0.12h-0.06l-0.12-0.12H14.9
	l-0.06-0.06h-0.06v-0.06H14.6v-0.12h-0.18c0,0,0,0-0.06-0.06c0-0.06,0-0.12-0.06-0.12h-0.18v-0.06h-0.06v-0.06l-0.12-0.06h-0.06
	v-0.06h-0.12v-0.06l-0.06-0.06l-0.06-0.12c0,0,0,0-0.06-0.06H13.4v-0.06h-0.06v-0.12h-0.12v-0.06h-0.06v-0.12h-0.12v-0.06h-0.06
	l-0.12-0.12v-0.06l-0.06-0.06h-0.06v-0.06l-0.06-0.06l-0.06-0.06v-0.06c0,0,0,0-0.06-0.06H12.5v-0.12h-0.06v-0.06h-0.12v-0.12h-0.06
	v-0.12l-0.12-0.06v-0.06h-0.06l-0.12-0.12v-0.18H11.9l-0.06-0.06h-0.06v-0.18h-0.06v-0.24H11.6v-0.12h-0.06v-0.12l-0.12-0.12v-0.12
	l-0.06-0.06v-0.12l-0.12-0.06v-0.12l-0.12-0.06v-0.12h-0.06v-0.3H11v-0.24h-0.12v-0.36l-0.06-0.06v-0.24l-0.06-0.06H10.7v-0.18
	c0.022-0.571-0.081,0.035-0.06-0.54v-0.6l-0.06-0.06l-0.06-0.12v-1.02h0.06c0.06,0,0.06,0,0.06-0.06v-0.06c0-0.18,0-0.36,0-0.54
	v-0.06c0.06,0,0.06,0,0.06-0.06v-0.36h0.06l0.06-0.06v-0.3h0.06v-0.24l0.12-0.06v-0.24h0.06v-0.3h0.06v-0.12l0.12-0.06v-0.24
	l0.12-0.06v-0.12h0.06v-0.18h0.06l0.06-0.12v-0.06h0.06v-0.12h0.12v-0.12c0.06,0,0.06,0,0.06-0.06v-0.18h0.06
	c0.06,0,0.06,0,0.06-0.06h0.06v-0.18h0.06l0.06-0.12h0.06v-0.06h0.12v-0.18h0.06v-0.12h0.12v-0.06h0.06v-0.12h0.06
	c0.06,0,0.06,0,0.06-0.06v-0.12h0.06c0.06,0,0.06,0,0.06-0.06l0.06-0.06c0.06,0,0.06,0,0.06-0.06v-0.06c0.06,0,0.06,0,0.06-0.06
	h0.06l0.06-0.06v-0.06h0.12v-0.12h0.06v-0.06h0.12v-0.12h0.12c0.06,0,0.06,0,0.06-0.061h0.06l0.06-0.12c0.06,0,0.06,0,0.06-0.06
	c0.06,0,0.06,0,0.06-0.06h0.12l0.06-0.06v-0.06l0.12-0.06c0.06,0,0.06,0,0.06-0.06v-0.06h0.18l0.06-0.12h0.12v-0.06h0.12v-0.12h0.18
	v-0.06h0.12l0.06-0.06h0.12v-0.06c0.06,0,0.06-0.06,0.06-0.12h0.24l0.12-0.06v-0.06h0.18v-0.12h0.18v-0.06h0.24v-0.12h0.36v-0.06
	h0.3v-0.06h0.36c0.06,0,0.06,0,0.06-0.06c0.06,0,0.06,0,0.06-0.06h0.24l0.12-0.06h0.72v-0.06c0.06,0,0.06-0.06,0.06-0.12h1.02v0.12
	c0.06,0.06,0.06,0.06,0.06,0.06h0.72l0.12,0.06h0.36v0.06l0.06,0.06h0.3v0.06h0.24l0.06,0.06h0.3l0.06,0.12h0.24v0.06h0.18v0.12
	h0.18v0.06l0.06,0.06h0.3v0.12c0.06,0.06,0.06,0.06,0.06,0.06h0.12v0.06H23v0.06h0.18v0.12h0.06l0.06,0.06h0.18v0.12h0.06v0.06
	c0.06,0.06,0.06,0.06,0.06,0.06h0.12l0.18,0.18l0.12,0.06h0.06v0.06h0.06l0.06,0.12h0.06L24.32,6.863z"/>
<path fill="#B8CE64" d="M35.721,33.683h0.299v-0.06h0.36v-0.12h0.12l0.18,0.06v0.12h0.12v0.18l0.12,0.12v0.18h0.061v0.24l0.06,0.06
	l0.06,0.06v0.12l0.061,0.06v0.18h0.061l0.059,0.06v0.18l0.061,0.06v0.12H37.4l0.06,0.12v0.18h0.06v0.3h0.061v0.12l0.12,0.06v0.24
	l0.06,0.06h0.061v0.18l0.06,0.061v0.18h0.06L38,36.863v0.18c0.061,0.061,0.061,0.061,0.061,0.061v0.239h0.06v0.12l0.12,0.061v0.24
	l0.06,0.06h0.06v0.18l0.061,0.06v0.181h0.061v0.239H38.6v0.301h0.061l0.061,0.06v0.06l0.06,0.061v0.24h0.12v0.3h0.06v0.06
	l0.06,0.061v0.061h0.121v0.06h0.06l0.06,0.06h0.12l0.06,0.061l0.061,0.06h0.359v-0.12h0.301v-0.06h0.061v-0.06h0.119v-0.121H40.4
	v-0.06h0.119v-0.3h0.061v-0.18h0.12v-0.24h0.06v-0.301h0.061v-0.239h0.119v-0.24h0.121v-0.239h0.06v-0.301h0.12v-0.12h0.06v-0.3
	h0.12v-0.24h0.061v-0.24H41.6v-0.239h0.061v-0.3h0.12v-0.12h0.06v-0.3h0.12v-0.3h0.06v-0.18h0.121v-0.24h0.119v-0.3h0.061v-0.18
	h0.06v-0.24h0.12v-0.3h0.061v-0.18h0.119v-0.18h0.301l0.06,0.12h0.3c0.061,0.06,0.061,0.06,0.061,0.06h0.42v0.12h0.42
	c0.06,0.06,0.06,0.06,0.06,0.06h0.3l0.061,0.06v0.06h0.42l0.061,0.06H45.5l0.061,0.06v0.06h0.359v0.06h0.36l0.06,0.06v0.06h0.36
	l0.06,0.06H47l0.061,0.06v0.06h0.18v0.06h0.24l0.06,0.06v0.12H44.3c0,0.06,0,0.06-0.06,0.06c0,0.06,0,0.06-0.061,0.06h-0.24
	l-0.06,0.06h-0.12l-0.06,0.12l-0.06,0.06H43.58v0.12c0,0.06,0,0.06-0.061,0.06h-0.06v0.24c0,0.06,0,0.06-0.06,0.06v10.02H29.96
	l-0.06-4.98h1.02v-0.06h0.36v-0.12h0.24v-0.06h0.06v-0.12h0.12v-0.18h0.06v-0.36h0.06v-5.04h0.12v-0.12h0.18v-0.06h0.3v-0.12h0.24
	v-0.061h0.36v-0.12h0.42v-0.06h0.48v-0.12h0.359v-0.06h0.48v-0.12h0.301v-0.06h0.479v-0.12H35.721 M24.02,9.023v0.06l0.06,0.06v0.06
	l0.06,0.06v0.06l0.12,0.12h0.06v0.18h0.12v0.06h0.06v0.18l0.06,0.06l0.06,0.06v0.06l0.06,0.06h0.06v0.12l0.06,0.06v0.12l0.12,0.12
	v0.06h0.06v0.18l0.06,0.06v0.18l0.12,0.12v0.3h0.06v0.24h0.12v0.54l0.12,0.12v0.54c0,0.36,0,0.72,0,1.08v0.18
	c0,0.06,0,0.06-0.06,0.06c0,0.06,0,0.06-0.06,0.06v0.42h-0.12v0.3c0,0.06,0,0.06-0.06,0.06v0.18c0,0.06,0,0.06-0.06,0.06h-0.06v0.24
	c0,0.06,0,0.06-0.06,0.06v0.18h-0.06v0.06c0,0.061,0,0.061-0.06,0.061c0,0.06,0,0.06-0.06,0.06v0.18h-0.06v0.12h-0.06l-0.06,0.06
	v0.06c0,0.06,0,0.06-0.06,0.06c0,0.06,0,0.06-0.06,0.06v0.18h-0.06v0.06h-0.12v0.18h-0.06l-0.06,0.12h-0.06v0.06l-0.06,0.06v0.06
	c0,0.06,0,0.06-0.06,0.06c0,0.06,0,0.06-0.06,0.06c0,0.061,0,0.061-0.06,0.061v0.06l-0.12,0.06v0.06h-0.06c0,0.06,0,0.06-0.06,0.06
	c0,0.06,0,0.06-0.06,0.06v0.12h-0.06v0.12h-0.18c0,0.06,0,0.06-0.06,0.06c0,0.06,0,0.06-0.06,0.06v0.06h-0.06v0.06h-0.12v0.06
	c0,0.06,0,0.06-0.06,0.06v0.06l-0.12,0.06v0.06H22.7v0.06c0,0.06,0,0.06-0.06,0.06c0,0.06,0,0.06-0.06,0.06c0,0.06,0,0.06-0.06,0.06
	h-0.18v0.12h-0.18v0.06h-0.18v0.12H21.8v0.06c0,0.06,0,0.06-0.06,0.06h-0.12c0,0.06,0,0.06-0.06,0.06h-0.12v0.06l-0.06,0.06h-0.12
	v0.06h-0.24c0,0.06,0,0.06-0.06,0.06c0,0.06,0,0.06-0.06,0.06h-0.18v0.06h-0.36v0.06h-0.42v0.12h-0.12c-0.64,0-1.28,0-1.92,0h-0.06
	v-0.12h-0.42l-0.06-0.06h-0.3L17,19.463h-0.18v-0.06l-0.06-0.06h-0.24l-0.06-0.06H16.4l-0.06-0.06v-0.06h-0.12c0,0,0,0-0.06-0.06
	h-0.12l-0.06-0.06v-0.06H15.8v-0.12h-0.18l-0.06-0.06h-0.12l-0.06-0.12h-0.12v-0.06h-0.12v-0.06l-0.06-0.06v-0.06H14.9l-0.12-0.12
	v-0.06l-0.12-0.12H14.6v-0.06h-0.06l-0.06-0.06h-0.06l-0.06-0.06v-0.06h-0.12v-0.12h-0.06l-0.06-0.06v-0.06c0,0,0,0-0.06-0.06v-0.06
	H14c-0.298-0.276,0.058-0.024-0.24-0.3H13.7v-0.12l-0.06-0.06v-0.06h-0.12v-0.12h-0.06l-0.06-0.06v-0.12h-0.06v-0.06h-0.06
	l-0.06-0.12v-0.06c0,0,0,0-0.06-0.06v-0.12l-0.06-0.06h-0.06v-0.12h-0.06v-0.18l-0.06-0.06l-0.06-0.06v-0.06H12.8v-0.18l-0.06-0.06
	v-0.24h-0.12v-0.24l-0.12-0.06v-0.3h-0.06v-0.54l-0.12-0.12v-0.6c0-0.36,0-0.72,0-1.08v-0.18h0.12v-0.48h0.06v-0.36h0.12v-0.3h0.12
	v-0.24h0.06v-0.18h0.06v-0.18h0.12v-0.18h0.06v-0.18h0.12v-0.18h0.06v-0.18h0.12v-0.06h0.06v-0.18h0.12v-0.12h0.12v-0.18h0.06v-0.12
	h0.06v-0.06h0.12v-0.06h0.06v-0.12h0.12v-0.12h0.06v-0.12h0.12v-0.12h0.18v-0.12h0.06v-0.06h0.12v-0.06h0.06v-0.12h0.12v-0.12h0.06
	v-0.06h0.24v-0.12h0.06v-0.06h0.18v-0.12h0.06v-0.06h0.18v-0.06h0.24v-0.12h0.18v-0.06h0.12v-0.12h0.24v-0.12h0.12v-0.06h0.3v-0.12
	H17v-0.06h0.36v-0.12h0.54v-0.06h0.12c0.56,0,1.12,0,1.68,0h0.12v0.06h0.48l0.06,0.06v0.06h0.36v0.06h0.18l0.06,0.06l0.06,0.06h0.18
	l0.06,0.06h0.12l0.06,0.06v0.06h0.18v0.12h0.18v0.06h0.18v0.12h0.18v0.06h0.18v0.06l0.12,0.06v0.06h0.12v0.06h0.06l0.06,0.06v0.06
	h0.18v0.06L23,8.003v0.06h0.06v0.12h0.12v0.06h0.06v0.06l0.06,0.06l0.06,0.06h0.18v0.12h0.06v0.12l0.12,0.12h0.06v0.12h0.12v0.06
	l0.06,0.06H24.02z"/>
<path fill="#FFFFFF" d="M54.92,49.223h-42.6v-1.8h42.6V49.223z M45.2,43.883v-0.06h9.72v1.8H45.2V43.883z M45.2,40.163h9.72v1.86
	H45.2V40.163z M24.26,44.123h0.06l0.12,0.061v0.06l0.06,0.06v0.061h0.18c0.06,0.06,0.06,0.06,0.06,0.06l0.06,0.06v0.121h0.06
	l0.06,0.119v0.061l0.06,0.06v0.24c-2.58,0.84-5.16,0.84-7.62,0v-0.36h0.12v-0.18h0.12v-0.12h0.06v-0.06h0.18v-0.12h0.06v-0.12h0.12
	c2.04,0,4.08,0,6.12,0H24.26z M20.84,33.503v-0.06h0.66l0.06,0.06h0.12l0.06,0.12h0.06v0.06h0.06l0.06,0.12h0.06v0.18h0.12v8.4h-1.8
	v-8.52h0.06v-0.06h0.12v-0.12h0.06v-0.06h0.12v-0.12H20.84z M45.2,36.684v-0.121h9.72v1.801H45.2V36.684z M38.359,32.603h0.24v0.12
	h0.121c0.139,0,0.279,0,0.42,0h0.06c0.06,0.06,0.06,0.06,0.06,0.06h0.061c0.24,0,0.479,0,0.72,0h0.12v-0.06h0.061
	c0.159,0,0.319,0,0.479,0h0.06v-0.12h0.18l0.181,0.06v0.18l-0.06,0.06v0.06c0,0.06,0,0.06-0.061,0.06h-0.061v0.3H40.82v0.18H40.76
	v0.24c0,0.06,0,0.06-0.06,0.06v0.18h-0.06c0,0.06,0,0.06-0.061,0.06v0.18H40.52v0.24l-0.119,0.06v0.18c0,0.06,0,0.06-0.061,0.06
	v0.12l-0.061,0.06h-0.059v0.24c0,0.06,0,0.06-0.061,0.06v0.18c0,0.06,0,0.06-0.061,0.06h-0.06v0.18h-0.12v0.24l-0.061,0.06v0.24
	H39.8v0.24l-0.12-0.06h-0.06v-0.18h-0.06l-0.061-0.06v-0.18l-0.061-0.06h-0.06v-0.24l-0.06-0.06v-0.12H39.26v-0.24l-0.119-0.06
	v-0.24H39.08l-0.061-0.06v-0.12h-0.06v-0.24l-0.06-0.06v-0.24H38.84l-0.061-0.06v-0.12l-0.059-0.06v-0.18l-0.121-0.12v-0.18h-0.06
	l-0.06-0.06v-0.12H38.42v-0.3h-0.061v-0.24H38.3l-0.06-0.06v-0.12H38.359z M40.76,24.143h0.18v-0.12h0.121v-0.06h0.06v-0.06h0.18
	v-0.12h0.12v-0.12h0.061v-0.06h0.18v0.06h0.119l0.061,0.06v0.06h0.18v0.12h0.121v0.06h0.119l0.061,0.06h0.119l0.061,0.12h0.12
	c0.06,0.06,0.06,0.06,0.06,0.06l0.061,0.06v0.06h0.18v0.06h0.12l0.06,0.06h0.061l0.061,0.06v0.06h0.059l0.121,0.12h0.119
	c0.061,0.06,0.061,0.06,0.061,0.06l0.061,0.06l0.06,0.06h0.12v0.06H44v0.12c0,0.74,0,1.48,0,2.22v0.12h-0.061v0.36
	c0,0.06,0,0.06-0.06,0.06c0,0.06,0,0.06-0.06,0.06v0.24H43.76v0.18c0,0.06,0,0.06-0.06,0.06v0.12c0,0.06,0,0.06-0.06,0.06
	c0,0.06,0,0.06-0.061,0.06v0.06c0,0.06,0,0.06-0.061,0.06h-0.06v0.18H43.4l-0.061,0.12h-0.061v0.18h-0.059v0.06l-0.061,0.06v0.06
	c0,0.06,0,0.06-0.061,0.06c0,0.06,0,0.06-0.06,0.06h-0.06c0,0.06,0,0.06-0.061,0.06v0.06l-0.061,0.06v0.06H42.74v0.06H42.68
	l-0.06,0.12h-0.06v0.06H42.5l-0.061,0.12h-0.06v0.06c0,0.06,0,0.06-0.06,0.06H42.26l-0.06,0.06h-0.06v0.06H41.96v0.12h-0.12v0.06
	l-0.061,0.06H41.66v0.06h-0.18v0.06h-0.24v0.12h-0.301v0.06c0,0.06-0.06,0.06-0.119,0.06h-0.24v0.06h-0.54v0.12h-0.66l-0.06-0.12
	h-0.48l-0.061-0.06H38.48c0,0,0,0-0.061-0.06v-0.06h-0.24l-0.06-0.12H38v-0.06h-0.24l-0.06-0.06l-0.06-0.06l-0.061-0.06h-0.12v-0.12
	h-0.181v-0.06H37.16v-0.06l-0.061-0.06v-0.06h-0.18v-0.12H36.8v-0.06h-0.06l-0.061-0.12h-0.06v-0.06h-0.06l-0.061-0.06v-0.06
	l-0.061-0.06l-0.06-0.06v-0.12l-0.12-0.06l-0.119-0.12H36.08v-0.18H36.02v-0.18H35.9v-0.18l-0.061-0.06h-0.061v-0.12
	c0,0,0,0-0.059-0.06v-0.12H35.66v-0.3h-0.12v-0.24l-0.06-0.06l-0.061-0.06v-0.42h-0.061v-0.06c0-0.56,0-1.12,0-1.68v-0.06h0.061
	c0.641,0,1.28,0,1.92,0h0.12v-0.06h0.06c0.181,0,0.36,0,0.541,0h0.06v-0.12H38.6v-0.12h0.36v-0.06h0.3v-0.12h0.24v-0.06h0.18v-0.12
	h0.18v-0.06h0.181v-0.12h0.181v-0.12h0.18v-0.06h0.18v-0.06h0.12v-0.12h0.06V24.143z"/>
<text transform="matrix(1 0 0 1 11.6636 62.6631)" fill="#9A9A9A" font-family="'Arial-BoldMT'" font-size="7">Org Settings</text>
<path fill="#02534E" d="M19.535,8.353h0.12v0.06h0.06v0.18c0.06,0.06,0.06,0.06,0.06,0.06v4.2l0.061,0.06l0.06,0.061h0.06
	l0.061,0.06v0.12h0.061l0.06,0.061h0.06v0.06l0.061,0.06v0.061h0.119v0.06c0.061,0.06,0.061,0.06,0.061,0.06v0.061h0.12v0.061
	c0.06,0.06,0.06,0.06,0.06,0.06l0.061,0.06h0.061v0.121h0.06l0.06,0.06h0.061v0.06l0.119,0.12h0.061v0.181
	c0.061,0.06,0.061,0.06,0.061,0.06v0.54h-0.061v0.18h-0.12v0.12h-0.06v0.12h-0.12v0.061h-0.181v0.119h-0.539v-0.06l-0.061-0.06
	h-0.12v-0.061h-0.18v-0.061l-0.06-0.06c0,0,0,0-0.06-0.06h-0.06v-0.061h-0.06l-0.06-0.12h-0.06l-0.06-0.06v-0.12h-0.12v-0.06
	l-0.12-0.121h-0.06v-0.06l-0.12-0.06v-0.061h-0.06v-0.06h-0.06l-0.06-0.12h-0.06v-0.061l-0.06-0.06c0,0,0,0-0.06-0.06h-0.06
	l-0.06-0.061v-0.06l-0.06-0.06h-0.06v-0.181h-0.06v-0.12c0,0,0,0-0.06-0.061h-0.06V8.652c0.06,0,0.06,0,0.06-0.06
	c0.06,0,0.06,0,0.06-0.06v-0.12h0.06v-0.06h0.06l0.06-0.06v-0.06c0.06,0,0.06,0,0.06-0.06h0.06c0.06,0,0.06-0.06,0.06-0.12h0.3
	v-0.06h0.12l0.06,0.06h0.3v0.12h0.12v0.06c0.06,0.06,0.06,0.06,0.06,0.06V8.353z"/>
</svg>
