<?xml version="1.0" encoding="utf-8"?>
<!-- Generator: Adobe Illustrator 16.0.0, SVG Export Plug-In . SVG Version: 6.00 Build 0)  -->
<!DOCTYPE svg PUBLIC "-//W3C//DTD SVG 1.1//EN" "http://www.w3.org/Graphics/SVG/1.1/DTD/svg11.dtd">
<svg version="1.1" id="Layer_1" xmlns="http://www.w3.org/2000/svg" xmlns:xlink="http://www.w3.org/1999/xlink" x="0px" y="0px"
	 width="67px" height="72px" viewBox="0 0 67 72" enable-background="new 0 0 67 72" xml:space="preserve">
<path fill="#9A9A9A" d="M43.523,60.765l1.02-0.18c0.061,0.18,0.119,0.359,0.24,0.479c0.119,0.06,0.3,0.12,0.539,0.12
	c0.301,0,0.48-0.061,0.601-0.12l0.12-0.239l-0.061-0.24c-0.06-0.061-0.18-0.061-0.359-0.12c-0.78-0.181-1.32-0.3-1.5-0.479
	c-0.301-0.181-0.48-0.48-0.48-0.841c0-0.3,0.12-0.6,0.42-0.84c0.24-0.24,0.66-0.36,1.2-0.36s0.899,0.12,1.14,0.301
	c0.24,0.18,0.42,0.42,0.541,0.72l-0.961,0.18c-0.06-0.18-0.119-0.3-0.24-0.36c-0.119-0.06-0.299-0.119-0.479-0.119
	c-0.3,0-0.479,0.06-0.54,0.119l-0.119,0.24l0.059,0.18c0.121,0.061,0.421,0.121,0.961,0.24c0.539,0.12,0.9,0.301,1.14,0.48
	c0.181,0.18,0.3,0.42,0.3,0.72c0,0.36-0.119,0.66-0.42,0.9c-0.3,0.239-0.779,0.36-1.32,0.36c-0.539,0-0.899-0.121-1.199-0.301
	C43.822,61.425,43.583,61.125,43.523,60.765 M43.162,58.065v0.78h-0.719v1.561c0,0.299,0,0.479,0.06,0.539l0.06,0.12l0.18,0.06
	c0.061,0,0.24-0.06,0.42-0.119l0.061,0.779c-0.24,0.061-0.48,0.121-0.779,0.121c-0.181,0-0.36,0-0.48-0.061l-0.359-0.24
	c-0.061-0.06-0.061-0.24-0.121-0.42c0-0.061,0-0.3,0-0.66v-1.68h-0.479v-0.78h0.479v-0.78l0.961-0.539v1.319H43.162z M40.643,59.205
	l-1.02,0.181c-0.061-0.181-0.12-0.36-0.18-0.479c-0.121-0.061-0.301-0.121-0.48-0.121c-0.24,0-0.42,0.061-0.6,0.24
	c-0.181,0.18-0.24,0.42-0.24,0.84c0,0.48,0.06,0.78,0.24,0.961c0.18,0.18,0.359,0.299,0.6,0.299c0.18,0,0.359-0.06,0.48-0.18
	c0.119-0.119,0.18-0.3,0.239-0.539l1.021,0.18c-0.12,0.42-0.301,0.779-0.6,1.02c-0.301,0.18-0.66,0.301-1.201,0.301
	c-0.539,0-0.959-0.181-1.319-0.48c-0.3-0.36-0.48-0.84-0.48-1.5c0-0.6,0.18-1.08,0.48-1.439c0.36-0.361,0.84-0.541,1.38-0.541
	c0.42,0,0.779,0.12,1.08,0.301C40.343,58.425,40.523,58.785,40.643,59.205z M35.543,59.625c0-0.299-0.06-0.479-0.18-0.659
	c-0.18-0.181-0.36-0.24-0.54-0.24c-0.24,0-0.42,0.06-0.54,0.24c-0.18,0.18-0.24,0.36-0.24,0.659H35.543z M35.483,60.645l1.02,0.181
	c-0.12,0.359-0.3,0.659-0.6,0.84c-0.3,0.18-0.66,0.24-1.08,0.24c-0.66,0-1.14-0.181-1.44-0.601c-0.24-0.36-0.36-0.78-0.36-1.32
	c0-0.659,0.18-1.14,0.48-1.5c0.3-0.36,0.72-0.54,1.26-0.54s1.02,0.18,1.32,0.6c0.3,0.361,0.48,0.9,0.48,1.681h-2.52
	c0,0.3,0.06,0.54,0.24,0.72c0.18,0.18,0.36,0.24,0.6,0.24c0.18,0,0.3-0.061,0.36-0.12C35.363,61.005,35.423,60.826,35.483,60.645z
	 M32.243,58.065v3.66c0,0.479,0,0.84-0.06,1.021c-0.06,0.18-0.24,0.359-0.42,0.479c-0.18,0.12-0.36,0.181-0.66,0.181
	c-0.06,0-0.18,0-0.3-0.061c-0.12,0-0.24,0-0.42-0.061l0.18-0.84h0.24c0.12,0,0.24,0,0.3-0.06l0.12-0.181c0-0.06,0-0.239,0-0.539
	v-3.601H32.243z M32.243,57.525h-1.02v-0.9h1.02V57.525z M27.623,59.925c0,0.42,0.06,0.72,0.24,0.9c0.18,0.18,0.42,0.299,0.66,0.299
	c0.3,0,0.48-0.119,0.66-0.299c0.18-0.181,0.3-0.48,0.3-0.9c0-0.36-0.12-0.66-0.3-0.84c-0.18-0.18-0.36-0.301-0.66-0.301
	c-0.24,0-0.48,0.121-0.66,0.301S27.623,59.565,27.623,59.925z M26.603,59.925c0-0.36,0.06-0.721,0.24-1.02
	c0.18-0.301,0.42-0.48,0.72-0.66c0.3-0.181,0.6-0.301,0.96-0.301c0.6,0,1.08,0.18,1.44,0.601c0.36,0.36,0.54,0.84,0.54,1.38
	c0,0.6-0.18,1.08-0.54,1.439c-0.36,0.36-0.84,0.541-1.38,0.541c-0.36,0-0.72-0.061-1.02-0.181c-0.3-0.18-0.54-0.42-0.72-0.72
	C26.663,60.705,26.603,60.345,26.603,59.925z M24.923,61.845h-1.02v-3.78h0.96v0.54c0.18-0.3,0.3-0.48,0.42-0.54l0.42-0.12
	c0.24,0,0.48,0.061,0.66,0.24l-0.3,0.84l-0.48-0.18c-0.18,0-0.3,0.061-0.36,0.12l-0.24,0.42c-0.06,0.18-0.06,0.66-0.06,1.319V61.845
	z M20.123,57.525v1.44h0.6c0.42,0,0.66,0,0.84-0.06c0.18-0.061,0.3-0.121,0.36-0.24c0.06-0.121,0.06-0.24,0.06-0.42
	c0-0.181-0.06-0.36-0.12-0.48c-0.12-0.12-0.24-0.18-0.42-0.24c-0.18,0-0.42,0-0.78,0H20.123z M19.103,61.845v-5.221h1.68
	c0.66,0,1.08,0,1.26,0.061c0.3,0.061,0.6,0.24,0.78,0.54c0.18,0.24,0.3,0.601,0.3,1.021c0,0.3-0.06,0.6-0.18,0.779
	c-0.12,0.24-0.3,0.42-0.48,0.54c-0.18,0.12-0.36,0.181-0.54,0.24c-0.24,0.06-0.6,0.06-1.08,0.06h-0.72v1.98H19.103z"/>
<path fill="#06554F" d="M52.343,42.045v-2.88h-37.86v3h0.06v0.06h37.68v-0.18H52.343 M32.123,39.945l2.4,0.061h0.3l0.06,0.06v0.06
	h0.06c0.06,0.061,0.06,0.061,0.06,0.061l0.06,0.061v0.06h0.12v0.181l0.06,0.06h0.06v0.3c0,0.061,0,0.061-0.06,0.061
	c0,0.06,0,0.06-0.06,0.06v0.12l-0.12,0.06v0.06h-0.06c0,0.061,0,0.061-0.06,0.061c0,0.061,0,0.061-0.06,0.061v0.06
	c0,0.06,0,0.06-0.06,0.06h-0.12c-0.9,0-1.8,0-2.7,0h-0.06c0,0,0,0-0.06-0.06v-0.06h-0.12l-0.12-0.121h-0.06v-0.18h-0.06l-0.06-0.06
	v-0.181c0,0,0,0-0.06-0.06v-0.18h0.06v-0.24h0.12v-0.12h0.06v-0.061h0.12v-0.119h0.36V39.945z M37.883,43.725h-9.12l0.06,0.12
	c0.06,0.779,0,1.439-0.12,2.1v0.18c0,0.181,0,0.36,0,0.541v0.24l-0.06,0.06v0.479l-0.06,0.061h-0.06v0.3l-0.06,0.06v0.301
	c0,0.06,0,0.06-0.06,0.06c0,0.06,0,0.06-0.06,0.06v0.181l-0.06,0.06h-0.06v0.36l-0.06,0.06v0.12h-0.12v0.3h-0.06v0.24l-0.12,0.061
	v0.06l-0.06,0.12v0.24h11.16v-0.061l-0.061-0.06v-0.24h-0.06l-0.06-0.06v-0.12h-0.061v-0.3h-0.061l-0.059-0.061v-0.18
	c0,0,0,0-0.061-0.061v-0.24h-0.12v-0.239l-0.12-0.12v-0.18h-0.061v-0.12c0.027-0.614-0.09-0.026-0.06-0.72v-0.061l-0.12-0.061
	v-0.539h-0.119v-0.061c0-0.24,0-0.48,0-0.72v-2.16H37.883z M23.963,33.705h0.12v-0.06h0.18v-0.12h12.78l0.06,0.061v0.06h0.18v0.06
	l0.12,0.061v0.061l0.061,0.06h0.061v0.239h0.06v0.24h-0.06v0.181c0,0.06,0,0.06-0.061,0.06c0,0.061,0,0.061-0.061,0.061v0.06
	l-0.12,0.06v0.061h-0.18v0.061h-0.06c-4.24,0-8.48,0-12.72,0h-0.06v-0.061h-0.18v-0.061l-0.12-0.119v-0.12h-0.06l-0.06-0.06v-0.601
	h0.12V33.705z M24.323,30.585v-0.12h12.6l0.12,0.06v0.06h0.18v0.06h0.06l0.12,0.06v0.18h0.061l0.061,0.06v0.18
	c0.119,0,0.119,0.06,0,0.18v0.18l-0.061,0.12h-0.061v0.06h-0.12v0.12h-0.06v0.06l-0.12,0.06h-0.06v0.06h-12.66l-0.06-0.06h-0.06
	l-0.06-0.06v-0.06h-0.12v-0.12h-0.06l-0.06-0.06v-0.12h-0.06l-0.06-0.06v-0.54h0.12v-0.12h0.12v-0.12h0.12v-0.06H24.323z
	 M24.323,27.525h0.18v-0.12l12.3,0.06v0.06h0.3l0.12,0.06v0.06h0.06v0.06h0.12v0.12h0.061c0.061,0.06,0.061,0.06,0.061,0.06v0.18
	l0.06,0.06v0.18l-0.06,0.06v0.12c0,0.06,0,0.06-0.061,0.06h-0.061v0.18h-0.12v0.06c0,0.06,0,0.06-0.06,0.06h-0.12v0.06h-0.06
	c-4.24,0-8.48,0-12.72,0h-0.06v-0.06l-0.06-0.06v-0.06h-0.12v-0.12h-0.06l-0.06-0.06h-0.06l-0.06-0.06v-0.6h0.12v-0.18h0.12v-0.06
	h0.18v-0.12H24.323z M23.843,24.885h0.12v-0.12h0.12v-0.12h0.12v-0.06h0.06v-0.12h0.06c4.24,0,8.48,0,12.72,0h0.06v0.12h0.18v0.06
	l0.12,0.06v0.18h0.061l0.061,0.06v0.18c0.119,0,0.119,0.06,0,0.18v0.18c0,0.061,0,0.061-0.061,0.061c0,0.06,0,0.06-0.061,0.06v0.06
	h-0.12v0.06c0,0.06,0,0.06-0.06,0.06v0.06h-0.18v0.06l-0.12,0.06h-12.42c0,0,0,0-0.06-0.06v-0.06h-0.24v-0.06l-0.12-0.06v-0.06
	h-0.06l-0.06-0.06v-0.12h-0.06l-0.06-0.12c0-0.14,0-0.28,0-0.42V24.885z M17.543,21.705h3.06v16.02h-3.06V21.705z M20.543,18.825h-6
	v0.06l-0.06,0.06v18.78h1.56v-16.32h0.06v-0.24h0.12v-0.24h0.06v-0.18h0.12v-0.06h0.06v-0.12h0.12v-0.12h0.3v-0.12h0.24v-0.12h0.12
	c1.1,0,2.2,0,3.3,0h0.06v-1.38H20.543z M33.443,21.645v0.18h0.06v0.12l0.06,0.06v0.42h-0.06v0.18h-0.06v0.06l-0.12,0.06v0.06h-0.18
	v0.06l-0.06,0.06h-8.76c0,0,0,0-0.06-0.06v-0.06h-0.06v-0.06l-0.12-0.06v-0.06h-0.06l-0.06-0.06h-0.06l-0.06-0.12
	c0-0.16,0-0.32,0-0.48v-0.06h0.12v-0.18h0.12v-0.12h0.12v-0.06h0.24v-0.12h8.58l0.06,0.12h0.12c0.06,0.06,0.06,0.06,0.06,0.06h0.06
	L33.443,21.645z M30.743,18.465h-6.48v0.06h-0.06v0.12h-0.12v0.06h-0.12v0.12h-0.12v0.12c0,0.14,0,0.28,0,0.42l0.06,0.12h0.06v0.06
	l0.12,0.12v0.06h0.12v0.12h0.24v0.06c0.06,0.06,0.06,0.06,0.06,0.06h6.24c0.06,0,0.06,0,0.06-0.06v-0.06h0.24l0.06-0.12h0.06
	c0.06,0,0.06,0,0.06-0.06l0.06-0.06v-0.06h0.12v-0.24h0.06v-0.18h-0.06v-0.3h-0.12v-0.18h-0.06l-0.12-0.12h-0.06c0,0,0,0-0.06-0.06
	H30.743z M39.563,33.645v0.06h-0.119v0.181h-0.061v0.3h-0.12v3.54h-17.16v-21.84l0.12-0.06v-0.06h9.72v0.06
	c0.06,0.06,0.06,0.06,0.06,0.06v0.06l0.06,0.06l0.06,0.06l0.06,0.06h0.06v0.06l0.06,0.06l0.06,0.06l0.06,0.06
	c0.06,0.06,0.06,0.06,0.06,0.06l0.06,0.06h0.06v0.12h0.06v0.06h0.12l0.06,0.12h0.12v0.06c0,0.06,0.06,0.06,0.12,0.06v0.06h0.06v0.12
	h0.12v0.06h0.18v0.06h0.06l0.06,0.12v0.06h0.18v0.06h0.06v0.06h0.18l0.06,0.06v0.06l0.06,0.06h0.18v0.12h0.06l0.06,0.06h0.06v0.18
	l0.12,0.12h0.06v0.18h0.06v0.12l0.06,0.06h0.06v0.06c0.06,0.06,0.06,0.06,0.06,0.06v0.06l0.06,0.12h0.06v0.18h0.06l0.06,0.06
	l0.06,0.06v0.18h0.12v0.18h0.06v0.06h0.12v0.18h0.06v0.12l0.12,0.12v0.12l0.12,0.12h0.06v0.18c0.06,0.06,0.06,0.06,0.06,0.06v0.12
	h0.12l0.06,0.12v0.06l0.06,0.12h0.06v0.18h0.12v0.06c0.06,0.06,0.06,0.06,0.06,0.06v0.18h0.12v0.12l0.06,0.06v0.06h0.12v0.06
	l0.12,0.06v0.12l0.06,0.06h0.18v0.06h0.18v0.12h0.06c0.22,0,0.44,0,0.661,0h0.06l0.06-0.12h0.18v-0.06h0.181v-0.06
	c0.06,0,0.06,0,0.06-0.06c0.061,0,0.061,0,0.061-0.06c0.061,0,0.061,0,0.061-0.06v-0.06h0.059c0.061,0,0.061,0,0.061-0.06
	l0.061-0.06v-0.12h0.06l0.06-0.12h0.061v-0.18h0.12v-0.18h0.06v-0.18h0.12l0.06,10.32h0.061v0.36l0.061,0.06v0.06h0.119v0.061
	l0.18,0.12h0.061v0.06l0.24,0.06h0.119v-0.12h0.121c0.119-0.06,0.18-0.12,0.24-0.12h0.06v-0.061h0.06v-0.18h0.061
	c0.06,0,0.06,0,0.06-0.06v-9.54h8.399v0.06l0.121,0.06v4.62h-6.78v0.06h-0.12v0.12h-0.061v0.06h-0.119v0.06h-0.061v0.12
	c0,0.18,0,0.36,0,0.54v0.12h0.061v0.06l0.119,0.06c0.061,0.06,0.061,0.06,0.061,0.06l0.12,0.12h0.18v0.06h6.601v9.84h-8.521v-3.72
	l-0.06-0.061l-0.061-0.06v-0.12l-0.06-0.061l-0.06-0.06h-0.181v-0.06c-0.12,0.06-0.36,0.06-0.66,0.06H39.563z M26.303,7.065h0.06
	v0.12h0.36c0.06,0.06,0.06,0.06,0.06,0.06h0.12l0.06,0.12h0.12c0.06,0.06,0.06,0.06,0.06,0.06l0.06,0.06v0.061h0.06l0.12,0.12v0.06
	h0.12v0.18h0.06v0.18l0.12,0.06v0.3h0.06l0.06,0.12v3.84l-0.06,0.12h-0.06v0.24c0,0.06-0.06,0.06-0.12,0.06v0.06h-0.06v0.12h-0.12
	v0.06h-0.18v0.12h-0.42v-0.12h-0.18v-0.06h-0.06l-0.06-0.12h-0.12v-0.06c0,0,0,0-0.06-0.06v-0.06c0-1.36,0-2.72,0-4.08v-0.06h-2.88
	l-0.06-0.06v-0.06h-0.18l-0.06-0.06h-0.06v-0.12h-0.06l-0.06-0.06v-0.24h-0.06v-0.24h0.06v-0.3h0.12v-0.06h0.06v-0.12h0.12v-0.06
	h0.36v-0.12H26.303z M20.303,7.065v0.06c0.06,0.06,0.06,0.06,0.06,0.06v0.06h0.12v0.06l0.06,0.06v0.18l0.06,0.06v0.48h-0.06v0.18
	h-0.06v0.18h-0.12v0.12h-0.18v0.06h-0.18v0.12h-0.48l-0.06-0.06v-0.06h-0.12v-0.06h-0.06l-0.06-0.12h-0.06v-0.06h-0.12v-0.12h-0.06
	v-0.12l-0.12-0.06v-0.48h0.12v-0.18h0.06v-0.18h0.12v-0.06h0.12c0.06,0,0.06,0,0.06-0.06v-0.06h0.12l0.06-0.06h0.48v0.06H20.303z
	 M20.543,5.625l-0.06-0.06h-0.3v-0.06h-0.12c-0.2,0-0.4,0-0.6,0h-0.12v0.06h-0.36v0.12h-0.18v0.12h-0.24v0.06h-0.12v0.12h-0.12
	v0.061h-0.06v0.06h-0.12v0.12h-0.06v0.12h-0.12v0.06h-0.12v0.12h-0.06v0.18h-0.12v0.18h-0.06v0.3h-0.06v0.36h-0.12v0.54h0.12v0.42
	l0.06,0.06v0.24l0.06,0.06v0.06l0.06,0.06h0.06v0.12h0.06v0.06l0.06,0.12h0.06l0.12,0.12v0.06h0.06v0.12h0.12v0.06h0.06l0.06,0.12
	h0.12v0.06c0.06,0.06,0.06,0.06,0.06,0.06h0.06l0.12,0.06h0.06v0.06c0.06,0.06,0.06,0.06,0.06,0.06h0.18l0.06,0.06h0.42l0.06,0.06
	l0.06,0.06h0.24l0.12-0.06v-0.06h0.48v-0.06h0.12l0.12-0.06c0.06,0,0.06,0,0.06-0.06h0.06c0.06,0,0.06,0,0.06-0.06h0.12
	c0.06,0,0.06,0,0.06-0.06v-0.06h0.12v-0.12h0.06v-0.06h0.12v-0.12h0.06l0.06-0.06v-0.06c0.06,0,0.06,0,0.06-0.06h0.12v-0.12h0.06
	v-0.18h0.06c0.06,0,0.06,0,0.06-0.06v-0.06c0.06,0,0.06,0,0.06-0.06c0.06,0,0.06,0,0.06-0.06v-0.12l0.06-0.06v-0.36
	c0.06,0,0.06,0,0.06-0.06v-0.18c0-0.16,0-0.32,0-0.48l-0.06-0.06v-0.24l-0.06-0.12v-0.06l-0.12-0.12v-0.12c0,0,0,0-0.06-0.06h-0.06
	v-0.18h-0.06v-0.06l-0.12-0.06l-0.06-0.06v-0.12l-0.12-0.12h-0.12l-0.06-0.06V5.985h-0.12v-0.12h-0.12l-0.06-0.06h-0.12l-0.06-0.12
	h-0.18V5.625z M37.103,7.065h0.12c0.28,0,0.561,0,0.84,0h0.061l0.06,0.12h0.479c0.061,0.06,0.061,0.06,0.061,0.06h0.24v0.12h0.24
	c0.06,0.06,0.06,0.06,0.06,0.06h0.12l0.061,0.06v0.061h0.119l0.12,0.12l0.06,0.06h0.121v0.12h0.119l0.061,0.06h0.119v0.06
	l0.121,0.06v0.06l0.06,0.06v0.06h0.12v0.06h0.061l0.06,0.12h0.06v0.06h0.061l0.06,0.12l0.06,0.06l0.121,0.06v0.06h0.06v0.18h0.06
	c0.061,0.06,0.061,0.06,0.061,0.06l0.06,0.06l0.06,0.06v0.12c0.061,0.06,0.061,0.06,0.061,0.06v0.12h0.061v0.18h0.119v0.18h0.061
	l0.061,0.12v0.18h0.059v0.36h0.061c0.061,0.06,0.061,0.06,0.061,0.06v0.12c0,0.16,0,0.32,0,0.48v0.06h0.06v0.18l-0.06,0.12v0.72
	l-0.061,0.12h-0.061v0.24h-0.059v0.18c0,0.06,0,0.06-0.061,0.06c0,0.06,0,0.06-0.061,0.06v0.24h-0.119v0.18h-0.061
	c0,0.06,0,0.06-0.061,0.06v0.18l-0.06,0.061h-0.06v0.12c0,0.06,0,0.06-0.061,0.06h-0.06v0.06l-0.06,0.06v0.06h-0.121v0.12
	c0,0.06,0,0.06-0.06,0.06v0.06h-0.06c0,0.06,0,0.06-0.061,0.06v0.06h-0.06l-0.06,0.12h-0.061v0.06h-0.12v0.12h-0.181v0.06
	c0,0.06,0,0.06-0.059,0.06l-0.061,0.06c0,0.06,0,0.06-0.061,0.06c0,0.06-0.06,0.06-0.119,0.06h-0.061v0.06h-0.18l-0.061,0.12
	c0,0.06,0,0.06-0.06,0.06h-0.24c0,0.06,0,0.06-0.06,0.06c0,0.06,0,0.06-0.061,0.06h-0.06v0.06l-0.12,0.06
	c-0.449-0.021,0.029,0.081-0.42,0.06h-0.12v0.06h-0.12c-0.46,0-0.92,0-1.38,0h-0.12v-0.06h-0.3l-0.12-0.06h-0.18l-0.12-0.12h-0.18
	c0,0,0,0-0.06-0.06v-0.06h-0.18v-0.06h-0.18v-0.12h-0.12v-0.06h-0.06l-0.12-0.06v-0.06h-0.06l-0.06-0.06h-0.06l-0.06-0.06
	l-0.06-0.06h-0.06v-0.12h-0.06l-0.06-0.06h-0.06v-0.12h-0.06l-0.3-0.3v-0.12l-0.12-0.06v-0.06h-0.06l-0.06-0.06v-0.06l-0.06-0.06
	v-0.06l-0.12-0.12v-0.12h-0.06v-0.18h-0.06v-0.18h-0.12l-0.06-0.06v-0.24l-0.06-0.06v-0.18h-0.06v-0.54h-0.06l-0.06-0.12
	c0-0.28,0-0.56,0-0.84v-0.06h0.12v-0.3h0.06v-0.06h0.06v-0.12h0.18v-0.06h0.12v-0.12h0.12l0.24,0.06l0.06,0.06h0.24v0.06l0.06,0.06
	l0.06,0.06h0.06v0.18h0.06l0.06,0.06c0,0.22,0,0.44,0,0.66v0.36l0.06,0.06v0.42h0.06l0.06,0.12v0.06h0.06v0.18l0.12,0.06v0.12
	l0.12,0.12v0.06l0.06,0.06v0.06h0.06l0.06,0.06l0.06,0.06v0.06l0.12,0.06l0.06,0.06v0.06h0.12v0.12h0.06v0.06h0.06l0.06,0.12h0.18
	v0.06h0.12l0.06,0.06v0.06h0.18v0.06h0.24v0.12h0.12c0.42,0,0.84,0,1.26,0h0.06v-0.12h0.301v-0.06h0.24v-0.12h0.18v-0.06h0.12v-0.12
	h0.18v-0.061h0.12v-0.12h0.061v-0.12h0.119v-0.06h0.061v-0.12h0.119v-0.06h0.061v-0.18h0.061v-0.12h0.18v-0.18h0.061v-0.18h0.059
	v-0.24h0.121v-0.48h0.06v-0.54c0,0,0,0-0.06-0.06v-0.42l-0.121-0.06v-0.24h-0.059v-0.24l-0.061-0.06v-0.06l-0.12-0.06h-0.06v-0.12
	h-0.061v-0.12h-0.061v-0.18h-0.06l-0.12-0.12v-0.06h-0.119v-0.12h-0.181v-0.06h-0.06l-0.061-0.12h-0.06v-0.06h-0.12l-0.061-0.06
	h-0.119l-0.061-0.06v-0.06h-0.3v-0.12h-0.24v-0.06h-0.12c-0.32,0-0.64,0-0.959,0h-0.06v0.06h-0.24l-0.06,0.12h-0.24
	c0,0.06,0,0.06-0.06,0.06c0,0.06,0,0.06-0.06,0.06h-0.12c0,0.06,0,0.06-0.06,0.06h-0.18c0,0.06,0,0.06-0.06,0.06h-0.3v-0.06h-0.12
	l-0.06-0.06l-0.12-0.06v-0.06h-0.06v-0.12h-0.12v-0.24h-0.06l-0.06-0.18h0.12v-0.3h0.12v-0.18h0.06v-0.12h0.18v-0.06h0.18v-0.12
	h0.18v-0.06h0.3v-0.12h0.3v-0.06h0.42v-0.12H37.103z M36.923,5.565h0.18c0.379,0,0.76,0,1.139,0h0.361l0.059,0.06l0.061,0.06h0.24
	l0.061,0.06l0.06,0.06h0.3v0.06h0.24l0.06,0.06l0.06,0.06h0.061v0.061h0.24v0.06h0.119v0.12h0.181l0.06,0.12h0.181v0.06h0.18v0.12
	h0.06l0.061,0.06h0.12l0.12,0.12v0.06h0.119v0.12h0.061v0.12h0.061l0.06,0.06h0.181v0.06l0.059,0.06v0.06h0.121v0.06l0.06,0.06v0.06
	l0.12,0.12v0.06h0.061l0.06,0.12h0.06v0.06l0.061,0.06v0.12h0.119v0.12h0.061v0.12l0.061,0.06h0.06l0.06,0.12v0.06l0.12,0.12v0.18
	h0.12v0.12l0.061,0.06v0.18h0.119v0.24c0.061,0.06,0.061,0.06,0.061,0.06v0.18l0.061,0.06v0.3l0.119,0.12v0.36l0.061,0.06h0.06v0.12
	c0,0.46,0,0.92,0,1.38v0.12h-0.12v0.54h-0.119v0.24h-0.061v0.3h-0.061v0.3h-0.119v0.18h-0.061v0.18h-0.12v0.18h-0.12v0.18h-0.06
	v0.18h-0.12v0.06h-0.061v0.24h-0.119v0.06h-0.061v0.12h-0.119v0.18h-0.061v0.06h-0.12v0.12h-0.06v0.12h-0.121v0.06h-0.059v0.06
	h-0.121v0.12h-0.119v0.06h-0.061v0.12h-0.18v0.12h-0.12v0.06h-0.06v0.12h-0.181v0.06h-0.12v0.12h-0.18v0.06h-0.12v0.12h-0.181v0.06
	h-0.059v0.12h-0.061v0.06h-0.18v0.12h-0.061v0.12h-0.061v0.06h-0.119v0.18h-0.061v0.06h-0.119v0.24h-0.061v0.06h-0.12v0.18h-0.12
	v0.18h-0.06v0.24h-0.12v0.06h-0.061v0.18h-0.119v0.18h-0.061v0.18h-0.119v0.12h-0.061v0.18h-0.12v0.18h-0.12v0.18h-0.061v0.12h-0.06
	v0.18h-0.12v0.18h-0.119v0.18h-0.061v0.12h-0.12v0.18h-0.06v0.12h-0.12v-0.12h-0.06v-0.12l-0.061-0.06h-0.061v-0.12h-0.12v-0.12
	l-0.06-0.06v-0.18h-0.12v-0.12h-0.06v-0.12l-0.12-0.06v-0.12l-0.12-0.06v-0.18c0,0,0,0-0.06-0.06h-0.06v-0.18l-0.12-0.06v-0.12
	l-0.06-0.06c0,0,0,0-0.06-0.06h-0.06v-0.18h-0.06v-0.12l-0.06-0.06h-0.06v-0.06l-0.12-0.061v-0.18h-0.06v-0.12h-0.06l-0.06-0.06
	v-0.06l-0.06-0.06v-0.12h-0.12v-0.18l-0.06-0.06v-0.06h-0.12v-0.12h-0.06c0,0,0,0-0.06-0.06h-0.06v-0.12h-0.06l-0.12-0.12v-0.06
	h-0.12v-0.06l-0.06-0.061h-0.06l-0.06-0.06h-0.06l-0.06-0.06l-0.06-0.06v-0.06h-0.18v-0.06l-0.06-0.06h-0.12v-0.06h-0.06l-0.06-0.06
	l-0.06-0.06v-0.06h-0.18v-0.12h-0.12v-0.06l-0.12-0.12c0,0,0,0-0.06-0.06l-0.12-0.06v-0.06h-0.06v-0.06h-0.06v-0.12h-0.12v-0.06
	l-0.06-0.06c0,0,0,0-0.06-0.06h-0.06v-0.061l-0.06-0.06v-0.06l-0.06-0.12h-0.06v-0.06h-0.12v-0.06l-0.06-0.06v-0.12l-0.12-0.06
	v-0.06l-0.06-0.06v-0.06l-0.06-0.06h-0.06v-0.18l-0.12-0.06v-0.12l-0.06-0.06v-0.18h-0.06v-0.18l-0.06-0.06l-0.06-0.06v-0.24h-0.12
	v-0.24l-0.06-0.06v-0.42h-0.06v-0.12c0-0.56,0-1.12,0-1.68v-0.06c0.06,0,0.06,0,0.06-0.06v-0.42c0.06,0,0.06,0,0.06-0.06v-0.3h0.12
	v-0.3h0.06c0.06,0,0.06-0.06,0.06-0.12v-0.06h0.06v-0.18c0.06,0,0.06,0,0.06-0.06v-0.24h0.12v-0.06c0.06,0,0.06,0,0.06-0.06
	c0.06,0,0.06,0,0.06-0.06v-0.06h0.06v-0.18l0.12-0.06v-0.06h0.06v-0.18h0.12v-0.06l0.06-0.06c0.06,0,0.06,0,0.06-0.06h0.06v-0.12
	h0.06l0.06-0.06v-0.12h0.06v-0.06l0.12-0.06v-0.06h0.06v-0.06c0.06,0,0.06,0,0.06-0.06v-0.06h0.12l0.06-0.06h0.06v-0.12h0.18v-0.12
	h0.06v-0.06l0.12-0.06v-0.06h0.18v-0.06h0.06l0.06-0.12h0.12l0.06-0.06h0.06v-0.12h0.18v-0.12h0.18v-0.06h0.18
	c0.06,0,0.06,0,0.06-0.061h0.18l0.06-0.06v-0.06h0.3v-0.06h0.18c0.06,0,0.06,0,0.06-0.06v-0.06h0.42l0.06-0.06v-0.06H36.923z
	 M50.662,27.885h1.681v9.84h-1.681V27.885z M58.643,26.445l0.061,0.06v0.18h0.119v0.06h0.061v0.12c0,0.16,0,0.32,0,0.48v0.06h-0.061
	v0.24h-0.119v0.06h-0.12v0.12h-0.06v0.06h-0.181v0.12h-0.54l-0.061-0.06l-0.06-0.06h-0.12v-0.06h-0.18v-0.18h-0.061l-0.119-0.12
	v-0.78h0.06c0.06,0,0.06,0,0.06-0.06v-0.06c0.061,0,0.061,0,0.061-0.06v-0.06c0.061,0,0.061,0,0.061-0.06h0.119l0.12-0.06v-0.06
	h0.181c0.06,0,0.06,0,0.06-0.06v-0.06h0.181l0.119,0.12h0.18v0.06l0.121,0.06H58.643z M52.162,18.885l-0.059-0.06H40.763v1.38h8.341
	c0.139,0,0.279,0,0.42,0h0.06l0.06,0.12h0.12l0.06,0.12h0.181l0.06,0.06v0.06l0.12,0.06v0.06h0.06v0.06l0.061,0.06l0.061,0.06h0.06
	c0.06,0.06,0.06,0.06,0.06,0.06v0.12h0.061v0.18l0.119,0.12v5.1h1.681v-7.44h-0.12v-0.06L52.162,18.885z M53.242,17.865l0.061,0.06
	v0.06l0.12,0.061v0.06h0.06l0.061,0.06v0.12h0.061v0.24l0.119,0.12v7.8h0.48l0.06,0.06h0.181v0.12h0.06
	c0.06,0.06,0.06,0.06,0.06,0.06v0.06h0.061c0.209,0.159,0.094,0.215,0.119,0.48v0.12c0,0.06,0,0.06-0.06,0.06h-0.06v0.12
	c0,0.06,0,0.06-0.061,0.06v0.06h-0.06c0,0.06,0,0.06-0.06,0.06v0.06l-0.061,0.06h-0.24v0.06h-0.42v14.64
	c0,0.061,0,0.061-0.061,0.061c0,0.06,0,0.06-0.059,0.06v0.12h-0.061v0.12c0,0.06,0,0.06-0.061,0.06c0,0.061,0,0.061-0.06,0.061v0.06
	h-0.12v0.06l-0.061,0.061v0.061h-0.119v0.119h-0.061l-0.06,0.061c0,0.061,0,0.061-0.06,0.061c0,0.06,0,0.06-0.061,0.06h-0.12v0.06
	h-0.239c0,0.061,0,0.061-0.061,0.061c0,0.06,0,0.06-0.061,0.06H39.443v2.22c0,0.221,0,0.44,0,0.66v0.061l0.119,0.119v0.48
	l0.061,0.061v0.299h0.06l0.06,0.121v0.24h0.061v0.299h0.061v0.24l0.119,0.061l0.061,0.06v0.181l0.061,0.119v0.12l0.059,0.06v0.121
	l0.121,0.06v0.181h0.06v0.239l0.12,0.06v0.121l0.061,0.06l0.06,0.06v0.061h2.1l0.06,0.06l0.061,0.06
	c0.061,0.061,0.061,0.061,0.061,0.061l0.119,0.12h0.061v0.18h0.061v0.421c0,0.06,0,0.06-0.061,0.06v0.12c0,0.06,0,0.06-0.061,0.06
	c0,0.06,0,0.06-0.06,0.06h-0.06l-0.061,0.121v0.06h-0.12c-6.2,0-12.4,0-18.6,0h-0.12v-0.06h-0.12l-0.06-0.121h-0.06v-0.119
	l-0.12-0.061v-0.06c0-0.16,0-0.32,0-0.48v-0.06h0.12v-0.24h0.06v-0.061h0.18v-0.119h2.16v-0.18h0.12v-0.181h0.06v-0.18h0.06v-0.181
	h0.12v-0.3h0.12v-0.12h0.06v-0.3h0.12v-0.3h0.06v-0.3h0.12v-0.24h0.12v-0.479h0.06v-0.48h0.06v-0.061c0-0.18,0-0.359,0-0.539v-0.121
	h0.12v-2.399h-12.96l-0.12-0.12h-0.24v-0.06h-0.12c0,0,0,0-0.06-0.061h-0.12l-0.06-0.06v-0.061h-0.06l-0.06-0.119h-0.12v-0.061
	c0,0,0,0-0.06-0.061v-0.06h-0.06l-0.06-0.06v-0.12h-0.06v-0.181h-0.06l-0.06-0.06v-0.239h-0.06v-0.061c0-7.88,0-15.76,0-23.64v-0.06
	h0.06v-0.3h0.12v-0.18h0.06v-0.18h0.12v-0.12h0.06v-0.06h0.12v-0.12h0.18v-0.06h0.06v-0.12h0.24v-0.06h0.36v-0.06h6.24v-1.8h0.18
	v-0.24h0.06v-0.24h0.12v-0.06h0.06v-0.18h0.06v-0.12h0.12v-0.06h0.06v-0.12h0.24v-0.12h0.18v-0.06h0.18v-0.12h0.12
	c2.98,0,5.96,0,8.94,0h0.12v-0.06l-0.06-0.06h-0.06v-0.12l-0.12-0.12v-0.12l-0.06-0.06v-0.18h-0.06l-0.06-0.061v-0.3h-0.06v-0.36
	l-0.06-0.06v-0.42h-0.12v-0.06c0-0.62,0-1.24,0-1.86v-0.12h0.12v-0.54h0.06v-0.36h0.06v-0.3h0.12v-0.24h0.06v-0.3h0.12v-0.18h0.12
	v-0.18h0.06v-0.24h0.12v-0.12h0.06v-0.24h0.12v-0.18h0.06v-0.06h0.12v-0.18h0.06v-0.12h0.12v-0.06h0.12v-0.24h0.06v-0.06h0.06v-0.12
	h0.12v-0.06h0.12v-0.12h0.06v-0.06h0.06v-0.12h0.12v-0.12h0.12v-0.06h0.06V5.985h0.12v-0.12h0.06v-0.06h0.12v-0.12h0.12v-0.12h0.18
	v-0.06h0.06v-0.12h0.12v-0.06h0.12v-0.12h0.18v-0.06h0.12v-0.06h0.18v-0.18h0.24v-0.06h0.18v-0.12h0.18v-0.06h0.18v-0.06h0.18v-0.12
	h0.3v-0.12h0.24v-0.06h0.36v-0.12h0.6v-0.06h0.06c0.68,0,1.36,0,2.041,0h0.119v0.06h0.36l0.06,0.06v0.06h0.36l0.06,0.06h0.24
	l0.061,0.06v0.06h0.18l0.061,0.12h0.239v0.06h0.181c0.06,0.06,0.06,0.06,0.06,0.06h0.06l0.12,0.12h0.06l0.121,0.06h0.06l0.06,0.06
	c0.061,0,0.061,0.06,0.061,0.12h0.119l0.061,0.06h0.061v0.06h0.18l0.061,0.12h0.06v0.06h0.12l0.06,0.06v0.06h0.06
	c0.061,0.06,0.061,0.06,0.061,0.06h0.061l0.06,0.06l0.06,0.06h0.061v0.12h0.06l0.06,0.06h0.061v0.12h0.12v0.06l0.06,0.06l0.12,0.06
	v0.06c0.101,0.1,0.2,0.2,0.3,0.3h0.061v0.06l0.061,0.06v0.06h0.119v0.18l0.12,0.12h0.06v0.06h0.121v0.18h0.06v0.12h0.12v0.18h0.06
	v0.06l0.12,0.06v0.18h0.061l0.06,0.06v0.12l0.06,0.06v0.12h0.061l0.06,0.06v0.12h0.06v0.24l0.061,0.06l0.061,0.06v0.12h0.06v0.24
	h0.06c0.061,0.06,0.061,0.06,0.061,0.06v0.3h0.061v0.42h0.059l0.061,0.06v0.54h0.061l0.06,0.12c0,0.42,0,0.84,0,1.26v0.12
	c0,0.06,0,0.06-0.06,0.06c0,0.06,0,0.06-0.061,0.06v0.54c0,0.06,0,0.06-0.061,0.06h-0.059v0.36h-0.061v0.3c0,0.06,0,0.06-0.061,0.06
	c0,0.06,0,0.06-0.06,0.06v0.24h-0.06v0.12l-0.061,0.06h-0.061v0.24c0,0.06,0,0.06-0.06,0.06v0.06l-0.06,0.12h-0.061v0.06l-0.06,0.12
	v0.12l-0.06,0.06h-0.061v0.18h-0.12v0.12h-0.06v0.12l-0.12,0.06v0.12l-0.06,0.06v0.06h-0.121v0.12h-0.06v0.06l-0.06,0.12h-0.061
	v0.06l-0.119,0.06v0.06h-0.061v0.06c0,0.06,0,0.06-0.061,0.06l-0.06,0.06h-0.06v0.12c0,0.06,0,0.06-0.061,0.06
	c0,0.06,0,0.06-0.061,0.06c0,0.06,0,0.06-0.06,0.06v0.06h-0.12v0.12h-0.18v0.06h-0.061l-0.06,0.12h-0.06v0.06l-0.061,0.06
	c0,0.06,0,0.06-0.06,0.06h-0.06v0.12h-0.181v0.06h-0.06c0,0.06,0,0.06-0.061,0.06h-0.061v0.18h10.381
	c0.645-0.025,0.072,0.081,0.54,0.06h0.06v0.06h0.12l0.06,0.06l0.061,0.06h0.061l0.06,0.06h0.06l0.061,0.06v0.06h0.119V17.865z
	 M59.723,25.545v0.06h0.061l0.06,0.06v0.06l0.06,0.06h0.061v0.18h0.12v0.18l0.06,0.06h0.061v0.12h0.06v0.3h0.12v0.06
	c0,0.28,0,0.56,0,0.84v0.12h-0.12v0.3l-0.06,0.06v0.06c0,0.06,0,0.06-0.061,0.06c0,0.06,0,0.06-0.06,0.06v0.12l-0.12,0.06v0.06
	c0,0.06,0,0.06-0.061,0.06v0.06c0,0.06,0,0.06-0.06,0.06l-0.06,0.12h-0.061v0.06l-0.119,0.06v0.06h-0.061v0.06l-0.12,0.06h-0.06
	c0,0.06,0,0.06-0.061,0.06h-0.061v0.06c0,0.06,0,0.06-0.06,0.06h-0.12v0.06h-0.18v0.12h-0.359c0,0.06,0,0.06-0.061,0.06h-0.84
	l-0.061-0.06h-0.359v-0.12h-0.12l-0.06-0.06h-0.061l-0.12-0.12h-0.181v-0.06l-0.119-0.12h-0.061v-0.06l-0.119-0.12h-0.061v-0.12
	h-0.061l-0.06-0.06h-0.06l-0.061-0.06v-0.18l-0.06-0.06h-0.06v-0.24l-0.061-0.06l-0.061-0.06v-0.18l-0.06-0.06v-0.3
	c0-0.22,0-0.44,0-0.66v-0.18h0.06v-0.3h0.121v-0.18h0.06v-0.18h0.06v-0.06h0.12v-0.12h0.12v-0.18h0.061v-0.12h0.18v-0.06h0.119
	v-0.06h0.121v-0.12h0.18v-0.12h0.18v-0.06h0.24v-0.06h0.12c0.36,0,0.72,0,1.08,0h0.12v0.06h0.24c0.06,0.06,0.06,0.06,0.06,0.06h0.06
	l0.061,0.06l0.06,0.06l0.06,0.06v0.06h0.181v0.06h0.12v0.06l0.061,0.06v0.06L59.723,25.545z"/>
<path fill="#FFFFFF" d="M52.343,42.045v-2.88h-37.86v3h0.06v0.06h37.68v-0.18H52.343 M32.123,39.945l2.4,0.061h0.3l0.06,0.06v0.06
	h0.06c0.06,0.061,0.06,0.061,0.06,0.061l0.06,0.061v0.06h0.12v0.181l0.06,0.06h0.06v0.3c0,0.061,0,0.061-0.06,0.061
	c0,0.06,0,0.06-0.06,0.06v0.12l-0.12,0.06v0.06h-0.06c0,0.061,0,0.061-0.06,0.061c0,0.061,0,0.061-0.06,0.061v0.06
	c0,0.06,0,0.06-0.06,0.06h-0.12c-0.9,0-1.8,0-2.7,0h-0.06c0,0,0,0-0.06-0.06v-0.06h-0.12l-0.12-0.121h-0.06v-0.18h-0.06l-0.06-0.06
	v-0.181c0,0,0,0-0.06-0.06v-0.18h0.06v-0.24h0.12v-0.12h0.06v-0.061h0.12v-0.119h0.36V39.945z M37.883,43.725h-9.12l0.06,0.12
	c0.06,0.779,0,1.439-0.12,2.1v0.18c0,0.181,0,0.36,0,0.541v0.24l-0.06,0.06v0.479l-0.06,0.061h-0.06v0.3l-0.06,0.06v0.301
	c0,0.06,0,0.06-0.06,0.06c0,0.06,0,0.06-0.06,0.06v0.181l-0.06,0.06h-0.06v0.36l-0.06,0.06v0.12h-0.12v0.3h-0.06v0.24l-0.12,0.061
	v0.06l-0.06,0.12v0.24h11.16v-0.061l-0.061-0.06v-0.24h-0.06l-0.06-0.06v-0.12h-0.061v-0.3h-0.061l-0.059-0.061v-0.18
	c0,0,0,0-0.061-0.061v-0.24h-0.12v-0.239l-0.12-0.12v-0.18h-0.061v-0.12c0.027-0.614-0.09-0.026-0.06-0.72v-0.061l-0.12-0.061
	v-0.539h-0.119v-0.061c0-0.24,0-0.48,0-0.72v-2.16H37.883z M23.963,33.705h0.12v-0.06h0.18v-0.12h12.78l0.06,0.061v0.06h0.18v0.06
	l0.12,0.061v0.061l0.061,0.06h0.061v0.239h0.06v0.24h-0.06v0.181c0,0.06,0,0.06-0.061,0.06c0,0.061,0,0.061-0.061,0.061v0.06
	l-0.12,0.06v0.061h-0.18v0.061h-0.06c-4.24,0-8.48,0-12.72,0h-0.06v-0.061h-0.18v-0.061l-0.12-0.119v-0.12h-0.06l-0.06-0.06v-0.601
	h0.12V33.705z M24.323,30.585v-0.12h12.6l0.12,0.06v0.06h0.18v0.06h0.06l0.12,0.06v0.18h0.061l0.061,0.06v0.18
	c0.119,0,0.119,0.06,0,0.18v0.18l-0.061,0.12h-0.061v0.06h-0.12v0.12h-0.06v0.06l-0.12,0.06h-0.06v0.06h-12.66l-0.06-0.06h-0.06
	l-0.06-0.06v-0.06h-0.12v-0.12h-0.06l-0.06-0.06v-0.12h-0.06l-0.06-0.06v-0.54h0.12v-0.12h0.12v-0.12h0.12v-0.06H24.323z
	 M24.323,27.525h0.18v-0.12l12.3,0.06v0.06h0.3l0.12,0.06v0.06h0.06v0.06h0.12v0.12h0.061c0.061,0.06,0.061,0.06,0.061,0.06v0.18
	l0.06,0.06v0.18l-0.06,0.06v0.12c0,0.06,0,0.06-0.061,0.06h-0.061v0.18h-0.12v0.06c0,0.06,0,0.06-0.06,0.06h-0.12v0.06h-0.06
	c-4.24,0-8.48,0-12.72,0h-0.06v-0.06l-0.06-0.06v-0.06h-0.12v-0.12h-0.06l-0.06-0.06h-0.06l-0.06-0.06v-0.6h0.12v-0.18h0.12v-0.06
	h0.18v-0.12H24.323z M23.843,24.885h0.12v-0.12h0.12v-0.12h0.12v-0.06h0.06v-0.12h0.06c4.24,0,8.48,0,12.72,0h0.06v0.12h0.18v0.06
	l0.12,0.06v0.18h0.061l0.061,0.06v0.18c0.119,0,0.119,0.06,0,0.18v0.18c0,0.061,0,0.061-0.061,0.061c0,0.06,0,0.06-0.061,0.06v0.06
	h-0.12v0.06c0,0.06,0,0.06-0.06,0.06v0.06h-0.18v0.06l-0.12,0.06h-12.42c0,0,0,0-0.06-0.06v-0.06h-0.24v-0.06l-0.12-0.06v-0.06
	h-0.06l-0.06-0.06v-0.12h-0.06l-0.06-0.12c0-0.14,0-0.28,0-0.42V24.885z M20.543,18.825h-6v0.06l-0.06,0.06v18.78h1.56v-16.32h0.06
	v-0.24h0.12v-0.24h0.06v-0.18h0.12v-0.06h0.06v-0.12h0.12v-0.12h0.3v-0.12h0.24v-0.12h0.12c1.1,0,2.2,0,3.3,0h0.06v-1.38H20.543z
	 M33.443,21.645v0.18h0.06v0.12l0.06,0.06v0.42h-0.06v0.18h-0.06v0.06l-0.12,0.06v0.06h-0.18v0.06l-0.06,0.06h-8.76
	c0,0,0,0-0.06-0.06v-0.06h-0.06v-0.06l-0.12-0.06v-0.06h-0.06l-0.06-0.06h-0.06l-0.06-0.12c0-0.16,0-0.32,0-0.48v-0.06h0.12v-0.18
	h0.12v-0.12h0.12v-0.06h0.24v-0.12h8.58l0.06,0.12h0.12c0.06,0.06,0.06,0.06,0.06,0.06h0.06L33.443,21.645z M30.743,18.465h-6.48
	v0.06h-0.06v0.12h-0.12v0.06h-0.12v0.12h-0.12v0.12c0,0.14,0,0.28,0,0.42l0.06,0.12h0.06v0.06l0.12,0.12v0.06h0.12v0.12h0.24v0.06
	c0.06,0.06,0.06,0.06,0.06,0.06h6.24c0.06,0,0.06,0,0.06-0.06v-0.06h0.24l0.06-0.12h0.06c0.06,0,0.06,0,0.06-0.06l0.06-0.06v-0.06
	h0.12v-0.24h0.06v-0.18h-0.06v-0.3h-0.12v-0.18h-0.06l-0.12-0.12h-0.06c0,0,0,0-0.06-0.06H30.743z M39.563,33.645v0.06h-0.119v0.181
	h-0.061v0.3h-0.12v3.54h-17.16v-21.84l0.12-0.06v-0.06h9.72v0.06c0.06,0.06,0.06,0.06,0.06,0.06v0.06l0.06,0.06l0.06,0.06l0.06,0.06
	h0.06v0.06l0.06,0.06l0.06,0.06l0.06,0.06c0.06,0.06,0.06,0.06,0.06,0.06l0.06,0.06h0.06v0.12h0.06v0.06h0.12l0.06,0.12h0.12v0.06
	c0,0.06,0.06,0.06,0.12,0.06v0.06h0.06v0.12h0.12v0.06h0.18v0.06h0.06l0.06,0.12v0.06h0.18v0.06h0.06v0.06h0.18l0.06,0.06v0.06
	l0.06,0.06h0.18v0.12h0.06l0.06,0.06h0.06v0.18l0.12,0.12h0.06v0.18h0.06v0.12l0.06,0.06h0.06v0.06c0.06,0.06,0.06,0.06,0.06,0.06
	v0.06l0.06,0.12h0.06v0.18h0.06l0.06,0.06l0.06,0.06v0.18h0.12v0.18h0.06v0.06h0.12v0.18h0.06v0.12l0.12,0.12v0.12l0.12,0.12h0.06
	v0.18c0.06,0.06,0.06,0.06,0.06,0.06v0.12h0.12l0.06,0.12v0.06l0.06,0.12h0.06v0.18h0.12v0.06c0.06,0.06,0.06,0.06,0.06,0.06v0.18
	h0.12v0.12l0.06,0.06v0.06h0.12v0.06l0.12,0.06v0.12l0.06,0.06h0.18v0.06h0.18v0.12h0.06c0.22,0,0.44,0,0.661,0h0.06l0.06-0.12h0.18
	v-0.06h0.181v-0.06c0.06,0,0.06,0,0.06-0.06c0.061,0,0.061,0,0.061-0.06c0.061,0,0.061,0,0.061-0.06v-0.06h0.059
	c0.061,0,0.061,0,0.061-0.06l0.061-0.06v-0.12h0.06l0.06-0.12h0.061v-0.18h0.12v-0.18h0.06v-0.18h0.12l0.06,10.32h0.061v0.36
	l0.061,0.06v0.06h0.119v0.061l-0.18,0.12c-0.061,0.06-0.12,0.12-0.12,0.18l0.181,0.84v0.78l0.06,0.12L39.563,33.645z M52.162,18.885
	l-0.059-0.06H40.763v1.38h8.341c0.139,0,0.279,0,0.42,0h0.06l0.06,0.12h0.12l0.06,0.12h0.181l0.06,0.06v0.06l0.12,0.06v0.06h0.06
	v0.06l0.061,0.06l0.061,0.06h0.06c0.06,0.06,0.06,0.06,0.06,0.06v0.12h0.061v0.18l0.119,0.12v5.1h1.681v-7.44h-0.12v-0.06
	L52.162,18.885z"/>
<path fill="#B8CE63" d="M17.543,21.705h3.06v16.02h-3.06V21.705z M40.583,31.545v-0.061h0.06v-0.18h0.061c0.06,0,0.06,0,0.06-0.06
	v-9.54h8.399v0.06l0.121,0.06v4.62h-6.78v0.06h-0.12v0.12h-0.061v0.06h-0.119v0.06h-0.061v0.12c0,0.18,0,0.36,0,0.54v0.12h0.061
	v0.06l0.119,0.06c0.061,0.06,0.061,0.06,0.061,0.06l0.12,0.12h0.18v0.06h6.601v9.84h-8.521v-3.72l-0.06-0.061l-0.061-0.06v-0.12
	l-0.06-0.061l-0.06-0.06h-0.181v-0.06l0.12-0.061c0.061-0.06,0.061-0.119,0.061-0.24v-1.08c0-0.12,0.06-0.18,0.119-0.24
	c0.061-0.06,0.12-0.12,0.12-0.18C40.763,31.665,40.703,31.605,40.583,31.545z M40.162,31.785v-0.12h0.121L40.162,31.785z
	 M20.303,7.065v0.06c0.06,0.06,0.06,0.06,0.06,0.06v0.06h0.12v0.06l0.06,0.06v0.18l0.06,0.06v0.48h-0.06v0.18h-0.06v0.18h-0.12v0.12
	h-0.18v0.06h-0.18v0.12h-0.48l-0.06-0.06v-0.06h-0.12v-0.06h-0.06l-0.06-0.12h-0.06v-0.06h-0.12v-0.12h-0.06v-0.12l-0.12-0.06v-0.48
	h0.12v-0.18h0.06v-0.18h0.12v-0.06h0.12c0.06,0,0.06,0,0.06-0.06v-0.06h0.12l0.06-0.06h0.48v0.06H20.303z M37.103,7.065h0.12
	c0.28,0,0.561,0,0.84,0h0.061l0.06,0.12h0.479c0.061,0.06,0.061,0.06,0.061,0.06h0.24v0.12h0.24c0.06,0.06,0.06,0.06,0.06,0.06h0.12
	l0.061,0.06v0.061h0.119l0.12,0.12l0.06,0.06h0.121v0.12h0.119l0.061,0.06h0.119v0.06l0.121,0.06v0.06l0.06,0.06v0.06h0.12v0.06
	h0.061l0.06,0.12h0.06v0.06h0.061l0.06,0.12l0.06,0.06l0.121,0.06v0.06h0.06v0.18h0.06c0.061,0.06,0.061,0.06,0.061,0.06l0.06,0.06
	l0.06,0.06v0.12c0.061,0.06,0.061,0.06,0.061,0.06v0.12h0.061v0.18h0.119v0.18h0.061l0.061,0.12v0.18h0.059v0.36h0.061
	c0.061,0.06,0.061,0.06,0.061,0.06v0.12c0,0.16,0,0.32,0,0.48v0.06h0.06v0.18l-0.06,0.12v0.72l-0.061,0.12h-0.061v0.24h-0.059v0.18
	c0,0.06,0,0.06-0.061,0.06c0,0.06,0,0.06-0.061,0.06v0.24h-0.119v0.18h-0.061c0,0.06,0,0.06-0.061,0.06v0.18l-0.06,0.061h-0.06v0.12
	c0,0.06,0,0.06-0.061,0.06h-0.06v0.06l-0.06,0.06v0.06h-0.121v0.12c0,0.06,0,0.06-0.06,0.06v0.06h-0.06c0,0.06,0,0.06-0.061,0.06
	v0.06h-0.06l-0.06,0.12h-0.061v0.06h-0.12v0.12h-0.181v0.06c0,0.06,0,0.06-0.059,0.06l-0.061,0.06c0,0.06,0,0.06-0.061,0.06
	c0,0.06-0.06,0.06-0.119,0.06h-0.061v0.06h-0.18l-0.061,0.12c0,0.06,0,0.06-0.06,0.06h-0.24c0,0.06,0,0.06-0.06,0.06
	c0,0.06,0,0.06-0.061,0.06h-0.06v0.06l-0.12,0.06c-0.449-0.021,0.029,0.081-0.42,0.06h-0.12v0.06h-0.12c-0.46,0-0.92,0-1.38,0h-0.12
	v-0.06h-0.3l-0.12-0.06h-0.18l-0.12-0.12h-0.18c0,0,0,0-0.06-0.06v-0.06h-0.18v-0.06h-0.18v-0.12h-0.12v-0.06h-0.06l-0.12-0.06
	v-0.06h-0.06l-0.06-0.06h-0.06l-0.06-0.06l-0.06-0.06h-0.06v-0.12h-0.06l-0.06-0.06h-0.06v-0.12h-0.06l-0.3-0.3v-0.12l-0.12-0.06
	v-0.06h-0.06l-0.06-0.06v-0.06l-0.06-0.06v-0.06l-0.12-0.12v-0.12h-0.06v-0.18h-0.06v-0.18h-0.12l-0.06-0.06v-0.24l-0.06-0.06v-0.18
	h-0.06v-0.54h-0.06l-0.06-0.12c0-0.28,0-0.56,0-0.84v-0.06h0.12v-0.3h0.06v-0.06h0.06v-0.12h0.18v-0.06h0.12v-0.12h0.12l0.24,0.06
	l0.06,0.06h0.24v0.06l0.06,0.06l0.06,0.06h0.06v0.18h0.06l0.06,0.06c0,0.22,0,0.44,0,0.66v0.36l0.06,0.06v0.42h0.06l0.06,0.12v0.06
	h0.06v0.18l0.12,0.06v0.12l0.12,0.12v0.06l0.06,0.06v0.06h0.06l0.06,0.06l0.06,0.06v0.06l0.12,0.06l0.06,0.06v0.06h0.12v0.12h0.06
	v0.06h0.06l0.06,0.12h0.18v0.06h0.12l0.06,0.06v0.06h0.18v0.06h0.24v0.12h0.12c0.42,0,0.84,0,1.26,0h0.06v-0.12h0.301v-0.06h0.24
	v-0.12h0.18v-0.06h0.12v-0.12h0.18v-0.061h0.12v-0.12h0.061v-0.12h0.119v-0.06h0.061v-0.12h0.119v-0.06h0.061v-0.18h0.061v-0.12
	h0.18v-0.18h0.061v-0.18h0.059v-0.24h0.121v-0.48h0.06v-0.54c0,0,0,0-0.06-0.06v-0.42l-0.121-0.06v-0.24h-0.059v-0.24l-0.061-0.06
	v-0.06l-0.12-0.06h-0.06v-0.12h-0.061v-0.12h-0.061v-0.18h-0.06l-0.12-0.12v-0.06h-0.119v-0.12h-0.181v-0.06h-0.06l-0.061-0.12
	h-0.06v-0.06h-0.12l-0.061-0.06h-0.119l-0.061-0.06v-0.06h-0.3v-0.12h-0.24v-0.06h-0.12c-0.32,0-0.64,0-0.959,0h-0.06v0.06h-0.24
	l-0.06,0.12h-0.24c0,0.06,0,0.06-0.06,0.06c0,0.06,0,0.06-0.06,0.06h-0.12c0,0.06,0,0.06-0.06,0.06h-0.18c0,0.06,0,0.06-0.06,0.06
	h-0.3v-0.06h-0.12l-0.06-0.06l-0.12-0.06v-0.06h-0.06v-0.12h-0.12v-0.24h-0.06l-0.06-0.18h0.12v-0.3h0.12v-0.18h0.06v-0.12h0.18
	v-0.06h0.18v-0.12h0.18v-0.06h0.3v-0.12h0.3v-0.06h0.42v-0.12H37.103z M36.923,5.565h0.18c0.379,0,0.76,0,1.139,0h0.361l0.059,0.06
	l0.061,0.06h0.24l0.061,0.06l0.06,0.06h0.3v0.06h0.24l0.06,0.06l0.06,0.06h0.061v0.061h0.24v0.06h0.119v0.12h0.181l0.06,0.12h0.181
	v0.06h0.18v0.12h0.06l0.061,0.06h0.12l0.12,0.12v0.06h0.119v0.12h0.061v0.12h0.061l0.06,0.06h0.181v0.06l0.059,0.06v0.06h0.121v0.06
	l0.06,0.06v0.06l0.12,0.12v0.06h0.061l0.06,0.12h0.06v0.06l0.061,0.06v0.12h0.119v0.12h0.061v0.12l0.061,0.06h0.06l0.06,0.12v0.06
	l0.12,0.12v0.18h0.12v0.12l0.061,0.06v0.18h0.119v0.24c0.061,0.06,0.061,0.06,0.061,0.06v0.18l0.061,0.06v0.3l0.119,0.12v0.36
	l0.061,0.06h0.06v0.12c0,0.46,0,0.92,0,1.38v0.12h-0.12v0.54h-0.119v0.24h-0.061v0.3h-0.061v0.3h-0.119v0.18h-0.061v0.18h-0.12v0.18
	h-0.12v0.18h-0.06v0.18h-0.12v0.06h-0.061v0.24h-0.119v0.06h-0.061v0.12h-0.119v0.18h-0.061v0.06h-0.12v0.12h-0.06v0.12h-0.121v0.06
	h-0.059v0.06h-0.121v0.12h-0.119v0.06h-0.061v0.12h-0.18v0.12h-0.12v0.06h-0.06v0.12h-0.181v0.06h-0.12v0.12h-0.18v0.06h-0.12v0.12
	h-0.181v0.06h-0.059v0.12h-0.061v0.06h-0.18v0.12h-0.061v0.12h-0.061v0.06h-0.119v0.18h-0.061v0.06h-0.119v0.24h-0.061v0.06h-0.12
	v0.18h-0.12v0.18h-0.06v0.24h-0.12v0.06h-0.061v0.18h-0.119v0.18h-0.061v0.18h-0.119v0.12h-0.061v0.18h-0.12v0.18h-0.12v0.18h-0.061
	v0.12h-0.06v0.18h-0.12v0.18h-0.119v0.18h-0.061v0.12h-0.12v0.18h-0.06v0.12h-0.12v-0.12h-0.06v-0.12l-0.061-0.06h-0.061v-0.12
	h-0.12v-0.12l-0.06-0.06v-0.18h-0.12v-0.12h-0.06v-0.12l-0.12-0.06v-0.12l-0.12-0.06v-0.18c0,0,0,0-0.06-0.06h-0.06v-0.18
	l-0.12-0.06v-0.12l-0.06-0.06c0,0,0,0-0.06-0.06h-0.06v-0.18h-0.06v-0.12l-0.06-0.06h-0.06v-0.06l-0.12-0.061v-0.18h-0.06v-0.12
	h-0.06l-0.06-0.06v-0.06l-0.06-0.06v-0.12h-0.12v-0.18l-0.06-0.06v-0.06h-0.12v-0.12h-0.06c0,0,0,0-0.06-0.06h-0.06v-0.12h-0.06
	l-0.12-0.12v-0.06h-0.12v-0.06l-0.06-0.061h-0.06l-0.06-0.06h-0.06l-0.06-0.06l-0.06-0.06v-0.06h-0.18v-0.06l-0.06-0.06h-0.12v-0.06
	h-0.06l-0.06-0.06l-0.06-0.06v-0.06h-0.18v-0.12h-0.12v-0.06l-0.12-0.12c0,0,0,0-0.06-0.06l-0.12-0.06v-0.06h-0.06v-0.06h-0.06
	v-0.12h-0.12v-0.06l-0.06-0.06c0,0,0,0-0.06-0.06h-0.06v-0.061l-0.06-0.06v-0.06l-0.06-0.12h-0.06v-0.06h-0.12v-0.06l-0.06-0.06
	v-0.12l-0.12-0.06v-0.06l-0.06-0.06v-0.06l-0.06-0.06h-0.06v-0.18l-0.12-0.06v-0.12l-0.06-0.06v-0.18h-0.06v-0.18l-0.06-0.06
	l-0.06-0.06v-0.24h-0.12v-0.24l-0.06-0.06v-0.42h-0.06v-0.12c0-0.56,0-1.12,0-1.68v-0.06c0.06,0,0.06,0,0.06-0.06v-0.42
	c0.06,0,0.06,0,0.06-0.06v-0.3h0.12v-0.3h0.06c0.06,0,0.06-0.06,0.06-0.12v-0.06h0.06v-0.18c0.06,0,0.06,0,0.06-0.06v-0.24h0.12
	v-0.06c0.06,0,0.06,0,0.06-0.06c0.06,0,0.06,0,0.06-0.06v-0.06h0.06v-0.18l0.12-0.06v-0.06h0.06v-0.18h0.12v-0.06l0.06-0.06
	c0.06,0,0.06,0,0.06-0.06h0.06v-0.12h0.06l0.06-0.06v-0.12h0.06v-0.06l0.12-0.06v-0.06h0.06v-0.06c0.06,0,0.06,0,0.06-0.06v-0.06
	h0.12l0.06-0.06h0.06v-0.12h0.18v-0.12h0.06v-0.06l0.12-0.06v-0.06h0.18v-0.06h0.06l0.06-0.12h0.12l0.06-0.06h0.06v-0.12h0.18v-0.12
	h0.18v-0.06h0.18c0.06,0,0.06,0,0.06-0.061h0.18l0.06-0.06v-0.06h0.3v-0.06h0.18c0.06,0,0.06,0,0.06-0.06v-0.06h0.42l0.06-0.06
	v-0.06H36.923z M58.643,26.445l0.061,0.06v0.18h0.119v0.06h0.061v0.12c0,0.16,0,0.32,0,0.48v0.06h-0.061v0.24h-0.119v0.06h-0.12
	v0.12h-0.06v0.06h-0.181v0.12h-0.54l-0.061-0.06l-0.06-0.06h-0.12v-0.06h-0.18v-0.18h-0.061l-0.119-0.12v-0.78h0.06
	c0.06,0,0.06,0,0.06-0.06v-0.06c0.061,0,0.061,0,0.061-0.06v-0.06c0.061,0,0.061,0,0.061-0.06h0.119l0.12-0.06v-0.06h0.181
	c0.06,0,0.06,0,0.06-0.06v-0.06h0.181l0.119,0.12h0.18v0.06l0.121,0.06H58.643z"/>
</svg>
