<?xml version="1.0" encoding="utf-8"?>
<!-- Generator: Adobe Illustrator 16.0.0, SVG Export Plug-In . SVG Version: 6.00 Build 0)  -->
<!DOCTYPE svg PUBLIC "-//W3C//DTD SVG 1.1//EN" "http://www.w3.org/Graphics/SVG/1.1/DTD/svg11.dtd">
<svg version="1.1" id="Layer_1" xmlns="http://www.w3.org/2000/svg" xmlns:xlink="http://www.w3.org/1999/xlink" x="0px" y="0px"
	 width="67px" height="58.182px" viewBox="0 0 67 58.182" enable-background="new 0 0 67 58.182" xml:space="preserve">
<path fill="#03534D" d="M55.907,49.266h-42.6v-1.801h42.6V49.266z M46.188,43.926v-0.061h9.72v1.801h-9.72V43.926z M46.188,40.205
	h9.72v1.861h-9.72V40.205z M25.247,44.166h0.061l0.119,0.061v0.061l0.061,0.061v0.061h0.18c0.061,0.059,0.061,0.059,0.061,0.059
	l0.06,0.061v0.121h0.06l0.061,0.119v0.061l0.061,0.061v0.24c-2.58,0.84-5.16,0.84-7.621,0V44.77h0.121v-0.182h0.119v-0.119h0.061
	v-0.061h0.18v-0.119h0.061v-0.121h0.119c2.041,0,4.08,0,6.121,0h0.119V44.166z M29.027,40.686h-4.14
	c-0.061,0.66,0,1.199,0.119,1.682l0.061,0.059v0.063h0.54v0.059h0.36v0.121h0.18l0.061,0.061v0.061h0.119l0.061,0.061h0.119v0.061
	c0,0.059,0.061,0.059,0.121,0.059v0.061h0.06v0.121h0.18l0.06,0.061v0.061h0.121v0.119l0.06,0.061h0.06v0.121l0.061,0.059
	l0.119,0.061v0.121l0.061,0.061v0.18h0.12v0.119h0.06v0.121c-0.02,0.363,0.096,0.105,0.061,0.658v0.121h0.061l0.059,0.061
	c0.061,0.539,0.48,0.721,1.261,0.539h0.12c0.061-1.738,0.061-3.42,0-4.979h-0.12V40.686z M21.827,33.545v-0.06h0.66l0.061,0.06
	h0.119l0.061,0.12h0.06v0.061h0.06l0.061,0.119h0.061v0.18h0.119v8.401h-1.8v-8.52h0.06v-0.061h0.121v-0.119h0.06v-0.061h0.12v-0.12
	H21.827z M22.907,24.906v0.06h0.061v0.181l0.06,0.119h0.06v0.18h-0.119v0.24h-0.061v0.181h-0.12v0.12h-0.06v0.119h-0.18v0.061
	h-0.301v0.12h-0.18v-0.12h-0.24v-0.061h-0.18l-0.061-0.119h-0.06v-0.12h-0.06v-0.06l-0.121-0.121v-0.24h-0.06v-0.18h0.06v-0.3h0.061
	c0.061,0,0.061,0,0.061-0.06v-0.12h0.06v-0.06h0.06l0.061-0.121h0.18v-0.119h0.24v-0.061h0.18l0.061,0.061h0.24v0.119h0.18v0.121
	h0.06l0.06,0.06h0.061V24.906z M46.188,36.727v-0.121h9.72v1.801h-9.72V36.727z M39.347,32.646h0.24v0.119h0.121
	c0.139,0,0.278,0,0.42,0h0.06c0.06,0.061,0.06,0.061,0.06,0.061h0.061c0.24,0,0.479,0,0.721,0h0.12v-0.061h0.062
	c0.158,0,0.318,0,0.479,0h0.061v-0.119h0.18l0.181,0.06v0.18l-0.06,0.06v0.061c0,0.061,0,0.061-0.062,0.061h-0.062v0.3h-0.119v0.18
	h-0.061v0.24c0,0.06,0,0.06-0.06,0.06v0.18h-0.06c0,0.061,0,0.061-0.062,0.061v0.18h-0.06v0.24l-0.119,0.061v0.18
	c0,0.061,0,0.061-0.061,0.061v0.119l-0.061,0.061h-0.059v0.24c0,0.06,0,0.06-0.062,0.06v0.18c0,0.06,0,0.06-0.062,0.06h-0.06v0.181
	h-0.12v0.239l-0.061,0.061v0.24h-0.058v0.24l-0.12-0.061h-0.06v-0.18h-0.06l-0.062-0.061v-0.18l-0.062-0.061h-0.06v-0.239
	l-0.06-0.06v-0.121h-0.059v-0.239l-0.119-0.06v-0.24h-0.061l-0.061-0.061v-0.119h-0.061v-0.24l-0.061-0.061v-0.24h-0.059
	l-0.061-0.06v-0.12l-0.059-0.061v-0.18l-0.121-0.119v-0.181h-0.061l-0.061-0.06v-0.12h-0.059v-0.3h-0.061v-0.24h-0.06l-0.06-0.061
	v-0.119H39.347z M36.708,33.726h0.299v-0.061h0.36v-0.12h0.12l0.18,0.06v0.121h0.12v0.18l0.12,0.119v0.181h0.061v0.239l0.061,0.061
	l0.061,0.061v0.119l0.061,0.061v0.18h0.061l0.06,0.061v0.18l0.061,0.061v0.119h0.058l0.06,0.12v0.181h0.06v0.299h0.062v0.121
	l0.12,0.06v0.24l0.061,0.06h0.061v0.18l0.06,0.061v0.182h0.06l0.059,0.059v0.18c0.061,0.061,0.061,0.061,0.061,0.061v0.238h0.061
	v0.121l0.12,0.061v0.24l0.06,0.061h0.061v0.18l0.061,0.061v0.18h0.061v0.24h0.117v0.301h0.062l0.062,0.059v0.061l0.06,0.061v0.24
	h0.12v0.301h0.06v0.061l0.06,0.061v0.061h0.121v0.061h0.061l0.061,0.061h0.119l0.061,0.061l0.061,0.061h0.359v-0.121h0.301v-0.061
	h0.061v-0.059h0.119v-0.121h0.057v-0.061h0.119V39.25h0.061v-0.18h0.12v-0.24h0.06v-0.301h0.061v-0.238h0.119v-0.24h0.121v-0.238
	h0.061V37.51h0.12v-0.119h0.06V37.09h0.12v-0.238h0.062v-0.24h0.117v-0.24h0.062v-0.3h0.12v-0.12h0.06v-0.3h0.12v-0.301h0.061v-0.18
	h0.121v-0.24h0.119v-0.3h0.061v-0.18h0.06v-0.24h0.12v-0.3h0.061v-0.18h0.119v-0.181h0.301l0.061,0.12h0.3
	c0.062,0.061,0.062,0.061,0.062,0.061h0.42v0.119h0.42c0.061,0.061,0.061,0.061,0.061,0.061h0.299l0.062,0.061v0.06h0.42l0.062,0.06
	h0.354l0.061,0.061v0.06h0.359v0.06h0.359l0.061,0.061v0.061h0.36l0.06,0.06h0.24l0.061,0.06v0.061h0.181v0.06h0.239l0.061,0.06
	v0.121h-3.241c0,0.06,0,0.06-0.06,0.06c0,0.06,0,0.06-0.061,0.06h-0.24l-0.061,0.061h-0.12l-0.06,0.119l-0.061,0.061h-0.059v0.12
	c0,0.06,0,0.06-0.061,0.06h-0.061v0.24c0,0.061,0,0.061-0.061,0.061v10.02H30.947l-0.06-4.98h1.02v-0.061h0.359v-0.119h0.24v-0.061
	h0.061v-0.119h0.12v-0.18h0.06v-0.361h0.061v-5.04h0.119v-0.12h0.181v-0.06h0.3v-0.12h0.24V34.39h0.359v-0.119h0.42V34.21h0.48
	v-0.12h0.359v-0.06h0.479v-0.12h0.302v-0.06h0.479V33.73h0.182V33.726z M41.747,24.185h0.18v-0.119h0.121v-0.061h0.061v-0.061h0.18
	v-0.119h0.12v-0.12h0.062v-0.06h0.18v0.06h0.119l0.061,0.06v0.061h0.18v0.119h0.121v0.061h0.119l0.062,0.061h0.118l0.062,0.119h0.12
	c0.061,0.061,0.061,0.061,0.061,0.061l0.061,0.061v0.06h0.18v0.06h0.12l0.06,0.061h0.062l0.062,0.06v0.06h0.059l0.121,0.121h0.119
	c0.061,0.06,0.061,0.06,0.061,0.06l0.061,0.06l0.061,0.061h0.12v0.06h0.173v0.12c0,0.74,0,1.48,0,2.221v0.119h-0.061v0.36
	c0,0.06,0,0.06-0.061,0.06c0,0.061,0,0.061-0.061,0.061v0.24h-0.059v0.18c0,0.06,0,0.06-0.06,0.06v0.12c0,0.061,0,0.061-0.06,0.061
	c0,0.06,0,0.06-0.062,0.06v0.06c0,0.061,0,0.061-0.062,0.061h-0.06v0.18h-0.058l-0.062,0.12h-0.062v0.181h-0.059v0.06l-0.061,0.06
	v0.061c0,0.06,0,0.06-0.061,0.06c0,0.06,0,0.06-0.061,0.06h-0.061c0,0.061,0,0.061-0.061,0.061v0.061l-0.061,0.06v0.06h-0.115v0.061
	h-0.061l-0.06,0.119h-0.06v0.061h-0.061l-0.061,0.12h-0.061v0.06c0,0.061,0,0.061-0.061,0.061h-0.059l-0.06,0.061h-0.06v0.06h-0.181
	v0.12h-0.12v0.06l-0.061,0.06h-0.119v0.061h-0.18v0.061h-0.24v0.119h-0.301v0.061c0,0.06-0.061,0.06-0.119,0.06h-0.24v0.06h-0.54
	v0.121h-0.66l-0.06-0.121h-0.48l-0.061-0.06h-0.299c0,0,0,0-0.062-0.06v-0.061h-0.239l-0.061-0.119h-0.119v-0.061h-0.24l-0.06-0.061
	l-0.06-0.06l-0.062-0.06h-0.12v-0.12h-0.182v-0.06h-0.117v-0.061l-0.061-0.061v-0.06h-0.181v-0.12h-0.119v-0.061h-0.06l-0.061-0.119
	h-0.061v-0.061h-0.061l-0.061-0.06v-0.06l-0.061-0.061l-0.061-0.061v-0.119l-0.12-0.061l-0.118-0.119h-0.059v-0.181h-0.061v-0.18
	h-0.119v-0.181l-0.062-0.06h-0.062v-0.12c0,0,0,0-0.059-0.061v-0.119h-0.059v-0.301h-0.12v-0.239l-0.06-0.06l-0.062-0.061v-0.42
	h-0.062v-0.061c0-0.56,0-1.119,0-1.68v-0.061h0.062c0.642,0,1.28,0,1.92,0h0.12v-0.06h0.061c0.181,0,0.359,0,0.541,0h0.06v-0.12
	h0.479v-0.119h0.36v-0.061h0.3v-0.12h0.24v-0.06h0.18v-0.12h0.18v-0.06h0.182v-0.121h0.182v-0.119h0.18v-0.061h0.18v-0.06h0.12
	v-0.12h0.06v-0.061H41.747z M38.867,19.385h0.12v-0.06h0.24v-0.12h0.24v-0.06h0.42v-0.121h0.06c0.479,0,0.96,0,1.44,0l0.119,0.061
	v0.061h0.301v0.06h0.3v0.12h0.239c0.061,0.06,0.061,0.06,0.061,0.06h0.12l0.06,0.12h0.121c0.059,0.061,0.059,0.061,0.059,0.061
	h0.182v0.06h0.061v0.12h0.121l0.238,0.24v0.06h0.182v0.06h0.06c0.06,0,0.06,0.061,0.06,0.121h0.062v0.06h0.118v0.12h0.062v0.06
	l0.062,0.06h0.06v0.121l0.06,0.06l0.062,0.06h0.062v0.061h0.059v0.18h0.061l0.062,0.12h0.06v0.12l0.12,0.12v0.06l0.12,0.12v0.181
	l0.061,0.119v0.061h0.061v0.359l0.061,0.061l0.06,0.06v0.36h0.052v0.24h-0.12l-0.06-0.061h-0.12v-0.119h-0.12v-0.061h-0.12
	c0,0,0,0-0.06-0.061v-0.06h-0.18v-0.06l-0.062-0.061v-0.061h-0.12c-0.114-0.017-0.219-0.086-0.301-0.18h-0.059v-0.119h-0.18v-0.061
	h-0.18v-0.061h-0.061v-0.119h-0.18l-0.061-0.061h-0.061l-0.061-0.06l-0.061-0.06h-0.18v-0.061h-0.42v0.061h-0.18
	c0,0.06,0,0.06-0.062,0.06c0,0.06,0,0.06-0.062,0.06h-0.115v0.061h-0.061v0.119h-0.06l-0.06,0.061h-0.061v0.061h-0.061v0.119h-0.119
	c0,0.061,0,0.061-0.062,0.061v0.06c0,0.06,0,0.06-0.062,0.06h-0.059v0.061c0,0.061,0,0.061-0.061,0.061c0,0.06,0,0.06-0.061,0.06
	h-0.061v0.06c0,0.061-0.061,0.061-0.12,0.061h-0.062v0.061h-0.056v0.119h-0.18v0.061h-0.24v0.06c0,0.06,0,0.06-0.06,0.06v0.061
	h-0.18v0.061c0,0.06-0.062,0.06-0.121,0.06h-0.119v0.06h-0.18l-0.062,0.12h-0.24v0.06h-0.358c0,0.061,0,0.061-0.062,0.061v0.061
	h-0.54l-0.061,0.06h-2.041v-0.899h0.062v-0.541h0.12v-0.24h0.12v-0.299h0.062v-0.181h0.059v-0.3h0.121v-0.061h0.119v-0.18h0.061
	v-0.18h0.061v-0.061h0.119v-0.119h0.12v-0.121h0.06v-0.119h0.061v-0.12h0.12v-0.06h0.06v-0.121h0.12v-0.06h0.12v-0.12h0.18v-0.06
	h0.062v-0.12h0.18v-0.12h0.12v-0.06h0.12v-0.061h0.239v-0.12H38.867z M35.927,19.566c0.061,0,0.061,0,0.061-0.061
	c0.061,0,0.061,0,0.061-0.061v-0.06h0.119v-0.06c0.062,0,0.062,0,0.062-0.061v-0.119l0.118-0.061v-0.061h0.062v-0.119h0.181
	c0.061,0,0.061,0,0.061-0.061l0.061-0.119h0.06v-0.061h0.118v-0.061c0.06,0,0.06,0,0.06-0.06c0.06,0,0.06,0,0.06-0.06h0.121v-0.061
	l0.119-0.06v-0.06c0.061,0,0.061,0,0.061-0.061c0.061,0,0.061,0,0.061-0.061h0.12v-0.06h0.181v-0.06h0.119
	c0.061,0,0.061,0,0.061-0.061c0.061,0,0.061,0,0.061-0.061h0.12l0.06-0.119h0.121l0.06-0.061h0.118l0.06-0.06h0.06l0.062-0.06
	v-0.061h0.3v-0.061h0.24c0.061,0,0.12,0,0.12-0.06v-0.06h0.239l0.119-0.061v-0.06h0.121c0.26,0,0.521,0,0.779,0h0.12v-0.06h0.239
	c0,0.06,0.061,0.06,0.121,0.06h0.06c0.22,0,0.44,0,0.66,0h0.06v0.06c0.061,0.061,0.061,0.061,0.061,0.061h0.421v0.06l0.06,0.06
	h0.182l0.06,0.061h0.239v0.061l0.061,0.06h0.18l0.062,0.06h0.181v0.061h0.119v0.119h0.182l0.119,0.121v0.06h0.18v0.06h0.181v0.061
	l0.12,0.061v0.06l0.061,0.06h0.06l0.062,0.061h0.055v0.06c0.06,0.06,0.06,0.06,0.06,0.06l0.06,0.061h0.062v0.061h0.181v0.119h0.061
	l0.06,0.061h0.06v0.119h0.059l0.12,0.121h0.06v0.06l0.12,0.12v0.06h0.06v0.12l0.062,0.061h0.062v0.06h0.117v0.12h0.062v0.18h0.062
	v0.061l0.118,0.06v0.12l0.12,0.061v0.119l0.061,0.062v0.06l0.061,0.061h0.061v0.18l0.061,0.061v0.119l0.061,0.061v0.06l0.119,0.12
	v0.24h0.12v0.24l0.062,0.06v0.24l0.06,0.12v0.42l0.12,0.119v0.181c0,1.56,0,3.12,0,4.68v0.181h-0.12v0.539h-0.06v0.301h-0.064v0.24
	h-0.12v0.239h-0.12v0.3h-0.06v0.181h-0.06v0.18h-0.121v0.181h-0.06v0.06h-0.12v0.18h-0.119v0.12h-0.061v0.18h-0.061v0.061h-0.119
	v0.119h-0.121v0.181h-0.06v0.06h-0.12v0.121h-0.06v0.119h-0.12v0.061h-0.061v0.119h-0.119v0.061h-0.061v0.061h-0.06v0.119h-0.24
	v0.12h-0.06v0.06h-0.121v0.121h-0.059v0.06h-0.061v0.06l0.061,0.061v0.06h0.479v0.06l0.06,0.061h0.24l0.061,0.061h0.42v0.06h0.479
	v0.12h0.3l0.12,0.12h0.36v0.06h0.18c0.314,0.018,0.166-0.068,0.359,0.12h0.301l0.061,0.06h0.359v0.061
	c0.061,0.061,0.061,0.061,0.061,0.061h0.299l0.062,0.06h0.24v0.06c0.062,0.061,0.062,0.061,0.062,0.061h0.18l0.06,0.06h0.12
	l0.061,0.06h0.119v0.121h0.18v0.06l0.121,0.06h0.061l0.061,0.061h0.119l0.061,0.119l0.061,0.061h0.061v0.061l0.119,0.06h0.062v0.06
	h0.119v0.061c0.062,0.061,0.062,0.061,0.062,0.061v0.06h0.119v0.06l0.061,0.061h0.061v0.06l0.061,0.12h0.061l0.061,0.061h0.061
	v0.119h0.061l0.06,0.061h0.052v0.06c0.061,0.06,0.061,0.06,0.061,0.06v0.061h0.119v0.18h5.641l0.061,0.061l0.061,0.06h0.24
	l0.061,0.06h0.119l0.061,0.121h0.061v15.719h-0.121v0.061h-0.18v0.061h-0.361v0.121h-44.4v-0.063l-0.061-0.059h-0.299v-0.063h-0.181
	v-0.059h-0.06c-0.135-0.098-0.203-0.313-0.18-0.48v-0.061c0-0.059,0-0.119-0.061-0.119h-0.061v-3.781l0.121,0.063v-0.301
	c0.06,0,0.06,0,0.06-0.061v-0.061c0.06,0,0.06,0,0.06-0.061h0.061c0.06,0,0.06,0,0.06-0.061v-0.061h0.12l0.061-0.061v-0.059h0.359
	v-0.063h4.141v-0.721h0.119v-0.479h0.061c0.06,0,0.06,0,0.06-0.061v-0.24h0.06v-0.119h0.061l0.061-0.121v-0.117
	c0.06,0,0.06,0,0.06-0.063v-0.061c0.06,0,0.06,0,0.06-0.061c0.061,0,0.121,0,0.121-0.059v-0.182h0.059l0.061-0.121h0.061v-0.059
	h0.06v-0.061h0.06l0.061-0.121h0.18v-0.061c0.061,0,0.061,0,0.061-0.059v-0.063h0.18v-0.059h0.12c0.06,0,0.06,0,0.06-0.061
	c0.061,0,0.061,0,0.061-0.061h0.119v-0.121h0.361c0.059,0,0.059,0,0.059-0.059h0.48l0.061-0.063v-0.059
	c0.18-0.48,0.24-1.021,0.18-1.682h-7.08v-0.061h-0.359v-0.119h-0.181v-0.061h-0.06l-0.061-0.119h-0.06v-0.121h-0.06v-0.359
	l-0.061-0.061h-0.061v-14.52h0.061l0.061-0.12v-0.18c0.06,0,0.06,0,0.06-0.06v-0.121h0.06c0.061,0,0.061,0,0.061-0.06h0.06v-0.12
	h0.181v-0.119h0.359v-0.061h6.18v0.061h0.301l0.06,0.119h0.181v0.12h0.06l0.06,0.06h0.061v0.181h0.06v0.12c0,0.18,0,0.359,0,0.54
	v0.06h-0.06v0.18h-0.12v0.121h-0.06v0.119h-0.24v0.061h-0.301v0.119h-5.279v12.6h6.18v-4.68c-0.018-0.322,0.087,0.095,0.061-0.479
	v-0.06c0.06,0,0.06,0,0.06-0.061c0.06,0,0.06,0,0.06-0.06v-0.181h0.061v-0.18h0.06v-0.18h0.12v-0.18h0.061c0.06,0,0.06,0,0.06-0.061
	l0.06-0.061v-0.06l0.121-0.06v-0.061c0.059,0,0.059,0,0.059-0.06h0.061c0.061,0,0.061,0,0.061-0.06c0.06,0,0.06,0,0.06-0.061v-0.061
	h0.06l0.061-0.119h0.12v-0.061h0.12v-0.06h0.119l0.061-0.06v-0.061h0.18v-0.061h0.18c0.061,0,0.061,0,0.061-0.06
	c0.061,0,0.061,0,0.061-0.06h0.539c0.061,0,0.061,0,0.061-0.061h0.24l0.06,0.061h0.54v0.06c0.061,0.06,0.061,0.06,0.061,0.06h0.18
	l0.061,0.061h0.119l0.12,0.12h0.12v0.06h0.061v0.061h0.18v0.119h0.06l0.12,0.121v0.06h0.061l0.18,0.18l0.06,0.06l0.06,0.061v0.12
	l0.121,0.06v0.061h0.06v0.18h0.06v0.18l0.061,0.121h0.061v0.239h0.059v0.12c0,0.141,0,0.28,0,0.42l0.061,0.12h0.061v4.5h6.119v-12.6
	h-5.22v-0.119h-0.36v-0.061h-0.18l-0.06-0.119h-0.06v-0.121h-0.061v-0.06l-0.061-0.06v-0.301l-0.06-0.06h-0.06v-0.12h0.06l0.06-0.12
	v-0.18c0.061,0,0.061,0,0.061-0.06v-0.121h0.061v-0.06h0.06l0.06-0.12h0.18v-0.119h0.36v-0.061h6.12v0.061h0.359v0.119h0.24v0.12
	h0.061v0.06h0.12v0.181h0.06v0.36l0.061,0.06v7.44h0.3v-0.061h0.12l0.119-0.061c0.061,0,0.061,0,0.061-0.06h0.061
	c0.449,0.027,0.151-0.088,0.6-0.06h0.061c0.06,0,0.119,0,0.119-0.061c0.061,0,0.061,0,0.061-0.06h0.3v-0.06h0.42v-0.061
	c0.06,0,0.06,0,0.06-0.061h0.36v-0.119h0.06c0.666,0.031,0.146-0.084,0.66-0.061h0.062v-0.06h0.42v-0.06
	c0.062,0,0.062,0,0.062-0.061h0.358v-0.061h0.239l-0.061-0.119v-0.061h-0.18v-0.06l-0.061-0.06c0,0,0,0-0.061-0.061h-0.059v-0.12
	h-0.18l-0.062-0.06v-0.061c0,0,0,0-0.062-0.061h-0.06v-0.06h-0.12v-0.06l-0.061-0.061v-0.06h-0.117v-0.12h-0.061v-0.061l-0.119-0.06
	v-0.12h-0.061l-0.061-0.06v-0.06l-0.061-0.061l-0.061-0.061c0,0,0,0-0.061-0.06v-0.06l-0.24-0.24v-0.12l-0.06-0.06v-0.121h-0.12
	v-0.18h-0.061v-0.18h-0.117v-0.18l-0.061-0.061v-0.06l-0.061-0.06v-0.24h-0.061l-0.06-0.061v-0.24l-0.06-0.119h-0.06v-0.36h-0.06
	v-0.54h-0.12v-0.12c0-1.521,0-3.04,0-4.56v-0.12h0.12v-0.54h0.06v-0.36h0.06c0.061,0,0.061,0,0.061-0.06v-0.24h0.061
	c0.06,0,0.06,0,0.06-0.061v-0.18l0.06-0.06v-0.181c0.062,0,0.062,0,0.062-0.06v-0.12l0.118-0.061v-0.18h0.062v-0.119l0.12-0.061
	v-0.12c0.061,0,0.061,0,0.061-0.06v-0.061h0.061l0.061-0.06v-0.12h0.061l0.061-0.061v-0.06c0.061,0,0.061,0,0.061-0.06v-0.12h0.06
	C35.927,19.625,35.927,19.625,35.927,19.566z M20.447,8.286h0.12v0.06h0.061v0.18c0.06,0.061,0.06,0.061,0.06,0.061v4.2l0.06,0.06
	l0.061,0.061h0.06l0.06,0.06v0.12h0.061l0.061,0.061h0.06v0.06l0.06,0.06v0.061h0.12v0.06c0.06,0.06,0.06,0.06,0.06,0.06v0.061
	h0.121v0.061c0.06,0.06,0.06,0.06,0.06,0.06l0.06,0.06h0.061v0.121h0.061l0.059,0.06h0.061v0.06l0.12,0.12h0.06v0.181
	c0.061,0.06,0.061,0.06,0.061,0.06v0.54h-0.061v0.18h-0.119v0.12h-0.061v0.12h-0.119v0.061h-0.181v0.119h-0.54v-0.06l-0.061-0.06
	h-0.119v-0.061h-0.18v-0.061l-0.061-0.06c0,0,0,0-0.061-0.06h-0.06v-0.061h-0.06l-0.061-0.12h-0.061l-0.059-0.06v-0.12h-0.121v-0.06
	l-0.119-0.121h-0.061v-0.06l-0.12-0.06v-0.061h-0.06v-0.06h-0.061l-0.06-0.12h-0.06v-0.061l-0.061-0.06c0,0,0,0-0.061-0.06h-0.06
	l-0.06-0.061v-0.06l-0.061-0.06h-0.06v-0.181h-0.06v-0.12c0,0,0,0-0.061-0.061h-0.061V8.585c0.061,0,0.061,0,0.061-0.061
	c0.061,0,0.061,0,0.061-0.06v-0.12h0.06v-0.06h0.06l0.061-0.06V8.166c0.06,0,0.06,0,0.06-0.061h0.06c0.061,0,0.061-0.06,0.061-0.119
	h0.3V7.925h0.12l0.061,0.061h0.299v0.119h0.121v0.061c0.06,0.061,0.06,0.061,0.06,0.061V8.286z M25.007,9.066v0.06l0.061,0.06v0.061
	l0.061,0.061v0.06l0.119,0.12h0.061v0.18h0.119v0.061h0.061v0.18l0.061,0.06l0.06,0.06v0.061l0.06,0.061h0.061v0.119l0.06,0.061
	v0.119l0.12,0.121v0.06h0.061v0.181l0.06,0.06v0.18l0.12,0.12v0.3h0.061v0.24h0.119v0.54l0.12,0.12v0.54c0,0.359,0,0.72,0,1.08v0.18
	c0,0.061,0,0.061-0.06,0.061c0,0.06,0,0.06-0.061,0.06v0.42h-0.119v0.3c0,0.061,0,0.061-0.061,0.061v0.18
	c0,0.061,0,0.061-0.061,0.061h-0.06v0.239c0,0.06,0,0.06-0.06,0.06v0.181h-0.061v0.06c0,0.062,0,0.062-0.061,0.062
	c0,0.06,0,0.06-0.06,0.06v0.18h-0.06v0.121h-0.061l-0.06,0.06v0.06c0,0.061,0,0.061-0.06,0.061c0,0.06,0,0.06-0.061,0.06v0.181
	h-0.061v0.06h-0.119v0.18h-0.061l-0.06,0.12h-0.06v0.061l-0.061,0.06v0.06c0,0.061,0,0.061-0.061,0.061c0,0.061,0,0.061-0.06,0.061
	c0,0.061,0,0.061-0.06,0.061v0.06l-0.121,0.06v0.061h-0.059c0,0.061,0,0.061-0.061,0.061c0,0.06,0,0.06-0.061,0.06v0.12h-0.06v0.12
	h-0.181c0,0.06,0,0.06-0.06,0.06c0,0.061,0,0.061-0.06,0.061v0.06h-0.061v0.06h-0.119v0.061c0,0.061,0,0.061-0.061,0.061v0.06
	l-0.12,0.06v0.061h-0.18v0.06c0,0.06,0,0.06-0.06,0.06c0,0.061,0,0.061-0.061,0.061c0,0.061,0,0.061-0.061,0.061h-0.18v0.119h-0.18
	v0.061h-0.18v0.119h-0.181v0.061c0,0.061,0,0.061-0.06,0.061h-0.12c0,0.06,0,0.06-0.06,0.06h-0.121v0.06l-0.06,0.061h-0.12v0.06
	h-0.24c0,0.06,0,0.06-0.06,0.06c0,0.061,0,0.061-0.06,0.061h-0.18v0.061h-0.361v0.06h-0.42v0.12h-0.119c-0.641,0-1.28,0-1.92,0
	h-0.061v-0.12h-0.42l-0.061-0.06h-0.299l-0.061-0.063h-0.18v-0.061l-0.061-0.06h-0.24l-0.06-0.06h-0.06l-0.061-0.061v-0.06h-0.119
	c0,0,0,0-0.061-0.06h-0.12l-0.06-0.061v-0.061h-0.181v-0.119h-0.18l-0.06-0.061h-0.121l-0.06-0.119h-0.12v-0.061h-0.119v-0.061
	l-0.061-0.06v-0.06h-0.18l-0.121-0.12v-0.06l-0.119-0.121h-0.061v-0.06h-0.06l-0.06-0.06h-0.061l-0.061-0.061v-0.061h-0.119v-0.119
	h-0.061l-0.06-0.061v-0.06c0,0,0,0-0.06-0.06v-0.061h-0.061c-0.298-0.275,0.059-0.023-0.24-0.3h-0.06v-0.12l-0.06-0.061v-0.06
	h-0.121v-0.12h-0.06l-0.06-0.06v-0.12h-0.061v-0.061h-0.061l-0.059-0.119v-0.061c0,0,0,0-0.061-0.061v-0.119l-0.061-0.061h-0.06
	v-0.119h-0.06v-0.181l-0.061-0.06l-0.061-0.061v-0.06h-0.06v-0.181l-0.06-0.06v-0.239h-0.12v-0.24l-0.12-0.061v-0.3h-0.061v-0.54
	l-0.119-0.12v-0.601c0-0.359,0-0.719,0-1.079v-0.181h0.119v-0.479h0.061v-0.36h0.12v-0.3h0.12v-0.239h0.06v-0.181h0.06v-0.181h0.121
	v-0.18h0.06v-0.18h0.12v-0.18h0.061v-0.18h0.119V9.666h0.061v-0.18h0.119v-0.12h0.121V9.185h0.06V9.066h0.06V9.005h0.12V8.945h0.06
	V8.826h0.121v-0.12h0.06v-0.12h0.12v-0.12h0.18v-0.12h0.061v-0.06h0.119v-0.06h0.061V8.105h0.119V7.986h0.061V7.925h0.24V7.806
	h0.061V7.746h0.18v-0.12h0.06v-0.06h0.181V7.505h0.239v-0.12h0.181v-0.06h0.119v-0.12h0.24v-0.12h0.12V7.025h0.3V6.906h0.24V6.845
	h0.359V6.726h0.541V6.666h0.119c0.561,0,1.121,0,1.681,0h0.12v0.061h0.479l0.06,0.06v0.06h0.361v0.061h0.18l0.06,0.06l0.06,0.06
	h0.181l0.06,0.061h0.12l0.06,0.061v0.06h0.181v0.12h0.18v0.06h0.181v0.12h0.18v0.061h0.18v0.06l0.12,0.06v0.061h0.12v0.061h0.061
	l0.06,0.06v0.06h0.18v0.061l0.12,0.06v0.06h0.061v0.121h0.119v0.06h0.061v0.06l0.06,0.061l0.06,0.06h0.181v0.12h0.06v0.12
	l0.121,0.12h0.059v0.119h0.121v0.061l0.06,0.061H25.007z M25.308,6.906l0.06,0.119h0.12l0.061,0.061h0.06v0.12h0.12v0.06
	c0.06,0.061,0.06,0.061,0.06,0.061l0.12,0.06v0.06l0.061,0.061v0.061h0.06v0.18h0.12l0.061,0.061l0.059,0.119h0.061l0.061,0.061
	h0.06v0.18l0.06,0.061v0.06h0.121v0.06h0.06v0.18l0.12,0.061v0.061h0.06v0.06l0.06,0.12v0.06l0.121,0.06v0.061l0.06,0.061h0.06v0.18
	h0.061v0.18l0.119,0.061v0.119l0.061,0.061v0.12c0,0.06,0.061,0.06,0.12,0.06v0.12l0.06,0.06v0.121l0.061,0.119v0.18l0.119,0.121
	v0.18l0.061,0.061v0.18l0.061,0.06h0.06v0.42h0.12v0.479l0.061,0.061v0.18c0,0.181,0,0.36,0,0.541v0.18l0.119,0.06v0.72h-0.119
	v0.121c0,0.199,0,0.399,0,0.6v0.119h-0.061v0.48h-0.12v0.301h-0.12v0.42h-0.061v0.239h-0.119v0.3h-0.061v0.12h-0.06v0.181h-0.12
	v0.18h-0.061v0.18h-0.119v0.24h-0.061v0.12h-0.119v0.239h-0.121v0.061h-0.06v0.18h-0.06v0.061h-0.12v0.24h-0.06v0.06h-0.121v0.06
	h-0.06v0.24h-0.12v0.061h-0.119v0.119h-0.061v0.061h-0.12v0.18h-0.06v0.062h-0.061v0.12h-0.12v0.119h-0.06v0.061h-0.12v0.12h-0.12
	v0.06h-0.18v0.12h-0.061v0.06h-0.119v0.061h-0.061v0.12h-0.061v0.12h-0.24v0.06h-0.059v0.12h-0.181v0.061h-0.06v0.119h-0.24v0.061
	h-0.061v0.12h-0.18v0.06h-0.18v0.061h-0.18v0.119h-0.181v0.121h-0.181v0.06h-0.18v0.12h-0.3v0.06h-0.18v0.12h-0.24v0.061h-0.3v0.06
	h-0.42v0.12h-0.48v0.06h-0.06c-0.22,0-0.44,0-0.66,0h-0.06v0.12h-1.021l-0.06-0.061v-0.06h-0.12c-0.522,0.043-0.653-0.073-1.08-0.06
	h-0.12v-0.061l-0.061-0.06h-0.299l-0.061-0.06h-0.18v-0.061h-0.301v-0.12h-0.24v-0.06h-0.18v-0.12h-0.3v-0.06h-0.12l-0.119-0.121
	h-0.061l-0.12-0.119h-0.06l-0.061-0.061h-0.061v-0.06h-0.18v-0.12h-0.18c0,0,0,0-0.061-0.061c0-0.06,0-0.119-0.06-0.119h-0.18
	v-0.061h-0.06v-0.061l-0.121-0.06h-0.06v-0.06h-0.12v-0.061l-0.06-0.06l-0.06-0.12c0,0,0,0-0.061-0.061h-0.18v-0.06h-0.061v-0.12
	h-0.119v-0.06h-0.061v-0.12h-0.12v-0.061h-0.06l-0.121-0.119v-0.061l-0.06-0.06h-0.06v-0.06l-0.061-0.061l-0.06-0.061v-0.06
	c0,0,0,0-0.06-0.06h-0.061v-0.121h-0.061v-0.06h-0.119v-0.12h-0.061v-0.119l-0.119-0.061v-0.061h-0.061l-0.12-0.119v-0.18h-0.06
	l-0.061-0.061h-0.061v-0.18h-0.059v-0.24h-0.121v-0.12h-0.06v-0.12l-0.12-0.12v-0.12l-0.061-0.06v-0.12l-0.119-0.061v-0.119
	l-0.12-0.061v-0.119h-0.06v-0.301h-0.061v-0.24h-0.12v-0.359l-0.06-0.061v-0.24l-0.061-0.06h-0.06v-0.18
	c0.022-0.571-0.081,0.034-0.06-0.54v-0.6l-0.061-0.061l-0.061-0.12v-1.021h0.061c0.061,0,0.061,0,0.061-0.06v-0.06
	c0-0.18,0-0.36,0-0.54v-0.06c0.06,0,0.06,0,0.06-0.061v-0.359h0.06l0.061-0.061v-0.301h0.06v-0.239l0.12-0.06v-0.24h0.061v-0.301
	h0.06v-0.119l0.12-0.061v-0.24l0.119-0.06v-0.12h0.061v-0.18h0.061l0.06-0.12v-0.06h0.06V9.066h0.121V8.947
	c0.059,0,0.059,0,0.059-0.061v-0.18h0.061c0.061,0,0.061,0,0.061-0.061h0.06v-0.18h0.06l0.061-0.119h0.061V8.287h0.119v-0.18h0.061
	V7.986h0.119v-0.06h0.061v-0.12h0.061c0.06,0,0.06,0,0.06-0.06v-0.12h0.06c0.061,0,0.061,0,0.061-0.061l0.06-0.06
	c0.06,0,0.06,0,0.06-0.06V7.386c0.061,0,0.061,0,0.061-0.06h0.061l0.06-0.06V7.207h0.12v-0.12h0.061v-0.06h0.119v-0.12h0.12
	c0.06,0,0.06,0,0.06-0.062h0.061l0.061-0.119c0.06,0,0.06,0,0.06-0.061c0.06,0,0.06,0,0.06-0.061h0.12l0.06-0.06v-0.06l0.121-0.061
	c0.06,0,0.06,0,0.06-0.06v-0.06h0.18l0.06-0.121h0.121v-0.06h0.119v-0.12h0.18V5.945h0.121l0.06-0.06h0.12v-0.06
	c0.061,0,0.061-0.061,0.061-0.12h0.239l0.12-0.06V5.585h0.18v-0.12h0.18v-0.06h0.24v-0.12h0.36v-0.06h0.3V5.166h0.36
	c0.06,0,0.06,0,0.06-0.061c0.061,0,0.061,0,0.061-0.06h0.24l0.119-0.06h0.721V4.925c0.06,0,0.06-0.06,0.06-0.119h1.021v0.119
	c0.06,0.061,0.06,0.061,0.06,0.061h0.72l0.12,0.06h0.36v0.06l0.061,0.061h0.299v0.061h0.24l0.061,0.06h0.3l0.06,0.12h0.24v0.06h0.18
	v0.12h0.18v0.061l0.061,0.06h0.301v0.12c0.06,0.06,0.06,0.06,0.06,0.06h0.12v0.06h0.18v0.061h0.18v0.12h0.061l0.06,0.06h0.181v0.121
	h0.06v0.06c0.06,0.06,0.06,0.06,0.06,0.06h0.121l0.18,0.18l0.119,0.061h0.061v0.061h0.061l0.06,0.119h0.06L25.308,6.906z"/>
<path fill="#B8CE64" d="M36.708,33.726h0.299v-0.061h0.36v-0.12h0.12l0.18,0.06v0.121h0.12v0.18l0.12,0.119v0.181h0.061v0.239
	l0.061,0.061l0.061,0.061v0.119l0.061,0.061v0.18h0.061l0.06,0.061v0.18l0.061,0.061v0.119h0.058l0.06,0.12v0.181h0.06v0.299h0.062
	v0.121l0.12,0.06v0.24l0.061,0.06h0.061v0.18l0.06,0.061v0.182h0.06l0.059,0.059v0.18c0.061,0.061,0.061,0.061,0.061,0.061v0.238
	h0.061v0.121l0.12,0.061v0.24l0.06,0.061h0.061v0.18l0.061,0.061v0.18h0.061v0.24h0.117v0.301h0.062l0.062,0.059v0.061l0.06,0.061
	v0.24h0.12v0.301h0.06v0.061l0.06,0.061v0.061h0.121v0.061h0.061l0.061,0.061h0.119l0.061,0.061l0.061,0.061h0.359v-0.121h0.301
	v-0.061h0.061v-0.059h0.119v-0.121h0.057v-0.061h0.119V39.25h0.061v-0.18h0.12v-0.24h0.06v-0.301h0.061v-0.238h0.119v-0.24h0.121
	v-0.238h0.061V37.51h0.12v-0.119h0.06V37.09h0.12v-0.238h0.062v-0.24h0.117v-0.24h0.062v-0.3h0.12v-0.12h0.06v-0.3h0.12v-0.301
	h0.061v-0.18h0.121v-0.24h0.119v-0.3h0.061v-0.18h0.06v-0.24h0.12v-0.3h0.061v-0.18h0.119v-0.181h0.301l0.061,0.12h0.3
	c0.062,0.061,0.062,0.061,0.062,0.061h0.42v0.119h0.42c0.061,0.061,0.061,0.061,0.061,0.061h0.299l0.062,0.061v0.06h0.42l0.062,0.06
	h0.354l0.061,0.061v0.06h0.359v0.06h0.359l0.061,0.061v0.061h0.36l0.06,0.06h0.24l0.061,0.06v0.061h0.181v0.06h0.239l0.061,0.06
	v0.121h-3.241c0,0.06,0,0.06-0.06,0.06c0,0.06,0,0.06-0.061,0.06h-0.24l-0.061,0.061h-0.12l-0.06,0.119l-0.061,0.061h-0.059v0.12
	c0,0.06,0,0.06-0.061,0.06h-0.061v0.24c0,0.061,0,0.061-0.061,0.061v10.02H30.947l-0.06-4.98h1.02v-0.061h0.359v-0.119h0.24v-0.061
	h0.061v-0.119h0.12v-0.18h0.06v-0.361h0.061v-5.04h0.119v-0.12h0.181v-0.06h0.3v-0.12h0.24V34.39h0.359v-0.119h0.42V34.21h0.48
	v-0.12h0.359v-0.06h0.479v-0.12h0.302v-0.06h0.479V33.73h0.182 M25.007,9.066v0.06l0.061,0.06v0.061l0.061,0.061v0.06l0.119,0.12
	h0.061v0.18h0.119v0.061h0.061v0.18l0.061,0.06l0.06,0.06v0.061l0.06,0.061h0.061v0.119l0.06,0.061v0.119l0.12,0.121v0.06h0.061
	v0.181l0.06,0.06v0.18l0.12,0.12v0.3h0.061v0.24h0.119v0.54l0.12,0.12v0.54c0,0.359,0,0.72,0,1.08v0.18c0,0.061,0,0.061-0.06,0.061
	c0,0.06,0,0.06-0.061,0.06v0.42h-0.119v0.3c0,0.061,0,0.061-0.061,0.061v0.18c0,0.061,0,0.061-0.061,0.061h-0.06v0.239
	c0,0.06,0,0.06-0.06,0.06v0.181h-0.061v0.06c0,0.062,0,0.062-0.061,0.062c0,0.06,0,0.06-0.06,0.06v0.18h-0.06v0.121h-0.061
	l-0.06,0.06v0.06c0,0.061,0,0.061-0.06,0.061c0,0.06,0,0.06-0.061,0.06v0.181h-0.061v0.06h-0.119v0.18h-0.061l-0.06,0.12h-0.06
	v0.061l-0.061,0.06v0.06c0,0.061,0,0.061-0.061,0.061c0,0.061,0,0.061-0.06,0.061c0,0.061,0,0.061-0.06,0.061v0.06l-0.121,0.06
	v0.061h-0.059c0,0.061,0,0.061-0.061,0.061c0,0.06,0,0.06-0.061,0.06v0.12h-0.06v0.12h-0.181c0,0.06,0,0.06-0.06,0.06
	c0,0.061,0,0.061-0.06,0.061v0.06h-0.061v0.06h-0.119v0.061c0,0.061,0,0.061-0.061,0.061v0.06l-0.12,0.06v0.061h-0.18v0.06
	c0,0.06,0,0.06-0.06,0.06c0,0.061,0,0.061-0.061,0.061c0,0.061,0,0.061-0.061,0.061h-0.18v0.119h-0.18v0.061h-0.18v0.119h-0.181
	v0.061c0,0.061,0,0.061-0.06,0.061h-0.12c0,0.06,0,0.06-0.06,0.06h-0.121v0.06l-0.06,0.061h-0.12v0.06h-0.24
	c0,0.06,0,0.06-0.06,0.06c0,0.061,0,0.061-0.06,0.061h-0.18v0.061h-0.361v0.06h-0.42v0.12h-0.119c-0.641,0-1.28,0-1.92,0h-0.061
	v-0.12h-0.42l-0.061-0.06h-0.299l-0.061-0.063h-0.18v-0.061l-0.061-0.06h-0.24l-0.06-0.06h-0.06l-0.061-0.061v-0.06h-0.119
	c0,0,0,0-0.061-0.06h-0.12l-0.06-0.061v-0.061h-0.181v-0.119h-0.18l-0.06-0.061h-0.121l-0.06-0.119h-0.12v-0.061h-0.119v-0.061
	l-0.061-0.06v-0.06h-0.18l-0.121-0.12v-0.06l-0.119-0.121h-0.061v-0.06h-0.06l-0.06-0.06h-0.061l-0.061-0.061v-0.061h-0.119v-0.119
	h-0.061l-0.06-0.061v-0.06c0,0,0,0-0.06-0.06v-0.061h-0.061c-0.298-0.275,0.059-0.023-0.24-0.3h-0.06v-0.12l-0.06-0.061v-0.06
	h-0.121v-0.12h-0.06l-0.06-0.06v-0.12h-0.061v-0.061h-0.061l-0.059-0.119v-0.061c0,0,0,0-0.061-0.061v-0.119l-0.061-0.061h-0.06
	v-0.119h-0.06v-0.181l-0.061-0.06l-0.061-0.061v-0.06h-0.06v-0.181l-0.06-0.06v-0.239h-0.12v-0.24l-0.12-0.061v-0.3h-0.061v-0.54
	l-0.119-0.12v-0.601c0-0.359,0-0.719,0-1.079v-0.181h0.119v-0.479h0.061v-0.36h0.12v-0.3h0.12v-0.239h0.06v-0.181h0.06v-0.181h0.121
	v-0.18h0.06v-0.18h0.12v-0.18h0.061v-0.18h0.119V9.666h0.061v-0.18h0.119v-0.12h0.121V9.185h0.06V9.066h0.06V9.005h0.12V8.945h0.06
	V8.826h0.121v-0.12h0.06v-0.12h0.12v-0.12h0.18v-0.12h0.061v-0.06h0.119v-0.06h0.061V8.105h0.119V7.986h0.061V7.925h0.24V7.806
	h0.061V7.746h0.18v-0.12h0.06v-0.06h0.181V7.505h0.239v-0.12h0.181v-0.06h0.119v-0.12h0.24v-0.12h0.12V7.025h0.3V6.906h0.24V6.845
	h0.359V6.726h0.541V6.666h0.119c0.561,0,1.121,0,1.681,0h0.12v0.061h0.479l0.06,0.06v0.06h0.361v0.061h0.18l0.06,0.06l0.06,0.06
	h0.181l0.06,0.061h0.12l0.06,0.061v0.06h0.181v0.12h0.18v0.06h0.181v0.12h0.18v0.061h0.18v0.06l0.12,0.06v0.061h0.12v0.061h0.061
	l0.06,0.06v0.06h0.18v0.061l0.12,0.06v0.06h0.061v0.121h0.119v0.06h0.061v0.06l0.06,0.061l0.06,0.06h0.181v0.12h0.06v0.12
	l0.121,0.12h0.059v0.119h0.121v0.061l0.06,0.061H25.007z"/>
<path fill="#FFFFFF" d="M55.907,49.266h-42.6v-1.801h42.6V49.266z M46.188,43.926v-0.061h9.72v1.801h-9.72V43.926z M46.188,40.205
	h9.72v1.861h-9.72V40.205z M25.247,44.166h0.061l0.119,0.061v0.061l0.061,0.061v0.061h0.18c0.061,0.059,0.061,0.059,0.061,0.059
	l0.06,0.061v0.121h0.06l0.061,0.119v0.061l0.061,0.061v0.24c-2.58,0.84-5.16,0.84-7.621,0V44.77h0.121v-0.182h0.119v-0.119h0.061
	v-0.061h0.18v-0.119h0.061v-0.121h0.119c2.041,0,4.08,0,6.121,0h0.119V44.166z M21.827,33.545v-0.06h0.66l0.061,0.06h0.119
	l0.061,0.12h0.06v0.061h0.06l0.061,0.119h0.061v0.18h0.119v8.401h-1.8v-8.52h0.06v-0.061h0.121v-0.119h0.06v-0.061h0.12v-0.12
	H21.827z M46.188,36.727v-0.121h9.72v1.801h-9.72V36.727z M39.347,32.646h0.24v0.119h0.121c0.139,0,0.278,0,0.42,0h0.06
	c0.06,0.061,0.06,0.061,0.06,0.061h0.061c0.24,0,0.479,0,0.721,0h0.12v-0.061h0.062c0.158,0,0.318,0,0.479,0h0.061v-0.119h0.18
	l0.181,0.06v0.18l-0.06,0.06v0.061c0,0.061,0,0.061-0.062,0.061h-0.062v0.3h-0.119v0.18h-0.061v0.24c0,0.06,0,0.06-0.06,0.06v0.18
	h-0.06c0,0.061,0,0.061-0.062,0.061v0.18h-0.06v0.24l-0.119,0.061v0.18c0,0.061,0,0.061-0.061,0.061v0.119l-0.061,0.061h-0.059v0.24
	c0,0.06,0,0.06-0.062,0.06v0.18c0,0.06,0,0.06-0.062,0.06h-0.06v0.181h-0.12v0.239l-0.061,0.061v0.24h-0.058v0.24l-0.12-0.061h-0.06
	v-0.18h-0.06l-0.062-0.061v-0.18l-0.062-0.061h-0.06v-0.239l-0.06-0.06v-0.121h-0.059v-0.239l-0.119-0.06v-0.24h-0.061l-0.061-0.061
	v-0.119h-0.061v-0.24l-0.061-0.061v-0.24h-0.059l-0.061-0.06v-0.12l-0.059-0.061v-0.18l-0.121-0.119v-0.181h-0.061l-0.061-0.06
	v-0.12h-0.059v-0.3h-0.061v-0.24h-0.06l-0.06-0.061v-0.119H39.347z M41.747,24.185h0.18v-0.119h0.121v-0.061h0.061v-0.061h0.18
	v-0.119h0.12v-0.12h0.062v-0.06h0.18v0.06h0.119l0.061,0.06v0.061h0.18v0.119h0.121v0.061h0.119l0.062,0.061h0.118l0.062,0.119h0.12
	c0.061,0.061,0.061,0.061,0.061,0.061l0.061,0.061v0.06h0.18v0.06h0.12l0.06,0.061h0.062l0.062,0.06v0.06h0.059l0.121,0.121h0.119
	c0.061,0.06,0.061,0.06,0.061,0.06l0.061,0.06l0.061,0.061h0.12v0.06h0.173v0.12c0,0.74,0,1.48,0,2.221v0.119h-0.061v0.36
	c0,0.06,0,0.06-0.061,0.06c0,0.061,0,0.061-0.061,0.061v0.24h-0.059v0.18c0,0.06,0,0.06-0.06,0.06v0.12c0,0.061,0,0.061-0.06,0.061
	c0,0.06,0,0.06-0.062,0.06v0.06c0,0.061,0,0.061-0.062,0.061h-0.06v0.18h-0.058l-0.062,0.12h-0.062v0.181h-0.059v0.06l-0.061,0.06
	v0.061c0,0.06,0,0.06-0.061,0.06c0,0.06,0,0.06-0.061,0.06h-0.061c0,0.061,0,0.061-0.061,0.061v0.061l-0.061,0.06v0.06h-0.115v0.061
	h-0.061l-0.06,0.119h-0.06v0.061h-0.061l-0.061,0.12h-0.061v0.06c0,0.061,0,0.061-0.061,0.061h-0.059l-0.06,0.061h-0.06v0.06h-0.181
	v0.12h-0.12v0.06l-0.061,0.06h-0.119v0.061h-0.18v0.061h-0.24v0.119h-0.301v0.061c0,0.06-0.061,0.06-0.119,0.06h-0.24v0.06h-0.54
	v0.121h-0.66l-0.06-0.121h-0.48l-0.061-0.06h-0.299c0,0,0,0-0.062-0.06v-0.061h-0.239l-0.061-0.119h-0.119v-0.061h-0.24l-0.06-0.061
	l-0.06-0.06l-0.062-0.06h-0.12v-0.12h-0.182v-0.06h-0.117v-0.061l-0.061-0.061v-0.06h-0.181v-0.12h-0.119v-0.061h-0.06l-0.061-0.119
	h-0.061v-0.061h-0.061l-0.061-0.06v-0.06l-0.061-0.061l-0.061-0.061v-0.119l-0.12-0.061l-0.118-0.119h-0.059v-0.181h-0.061v-0.18
	h-0.119v-0.181l-0.062-0.06h-0.062v-0.12c0,0,0,0-0.059-0.061v-0.119h-0.059v-0.301h-0.12v-0.239l-0.06-0.06l-0.062-0.061v-0.42
	h-0.062v-0.061c0-0.56,0-1.119,0-1.68v-0.061h0.062c0.642,0,1.28,0,1.92,0h0.12v-0.06h0.061c0.181,0,0.359,0,0.541,0h0.06v-0.12
	h0.479v-0.119h0.36v-0.061h0.3v-0.12h0.24v-0.06h0.18v-0.12h0.18v-0.06h0.182v-0.121h0.182v-0.119h0.18v-0.061h0.18v-0.06h0.12
	v-0.12h0.06v-0.061H41.747z"/>
<path fill="#02534E" d="M20.522,8.396h0.119v0.06h0.061v0.18c0.061,0.06,0.061,0.06,0.061,0.06v4.201l0.061,0.06l0.061,0.062h0.06
	l0.062,0.06v0.12h0.061l0.061,0.061h0.06v0.061l0.061,0.06v0.062h0.119v0.06c0.062,0.06,0.062,0.06,0.062,0.06v0.062h0.119v0.062
	c0.061,0.06,0.061,0.06,0.061,0.06l0.061,0.06h0.062v0.121h0.06l0.061,0.061h0.061v0.06l0.119,0.12h0.061v0.181
	c0.062,0.06,0.062,0.06,0.062,0.06v0.541h-0.062v0.18H21.97v0.12h-0.061v0.12h-0.12v0.061h-0.181v0.119h-0.539v-0.061l-0.061-0.06
	h-0.121v-0.062h-0.18V15.3l-0.06-0.06c0,0,0,0-0.06-0.06h-0.061V15.12h-0.061L20.408,15h-0.06l-0.061-0.061V14.82h-0.119v-0.061
	l-0.121-0.121h-0.06v-0.06l-0.12-0.06v-0.062h-0.061v-0.06h-0.059l-0.061-0.121h-0.061v-0.061l-0.06-0.06c0,0,0,0-0.06-0.06h-0.061
	l-0.061-0.062v-0.06l-0.06-0.061h-0.06v-0.182h-0.061v-0.119c0,0,0,0-0.06-0.062h-0.06V8.695c0.06,0,0.06,0,0.06-0.061
	c0.06,0,0.06,0,0.06-0.06v-0.12h0.061V8.394h0.06l0.06-0.06v-0.06c0.061,0,0.061,0,0.061-0.061h0.061c0.06,0,0.06-0.061,0.06-0.12
	h0.3v-0.06h0.12l0.06,0.06h0.301v0.12h0.119v0.061c0.061,0.06,0.061,0.06,0.061,0.06v0.062H20.522z"/>
</svg>
