<?xml version="1.0" encoding="utf-8"?>
<!-- Generator: Adobe Illustrator 16.0.0, SVG Export Plug-In . SVG Version: 6.00 Build 0)  -->
<!DOCTYPE svg PUBLIC "-//W3C//DTD SVG 1.1//EN" "http://www.w3.org/Graphics/SVG/1.1/DTD/svg11.dtd">
<svg version="1.1" id="Layer_1" xmlns="http://www.w3.org/2000/svg" xmlns:xlink="http://www.w3.org/1999/xlink" x="0px" y="0px"
	 width="67px" height="72px" viewBox="0 0 67 72" enable-background="new 0 0 67 72" xml:space="preserve">
<path fill-rule="evenodd" clip-rule="evenodd" fill="#04544E" d="M48.023,23.871v1.86l-0.3,0.54v0.12
	c-0.24,0.3-0.601,0.54-1.021,0.66v0.06c-0.359,0.06-0.72,0.06-1.02,0h-0.12c-0.36-0.12-0.66-0.3-0.9-0.6l-0.12-0.06
	c-0.3-0.6-0.42-1.44-0.359-2.46v-0.12H48.023 M16.703,41.21c-0.18-0.18-0.3-0.48-0.359-0.78v-0.06c0.06-0.3,0.239-0.54,0.539-0.6
	c0.061,0,0.061,0,0.061-0.06c4.02-0.06,7.92,0,11.76,0.12h0.12c0.24,0.12,0.36,0.36,0.36,0.78v0.12c-0.061,0.24-0.24,0.42-0.54,0.48
	v0.06c-4.021,0.06-7.92,0-11.82-0.06H16.703z M13.583,31.851v3.84l-2.64-0.06v-0.06c-0.12-1.08-0.18-2.22-0.12-3.48v-0.12
	c0.78-0.12,1.68-0.18,2.64-0.12H13.583z M37.403,34.971v-0.12h9.479v7.26h-9.479V34.971z M36.923,33.471h10.32l0.42,0.18h0.061
	l0.3,0.36h0.06l0.12,0.36h0.061v8.16l-0.061,0.06l-0.12,0.3l-0.06,0.06l-0.3,0.36h-0.061l-0.42,0.18h-10.32v-0.06l-0.359-0.12
	l-0.42-0.42v-0.06l-0.12-0.36v-7.98l0.12-0.36v-0.12l0.359-0.3l0.061-0.06l0.359-0.12V33.471z M36.264,29.931
	c4.02-0.06,7.979,0,11.819,0.06h0.061c0.239,0.18,0.359,0.42,0.42,0.78v0.06c-0.061,0.3-0.24,0.54-0.54,0.6v0.06
	c-4.021,0.06-7.98,0-11.88-0.06h-0.061c-0.18-0.18-0.3-0.48-0.359-0.78v-0.06c0.06-0.3,0.239-0.54,0.54-0.6V29.931z M15.023,31.851
	h8.399v3.84h-8.399V31.851z M26.604,33.71c-0.48,0.42-1.021,0.84-1.561,1.2l-0.06,0.06c-0.061-0.66-0.12-1.44-0.061-2.28v-0.06
	c0.54,0.3,1.08,0.66,1.62,1.08H26.604z M28.644,27.891v0.06c-4.141,0.06-8.101,0-11.94-0.18h-0.06c-0.181-0.18-0.24-0.42-0.3-0.72
	v-0.12l0.479-0.48v-0.06c4.08-0.06,8.1,0,12,0.06h0.12c0.18,0.18,0.3,0.48,0.24,0.9v0.06C29.063,27.65,28.883,27.831,28.644,27.891z
	 M28.943,22.971c0.3,0.24,0.36,0.6,0.18,1.02v0.06c-0.12,0.18-0.3,0.24-0.6,0.3v0.06h-11.4l-0.42-0.18h-0.06
	c-0.181-0.18-0.24-0.42-0.3-0.72v-0.12c0.119-0.12,0.239-0.24,0.3-0.42h0.06c4.021-0.18,8.101-0.18,12.12,0H28.943z M16.644,19.371
	l0.479-0.12c3.96-0.06,7.8-0.06,11.58,0.06h0.12c0.24,0.18,0.36,0.42,0.36,0.84v0.06c-0.061,0.3-0.181,0.48-0.42,0.54l-0.061,0.06
	h-11.76c-0.3-0.18-0.54-0.42-0.6-0.84v-0.12l0.3-0.36V19.371z M10.823,18.531c0.3-0.3,0.84-0.36,1.5-0.24h0.12v12.18h-1.62V18.531z
	 M13.823,16.491c5.94-0.06,11.82,0,17.64,0.12h0.061c0.18,7.2,0.3,14.58,0.24,22.08l-0.061,6.12h-17.88v-7.74h10.5
	c1.26-0.78,2.46-1.56,3.6-2.46h0.061l0.12-0.42h0.06v-0.72l-0.18-0.36v-0.12l-3.48-2.46l-0.06-0.06h-10.62V16.491z M53.963,18.351
	c0.12,7.32,0.181,14.7,0.181,22.2c0,2.64-0.061,5.16-0.181,7.62l-19.92,0.18h-0.12c-0.18,0.12-0.359,0.24-0.6,0.3v0.06
	c-0.12-0.6-0.18-1.26-0.12-2.04v-0.06l0.36-0.3v-0.12h18c0.479-0.18,0.78-0.48,0.96-0.96l0.06-0.06v-26.88
	c0.54-0.06,0.96,0,1.32,0.06H53.963z M57.083,11.811c-0.06-0.18-0.239-0.36-0.42-0.42h-0.12c-1.26-0.18-2.22-0.06-2.88,0.36
	c-0.06,0.3,0,0.48,0.12,0.66v0.12c0.72,0.3,1.62,0.36,2.76,0.24h0.12c0.181-0.06,0.36-0.24,0.42-0.42l0.061-0.06v-0.42
	L57.083,11.811z M40.104,19.131c-1.141,0.06-2.4,0.12-3.721,0.12h-0.119l-0.54,0.54v0.06c-0.061,0.42,0.06,0.66,0.239,0.78
	l0.061,0.06l0.42,0.18h4.74c0.54,0.48,1.02,1.08,1.319,1.74v0.06c-1.92,0.06-3.899,0.12-5.939,0.06h-0.12
	c-0.3,0.06-0.54,0.24-0.66,0.54c0,0.06,0,0.06-0.06,0.06c-0.061,0.3,0,0.48,0.06,0.66v0.06c0.18,0.18,0.36,0.24,0.54,0.3l0.06,0.06
	h6.421c-0.061,0.72,0,1.32,0.06,1.86v0.12c-2.34-0.06-4.56,0-6.78,0.06h-0.06c-0.24,0.18-0.36,0.48-0.3,0.9v0.06
	c0.12,0.24,0.3,0.42,0.54,0.48v0.06h7.859c2.46,1.14,4.2,0.6,5.221-1.74h0.06c0.06-0.9,0.12-1.92,0.12-3v-0.12
	c0.3-0.9,0.78-1.62,1.439-2.22v-0.06c0.12,7.32,0.181,14.7,0.12,22.14v1.86h-17.88v-27.96c1.74-0.42,3.78-0.54,6.12-0.36h0.12
	c0.06,1.02,0.24,1.86,0.6,2.64H40.104z M38.304,11.511c0.3,0.24,0.359,0.54,0.239,0.9v0.12c-1.08,0.42-2.16,0.42-3.18,0h-0.12
	c-0.06-0.18-0.12-0.36-0.12-0.66l0.061-0.12c0.779-0.42,1.8-0.54,3.06-0.3L38.304,11.511z M39.983,5.811
	c0.66,0.6,1.32,1.26,1.92,1.98l0.06,0.06c-0.06,0.42-0.239,0.72-0.659,0.78v0.06c-0.181,0-0.36-0.06-0.48-0.18h-0.12l-1.56-1.68
	h-0.061v-0.66c0.12-0.3,0.42-0.42,0.84-0.36H39.983z M52.644,5.811c0.239,0.06,0.42,0.24,0.54,0.48l0.06,0.06
	c-0.06,0.24-0.12,0.42-0.18,0.6l-0.061,0.06l-1.439,1.44v0.06l-0.601,0.18h-0.06c-0.24-0.06-0.42-0.24-0.48-0.48h-0.119v-0.54
	c0.54-0.78,1.319-1.44,2.279-1.86H52.644z M47.663,9.65l1.561,0.6h0.06l0.36,0.48l0.06,0.12c0,0.24-0.06,0.42-0.18,0.6
	c-0.061,0.06-0.24,0.12-0.42,0.18c-0.54-0.18-1.141-0.36-1.74-0.54v-0.06c-0.78-0.12-1.62-0.12-2.46,0h-0.06
	c-1.381,0.42-2.4,1.14-3.12,2.22h-0.061l-0.12,0.36c-0.06,0.06-0.12,0.12-0.12,0.24l-0.06,0.18l-0.36,0.6c-0.18,0.6-0.3,1.2-0.3,1.8
	c0,0.18,0.061,0.42,0.12,0.84c0.06,0.24,0.12,0.42,0.18,0.6c0.061,0.3,0.181,0.6,0.36,0.96l0.18,0.48
	c0.061,0.18,0.181,0.36,0.301,0.42l0.119,0.12c0.42,0.9,1.08,1.68,1.92,2.46v0.06h4.381c1.02-1.5,2.04-3.06,2.939-4.74h0.061
	c0.239-1.62,0.06-3-0.601-4.08l-0.06-0.06c-0.061-0.3,0-0.54,0.12-0.72v-0.12c0.18-0.12,0.479-0.18,0.84-0.12h0.06
	c0.42,0.54,0.78,1.2,0.96,2.04h0.061c0.18,0.78,0.239,1.5,0.18,2.22c0.36,0.12,0.78,0.18,1.2,0.12l0.12-0.06
	c0.6,0.18,1.02,0.6,1.26,1.26h0.06c0.061,7.26,0.12,14.64,0.12,22.14c0,2.82-0.06,5.52-0.12,8.1l-0.239,0.6l-0.061,0.06
	c-0.24,0.3-0.54,0.48-0.899,0.6v0.06c-6.54,0.12-13.2,0.18-19.86,0.12h-0.12l-1.5,1.2l-0.06,0.06h-0.66v-0.06
	c-0.42-0.3-0.72-0.6-1.021-1.02h-0.06l-0.42-0.18h-0.061c-7.14,0.18-13.92,0-20.399-0.42v-0.06c-0.3-0.24-0.48-0.54-0.66-0.96v-8.16
	c0.06,0,0.06,0,0.06-0.06c0.06-0.18,0.24-0.3,0.419-0.3l0.12-0.06c0.181-0.06,0.42,0,0.721,0.18v0.12c0,2.76,0.119,5.46,0.3,8.1
	v0.06c7.26-0.18,14.1-0.06,20.58,0.48c0.06-0.84,0.06-1.62,0-2.28h-0.12c-5.88-0.24-11.94-0.3-18.12-0.24l-0.06-0.06l-0.36-0.06
	v-0.12l-0.54-0.54v-0.12c0.06-2.76,0-5.46-0.12-8.1v-0.06c-0.54-0.06-1.08-0.06-1.5,0.06v0.12c-0.06,0.42-0.3,0.66-0.78,0.66
	l-0.12-0.06l-0.479-0.36v-19.26c0.12-0.18,0.24-0.36,0.3-0.54v-0.12l0.54-0.48v-0.06l0.48-0.18v-0.06h1.68v-0.84
	c0.06-0.06,0.12-0.18,0.18-0.36v-0.06l0.3-0.24v-0.06l0.36-0.12v-0.06c6.12-0.18,12.24-0.18,18.36,0h0.06l0.72,0.42v0.06l0.78-0.42
	v-0.06c1.98-0.12,4.021-0.18,6.12-0.12h0.12c0.54-1.92,1.5-3.36,2.939-4.38v-0.06c1.32-0.84,3.061-1.14,5.16-0.9H47.663z
	 M46.764,4.19v0.12c0.119,1.08,0.06,2.04-0.12,2.82h-0.12c-0.48,0.24-0.84,0.12-1.021-0.42h-0.06l-0.061-2.52h0.12v-0.06
	c0.061-0.18,0.181-0.24,0.42-0.3c0.061,0,0.061,0,0.061-0.06h0.3l0.061,0.06C46.583,3.891,46.703,4.011,46.764,4.19z"/>
<path fill-rule="evenodd" clip-rule="evenodd" fill="#B8CE64" d="M16.703,41.21c-0.18-0.18-0.3-0.48-0.359-0.78v-0.06
	c0.06-0.3,0.239-0.54,0.539-0.6c0.061,0,0.061,0,0.061-0.06c4.02-0.06,7.92,0,11.76,0.12h0.12c0.24,0.12,0.36,0.36,0.36,0.78v0.12
	c-0.061,0.24-0.24,0.42-0.54,0.48v0.06c-4.021,0.06-7.92,0-11.82-0.06H16.703 M36.923,33.471h10.32l0.42,0.18h0.061l0.3,0.36h0.06
	l0.12,0.36h0.061v8.16l-0.061,0.06l-0.12,0.3l-0.06,0.06l-0.3,0.36h-0.061l-0.42,0.18h-10.32v-0.06l-0.359-0.12l-0.42-0.42v-0.06
	l-0.12-0.36v-7.98l0.12-0.36v-0.12l0.359-0.3l0.061-0.06l0.359-0.12V33.471z M36.264,29.931c4.02-0.06,7.979,0,11.819,0.06h0.061
	c0.239,0.18,0.359,0.42,0.42,0.78v0.06c-0.061,0.3-0.24,0.54-0.54,0.6v0.06c-4.021,0.06-7.98,0-11.88-0.06h-0.061
	c-0.18-0.18-0.3-0.48-0.359-0.78v-0.06c0.06-0.3,0.239-0.54,0.54-0.6V29.931z M28.644,27.891v0.06c-4.141,0.06-8.101,0-11.94-0.18
	h-0.06c-0.181-0.18-0.24-0.42-0.3-0.72v-0.12l0.479-0.48v-0.06c4.08-0.06,8.1,0,12,0.06h0.12c0.18,0.18,0.3,0.48,0.24,0.9v0.06
	C29.063,27.65,28.883,27.831,28.644,27.891z M28.943,22.971c0.3,0.24,0.36,0.6,0.18,1.02v0.06c-0.12,0.18-0.3,0.24-0.6,0.3v0.06
	h-11.4l-0.42-0.18h-0.06c-0.181-0.18-0.24-0.42-0.3-0.72v-0.12c0.119-0.12,0.239-0.24,0.3-0.42h0.06c4.021-0.18,8.101-0.18,12.12,0
	H28.943z M16.644,19.371l0.479-0.12c3.96-0.06,7.8-0.06,11.58,0.06h0.12c0.24,0.18,0.36,0.42,0.36,0.84v0.06
	c-0.061,0.3-0.181,0.48-0.42,0.54l-0.061,0.06h-11.76c-0.3-0.18-0.54-0.42-0.6-0.84v-0.12l0.3-0.36V19.371z M13.823,16.491
	c5.94-0.06,11.82,0,17.64,0.12h0.061c0.18,7.2,0.3,14.58,0.24,22.08l-0.061,6.12h-17.88v-7.74h10.5c1.26-0.78,2.46-1.56,3.6-2.46
	h0.061l0.12-0.42h0.06v-0.72l-0.18-0.36v-0.12l-3.48-2.46l-0.06-0.06h-10.62V16.491z M40.104,19.131
	c-1.141,0.06-2.4,0.12-3.721,0.12h-0.119l-0.54,0.54v0.06c-0.061,0.42,0.06,0.66,0.239,0.78l0.061,0.06l0.42,0.18h4.74
	c0.54,0.48,1.02,1.08,1.319,1.74v0.06c-1.92,0.06-3.899,0.12-5.939,0.06h-0.12c-0.3,0.06-0.54,0.24-0.66,0.54
	c0,0.06,0,0.06-0.06,0.06c-0.061,0.3,0,0.48,0.06,0.66v0.06c0.18,0.18,0.36,0.24,0.54,0.3l0.06,0.06h6.421
	c-0.061,0.72,0,1.32,0.06,1.86v0.12c-2.34-0.06-4.56,0-6.78,0.06h-0.06c-0.24,0.18-0.36,0.48-0.3,0.9v0.06
	c0.12,0.24,0.3,0.42,0.54,0.48v0.06h7.859c2.46,1.14,4.2,0.6,5.221-1.74h0.06c0.06-0.9,0.12-1.92,0.12-3v-0.12
	c0.3-0.9,0.78-1.62,1.439-2.22v-0.06c0.12,7.32,0.181,14.7,0.12,22.14v1.86h-17.88v-27.96c1.74-0.42,3.78-0.54,6.12-0.36h0.12
	c0.06,1.02,0.24,1.86,0.6,2.64H40.104z"/>
<path fill="#9A9A9A" d="M61.224,60.111c0-0.3-0.061-0.48-0.181-0.66c-0.18-0.18-0.359-0.24-0.54-0.24c-0.239,0-0.42,0.06-0.54,0.24
	c-0.18,0.18-0.239,0.36-0.239,0.66H61.224 M61.163,61.131l1.021,0.18c-0.12,0.36-0.301,0.66-0.601,0.84
	c-0.3,0.18-0.66,0.24-1.08,0.24c-0.659,0-1.14-0.18-1.439-0.6c-0.24-0.36-0.36-0.78-0.36-1.32c0-0.66,0.18-1.14,0.48-1.5
	c0.3-0.36,0.72-0.54,1.26-0.54s1.02,0.18,1.32,0.6c0.3,0.36,0.479,0.9,0.479,1.68h-2.52c0,0.3,0.06,0.54,0.239,0.72
	c0.181,0.18,0.36,0.24,0.601,0.24c0.18,0,0.3-0.06,0.359-0.12C61.043,61.491,61.104,61.311,61.163,61.131z M54.563,61.25l1.02-0.18
	c0.061,0.18,0.12,0.36,0.24,0.48c0.12,0.06,0.3,0.12,0.54,0.12c0.3,0,0.48-0.06,0.6-0.12l0.12-0.24l-0.06-0.24
	c-0.061-0.06-0.18-0.06-0.36-0.12c-0.78-0.18-1.319-0.3-1.5-0.48c-0.3-0.18-0.479-0.48-0.479-0.84c0-0.3,0.12-0.6,0.42-0.84
	c0.24-0.24,0.66-0.36,1.2-0.36s0.899,0.12,1.14,0.3c0.24,0.18,0.42,0.42,0.54,0.72l-0.96,0.18c-0.061-0.18-0.12-0.3-0.24-0.36
	s-0.3-0.12-0.479-0.12c-0.301,0-0.48,0.06-0.54,0.12l-0.12,0.24l0.06,0.18c0.12,0.06,0.42,0.12,0.96,0.24s0.9,0.3,1.141,0.48
	c0.18,0.18,0.3,0.42,0.3,0.72c0,0.36-0.12,0.66-0.42,0.9c-0.301,0.24-0.78,0.36-1.32,0.36s-0.9-0.12-1.2-0.3
	C54.863,61.911,54.623,61.611,54.563,61.25z M52.943,60.531c-0.18,0.06-0.36,0.06-0.66,0.12c-0.3,0.06-0.479,0.12-0.54,0.18
	c-0.12,0.06-0.18,0.18-0.18,0.36c0,0.18,0.06,0.3,0.18,0.36c0.061,0.12,0.18,0.18,0.36,0.18c0.18,0,0.359-0.06,0.54-0.18l0.239-0.36
	c0.061-0.06,0.061-0.24,0.061-0.48V60.531z M51.563,59.69l-0.9-0.18c0.12-0.36,0.3-0.6,0.54-0.78c0.24-0.18,0.601-0.3,1.08-0.3
	c0.48,0,0.84,0.06,1.021,0.18c0.239,0.12,0.42,0.24,0.479,0.42c0.061,0.18,0.12,0.48,0.12,0.9v1.14c0,0.36,0,0.6,0.06,0.78
	c0,0.12,0.061,0.3,0.181,0.48h-1.021l-0.12-0.3v-0.12c-0.18,0.18-0.359,0.3-0.54,0.36c-0.18,0.06-0.42,0.12-0.659,0.12
	c-0.36,0-0.66-0.12-0.9-0.3c-0.24-0.18-0.36-0.48-0.36-0.78c0-0.24,0.061-0.42,0.181-0.6c0.06-0.18,0.239-0.3,0.42-0.36l0.779-0.24
	c0.48-0.06,0.841-0.18,1.021-0.24v-0.12c0-0.18-0.061-0.36-0.18-0.42c-0.061-0.06-0.24-0.12-0.54-0.12l-0.42,0.12L51.563,59.69z
	 M46.644,60.051v1.38h0.96c0.359,0,0.6,0,0.72,0c0.18-0.06,0.3-0.12,0.36-0.24c0.12-0.06,0.18-0.24,0.18-0.42l-0.12-0.42l-0.36-0.24
	c-0.119-0.06-0.42-0.06-0.899-0.06H46.644z M46.644,57.951v1.26h0.66c0.42,0,0.659,0,0.779-0.06c0.181,0,0.3-0.06,0.42-0.18
	c0.12-0.06,0.181-0.24,0.181-0.42c0-0.18-0.061-0.3-0.181-0.36c-0.06-0.12-0.18-0.18-0.359-0.18c-0.12-0.06-0.42-0.06-0.9-0.06
	H46.644z M45.563,57.111h2.1c0.42,0,0.72,0,0.9,0.06l0.54,0.18c0.18,0.12,0.3,0.3,0.42,0.48s0.18,0.36,0.18,0.6
	s-0.06,0.48-0.24,0.66c-0.119,0.18-0.3,0.36-0.54,0.48c0.301,0.06,0.601,0.24,0.78,0.48c0.18,0.18,0.24,0.48,0.24,0.78
	c0,0.24-0.061,0.48-0.18,0.66c-0.12,0.24-0.24,0.42-0.42,0.54c-0.181,0.18-0.421,0.24-0.721,0.24c-0.18,0.06-0.6,0.06-1.26,0.06
	h-1.8V57.111z M41.724,60.111c0-0.3-0.061-0.48-0.181-0.66c-0.18-0.18-0.359-0.24-0.54-0.24c-0.239,0-0.42,0.06-0.54,0.24
	c-0.18,0.18-0.239,0.36-0.239,0.66H41.724z M41.663,61.131l1.021,0.18c-0.12,0.36-0.301,0.66-0.601,0.84
	c-0.3,0.18-0.66,0.24-1.08,0.24c-0.659,0-1.14-0.18-1.439-0.6c-0.24-0.36-0.36-0.78-0.36-1.32c0-0.66,0.18-1.14,0.48-1.5
	c0.3-0.36,0.72-0.54,1.26-0.54s1.02,0.18,1.32,0.6c0.3,0.36,0.479,0.9,0.479,1.68h-2.52c0,0.3,0.06,0.54,0.239,0.72
	c0.181,0.18,0.36,0.24,0.601,0.24c0.18,0,0.3-0.06,0.359-0.12C41.543,61.491,41.604,61.311,41.663,61.131z M35.783,60.351
	c0,0.42,0.061,0.72,0.24,0.9c0.18,0.18,0.359,0.3,0.6,0.3s0.42-0.12,0.601-0.3c0.18-0.18,0.239-0.48,0.239-0.84
	c0-0.42-0.06-0.72-0.239-0.9c-0.181-0.18-0.36-0.3-0.601-0.3s-0.42,0.12-0.6,0.3C35.844,59.69,35.783,59.991,35.783,60.351z
	 M34.883,62.571l1.141,0.12c0.06,0.18,0.06,0.24,0.12,0.3c0.12,0.06,0.3,0.12,0.479,0.12c0.3,0,0.48-0.06,0.601-0.12
	c0.06-0.06,0.12-0.12,0.18-0.24c0.06-0.06,0.06-0.24,0.06-0.48v-0.54c-0.3,0.42-0.72,0.6-1.14,0.6c-0.54,0-0.9-0.24-1.2-0.66
	c-0.24-0.3-0.359-0.72-0.359-1.26c0-0.66,0.18-1.14,0.479-1.44c0.3-0.36,0.66-0.54,1.14-0.54c0.421,0,0.841,0.24,1.141,0.66v-0.54
	h0.96v3.42c0,0.42-0.061,0.78-0.12,0.96c-0.06,0.24-0.18,0.42-0.3,0.54c-0.181,0.12-0.36,0.24-0.54,0.3
	c-0.24,0.06-0.54,0.12-0.84,0.12c-0.66,0-1.08-0.12-1.38-0.36c-0.301-0.18-0.421-0.48-0.421-0.84V62.571z M31.344,60.351
	c0,0.42,0.06,0.72,0.18,0.9c0.18,0.24,0.359,0.36,0.66,0.36c0.239,0,0.42-0.12,0.6-0.3c0.18-0.18,0.24-0.48,0.24-0.84
	c0-0.42-0.061-0.78-0.24-0.96c-0.18-0.18-0.36-0.3-0.6-0.3c-0.24,0-0.42,0.12-0.601,0.3C31.403,59.69,31.344,59.991,31.344,60.351z
	 M34.043,62.331h-0.96v-0.54c-0.18,0.18-0.359,0.36-0.54,0.48c-0.18,0.06-0.42,0.12-0.66,0.12c-0.42,0-0.779-0.18-1.079-0.48
	c-0.301-0.36-0.48-0.84-0.48-1.5s0.18-1.14,0.48-1.44c0.3-0.36,0.659-0.54,1.14-0.54c0.42,0,0.78,0.18,1.08,0.54v-1.86h1.02V62.331z
	 M28.703,60.111c0-0.3-0.06-0.48-0.18-0.66c-0.18-0.18-0.36-0.24-0.54-0.24c-0.24,0-0.42,0.06-0.54,0.24
	c-0.18,0.18-0.24,0.36-0.24,0.66H28.703z M28.644,61.131l1.02,0.18c-0.12,0.36-0.3,0.66-0.6,0.84c-0.3,0.18-0.66,0.24-1.08,0.24
	c-0.66,0-1.14-0.18-1.44-0.6c-0.239-0.36-0.359-0.78-0.359-1.32c0-0.66,0.18-1.14,0.479-1.5s0.72-0.54,1.26-0.54
	s1.021,0.18,1.32,0.6c0.3,0.36,0.48,0.9,0.48,1.68h-2.521c0,0.3,0.061,0.54,0.24,0.72s0.36,0.24,0.6,0.24
	c0.181,0,0.301-0.06,0.36-0.12C28.523,61.491,28.583,61.311,28.644,61.131z M25.463,62.331h-0.96v-5.22h0.96V62.331z M19.523,62.331
	l-1.2-3.78h0.96l0.72,2.46l0.601-2.46h1.02l0.601,2.46l0.72-2.46h1.02l-1.26,3.78h-0.96l-0.66-2.46l-0.6,2.46H19.523z
	 M15.144,60.411c0,0.42,0.06,0.72,0.239,0.9c0.181,0.18,0.421,0.3,0.66,0.3c0.301,0,0.48-0.12,0.66-0.3c0.18-0.18,0.3-0.48,0.3-0.9
	c0-0.36-0.12-0.66-0.3-0.84c-0.18-0.18-0.359-0.3-0.66-0.3c-0.239,0-0.479,0.12-0.66,0.3C15.203,59.75,15.144,60.051,15.144,60.411z
	 M14.123,60.411c0-0.36,0.061-0.72,0.24-1.02s0.42-0.48,0.72-0.66c0.3-0.18,0.601-0.3,0.96-0.3c0.601,0,1.08,0.18,1.44,0.6
	c0.36,0.36,0.54,0.84,0.54,1.38c0,0.6-0.18,1.08-0.54,1.44s-0.84,0.54-1.38,0.54c-0.36,0-0.721-0.06-1.021-0.18
	c-0.3-0.18-0.54-0.42-0.72-0.72C14.184,61.19,14.123,60.831,14.123,60.411z M13.283,62.331h-1.02v-1.92c0-0.42,0-0.66-0.061-0.78
	l-0.18-0.3c-0.061-0.06-0.18-0.12-0.36-0.12l-0.479,0.18c-0.12,0.06-0.181,0.18-0.24,0.36c-0.061,0.18-0.12,0.42-0.12,0.84v1.74
	h-0.96v-3.78h0.9v0.54c0.3-0.42,0.72-0.66,1.26-0.66l0.6,0.12c0.181,0.06,0.36,0.18,0.42,0.36l0.181,0.42
	c0.06,0.12,0.06,0.36,0.06,0.66V62.331z M4.583,62.331v-5.22h1.08v2.34l2.1-2.34h1.44l-1.98,2.04l2.1,3.18h-1.38l-1.44-2.46
	l-0.84,0.9v1.56H4.583z"/>
<path fill-rule="evenodd" clip-rule="evenodd" fill="#04544E" d="M42.144,39.771c1.859,0.12,2.7-0.66,2.52-2.4
	C42.804,37.25,41.963,38.031,42.144,39.771 M42.144,38.091c-0.3,0.42-0.36,0.96-0.3,1.68c-1.44-0.06-2.101-0.9-1.921-2.4
	C41.003,37.311,41.724,37.551,42.144,38.091z"/>
</svg>
