<?xml version="1.0" encoding="utf-8"?>
<!-- Generator: Adobe Illustrator 16.0.0, SVG Export Plug-In . SVG Version: 6.00 Build 0)  -->
<!DOCTYPE svg PUBLIC "-//W3C//DTD SVG 1.1//EN" "http://www.w3.org/Graphics/SVG/1.1/DTD/svg11.dtd">
<svg version="1.1" id="Layer_1" xmlns="http://www.w3.org/2000/svg" xmlns:xlink="http://www.w3.org/1999/xlink" x="0px" y="0px"
	 width="67px" height="72px" viewBox="0 0 67 72" enable-background="new 0 0 67 72" xml:space="preserve">
<path fill="#9A9A9A" d="M56.75,60.193c0,0.421,0.06,0.722,0.181,0.9c0.181,0.239,0.359,0.358,0.66,0.358
	c0.238,0,0.42-0.119,0.601-0.299c0.18-0.181,0.239-0.479,0.239-0.841c0-0.42-0.061-0.78-0.239-0.96
	c-0.181-0.18-0.361-0.301-0.601-0.301c-0.24,0-0.42,0.121-0.602,0.301C56.81,59.534,56.75,59.833,56.75,60.193 M59.45,62.174h-0.961
	v-0.541c-0.18,0.181-0.359,0.36-0.539,0.479c-0.18,0.062-0.42,0.12-0.66,0.12c-0.42,0-0.779-0.181-1.08-0.479
	c-0.301-0.36-0.48-0.841-0.48-1.5c0-0.66,0.181-1.142,0.48-1.44c0.301-0.359,0.66-0.54,1.141-0.54c0.42,0,0.779,0.181,1.08,0.54
	v-1.859h1.02V62.174z M54.171,59.952c0-0.299-0.061-0.479-0.182-0.66c-0.18-0.18-0.359-0.239-0.539-0.239
	c-0.24,0-0.42,0.062-0.541,0.239c-0.18,0.182-0.238,0.361-0.238,0.66H54.171z M54.11,60.974l1.02,0.18
	c-0.119,0.36-0.301,0.66-0.6,0.84c-0.301,0.182-0.66,0.24-1.08,0.24c-0.66,0-1.141-0.181-1.439-0.601
	c-0.24-0.359-0.36-0.779-0.36-1.319c0-0.66,0.18-1.14,0.479-1.5c0.301-0.359,0.721-0.54,1.26-0.54c0.541,0,1.021,0.181,1.32,0.601
	c0.301,0.359,0.48,0.899,0.48,1.68h-2.52c0,0.301,0.059,0.541,0.238,0.721c0.182,0.18,0.361,0.24,0.602,0.24
	c0.181,0,0.299-0.061,0.359-0.12C53.989,61.333,54.05,61.153,54.11,60.974z M51.229,58.394v0.78h-0.721v1.56
	c0,0.301,0,0.479,0.061,0.54l0.061,0.12l0.18,0.061c0.062,0,0.24-0.061,0.42-0.119l0.062,0.779c-0.239,0.061-0.479,0.119-0.78,0.119
	c-0.181,0-0.359,0-0.479-0.06l-0.359-0.24c-0.061-0.062-0.061-0.24-0.121-0.42c0-0.062,0-0.301,0-0.66v-1.68h-0.479v-0.78h0.479
	v-0.779l0.961-0.541v1.32H51.229z M47.63,62.174h-1.02v-3.78h0.959v0.54c0.181-0.301,0.301-0.479,0.42-0.54l0.42-0.12
	c0.24,0,0.48,0.062,0.66,0.24l-0.299,0.84l-0.48-0.18c-0.18,0-0.301,0.06-0.359,0.118l-0.239,0.421
	c-0.062,0.181-0.062,0.659-0.062,1.319V62.174z M44.69,60.372c-0.182,0.062-0.361,0.062-0.66,0.121
	c-0.301,0.06-0.48,0.119-0.541,0.181c-0.119,0.06-0.18,0.18-0.18,0.358c0,0.18,0.061,0.301,0.18,0.36
	c0.061,0.12,0.182,0.181,0.359,0.181c0.182,0,0.36-0.061,0.541-0.181l0.24-0.36c0.061-0.06,0.061-0.24,0.061-0.479V60.372z
	 M43.31,59.534l-0.9-0.181c0.121-0.36,0.301-0.6,0.541-0.78c0.24-0.18,0.6-0.3,1.08-0.3c0.479,0,0.84,0.062,1.02,0.181
	c0.24,0.119,0.42,0.24,0.48,0.42s0.119,0.479,0.119,0.899v1.142c0,0.358,0,0.6,0.061,0.778c0,0.12,0.061,0.3,0.18,0.48h-1.02
	l-0.12-0.302v-0.118c-0.181,0.18-0.36,0.299-0.54,0.358c-0.18,0.061-0.42,0.12-0.66,0.12c-0.358,0-0.66-0.12-0.899-0.3
	c-0.24-0.18-0.359-0.48-0.359-0.779c0-0.24,0.06-0.421,0.181-0.602c0.061-0.18,0.24-0.299,0.42-0.359l0.779-0.24
	c0.479-0.06,0.84-0.18,1.021-0.239v-0.119c0-0.181-0.061-0.36-0.182-0.42c-0.06-0.062-0.238-0.121-0.539-0.121l-0.422,0.121
	L43.31,59.534z M41.929,58.394v0.78h-0.72v1.56c0,0.301,0,0.479,0.062,0.54l0.059,0.12l0.182,0.061c0.06,0,0.239-0.061,0.42-0.119
	l0.06,0.779c-0.24,0.06-0.479,0.119-0.78,0.119c-0.18,0-0.359,0-0.48-0.06l-0.358-0.24c-0.062-0.062-0.062-0.24-0.12-0.42
	c0-0.062,0-0.301,0-0.66v-1.68h-0.48v-0.78h0.479v-0.779l0.96-0.541v1.32H41.929z M34.97,60.493l1.08-0.119
	c0.062,0.359,0.18,0.601,0.359,0.779c0.182,0.182,0.48,0.24,0.781,0.24c0.299,0,0.539-0.061,0.719-0.24
	c0.182-0.18,0.301-0.3,0.301-0.479l-0.119-0.36l-0.361-0.181c-0.18-0.061-0.479-0.119-0.899-0.239
	c-0.539-0.181-0.959-0.36-1.139-0.54c-0.302-0.301-0.479-0.6-0.479-1.02l0.18-0.781c0.18-0.239,0.359-0.42,0.66-0.539
	c0.299-0.12,0.6-0.18,1.02-0.18c0.66,0,1.201,0.18,1.5,0.479c0.301,0.301,0.48,0.66,0.541,1.141l-1.08,0.061
	c-0.061-0.301-0.121-0.48-0.301-0.6c-0.119-0.121-0.359-0.182-0.66-0.182c-0.299,0-0.539,0.061-0.721,0.182l-0.18,0.299
	c0,0.181,0.061,0.301,0.18,0.359c0.121,0.12,0.422,0.24,0.961,0.36c0.539,0.119,0.9,0.24,1.141,0.358
	c0.24,0.121,0.42,0.302,0.6,0.541c0.121,0.181,0.181,0.479,0.181,0.841c0,0.3-0.06,0.539-0.24,0.84
	c-0.181,0.24-0.42,0.42-0.72,0.539c-0.301,0.181-0.659,0.239-1.141,0.239c-0.66,0-1.141-0.18-1.5-0.479S35.03,61.034,34.97,60.493z
	 M29.57,60.193c0,0.421,0.06,0.722,0.24,0.9c0.18,0.18,0.36,0.3,0.6,0.3c0.24,0,0.42-0.12,0.6-0.3c0.18-0.181,0.24-0.479,0.24-0.84
	c0-0.421-0.06-0.722-0.24-0.9s-0.36-0.301-0.6-0.301c-0.24,0-0.42,0.121-0.6,0.301C29.63,59.534,29.57,59.833,29.57,60.193z
	 M28.67,62.413l1.14,0.119c0.06,0.181,0.06,0.24,0.12,0.301c0.12,0.061,0.3,0.119,0.48,0.119c0.3,0,0.48-0.06,0.6-0.119
	c0.06-0.061,0.12-0.12,0.18-0.239c0.06-0.062,0.06-0.24,0.06-0.479v-0.541c-0.3,0.42-0.72,0.602-1.14,0.602
	c-0.54,0-0.9-0.24-1.2-0.66c-0.24-0.301-0.36-0.721-0.36-1.26c0-0.66,0.18-1.141,0.48-1.44c0.3-0.36,0.66-0.54,1.14-0.54
	c0.42,0,0.84,0.24,1.14,0.66v-0.54h0.96v3.42c0,0.42-0.06,0.78-0.12,0.96c-0.06,0.24-0.18,0.42-0.3,0.54
	c-0.18,0.12-0.36,0.239-0.54,0.3c-0.24,0.062-0.54,0.12-0.84,0.12c-0.66,0-1.08-0.12-1.38-0.36c-0.3-0.18-0.42-0.479-0.42-0.84
	V62.413z M27.77,62.174h-1.02v-1.92c0-0.421,0-0.66-0.06-0.78l-0.18-0.3c-0.06-0.062-0.18-0.121-0.36-0.121l-0.48,0.181
	c-0.12,0.061-0.18,0.182-0.24,0.36s-0.12,0.42-0.12,0.84v1.74h-0.96v-3.78h0.9v0.54c0.3-0.42,0.72-0.66,1.26-0.66l0.6,0.12
	c0.18,0.061,0.36,0.18,0.42,0.36l0.18,0.42c0.06,0.118,0.06,0.358,0.06,0.659V62.174z M23.27,62.174h-0.96v-3.78h0.96V62.174z
	 M23.27,57.854h-0.96v-0.899h0.96V57.854z M21.65,58.394v0.78h-0.72v1.56c0,0.301,0,0.479,0.06,0.54l0.06,0.12l0.18,0.061
	c0.06,0,0.24-0.061,0.42-0.119l0.06,0.779c-0.24,0.061-0.48,0.119-0.78,0.119c-0.18,0-0.36,0-0.48-0.06l-0.36-0.24
	c-0.06-0.062-0.06-0.24-0.12-0.42c0-0.062,0-0.301,0-0.66v-1.68h-0.48v-0.78h0.48v-0.779l0.96-0.541v1.32H21.65z M19.19,58.394v0.78
	h-0.72v1.56c0,0.301,0,0.479,0.06,0.54l0.06,0.12l0.18,0.061c0.06,0,0.24-0.061,0.42-0.119l0.06,0.779
	c-0.24,0.061-0.48,0.119-0.78,0.119c-0.18,0-0.36,0-0.48-0.06l-0.36-0.24c-0.06-0.062-0.06-0.24-0.12-0.42c0-0.062,0-0.301,0-0.66
	v-1.68h-0.48v-0.78h0.48v-0.779l0.96-0.541v1.32H19.19z M15.65,59.952c0-0.299-0.06-0.479-0.18-0.66
	c-0.18-0.18-0.36-0.239-0.54-0.239c-0.24,0-0.42,0.062-0.54,0.239c-0.18,0.182-0.24,0.361-0.24,0.66H15.65z M15.59,60.974l1.02,0.18
	c-0.12,0.36-0.3,0.66-0.6,0.84c-0.3,0.182-0.66,0.24-1.08,0.24c-0.66,0-1.14-0.181-1.44-0.601c-0.24-0.359-0.36-0.779-0.36-1.319
	c0-0.66,0.18-1.14,0.48-1.5c0.3-0.359,0.72-0.54,1.26-0.54s1.02,0.181,1.32,0.601c0.3,0.359,0.48,0.899,0.48,1.68h-2.52
	c0,0.301,0.06,0.541,0.24,0.721s0.36,0.24,0.6,0.24c0.18,0,0.3-0.061,0.36-0.12C15.47,61.333,15.53,61.153,15.59,60.974z
	 M10.13,60.254v-0.9h2.28v2.101c-0.18,0.18-0.54,0.359-0.96,0.539c-0.42,0.182-0.84,0.24-1.26,0.24c-0.54,0-1.02-0.119-1.44-0.3
	c-0.42-0.24-0.72-0.601-0.9-1.021c-0.18-0.42-0.3-0.84-0.3-1.379c0-0.541,0.12-1.021,0.36-1.439c0.18-0.42,0.54-0.78,0.96-0.961
	c0.36-0.18,0.78-0.299,1.26-0.299c0.66,0,1.14,0.119,1.5,0.42c0.42,0.299,0.66,0.66,0.72,1.14l-1.02,0.181
	c-0.06-0.24-0.24-0.42-0.42-0.601s-0.48-0.24-0.78-0.24c-0.42,0-0.78,0.181-1.08,0.479c-0.3,0.3-0.42,0.72-0.42,1.26
	c0,0.659,0.12,1.141,0.42,1.439c0.3,0.3,0.66,0.42,1.08,0.42l0.66-0.12c0.24-0.06,0.42-0.181,0.6-0.3v-0.659H10.13z"/>
<path fill="#07544E" d="M45.229,46.872l0.119,0.121h0.061v0.06h0.121l0.119,0.121h0.061v0.18h0.119v0.062h0.061v0.119l0.121,0.061
	v0.24h0.06c0.062,0.06,0.062,0.06,0.062,0.06v0.3c0,0.062,0,0.062-0.062,0.062c0,0.06,0,0.06-0.06,0.06v0.18H45.89v0.061
	c0,0.061,0,0.061-0.061,0.061v0.121H45.71v0.06c0,0.061,0,0.061-0.061,0.061c0,0.062,0,0.062-0.061,0.062c0,0.06,0,0.06-0.06,0.06
	v0.06h-0.181c0,0.062,0,0.062-0.061,0.062c0,0.06,0,0.06-0.061,0.06v0.061h-0.061c0,0.061,0,0.061-0.06,0.061
	c0,0.062,0,0.062-0.062,0.062h-0.061v0.06l-0.119,0.061v0.061h-0.18v0.061l-0.121,0.06h-0.061v0.062l-0.119,0.061h-0.115
	c0,0.061,0,0.061-0.062,0.061h-0.12v0.06c0,0.062,0,0.062-0.06,0.062h-0.06l-0.061,0.06h-0.18v0.06l-0.061,0.061H43.55v0.048h-0.3
	v0.06l-0.06,0.061h-0.18c0,0.061,0,0.061-0.061,0.061h-0.18v0.061c0,0.061,0,0.061-0.062,0.061h-0.18c0,0.061,0,0.061-0.062,0.061
	h-0.3l-0.06,0.119h-0.24c0,0.061,0,0.061-0.061,0.061c0,0.061,0,0.061-0.061,0.061h-0.24c0,0.062,0,0.062-0.06,0.062
	c0,0.06,0,0.06-0.062,0.06h-0.299v0.061h-0.361v0.061l-0.115,0.055h-0.24c0,0.061,0,0.061-0.061,0.061h-0.539v0.121h-0.48v0.06
	l-0.119,0.06H38.75l-0.06,0.062H37.97l-0.061,0.119h-0.061c-0.18,0-0.359,0-0.539,0h-0.06c0,0.062,0,0.062-0.06,0.062H37.13
	c-0.32,0-0.641,0-0.959,0l-0.121,0.058v0.06h-0.18c-1.18-0.035-2.201,0.079-3.36,0.061h-0.48c-0.32,0-0.64,0-0.96,0h-0.18
	l-0.12-0.12h-1.02l-0.06-0.121l-0.12,0.062c-0.16,0-0.32,0-0.48,0h-0.12c0,0,0,0-0.06-0.062v-0.06h-0.12c-0.18,0-0.36,0-0.54,0
	h-0.12v-0.121h-0.54v-0.06h-0.36c-0.06,0-0.12,0-0.12-0.06v-0.06h-0.48v-0.061h-0.42v-0.119h-0.42v-0.062h-0.3l-0.06-0.06
	l-0.06-0.06h-0.36v-0.121h-0.24v-0.061h-0.3l-0.06-0.119h-0.3l-0.06-0.059h-0.12v-0.061l-0.06-0.061h-0.24l-0.06-0.12h-0.24v-0.059
	h-0.18v-0.121h-0.18v-0.06h-0.18l-0.06-0.061h-0.06l-0.12-0.061v-0.061h-0.06l-0.12-0.061h-0.12l-0.06-0.061V49.63h-0.12
	l-0.06-0.061v-0.06h-0.06l-0.06-0.062h-0.12v-0.06l-0.06-0.06h-0.06l-0.06-0.056c0,0,0,0-0.06-0.061v-0.06h-0.12l-0.06-0.061v-0.059
	h-0.06l-0.18-0.181h-0.06v-0.18h-0.06l-0.12-0.121v-0.181h-0.12v-0.479h0.12v-0.24h0.06v-0.119h0.12v-0.121h0.06v-0.06h0.12v-0.12
	h0.12v-0.06h0.06v-0.06h0.12v-0.121h0.06v-0.119h0.18v-0.061l0.12-0.06v-0.061h0.18v-0.12h0.12v-0.06h0.18v-0.12h0.18v-0.12h0.18
	v-0.061h0.24v-0.119h0.18v-0.06h0.24v-0.121h0.18v-0.121h0.3v-0.06h0.3v-0.12h0.24v-0.061h0.36v-0.118h0.36v-0.062h0.24v-0.118h0.42
	v-0.061h0.42v-0.12h0.42v-0.119h0.48v-0.061h0.54v-0.12h0.42l0.06,0.12h0.12v0.061h0.06v0.119h0.06l0.06,0.061h0.12l0.06,0.061
	v0.062h0.06c0.06,0.06,0.06,0.06,0.06,0.06l0.06,0.061v0.061l0.12,0.119h0.06v0.061l0.12,0.062v0.06h0.06l0.06,0.061h0.06v0.121
	h0.06c0.06,0.06,0.06,0.06,0.06,0.06h0.06l0.12,0.06V46.1h0.06l0.06,0.119v0.055h0.12l0.06,0.12h0.06v0.061h0.06l0.06,0.119h0.12
	l0.06,0.12h0.06v0.062h0.12v0.06l0.18,0.181v0.06h0.18v0.062l0.12,0.061l0.12,0.119h0.06v0.121h0.06v0.057h0.12l0.06,0.061v0.061
	h0.12c0.06,0.061,0.06,0.061,0.06,0.061l0.06,0.06v0.059h0.06l0.12,0.062v0.06h0.06v0.06l0.12,0.062v0.06h0.06
	c0.06,0.061,0.06,0.061,0.06,0.061h0.18v0.121l0.06,0.06h0.06l0.06,0.06v0.121h0.18v0.06h0.06c0.06,0.062,0.06,0.062,0.06,0.062
	l0.06,0.056v0.06h0.18v0.061h0.18l0.06,0.121h0.54v-0.121h0.24v-0.061h0.18v-0.119h0.061v-0.062h0.06v-0.119h0.239v-0.12h0.06v-0.06
	h0.121v-0.121h0.18v-0.06h0.119v-0.119h0.062v-0.061h0.119v-0.12h0.18v-0.12h0.12v-0.06h0.061v-0.12h0.181v-0.061h0.118v-0.121
	h0.062v-0.118h0.119v-0.06h0.06v-0.121h0.24v-0.06h0.119v-0.12h0.061v-0.12h0.121v-0.061h0.06v-0.119h0.18v-0.062h0.062v-0.119h0.18
	v-0.06h0.061v-0.12h0.12v-0.119h0.06v-0.061h0.181v-0.12h0.121v-0.062h0.06v-0.118h0.12v-0.121h0.06v-0.06h0.121v-0.121h0.119v-0.06
	h0.061v-0.06h0.121v-0.18h0.176v-0.06h0.061v-0.12h0.181v-0.061h0.06v-0.12h0.36l0.06,0.061v0.062h0.12
	c0.147,0.021,0.351-0.18,0.479,0v0.06h0.359l0.12,0.06v0.062h0.479v0.06h0.301l0.061,0.061v0.061h0.299l0.121,0.12h0.181l0.06-0.06
	l0.12,0.119h0.24l0.06,0.119h0.239v0.061h0.24l0.06,0.118h0.24l0.061,0.06h0.181l0.06,0.061h0.12l0.119,0.121h0.181l0.061,0.06v0.06
	h0.18c0.061,0.062,0.061,0.062,0.061,0.062h0.062l0.06,0.06v0.061h0.121l0.057,0.058h0.119l0.119,0.062v0.06h0.061l0.121,0.06v0.062
	h0.06c0.06,0.06,0.06,0.06,0.06,0.06h0.062l0.119,0.061v0.061h0.121c0.06,0.062,0.06,0.062,0.06,0.062l0.061,0.06v0.055
	 M37.79,18.674v0.06h0.119l0.061,0.12h0.062l0.06,0.06h0.182v0.06l0.059,0.06v0.06h0.119v0.06l0.061,0.06v0.06l0.119,0.06
	l0.062,0.06l0.06,0.06l0.061,0.06v0.06h0.119v0.18l0.061,0.06v0.06h0.121v0.18h0.061v0.18l0.119,0.06v0.24h0.061l0.06,0.06v0.3
	h0.062v0.12c0,0.14,0,0.28,0,0.42v0.12c0.119,0.06,0.119,0.18,0.061,0.36H39.47v0.18c0,0.22,0,0.44,0,0.66v0.12h-0.061v0.36
	l-0.061,0.12h-0.06v0.3l-0.12,0.06v0.18h-0.06v0.3h-0.121v0.18h-0.06v0.18l-0.121,0.06v0.06H38.75v0.12c0,0.06,0,0.06-0.06,0.06
	c0,0.06,0,0.06-0.061,0.06l-0.121,0.06v0.12c0,0.06,0,0.06-0.06,0.06v0.06h-0.121v0.12h-0.058v0.06h-0.121v0.18l-0.061,0.06
	l-0.06,0.06h-0.06l-0.061,0.12h-0.061v0.06h-0.06v0.12h-0.12v0.06l-0.06,0.06h-0.121v0.06H37.37v0.12H37.31v0.06
	c0,0.06,0,0.06-0.061,0.06c0,0.06,0,0.06-0.061,0.06H37.13v0.12h-0.24v0.06h-0.061v0.12h-0.18v0.06h-0.061l-0.06,0.12h-0.06
	c0,0.06,0,0.06-0.061,0.06H36.29l-0.061,0.12h-0.061v0.06l-0.119,0.06h-0.062v0.06h-0.181v0.12H35.69v0.06h-0.18v0.12h-0.182
	l-0.059,0.12l-0.062,0.06h-0.18v0.12h-0.181v0.06h-0.181l-0.06,0.12h-0.121l-0.06,0.12H34.25v0.06c0,0.06,0,0.06-0.06,0.06v0.06
	h-0.18v0.06h-0.181v0.06l-0.119,0.06h-0.061c0,0.06,0,0.06-0.06,0.06h-0.36v-0.06h-0.06l-0.12-0.06v-0.06h-0.12l-0.06-0.06h-0.18
	v-0.06l-0.06-0.06l-0.06-0.06H32.45l-0.06-0.12h-0.18v-0.06h-0.12c0,0,0,0-0.06-0.06v-0.06h-0.12c-0.114-0.017-0.218-0.087-0.3-0.18
	h-0.06v-0.12h-0.18l-0.06-0.06h-0.06l-0.12-0.06v-0.06l-0.06-0.06h-0.06l-0.12-0.06v-0.06h-0.18v-0.06l-0.12-0.06v-0.06
	c0,0,0,0-0.06-0.06h-0.12l-0.06-0.06l-0.06-0.06c0,0,0,0-0.06-0.06v-0.06h-0.18v-0.06h-0.12v-0.12h-0.18l-0.06-0.06v-0.12h-0.12
	v-0.06l-0.12-0.12c0,0,0,0-0.06-0.06v-0.06h-0.18v-0.06h-0.06l-0.06-0.12h-0.06l-0.06-0.06h-0.06v-0.12l-0.12-0.061v-0.06h-0.06
	v-0.18h-0.06l-0.06-0.06l-0.06-0.06v-0.06h-0.12v-0.06h-0.12v-0.18l-0.06-0.06v-0.06h-0.12v-0.18l-0.06-0.06v-0.06h-0.06l-0.06-0.06
	v-0.12h-0.06l-0.06-0.06v-0.12h-0.06v-0.3h-0.06l-0.06-0.12v-0.06h-0.06v-0.36l-0.12-0.12v-0.36l-0.06-0.06c0-0.2,0-0.4,0-0.6v-0.3
	h-0.06l-0.06-0.36h0.12v-0.12c0-0.16,0-0.32,0-0.48v-0.06h0.06v-0.42h0.12v-0.24h0.06v-0.18h0.12v-0.24h0.06v-0.06h0.12v-0.18h0.12
	v-0.12h0.06v-0.12h0.12v-0.06h0.06v-0.06h0.12v-0.12h0.12v-0.12h0.06v-0.12h0.18v-0.06h0.12v-0.06h0.18v-0.12h0.18v-0.12h0.3v-0.06
	h0.36v-0.12h0.12c0.28,0,0.56,0,0.84,0h0.06l0.06,0.12h0.3v0.06h0.18l0.06,0.06v0.06h0.18v0.12c0.06,0,0.06,0,0.06-0.06l0.12,0.06
	v0.06h0.18v0.06h0.12v0.12h0.06c0.06,0.06,0.06,0.06,0.06,0.06l0.06,0.06v0.06l0.06,0.06l0.06,0.06h0.06v0.06h0.06l0.06,0.12h0.12
	l0.06,0.12l0.06-0.06l0.12,0.06v0.06h0.12c0.18,0,0.36,0,0.54,0h0.119v-0.12h0.181v-0.06h0.181v-0.12h0.06v-0.06h0.12v-0.12h0.119
	v-0.12h0.06v-0.12h0.121v-0.06h0.119v-0.06h0.18v-0.12h0.181v-0.06h0.18v-0.12h0.181v-0.12h0.36v-0.06h0.119c0.28,0,0.562,0,0.84,0
	h0.062v0.06h0.359l0.061,0.06h0.18l0.061,0.06l0.062,0.12H37.79z M29.869,16.574h0.06c0.38,0,0.76,0,1.14,0h0.06v0.06h0.48
	l0.06,0.12h0.24l0.12,0.12h0.18v0.06h0.18l0.061,0.12h0.12l0.06,0.06h0.12l0.06,0.12h0.12l0.12,0.12v0.06h0.12v0.06h0.18
	c0,0.12,0.06,0.12,0.18,0.06v-0.06h0.18v-0.06h0.119v-0.06h0.121l0.06-0.06v-0.06c0.06,0,0.06,0,0.06-0.06
	c0.061,0,0.061,0,0.061-0.06h0.12v-0.06h0.12c0.06,0,0.06,0,0.06-0.06c0.06,0,0.06,0,0.06-0.06h0.121c0.061,0,0.061,0,0.061-0.06
	h0.18l0.119-0.06v-0.06h0.24l0.062-0.12h0.42v-0.06h0.118c0.44,0,0.882,0,1.32,0h0.12v0.06h0.421l0.06,0.06l0.061,0.061h0.181
	l0.061,0.06h0.24v0.12h0.176l0.061,0.06v0.06h0.181c0.143,0.157,0.021-0.073,0.299,0.24h0.121v0.06c0.06,0.06,0.06,0.06,0.06,0.06
	l0.061,0.06h0.18v0.06h0.061l0.062,0.12h0.06v0.12h0.121v0.06l0.061,0.06l0.119,0.06v0.06l0.057,0.06l0.061,0.06h0.06l0.062,0.06
	l0.061,0.12l0.061,0.06v0.12h0.119v0.12h0.061l0.119,0.12v0.18h0.062v0.06l0.119,0.12v0.18h0.061v0.12h0.06l0.061,0.06v0.18h0.121
	v0.24l0.061,0.06v0.18l0.06,0.12h0.062v0.3l0.061,0.06v0.66h0.119v0.12c0,0.28,0,0.56,0,0.84v0.06h-0.125v0.12c0,0.22,0,0.44,0,0.66
	v0.12H41.21v0.48h-0.119v0.36H41.03v0.24h-0.121v0.3H40.79v0.3h-0.061v0.24H40.61v0.12H40.55v0.18h-0.119v0.12H40.37v0.18h-0.12
	v0.18h-0.12v0.12h-0.061v0.12H39.95v0.18H39.89v0.06h-0.119v0.12H39.71v0.18h-0.119v0.12H39.47v0.06h-0.061v0.12H39.29v0.06h-0.119
	v0.12H39.11v0.12h-0.121v0.06h-0.061v0.12H38.81v0.06H38.69v0.12h-0.18v0.12H38.45v0.06h-0.121v0.12h-0.18v0.06h-0.061v0.12H37.97
	v0.12h-0.181v0.06h-0.12v0.12h-0.06v0.06h-0.24v0.06h-0.062v0.12h-0.18v0.12h-0.061v0.12h-0.24v0.06h-0.18v0.12h-0.061v0.06h-0.181
	v0.12h-0.235v0.12h-0.182v0.06H35.87v0.12h-0.18v0.06h-0.18v0.12h-0.182v0.12h-0.18v0.06h-0.18v0.06h-0.181v0.12h-0.12v0.12h-0.181
	v0.06H34.25v0.12h-0.12v0.06h-0.18v0.12h-0.24v0.12h-0.54l-0.06-0.12h-0.18v-0.06c0-0.06,0-0.06-0.06,0h-0.12v-0.12h-0.18v-0.06
	l-0.06-0.06h-0.12v-0.061h-0.18v-0.06l-0.12-0.06v-0.06l-0.06-0.06h-0.12v-0.06h-0.18v-0.06h-0.18v-0.06l-0.06-0.06h-0.18v-0.06
	h-0.18v-0.12h-0.12l-0.12-0.12v-0.06h-0.18l-0.12-0.12h-0.06c0,0,0,0-0.06-0.06h-0.18v-0.06l-0.18-0.18h-0.06c0,0,0,0-0.06-0.06
	h-0.06v-0.06h-0.24v-0.18l-0.12,0.06v-0.06l-0.12-0.06v-0.06l-0.06-0.06h-0.12v-0.06h-0.12l-0.06-0.06v-0.12h-0.18
	c0,0,0,0-0.06-0.06h-0.06v-0.12h-0.06l-0.12-0.12h-0.12l-0.06-0.06l-0.06-0.12h-0.06v-0.06h-0.06v-0.12h-0.12l-0.06-0.06h-0.12
	v-0.12h-0.12v-0.06l-0.06-0.06v-0.061h-0.12v-0.12h-0.06l-0.06-0.06h-0.06v-0.12h-0.06l-0.06-0.06l-0.06-0.06v-0.06h-0.06v-0.12
	h-0.06l-0.12-0.12h-0.06v-0.12h-0.06v-0.12l-0.12-0.12v-0.06h-0.12v-0.06h-0.06v-0.18l-0.12-0.06v-0.12c0,0,0,0-0.06-0.06v-0.06
	l-0.12-0.06v-0.12l-0.06-0.06v-0.06l-0.06-0.06v-0.12l-0.06-0.06l-0.12-0.06v-0.24l-0.06-0.06v-0.24h-0.12v-0.3h-0.06v-0.3
	l-0.12-0.12v-0.42l-0.06-0.06v-0.72l-0.06-0.06l-0.06-0.06v-1.02h0.06l0.06-0.06v-0.6h0.06v-0.36h0.06c0.06,0,0.06,0,0.06-0.06
	v-0.24h0.06v-0.3h0.12v-0.18h0.06v-0.24l0.12-0.06c0.06,0,0.06,0,0.06-0.06v-0.06c0.06,0,0.06,0,0.06-0.06v-0.06l0.06-0.06v-0.12
	l0.12-0.06v-0.06c0.06,0,0.06,0,0.06-0.06l0.12-0.06v-0.18h0.06v-0.06l0.12-0.06v-0.061h0.06l0.06-0.12h0.06v-0.06h0.06l0.06-0.12
	h0.06c0.06,0,0.06,0,0.06-0.06l0.06-0.06v-0.06h0.06l0.12-0.12v-0.06h0.12c0.06,0,0.06,0,0.06-0.06v-0.06h0.12v-0.06h0.18v-0.06
	l0.12-0.06v-0.06h0.06l0.12-0.06v-0.06h0.12c0.06,0,0.06-0.06,0.06-0.12h0.18v-0.06h0.24l0.06-0.12h0.24c0.06,0,0.06,0,0.06-0.061
	h0.36c0.06,0,0.06,0,0.06-0.06c0.06,0,0.06,0,0.06-0.06H29.869z M34.37,11.534h-0.24l-0.061-0.06H32.75v0.06h-0.06
	c-0.26,0-0.52,0-0.78,0h-0.12v0.12h-0.54v0.12h-0.48v0.06h-0.36v0.12h-0.3v0.12h-0.24v0.06h-0.3v0.12h-0.3v0.12h-0.18v0.06h-0.3
	v0.06h-0.18v0.12h-0.18v0.12h-0.18v0.06h-0.18v0.12h-0.24v0.06h-0.06v0.12h-0.18v0.06h-0.18v0.12h-0.12v0.12h-0.18v0.12h-0.12v0.06
	h-0.18v0.06h-0.12v0.12h-0.06v0.06h-0.18v0.18h-0.12v0.06h-0.06v0.06h-0.06v0.12h-0.24v0.06h-0.12v0.12h-0.06v0.12h-0.12v0.06h-0.06
	v0.12h-0.12v0.06h-0.12v0.12h-0.06v0.12h-0.12v0.06h-0.06v0.12h-0.12v0.06h-0.12v0.12h-0.06v0.12h-0.06v0.18h-0.12v0.06h-0.06v0.18
	h-0.24v0.24h-0.06v0.06h-0.12v0.12h-0.12v0.18h-0.12v0.12h-0.06v0.18h-0.06v0.12h-0.12v0.12h-0.12v0.24h-0.06v0.06h-0.12v0.18h-0.06
	v0.24h-0.12v0.12h-0.06v0.24h-0.12v0.24l-0.06,0.06v0.18h-0.12v0.3h-0.12v0.18h-0.06v0.24h-0.12v0.3h-0.06v0.36h-0.12v0.42h-0.12
	v0.42h-0.06v0.12c0,0.16,0,0.32,0,0.48v0.12h-0.12v0.06c0,0.86,0,1.72,0,2.58v0.06h0.12v0.12c0,0.16,0,0.32,0,0.48v0.06h0.06v0.36
	l0.06,0.12h0.06v0.36l0.12,0.06v0.3h0.06v0.36h0.12v0.24h0.06v0.12l0.06,0.06h0.06v0.18l0.06,0.12h0.06v0.18h0.06v0.18h0.12v0.3
	c0.06,0.06,0.06,0.06,0.06,0.06v0.12h0.12v0.18h0.06v0.12l0.12,0.06v0.06l0.06,0.06v0.12l0.06,0.06h0.06v0.18l0.12,0.06
	c0.06,0.06,0.06,0.06,0.06,0.06v0.12l0.24,0.24h0.06v0.18l0.12,0.06v0.06h0.06v0.12l0.06,0.06l0.06,0.06h0.12v0.12h0.06v0.06
	l0.12,0.06v0.06c0.06,0.061,0.06,0.061,0.06,0.061v0.12h0.06l0.06,0.12h0.06v0.06l0.12,0.06v0.06l0.06,0.06h0.06l0.06,0.06v0.06
	h0.06l0.06,0.12h0.06v0.06l0.12,0.06v0.06h0.06l0.06,0.12h0.06v0.06h0.06v0.12h0.18l0.06,0.06h0.12v0.06l0.06,0.06v0.06
	c0.06,0.06,0.06,0.06,0.06,0.06l0.06,0.06h0.06v0.06l0.06,0.06h0.12v0.06h0.06l0.06,0.12h0.18v0.06h0.06l0.06,0.12h0.06v0.06h0.18
	v0.12h0.18l0.06,0.12h0.06v0.06h0.18v0.12h0.18l0.06,0.06h0.12v0.12h0.12v0.12h0.18l0.12,0.06h0.18v0.06l0.06,0.061h0.12v0.06h0.18
	l0.12,0.12h0.18v0.06h0.18v0.06l0.12,0.06h0.18v0.06l0.06,0.06h0.3v0.06h0.3v0.06c0.06,0.06,0.06,0.06,0.06,0.06h0.3v0.06h0.42
	l0.06,0.06c0,0.06,0.06,0.06,0.12,0.06h0.42l0.12,0.12h0.3c0.14,0,0.28,0,0.42,0h0.48c0.24,0,0.48,0,0.72,0l0.06-0.06h0.12
	c0.18,0,0.359,0,0.541,0h0.299v-0.06h0.48l0.061-0.06v-0.06h0.359l0.119-0.06v-0.06h0.301c0.061,0,0.061,0,0.061-0.06h0.3
	c0.062,0,0.062,0,0.062-0.06c0.061,0,0.061,0,0.061-0.06h0.238l0.061-0.12h0.24v-0.06h0.061l0.119-0.06v-0.06h0.182l0.119-0.06
	v-0.06h0.119c0.061,0,0.061,0,0.061-0.061h0.181v-0.12h0.298v-0.06h0.18l0.062-0.12h0.118v-0.06l0.121-0.06v-0.06h0.181v-0.12h0.18
	v-0.06c0.06,0,0.06,0,0.06-0.06c0.061,0,0.061,0,0.061-0.06h0.121l0.061-0.12h0.181v-0.06h0.059l0.062-0.12h0.057v-0.06h0.119
	c0.061,0,0.061,0,0.061-0.06v-0.06h0.12v-0.06h0.12l0.061-0.06v-0.06h0.119v-0.12c0.062,0,0.062,0,0.062-0.06l0.118-0.06v-0.06
	h0.062v-0.06h0.119c0.062,0,0.062,0,0.062-0.06c0.061,0,0.061,0,0.061-0.06h0.061v-0.06h0.06l0.062-0.12h0.061v-0.12h0.059
	c0.061,0,0.061,0,0.061-0.06c0.062,0,0.062,0,0.062-0.06h0.06l0.061-0.06v-0.06h0.061l0.062-0.12h0.06v-0.12h0.061
	c0.061,0,0.061,0,0.061-0.06c0.061,0,0.061,0,0.061-0.06c0.06,0,0.06,0,0.06-0.06h0.052v-0.18h0.062l0.06-0.06v-0.06
	c0.061,0,0.061,0,0.061-0.06l0.061-0.06h0.061l0.06-0.06v-0.06h0.062l0.061-0.12v-0.06c0.061,0,0.061,0,0.061-0.06
	c0.06,0,0.06,0,0.06-0.06l0.062-0.06v-0.12h0.061v-0.12h0.119v-0.06h0.055l0.061-0.12v-0.06c0.06,0,0.06,0,0.06-0.06v-0.18h0.062
	l0.061-0.06h0.061v-0.18c0.059,0,0.119,0,0.119-0.06v-0.12c0.061,0,0.061,0,0.061-0.06c0.06,0,0.06,0,0.06-0.06v-0.12h0.058v-0.06
	c0.062,0,0.062,0,0.062-0.06h0.06v-0.12l0.061-0.06v-0.24h0.061c0.061,0,0.061,0,0.061-0.06v-0.12l0.06-0.06
	c0.062,0,0.062,0,0.062-0.061v-0.12h0.061v-0.24c0.061,0,0.061,0,0.061-0.06v-0.12l0.119-0.06v-0.24h0.062v-0.36
	c0.059,0,0.118,0,0.118-0.06v-0.24l0.121-0.06v-0.36h0.06v-0.42h0.121v-0.12c0-0.16,0-0.32,0-0.479v-0.061c0.06,0,0.06,0,0.06-0.06
	c0.061,0,0.061,0,0.061-0.06v-0.06c0-0.82,0-1.64,0-2.46l-0.061-0.12h-0.06v-0.12c0-0.16,0-0.32,0-0.48v-0.06h-0.121v-0.42
	l-0.06-0.06v-0.36h-0.121v-0.36h-0.123v-0.3H44.21v-0.3h-0.119v-0.18H44.03v-0.3H43.97v-0.06l-0.119-0.12v-0.18l-0.061-0.06
	l-0.061-0.06v-0.12l-0.061-0.06v-0.06l-0.06-0.12h-0.06v-0.18h-0.061v-0.06l-0.061-0.12h-0.06v-0.06l-0.119-0.06v-0.12l-0.06-0.06
	v-0.06l-0.061-0.12h-0.062v-0.06l-0.06-0.061v-0.06l-0.059-0.06l-0.061-0.06v-0.06h-0.119v-0.18l-0.24-0.24v-0.06l-0.061-0.06
	h-0.062v-0.12h-0.06l-0.181-0.18v-0.12l-0.06-0.06H42.05v-0.12h-0.061l-0.061-0.12h-0.06l-0.062-0.06H41.75v-0.12h-0.06l-0.061-0.06
	h-0.062v-0.12h-0.06l-0.059-0.06l-0.061-0.06c0,0,0,0-0.062-0.06h-0.058v-0.12H41.21l-0.061-0.06h-0.061v-0.12h-0.06l-0.062-0.06
	h-0.061l-0.061-0.12h-0.119v-0.06H40.61l-0.061-0.06v-0.12l-0.119-0.06v-0.06H40.25v-0.12h-0.12v-0.06h-0.061v-0.06l-0.119-0.06
	H39.89l-0.062-0.06l-0.06-0.06v-0.06h-0.178l-0.061-0.12H39.47v-0.06h-0.18v-0.06l-0.119-0.06H39.11v-0.06l-0.121-0.06v-0.06h-0.18
	v-0.06l-0.061-0.06h-0.061c0,0,0,0-0.061-0.06H38.45v-0.06h-0.18v-0.12h-0.18l-0.121-0.12h-0.18v-0.06h-0.18l-0.061-0.12h-0.24
	v-0.06H37.07l-0.06-0.06l-0.121-0.06h-0.119l-0.062-0.06l-0.061-0.06h-0.181c0,0,0,0-0.061-0.06h-0.42v-0.06l-0.119-0.06
	c-0.471,0.025-0.039-0.097-0.721-0.06H35.03v-0.06l-0.061-0.06H34.37z M45.229,16.934v0.06l0.061,0.06h0.061v0.12l0.06,0.12v0.06
	l0.12,0.12v0.12l0.119,0.06v0.24h0.061v0.18l0.119,0.06v0.18l0.061,0.06v0.24l0.061,0.06h0.061v0.24l0.119,0.06v0.24l0.062,0.06v0.3
	l0.06,0.06h0.061v0.36h0.119v0.54h0.061v0.12c0,0.16,0,0.32,0,0.48v0.06l0.121,0.061v0.18c0,0.16,0,0.32,0,0.48v0.6l0.061,0.06v0.48
	h-0.061v0.06c0,0.38,0,0.76,0,1.14v0.12h-0.121v0.12c0,0.14,0,0.28,0,0.42v0.12h-0.061v0.48h-0.119v0.48H46.19v0.24H46.13v0.36
	l-0.119,0.06v0.24H45.89v0.3h-0.061v0.3H45.71v0.18h-0.061v0.3H45.53v0.18h-0.121v0.24h-0.061v0.12h-0.119v0.18h-0.061v0.24H45.05
	v0.18h-0.061v0.18H44.87v0.18H44.81v0.12H44.69v0.18h-0.121v0.06h-0.061v0.18H44.39v0.12h-0.119v0.18H44.21v0.06h-0.119v0.24H44.03
	v0.12H43.97v0.06h-0.119v0.18h-0.121v0.12h-0.059v0.12H43.55v0.06h-0.061v0.12H43.37v0.18h-0.12v0.06h-0.06v0.12h-0.121v0.06h-0.061
	v0.12H42.89v0.06h-0.119v0.12H42.71v0.12h-0.061v0.06H42.53v0.12h-0.121v0.12h-0.061v0.06h-0.119v0.12h-0.18v0.06h-0.061v0.12H41.87
	v0.12h-0.12v0.06h-0.06v0.12h-0.18v0.061H41.39v0.06h-0.119v0.18h-0.18v0.06H41.03v0.12h-0.24v0.06h-0.061v0.12h-0.18v0.06h-0.119
	v0.12H40.25v0.12h-0.181v0.06H39.95v0.12h-0.18v0.12h-0.18v0.06h-0.182v0.12h-0.238v0.06h-0.182v0.12h-0.18v0.06H38.69v0.12h-0.361
	v0.121h-0.18v0.06h-0.301v0.06H37.61v0.12H37.31v0.12h-0.24v0.12h-0.42v0.06H36.29v0.12h-0.6v0.062h-0.541v0.119H35.03
	c-0.301,0-0.601,0-0.9,0h-0.12v0.119h-0.06c-0.301,0-0.601,0-0.9,0h-0.18v-0.06h-0.18c-0.3,0-0.6,0-0.9,0h-0.06v-0.12l-0.12-0.061
	h-0.48l-0.06-0.06h-0.36l-0.12-0.12h-0.36c0,0,0,0-0.06-0.06h-0.24v-0.06h-0.36v-0.121h-0.3v-0.06l-0.06-0.062h-0.24v-0.06h-0.24
	l-0.06-0.12h-0.12c0,0,0,0-0.06-0.06h-0.24v-0.12h-0.18v-0.059l-0.12-0.06h-0.12v-0.06l-0.06-0.061h-0.12v-0.06h-0.18l-0.06-0.06
	h-0.12v-0.06l-0.06-0.06h-0.12c0,0,0,0-0.06-0.06h-0.12l-0.06-0.12h-0.18v-0.06h-0.06v-0.06l-0.12-0.06h-0.06v-0.06l-0.12-0.06
	v-0.06h-0.12l-0.06-0.12h-0.12v-0.06h-0.18v-0.06l-0.18-0.18h-0.12l-0.06-0.06l-0.06-0.12h-0.06v-0.06h-0.18v-0.061l-0.06-0.06
	l-0.06-0.06h-0.06v-0.06l-0.12-0.06v-0.06h-0.06v-0.12h-0.18c0,0,0,0-0.06-0.06l-0.06-0.12h-0.12v-0.06l-0.061-0.06v-0.06h-0.06
	l-0.06-0.12h-0.06c0,0,0,0-0.06-0.06H24.05v-0.12h-0.12v-0.06l-0.06-0.06v-0.06h-0.06l-0.12-0.12v-0.06h-0.12v-0.12h-0.06v-0.06
	c0-0.06,0-0.12-0.06-0.12h-0.06v-0.06h-0.06v-0.12h-0.12v-0.06h-0.06l-0.06-0.12h-0.06v-0.12c0,0,0,0-0.06-0.06v-0.06l-0.12-0.06
	l-0.06-0.06h-0.06v-0.18l-0.18-0.18v-0.12h-0.06l-0.06-0.12h-0.06v-0.18h-0.12v-0.06l-0.06-0.06v-0.06l-0.12-0.12v-0.12l-0.18-0.18
	v-0.12l-0.12-0.06v-0.12l-0.06-0.06v-0.12l-0.12-0.06v-0.18h-0.06v-0.18h-0.12v-0.18h-0.06v-0.18l-0.12-0.06v-0.12l-0.06-0.12h-0.06
	v-0.18h-0.06v-0.3h-0.12v-0.3h-0.06v-0.24h-0.12v-0.3h-0.06v-0.3l-0.12-0.12v-0.42l-0.12-0.06v-0.42h-0.06v-0.6c0,0,0,0-0.06-0.06
	h-0.06v-1.26l-0.06-0.06v-0.42l0.06-0.12c0-0.4,0-0.8,0-1.2v-0.18h0.06l0.06-0.061v-0.479c0.06,0,0.06,0,0.06-0.06v-0.54h0.12v-0.36
	c0.06,0,0.06,0,0.06-0.061c0.06,0,0.06,0,0.06-0.06v-0.24l0.06-0.06v-0.24l0.12-0.06v-0.24h0.06v-0.3h0.12v-0.3h0.06v-0.18h0.06
	c0.06,0,0.06-0.06,0.06-0.12v-0.12l0.12-0.06v-0.18h0.06v-0.12l0.12-0.06v-0.18h0.06v-0.18h0.12v-0.18h0.06v-0.18h0.12v-0.18
	c0.06,0,0.06,0,0.06-0.06c0.06,0,0.06,0,0.06-0.06v-0.12h0.06v-0.06c0.06,0,0.06,0,0.06-0.06c0.06,0,0.06,0,0.06-0.06v-0.12h0.06
	v-0.12l0.12-0.06v-0.06h0.06l0.06-0.12v-0.06l0.06-0.06c0.06,0,0.06,0,0.06-0.06l0.06-0.12h0.06v-0.18h0.06l0.06-0.06h0.12v-0.12
	l0.06-0.06v-0.12h0.06l0.06-0.12h0.06v-0.06l0.12-0.06v-0.06h0.06v-0.12c0.06,0,0.06,0,0.06-0.06c0.06,0,0.06-0.06,0.06-0.12h0.06
	v-0.06h0.12v-0.06c0.06,0,0.06,0,0.06-0.06c0.06,0,0.06,0,0.06-0.06c0.06,0,0.06,0,0.06-0.06c0.06,0,0.06,0,0.06-0.06v-0.12h0.12
	v-0.06h0.06c0.06,0,0.06,0,0.06-0.06c0.06,0,0.06,0,0.06-0.06c0.06,0,0.06,0,0.06-0.06c0.06,0,0.06,0,0.06-0.06v-0.06h0.06v-0.06
	c0.06,0,0.12,0,0.12-0.06c0.06,0,0.06,0,0.06-0.06c0.06,0,0.06,0,0.06-0.06c0.06,0,0.06,0,0.06-0.06l0.06-0.06h0.12v-0.12h0.12
	v-0.06c0.06,0,0.06,0,0.06-0.06h0.06l0.06-0.06v-0.06h0.12c0.06,0,0.06,0,0.06-0.06v-0.06h0.06l0.06-0.06c0.06,0,0.06,0,0.06-0.06
	c0.06,0,0.06,0,0.06-0.06h0.12l0.06-0.12h0.06v-0.06h0.12v-0.12h0.18l0.06-0.06v-0.06c0.06,0,0.06,0,0.06-0.06h0.18v-0.12h0.18
	v-0.06c0.06,0,0.06,0,0.06-0.06v-0.06h0.18c0.06,0,0.06-0.06,0.06-0.12h0.12l0.06-0.06h0.18v-0.12h0.18v-0.06h0.18v-0.06h0.12
	c0.06,0,0.06,0,0.06-0.06v-0.06h0.12l0.12-0.06v-0.06h0.18v-0.06h0.06c0.06,0,0.06,0,0.06-0.06c0.06,0,0.06,0,0.06-0.06h0.18
	c0.06,0,0.06,0,0.06-0.06h0.24c0.06,0,0.06,0,0.06-0.06v-0.06h0.24c0.06,0,0.06,0,0.06-0.06v-0.06h0.18v-0.12h0.36
	c0.06,0,0.06,0,0.06-0.06h0.3l0.06-0.12h0.36v-0.06h0.42c0.06,0,0.06,0,0.06-0.06v-0.06h0.54v-0.12h0.12c0.26,0,0.52,0,0.78,0h0.06
	v-0.06h1.38l0.06-0.06h0.24l0.06,0.12h0.061c0.261,0,0.521,0,0.779,0h0.12v0.06l0.06,0.06h0.479l0.062,0.06h0.42v0.12h0.359v0.06
	h0.42v0.12h0.301l0.06,0.06h0.24l0.061,0.12h0.119l0.061,0.06l0.061,0.06h0.181l0.062,0.06h0.236l0.061,0.12h0.181v0.06h0.118
	l0.062,0.12h0.119l0.121,0.12h0.18v0.06h0.181l0.061,0.12h0.061l0.119,0.06h0.062v0.06h0.18l0.06,0.12h0.121l0.119,0.12v0.06
	l0.12,0.06h0.119l0.062,0.06h0.061l0.061,0.06h0.06v0.12h0.18v0.06l0.121,0.06v0.06h0.06l0.061,0.12h0.121v0.06h0.119v0.12h0.119
	v0.06l0.061,0.06h0.121v0.06h0.061v0.12h0.119l0.061,0.06h0.06v0.06l0.062,0.06h0.119v0.06h0.061v0.06c0,0.06,0.061,0.06,0.12,0.06
	v0.06h0.06v0.06l0.121,0.06v0.06l0.119,0.06v0.06h0.061v0.12h0.062l0.06,0.06h0.061v0.06l0.119,0.06v0.06
	c0.061,0.06,0.061,0.06,0.061,0.06h0.061l0.062,0.06v0.12h0.06l0.061,0.06h0.061v0.06l0.119,0.06v0.12
	c0.061,0.06,0.061,0.06,0.061,0.06l0.062,0.06h0.06v0.12h0.061l0.061,0.06h0.061v0.18c0,0.06,0.061,0.06,0.12,0.06v0.06h0.062v0.12
	h0.059v0.06l0.061,0.12h0.061l0.062,0.06l0.06,0.12c0.061,0.06,0.061,0.06,0.061,0.06v0.06l0.043,0.06h0.061v0.12h0.06v0.12
	l0.121,0.12v0.12h0.118v0.06l0.062,0.06v0.06l0.06,0.12h0.061v0.12c0.061,0.06,0.061,0.06,0.061,0.06v0.12l0.062,0.06h0.06v0.12
	l0.061,0.06v0.06H45.229z M45.409,12.674h0.121v0.12l0.119,0.12h0.061v0.12h0.119v0.06h0.061v0.18l0.121,0.06v0.06h0.06l0.062,0.12
	v0.06l0.061,0.06l0.119,0.06v0.06l0.119,0.12v0.12h0.061v0.06l0.061,0.06h0.062v0.18h0.06l0.12,0.12v0.12h0.06v0.18h0.061
	c0.061,0.06,0.061,0.06,0.061,0.06l0.062,0.06v0.18h0.06l0.061,0.06v0.12h0.061l0.062,0.06v0.12l0.06,0.06v0.12h0.113v0.18
	l0.061,0.06v0.12l0.119,0.06v0.18h0.062l0.06,0.06v0.12l0.061,0.06v0.12h0.119v0.3h0.061v0.18h0.059
	c0.062,0.06,0.062,0.06,0.062,0.06v0.24h0.06c0.061,0.06,0.061,0.06,0.061,0.06v0.18h0.061v0.3h0.061v0.24l0.119,0.06v0.36h0.062
	v0.3h0.119v0.36h0.062l0.061,0.12v0.36h0.059c0.061,0.06,0.061,0.06,0.061,0.06v0.48l0.062,0.06v0.6h0.06l0.061,0.12v0.06
	c0,0.2,0,0.4,0,0.6v0.72l0.061,0.12v0.48h-0.061v0.24c0,0.32,0,0.64,0,0.96v0.12c0,0.06,0,0.06-0.061,0.06l-0.064,0.06
	c0,0.22,0,0.44,0,0.66v0.06H48.89v0.48c0,0.06,0,0.06-0.062,0.06h-0.058v0.42c0,0.06,0,0.06-0.062,0.06h-0.061v0.42H48.53v0.48
	H48.47v0.24h-0.119v0.36c0,0.06,0,0.06-0.061,0.06v0.24l-0.061,0.06v0.18c0,0.06,0,0.06-0.061,0.06h-0.06v0.18
	c0,0.06,0,0.06-0.062,0.06h-0.061v0.36h-0.061v0.24l-0.119,0.06v0.06c0,0.06,0,0.06-0.061,0.06v0.24c0,0.06,0,0.06-0.061,0.06H47.63
	v0.3h-0.119v0.18H47.45v0.18l-0.121,0.061v0.24h-0.059v0.12c0,0.06,0,0.06-0.062,0.06c0,0.06,0,0.06-0.061,0.06v0.06
	c0,0.06,0,0.06-0.06,0.06h-0.061v0.18c0,0.06,0,0.06-0.061,0.06v0.12l-0.062,0.06h-0.06v0.18h-0.061v0.06l-0.061,0.12h-0.061v0.18
	h-0.061v0.12l-0.055,0.06h-0.061v0.18l-0.061,0.06v0.06c0,0.06,0,0.06-0.06,0.06c0,0.06,0,0.06-0.062,0.06v0.18H46.19v0.06
	l-0.061,0.06v0.06c0,0.06,0,0.06-0.062,0.06c0,0.06,0,0.06-0.06,0.06v0.18h-0.121v0.18h-0.061v0.18H45.71v0.06h-0.061v0.18
	l-0.061,0.06h-0.06v0.18h-0.121v0.06c0,0.06,0,0.06-0.06,0.06v0.06l-0.061,0.12h-0.061v0.06h-0.061v0.12c0,0.06,0,0.06-0.06,0.06
	c0,0.06,0,0.06-0.062,0.06v0.12h-0.061v0.06l-0.119,0.06v0.18h-0.061l-0.061,0.12h-0.061v0.18h-0.121v0.061
	c0,0.061,0,0.061-0.059,0.061v0.18h-0.121v0.062c0,0.06-0.061,0.06-0.119,0.06c0,0.061,0,0.061-0.061,0.061v0.181h-0.12v0.12h-0.06
	v0.119H43.97c0,0.061,0,0.121-0.061,0.121l-0.119,0.119h-0.061v0.18h-0.061c0,0.061,0,0.061-0.06,0.061c0,0.062,0,0.062-0.062,0.062
	v0.06h-0.061v0.12c0,0.062,0,0.062-0.061,0.062c0,0.06,0,0.06-0.06,0.06v0.06H43.25V37.1l-0.06,0.06v0.061
	c0,0.061,0,0.061-0.061,0.061c0,0.062,0,0.062-0.062,0.062v0.119h-0.06l-0.059,0.053H42.89v0.18h-0.119v0.062
	c0,0.06,0,0.06-0.062,0.06c0,0.06,0,0.06-0.061,0.06l-0.06,0.121h-0.061v0.06l-0.059,0.119h-0.061v0.06l-0.061,0.061
	c0,0.061,0,0.061-0.06,0.061h-0.062l-0.057,0.119c0,0.061,0,0.061-0.061,0.061H42.05v0.18l-0.061,0.06c0,0.062,0,0.062-0.061,0.062
	h-0.06l-0.062,0.119H41.75v0.061c0,0.061,0,0.061-0.06,0.061H41.63c0,0.06,0,0.06-0.061,0.06v0.062l-0.061,0.061v0.06
	c0,0.06,0,0.06-0.06,0.06c0,0.062,0,0.062-0.062,0.062c0,0.06,0,0.06-0.061,0.06h-0.057v0.061l-0.061,0.057
	c0,0.061,0,0.061-0.061,0.061h-0.061v0.119h-0.06c0,0.061,0,0.061-0.062,0.061c0,0.061,0,0.061-0.061,0.061
	c0,0.061,0,0.061-0.061,0.061h-0.06v0.061l-0.062,0.061v0.119l-0.115,0.058c0,0.062,0,0.062-0.061,0.062v0.119h-0.121v0.061
	l-0.06,0.061c0,0.06,0,0.06-0.062,0.06c0,0.062,0,0.062-0.06,0.062l-0.12,0.061v0.06c0,0.06,0,0.06-0.061,0.06l-0.117,0.058v0.06
	H39.89l-0.062,0.121h-0.058v0.06l-0.062,0.06c0,0.061,0,0.061-0.061,0.061h-0.06l-0.061,0.121H39.47v0.059h-0.061l-0.061,0.12h-0.06
	v0.06l-0.12,0.061v0.06c0,0.062,0,0.062-0.06,0.062l-0.121,0.06v0.06c0,0.062,0,0.062-0.06,0.062v0.06h-0.121v0.061
	c0,0.061,0,0.061-0.06,0.061c0,0.062,0,0.062-0.06,0.062v0.06l-0.062,0.061h-0.12v0.061H38.45v0.061l-0.121,0.06v0.062h-0.059v0.119
	h-0.121V42.8l-0.119,0.113H37.97l-0.061,0.119h-0.061v0.062c0,0.06,0,0.06-0.06,0.06v0.061h-0.12v0.06l-0.06,0.062l-0.06,0.059
	h-0.061v0.061H37.37v0.119c0,0.061,0,0.061-0.061,0.061v0.061h-0.18v0.062l-0.121,0.118c0,0.062-0.06,0.062-0.119,0.062
	c0,0.06,0,0.06-0.062,0.06v0.061h-0.058l-0.061,0.118h-0.061v0.06h-0.061l-0.06,0.12h-0.06c0,0.062,0,0.062-0.061,0.062
	l-0.061,0.119h-0.18v0.061l-0.119,0.061v0.06l-0.061,0.059l-0.119,0.06v0.061c0,0.061,0,0.061-0.061,0.061v0.061H35.69v0.061
	c0,0.06,0,0.06-0.061,0.06h-0.121v0.062l-0.059,0.058v0.06h-0.121c0,0.061,0,0.061-0.059,0.061l-0.062,0.119
	c0,0.061,0,0.061-0.061,0.061h-0.181v0.12h-0.119v0.06l-0.121,0.12h-0.06l-0.06,0.12H34.55v0.061c0,0.061,0,0.061-0.061,0.061H34.37
	v0.061h-0.12v0.06c0,0.061,0,0.061-0.06,0.061v0.062h-0.06c0,0.06,0,0.06-0.061,0.06c0,0.06,0,0.06-0.06,0.06H33.95
	c0,0.062,0,0.062-0.061,0.062l-0.061,0.06v0.061l-0.118,0.056l-0.061,0.062h-0.12v0.06c-0.12,0.06-0.18,0-0.18-0.06h-0.12
	l-0.06-0.062l-0.12-0.061v-0.06l-0.06-0.06l-0.06-0.062h-0.12l-0.059-0.119h-0.06v-0.06h-0.06l-0.06-0.061c0,0,0,0-0.06-0.06v-0.061
	h-0.12l-0.06-0.061v-0.059h-0.12v-0.12h-0.06l-0.06-0.062h-0.06v-0.118h-0.06l-0.06-0.062h-0.12v-0.061h-0.06l-0.12-0.119
	c0,0,0,0-0.06-0.061v-0.061h-0.06v-0.061h-0.12l-0.06-0.12h-0.18v-0.117l-0.06-0.062h-0.06v-0.119h-0.12v-0.06h-0.06l-0.06-0.12
	h-0.06v-0.06h-0.12c0,0,0,0-0.06-0.062v-0.059h-0.12v-0.12h-0.06l-0.06-0.062h-0.06v-0.118h-0.06l-0.06-0.062c0,0,0,0-0.06-0.061
	v-0.061h-0.12v-0.06h-0.06v-0.12h-0.12l-0.06-0.061l-0.12-0.061V43.63h-0.06l-0.06-0.116h-0.06v-0.062h-0.12v-0.119h-0.06v-0.06
	l-0.12-0.12h-0.06l-0.06-0.119h-0.06v-0.061l-0.12-0.061v-0.06h-0.06v-0.062l-0.12-0.118h-0.06v-0.121h-0.12v-0.06l-0.12-0.061
	l-0.06-0.061v-0.061h-0.12v-0.061c-0.085-0.063-0.086-0.264-0.24-0.239l-0.06-0.062c0,0,0,0-0.06-0.06v-0.06h-0.06l-0.06-0.058
	c0,0,0,0-0.06-0.061v-0.06l-0.12-0.121h-0.06v-0.119h-0.12v-0.06h-0.06v-0.062c-0.06,0-0.12,0-0.12-0.06v-0.059h-0.06l-0.12-0.121
	v-0.119h-0.12v-0.062h-0.06l-0.06-0.06h-0.06v-0.12h-0.06l-0.06-0.061l-0.06-0.059v-0.06h-0.06l-0.06-0.062h-0.06v-0.119h-0.06
	v-0.18c-0.06,0-0.12,0-0.12-0.06l-0.06-0.062h-0.06v-0.059h-0.12v-0.12h-0.06v-0.12h-0.06l-0.06-0.06h-0.06v-0.121h-0.12v-0.06
	h-0.06l-0.06-0.121v-0.06h-0.06v-0.12h-0.06l-0.06-0.119h-0.06v-0.061h-0.12v-0.061l-0.06-0.061l-0.06-0.061h-0.06v-0.178h-0.06
	v-0.119h-0.12v-0.061l-0.06-0.061v-0.06h-0.12l-0.06-0.12l-0.06-0.06v-0.121h-0.06v-0.06l-0.12-0.061v-0.061h-0.06l-0.06-0.118
	h-0.06l-0.06-0.062v-0.119l-0.06-0.06h-0.06v-0.062l-0.12-0.06v-0.181h-0.06l-0.12-0.119v-0.059h-0.12v-0.181c0,0,0,0-0.06-0.062
	v-0.06h-0.12v-0.059c0,0,0,0-0.06-0.062v-0.119l-0.12-0.061v-0.061c-0.231-0.203-0.069-0.156-0.3-0.359h-0.06v-0.18h-0.12v-0.121
	l-0.06-0.061l-0.12-0.06v-0.181h-0.06l-0.12-0.121v-0.18h-0.12v-0.06h-0.06v-0.177l-0.12-0.12h-0.06l-0.06-0.12v-0.06l-0.06-0.06
	v-0.12h-0.06l-0.06-0.12h-0.06v-0.12l-0.18-0.18v-0.18h-0.06l-0.06-0.06v-0.06l-0.12-0.12c0,0,0,0-0.06-0.06v-0.18h-0.06l-0.06-0.06
	v-0.061l-0.06-0.06v-0.12l-0.12-0.06v-0.06h-0.06v-0.18h-0.12v-0.18l-0.12-0.12v-0.12h-0.06v-0.18h-0.06l-0.06-0.06v-0.12h-0.06
	v-0.18h-0.06l-0.06-0.12v-0.06c0,0,0,0-0.06-0.06v-0.12l-0.06-0.06l-0.06-0.06v-0.06l-0.06-0.06v-0.18h-0.12v-0.12l-0.12-0.12v-0.12
	h-0.06v-0.3h-0.06l-0.06-0.06v-0.12h-0.06l-0.06-0.06v-0.12l-0.06-0.06v-0.24h-0.06l-0.06-0.06v-0.12h-0.06v-0.24l-0.12-0.12v-0.18
	l-0.12-0.12v-0.18l-0.06-0.12v-0.12h-0.12v-0.36l-0.06-0.06v-0.18l-0.06-0.06v-0.3l-0.12-0.06v-0.24l-0.06-0.06l-0.06-0.06v-0.36
	h-0.06v-0.36h-0.12v-0.48c0,0,0,0-0.06-0.06v-0.54h-0.12v-0.06c0-0.16,0-0.32,0-0.48v-0.12h-0.06l-0.06-0.06v-0.6
	c0-0.14,0-0.28,0-0.42v-0.42h-0.06l-0.06-0.06v-0.54h0.12v-0.06c0-0.44,0-0.88,0-1.32v-0.06h0.12v-0.18c0-0.14,0-0.28,0-0.42v-0.06
	h0.12v-0.6h0.06v-0.48h0.12v-0.36h0.06v-0.3h0.12v-0.42h0.12v-0.24h0.06v-0.3h0.06v-0.24h0.12v-0.3h0.06v-0.18h0.12v-0.3h0.12v-0.18
	h0.06v-0.18h0.12v-0.24h0.06v-0.12h0.12v-0.24h0.12v-0.18h0.06v-0.18h0.12v-0.18h0.12v-0.18h0.06v-0.12h0.12v-0.24h0.06v-0.12h0.12
	v-0.12h0.06v-0.18h0.12v-0.06h0.06v-0.24h0.12v-0.06h0.12v-0.12h0.06v-0.18h0.12v-0.12h0.06v-0.06h0.12v-0.24h0.06v-0.06h0.12v-0.12
	h0.12v-0.18h0.06v-0.06h0.12v-0.12h0.06v-0.06h0.12v-0.12h0.06v-0.12h0.12v-0.061h0.12v-0.12h0.06v-0.12h0.12v-0.06h0.06v-0.18h0.12
	v-0.12h0.18v-0.12h0.12v-0.06h0.06v-0.12h0.12v-0.12h0.18v-0.12h0.12v-0.12h0.06v-0.12h0.12v-0.06h0.18v-0.12h0.06v-0.06h0.12v-0.12
	h0.12v-0.06h0.12v-0.12h0.12v-0.12h0.12v-0.06h0.18v-0.12h0.06v-0.12h0.24v-0.06h0.12v-0.06h0.12v-0.12h0.12v-0.06h0.12l0.06-0.06
	v-0.06h0.12v-0.12h0.18v-0.06h0.18v-0.12h0.12v-0.12h0.18v-0.06h0.24v-0.12h0.12v-0.12h0.18v-0.06h0.18v-0.12h0.24v-0.06h0.3v-0.12
	h0.18v-0.12h0.18v-0.06h0.24v-0.12h0.3v-0.06h0.18v-0.12h0.3v-0.06h0.36v-0.12h0.3v-0.12h0.42v-0.06h0.36v-0.12h0.48v-0.06h0.54
	v-0.12h0.06c0.2,0,0.4,0,0.6,0h0.06v-0.12h0.12c1.02,0,2.041,0,3.06,0h0.062v0.12h0.119c0.18,0,0.36,0,0.541,0h0.118v0.12h0.24
	l0.121-0.06h0.119l0.119,0.12h0.42v0.06h0.301l0.062,0.06l0.059,0.06h0.3c0.062,0.06,0.062,0.06,0.062,0.06h0.18l0.06,0.06v0.061
	h0.301l0.121,0.06h0.178l0.061,0.06v0.06h0.299v0.12h0.181v0.06h0.301v0.12h0.181v0.06h0.18c0.061,0.06,0.061,0.06,0.061,0.06h0.18
	l0.059,0.06v0.12h0.18v0.06h0.18l0.062,0.12h0.181v0.06h0.18v0.06h0.061l0.061,0.06c0.06,0.06,0.06,0.06,0.06,0.06h0.181v0.12h0.061
	l0.061,0.12h0.119l0.061,0.061h0.181v0.12h0.062c0.061,0.06,0.061,0.06,0.061,0.06h0.119l0.061,0.12h0.061
	c0.06,0.06,0.06,0.06,0.06,0.06h0.121l0.06,0.12l0.061,0.06h0.12l0.06,0.06v0.06h0.061l0.062,0.12h0.119l0.062,0.06h0.061v0.06
	l0.119,0.06v0.06h0.18v0.12h0.061c0.062,0.06,0.062,0.06,0.062,0.06l0.06,0.06v0.06h0.121v0.12h0.18v0.06h0.061l0.061,0.12h0.06
	v0.06l0.12,0.12h0.061l0.061,0.12h0.061l0.061,0.06v0.06h0.119v0.12h0.062v0.06h0.119l0.12,0.06v0.06l0.06,0.06v0.12h0.121v0.12
	h0.06c0.061,0.06,0.061,0.06,0.061,0.06l0.061,0.06v0.06l0.119,0.06v0.06h0.045v0.06h0.062l0.06,0.12h0.061v0.06l0.18,0.18v0.06
	H45.409z M45.229,9.793l0.301,0.3v0.06h0.18v0.06l0.119,0.06l0.061,0.06v0.12l0.061,0.12h0.061v0.06h0.119v0.06l0.12,0.12h0.06v0.06
	l0.121,0.06v0.12h0.06v0.06h0.121v0.06h0.06l0.061,0.12h0.061v0.06c0.061,0.06,0.061,0.06,0.061,0.06v0.06l0.06,0.12h0.062v0.06
	h0.061l0.061,0.12h0.06v0.06l0.121,0.06v0.18h0.059v0.06h0.116v0.12h0.061v0.12l0.06,0.06h0.062v0.06l0.119,0.06v0.06l0.061,0.06
	v0.06l0.061,0.06h0.061v0.12h0.06v0.06l0.062,0.12h0.061v0.06h0.119v0.18l0.061,0.06v0.12l0.061,0.06l0.06,0.06h0.062v0.18h0.061
	v0.18l0.061,0.06h0.06l0.062,0.06h0.061v0.18h0.119v0.18l0.061,0.06v0.12c0,0.06,0.061,0.06,0.119,0.06v0.12
	c0.061,0.06,0.061,0.06,0.061,0.06v0.12l0.121,0.06v0.18h0.119v0.18h0.061v0.3h0.119v0.18h0.062v0.18h0.119v0.3h0.12v0.18l0.06,0.06
	v0.24h0.062v0.24l0.119,0.06v0.24h0.061v0.3l0.061,0.06l0.062,0.06v0.24h0.06v0.3l0.061,0.12h0.049v0.36l0.061,0.06h0.06v0.48h0.062
	v0.42l0.061,0.06h0.061v0.12c0,0.18,0,0.36,0,0.54v0.06c0.059,0.06,0.059,0.06,0.059,0.06v0.18c0,0.26,0,0.52,0,0.78v0.06
	l0.121,0.12v1.62h-0.121v0.12c0,0.34,0,0.68,0,1.02v0.06H50.75v0.12c0,0.18,0,0.36,0,0.54v0.12h-0.12v0.54h-0.061v0.48l-0.119,0.06
	v0.42h-0.121v0.36h-0.059v0.42h-0.121v0.24h-0.061v0.42H49.97v0.24h-0.062v0.3h-0.06v0.3h-0.121v0.3H49.61v0.3H49.55v0.12h-0.119
	v0.3H49.37v0.18h-0.12v0.36h-0.12v0.12h-0.061v0.24H48.95v0.24H48.89v0.18h-0.119v0.24h-0.121v0.18H48.53v0.18H48.47v0.18h-0.119
	v0.18H48.29v0.18l-0.061,0.06v0.18H48.11v0.18h-0.121v0.18h-0.061v0.18H47.81v0.18h-0.06v0.12h-0.12v0.18h-0.119v0.18H47.45v0.18
	h-0.121v0.12h-0.059v0.18h-0.121v0.18H47.03v0.12H46.97v0.18h-0.119v0.061H46.79v0.239h-0.119v0.181H46.61v0.061h-0.121v0.24h-0.061
	v0.06H46.31v0.239h-0.18v0.24h-0.121v0.119H45.89v0.181h-0.062v0.06H45.71v0.24h-0.061v0.061H45.53v0.119h-0.121v0.182h-0.061v0.119
	h-0.119v0.061h-0.061v0.18H45.05v0.062h-0.061v0.118H44.87v0.181H44.81v0.119H44.69v0.118h-0.121v0.182h-0.061v0.061H44.39v0.119
	h-0.119v0.182H44.21v0.119h-0.119v0.061H44.03v0.119H43.97v0.061l-0.119,0.062v0.118h-0.121v0.121h-0.059v0.06H43.55v0.119h-0.061
	v0.239H43.37v0.061h-0.12v0.12h-0.06v0.06h-0.121v0.12h-0.061v0.12H42.89v0.12h-0.119v0.119c0,0.061,0,0.061-0.062,0.061v0.062
	h-0.061v0.119H42.53v0.061h-0.121v0.061h-0.061v0.119h-0.119v0.06h-0.061v0.239H42.05v0.061h-0.061v0.12H41.87v0.119h-0.12v0.061
	h-0.06v0.12h-0.121v0.061h-0.061v0.119H41.39v0.061h-0.119v0.181H41.21v0.06h-0.119v0.062H41.03v0.119h-0.121v0.062H40.79v0.119
	h-0.061v0.12H40.61v0.062H40.55v0.119h-0.119l0.06,0.061h0.06v0.119h0.359v0.058l0.121,0.062c0.496-0.035,0.344,0.082,0.66,0.06
	h0.06v0.06h0.421v0.121h0.238v0.06l0.121,0.062h0.24l0.059,0.061h0.24l0.121,0.119h0.18v0.061h0.301v0.061l0.059,0.06h0.121v0.062
	h0.24l0.119,0.119h0.061l0.06,0.061h0.24l0.062,0.121h0.18v0.055h0.18v0.12h0.182l0.06,0.06v0.061h0.12l0.06,0.061h0.121v0.12h0.119
	v0.06h0.18l0.062,0.121h0.119v0.06l0.121,0.062v0.061h0.061l0.119,0.119h0.119v0.061h0.061v0.119h0.121v0.061h0.061l0.06,0.121h0.12
	l0.06,0.06h0.062v0.177c0.061,0.061,0.061,0.061,0.061,0.061l0.061,0.061h0.06v0.119h0.121v0.06h0.06v0.12h0.113v0.18h0.061v0.12
	l0.06,0.062h0.062v0.06l0.119,0.06v0.24l0.061,0.062v0.118l0.061,0.121h0.061v0.119c0,0.32,0,0.642,0,0.961v0.06h-0.121v0.301H47.75
	v0.24h-0.12v0.239h-0.119v0.119H47.45v0.121h-0.121v0.119h-0.059v0.24h-0.121v0.061H47.03v0.06H46.97v0.119h-0.119v0.06H46.79v0.12
	h-0.119v0.12h-0.182v0.061h-0.061v0.119H46.31v0.061h-0.18v0.121h-0.121v0.119h-0.181v0.061H45.71v0.119h-0.18v0.121h-0.182v0.06
	h-0.18v0.12h-0.181v0.061h-0.181v0.119h-0.239v0.06h-0.181v0.118h-0.299v0.062h-0.121v0.12h-0.3v0.061h-0.3v0.119h-0.301v0.12
	h-0.297v0.12h-0.24v0.061h-0.359v0.119H41.75v0.061l-0.06,0.061H41.39v0.062H41.03v0.118h-0.48v0.062H40.07v0.119H39.47v0.119
	h-0.539v0.06H38.81c-0.18,0-0.358,0-0.539,0h-0.12v0.12h-0.06c-0.201,0-0.399,0-0.602,0H37.37v0.062H37.31c-0.279,0-0.561,0-0.84,0
	h-0.062v0.119H36.29c-0.68,0-1.359,0-2.04,0h-0.24v0.119h-1.14v-0.06l-0.36-0.062c-0.6,0-1.2,0-1.8,0h-0.12v-0.059h-0.06
	c-0.32,0-0.64,0-0.96,0h-0.12v-0.061l-0.06-0.061h-0.66c0,0,0,0-0.06-0.061h-0.06c-0.18,0-0.36,0-0.54,0h-0.12v-0.061l-0.12-0.06
	h-0.48l-0.06-0.062h-0.48v-0.119h-0.48v-0.061h-0.48V52.87l-0.06-0.061h-0.3l-0.06-0.061h-0.3l-0.06-0.061l-0.06-0.061h-0.24
	l-0.06-0.061l-0.06-0.06h-0.3v-0.062h-0.3v-0.06l-0.12-0.06h-0.12l-0.06-0.054h-0.24l-0.12-0.12h-0.18v-0.06l-0.06-0.06h-0.18
	v-0.061h-0.24v-0.061l-0.06-0.061h-0.18c0,0,0,0-0.06-0.061h-0.18v-0.061l-0.06-0.06h-0.12v-0.058h-0.18v-0.062h-0.18v-0.119h-0.18
	v-0.062l-0.12-0.06h-0.06v-0.06h-0.24v-0.121h-0.06v-0.059l-0.12-0.06h-0.06v-0.062h-0.12v-0.06h-0.18v-0.119h-0.12v-0.12h-0.06
	l-0.12-0.119h-0.12l-0.06-0.061v-0.061l-0.06-0.061c0,0,0,0-0.06-0.061h-0.06v-0.061l-0.06-0.06c0,0,0,0-0.06-0.062h-0.06v-0.18
	h-0.12V49.87l-0.12-0.119h-0.06v-0.178l-0.12-0.06v-0.062h-0.06v-0.179h-0.12v-0.239l-0.06-0.061v-0.182l-0.06-0.118h-0.06v-0.06
	c0-0.32,0-0.641,0-0.961v-0.06c0.06,0,0.06,0,0.06-0.062l0.06-0.119v-0.18h0.06v-0.24h0.12v-0.18l0.06-0.061v-0.06h0.12v-0.18
	c0.06,0,0.06,0,0.06-0.062c0.06,0,0.06,0,0.06-0.06h0.06v-0.06l0.12-0.062V46.21h0.06c0.06,0,0.06-0.06,0.06-0.118v-0.058h0.06
	v-0.061c0.06,0,0.06,0,0.06-0.061l0.06-0.121h0.12c0.06,0,0.06,0,0.06-0.06h0.06v-0.059c0.06,0,0.06,0,0.06-0.062
	c0.06,0,0.06,0,0.06-0.061h0.06v-0.061h0.12c0.06,0,0.06,0,0.06-0.06c0.06,0,0.06,0,0.06-0.062h0.06v-0.116h0.12v-0.061h0.18v-0.12
	h0.12c0.06,0,0.06,0,0.06-0.06l0.12-0.062v-0.06h0.18v-0.119h0.18v-0.061h0.06l0.12-0.06v-0.061h0.18v-0.119h0.18v-0.061h0.18
	l0.06-0.121h0.24v-0.06h0.24v-0.059c0.06,0,0.06,0,0.06-0.062h0.18v-0.061h0.18c0.06,0,0.06,0,0.06-0.061c0.06,0,0.06,0,0.06-0.06
	h0.24c0.06,0,0.06,0,0.06-0.062h0.12l0.12-0.06v-0.06h0.36v-0.058h0.24c0.06,0,0.06,0,0.06-0.061c0.06,0,0.06,0,0.06-0.06h0.24
	c0.06,0,0.06,0,0.06-0.061c0.06,0,0.06,0,0.06-0.061h0.3l0.06-0.119h0.48v-0.06h0.3c0.06,0,0.06,0,0.06-0.061h0.06
	c0-0.06,0-0.119-0.06-0.181l-0.12-0.119v-0.06c0,0,0,0-0.06-0.062h-0.12v-0.06h-0.06v-0.12l-0.12-0.061l-0.12-0.119h-0.06v-0.061
	l-0.06-0.061h-0.06l-0.06-0.061l-0.06-0.12h-0.06v-0.058l-0.06-0.06c0,0,0,0-0.06-0.062h-0.06v-0.06l-0.06-0.06c0,0,0,0-0.06-0.062
	h-0.06V41.71l-0.12-0.06v-0.06l-0.06-0.061v-0.057h-0.06v-0.12c0,0,0,0-0.06-0.062h-0.06l-0.06-0.06v-0.059l-0.06-0.062h-0.12
	v-0.119h-0.06v-0.061c-0.143-0.157-0.022,0.072-0.3-0.24l-0.12-0.061v-0.18h-0.06v-0.061h-0.06c0-0.061,0-0.12-0.06-0.12
	l-0.06-0.062l-0.12-0.06v-0.06l-0.06-0.061c0,0,0,0-0.06-0.061h-0.06v-0.182h-0.06v-0.114h-0.12v-0.06l-0.06-0.062
	c0,0,0,0-0.06-0.06h-0.06v-0.121c0,0,0,0-0.06-0.06v-0.06l-0.12-0.062c0,0,0,0-0.06-0.061h-0.06v-0.058l-0.06-0.06v-0.062
	l-0.06-0.06l-0.06-0.06v-0.06h-0.06l-0.06-0.12h-0.06v-0.06l-0.12-0.06v-0.181h-0.06c0,0,0,0-0.06-0.062h-0.06v-0.118h-0.06
	l-0.12-0.121v-0.181h-0.12v-0.06h-0.06v-0.181h-0.12v-0.059l-0.06-0.06v-0.062h-0.12v-0.179l-0.06-0.061v-0.06h-0.12l-0.12-0.121
	v-0.18h-0.06v-0.061l-0.12-0.061v-0.119l-0.06-0.062v-0.06h-0.12v-0.181h-0.06l-0.06-0.12h-0.06v-0.18h-0.12V35.95h-0.06v-0.117
	l-0.06-0.061l-0.06-0.061v-0.061h-0.06v-0.119l-0.12-0.119v-0.18h-0.06l-0.06-0.06h-0.06v-0.181l-0.06-0.06h-0.06l-0.06-0.06v-0.18
	h-0.12v-0.18h-0.06l-0.06-0.06l-0.06-0.06v-0.18h-0.12v-0.12l-0.06-0.06v-0.18h-0.12v-0.06l-0.06-0.06v-0.06l-0.06-0.12h-0.06v-0.18
	l-0.12-0.06v-0.12h-0.06v-0.12h-0.06l-0.06-0.06v-0.18c0-0.06,0-0.06-0.06,0v-0.12l-0.06-0.06v-0.12l-0.12-0.12v-0.12l-0.12-0.06
	v-0.18h-0.06v-0.12l-0.06-0.06h-0.06v-0.18l-0.06-0.06v-0.06l-0.06-0.12h-0.06v-0.18c0,0,0,0-0.06-0.06h-0.06v-0.18l-0.12-0.06
	v-0.12h-0.06v-0.3h-0.06v-0.12l-0.06-0.06h-0.06v-0.24c0,0,0,0-0.06-0.06v-0.12l-0.06-0.06h-0.12v-0.3h-0.06v-0.24h-0.06v-0.3
	l-0.12-0.06v-0.24h-0.06v-0.24l-0.06-0.06h-0.06v-0.24l-0.06-0.12h-0.06v-0.24l-0.06-0.06v-0.3l-0.12-0.06v-0.36l-0.06-0.06v-0.36
	l-0.06-0.06h-0.06v-0.42l-0.06-0.06v-0.48l-0.06-0.06h-0.06v-0.18c0-0.14,0-0.28,0-0.42v-0.12c0,0,0,0-0.06-0.06h-0.06v-0.3
	c0-0.18,0-0.36,0-0.54v-0.36l-0.06-0.06v-1.5l0.06-0.12v-0.18c0-0.22,0-0.44,0-0.66v-0.3h0.06c0.06,0,0.06,0,0.06-0.06v-0.12
	c0-0.16,0-0.32,0-0.48v-0.06h0.06l0.06-0.12c-0.034-0.542,0.088-0.307,0.06-0.72v-0.12h0.06l0.06-0.12v-0.3c0.06,0,0.06,0,0.06-0.06
	v-0.36l0.12-0.061v-0.24c0.06,0,0.06,0,0.06-0.06v-0.36h0.06c0.06,0,0.06,0,0.06-0.06v-0.18h0.06c0.06,0,0.06,0,0.06-0.06v-0.18
	c0.06,0,0.06,0,0.06-0.06v-0.24l0.12-0.06v-0.18h0.06v-0.24c0.06,0,0.06,0,0.06-0.06v-0.18h0.12c0.06,0,0.06,0,0.06-0.06v-0.06
	l0.06-0.12v-0.18c0.06,0,0.06,0,0.06-0.06c0.06,0,0.06,0,0.06-0.06v-0.06c0.06,0,0.06,0,0.06-0.06v-0.18h0.06v-0.18h0.12v-0.18h0.06
	l0.06-0.12v-0.06c0.06,0,0.06,0,0.06-0.06c0.06,0,0.06,0,0.06-0.06v-0.06c0.06,0,0.06,0,0.06-0.06v-0.12h0.06l0.06-0.12l0.06-0.06
	v-0.12h0.12v-0.18h0.06l0.06-0.12v-0.06h0.06v-0.12h0.06v-0.18c0.06,0,0.06,0,0.06-0.06c0.06,0,0.06,0,0.06-0.06h0.06v-0.18h0.12
	v-0.12h0.06c0.06,0,0.06,0,0.06-0.06v-0.12h0.06v-0.06h0.12v-0.12h0.06v-0.18h0.12v-0.12h0.06c0.06,0,0.06,0,0.06-0.061h0.06v-0.18
	l0.12-0.06v-0.06h0.06l0.06-0.12h0.06v-0.06c0.06,0,0.06,0,0.06-0.06h0.06v-0.18h0.06v-0.06h0.06l0.06-0.12h0.06v-0.06
	c0.06,0,0.06,0,0.06-0.06h0.06c0.06,0,0.06,0,0.06-0.06v-0.06h0.12v-0.12h0.06l0.12-0.12v-0.06h0.12v-0.18h0.06v-0.12h0.12v-0.06
	c0.06,0,0.06,0,0.06-0.06v-0.06h0.24v-0.12h0.06v-0.06h0.12v-0.06c0.06,0,0.06,0,0.06-0.06v-0.06l0.12-0.06v-0.06h0.06v-0.06
	l0.12-0.06v-0.06h0.06l0.12-0.12v-0.06h0.06l0.06-0.12h0.18v-0.06h0.06l0.06-0.12h0.06v-0.06c0.06,0,0.06,0,0.06-0.06l0.06-0.06
	h0.12l0.06-0.12h0.12v-0.12h0.18c0.06,0,0.06,0,0.06-0.06v-0.12h0.12v-0.06h0.12l0.06-0.12h0.06v-0.06l0.12-0.06v-0.06h0.18v-0.06
	h0.06l0.12-0.06v-0.06h0.06l0.06-0.06h0.12c0.06,0,0.06,0,0.06-0.06v-0.06h0.06v-0.06h0.18V7.693c0.06,0,0.06,0,0.06-0.06h0.12
	c0.06,0,0.06,0,0.06-0.06v-0.06h0.18v-0.12h0.06c0.06,0,0.06,0,0.06-0.06h0.12l0.06-0.12h0.12c0.06,0,0.06,0,0.06-0.06h0.12
	l0.06-0.06v-0.06h0.18v-0.12h0.18v-0.06h0.3v-0.06h0.12v-0.06l0.06-0.06h0.12c0.06,0,0.06,0,0.06-0.06v-0.06h0.3v-0.06h0.12
	l0.06-0.06c0.06,0,0.06,0,0.06-0.06h0.24v-0.06h0.18l0.12-0.06V6.193h0.3v-0.12h0.24v-0.06h0.24l0.06-0.06v-0.06h0.36v-0.06h0.3
	c0.06,0,0.06,0,0.06-0.06l0.06-0.06h0.3v-0.12h0.6v-0.06h0.42l0.06-0.06v-0.06h0.12c0.2,0,0.4,0,0.6,0h0.06v-0.12h0.06
	c0.36,0,0.72,0,1.08,0h0.06c0.12,0,0.24,0,0.3-0.06h0.779c0,0.06,0.061,0.12,0.181,0.06h0.24c0.36,0,0.72,0,1.079,0l0.121,0.12h0.6
	l0.061,0.06h0.479v0.06l0.061,0.06h0.48v0.06l0.119,0.06c0.061,0,0.061,0,0.061-0.06h0.18v0.06l0.121,0.06h0.238l0.121,0.12h0.301
	v0.06h0.238l0.061,0.06h0.24l0.061,0.12h0.24v0.06c0.061,0.061,0.061,0.061,0.061,0.061h0.238v0.06l0.061,0.06h0.24v0.06h0.18v0.06
	h0.24l0.12,0.12h0.12v0.06h0.18v0.12h0.24l0.119,0.12h0.121l0.061,0.06h0.119v0.12h0.18v0.06h0.181l0.12,0.12h0.06v0.06l0.12,0.06
	h0.061l0.06,0.06h0.06v0.06l0.121,0.06h0.059v0.06h0.181v0.12h0.121v0.06h0.181v0.06c0.061,0.06,0.061,0.06,0.061,0.06l0.119,0.12
	h0.119c0.061,0.06,0.061,0.06,0.061,0.06h0.121v0.06l0.06,0.06h0.06c0.062,0.06,0.062,0.06,0.062,0.06v0.06h0.181l0.057,0.12h0.061
	v0.06l0.059,0.06h0.121v0.06c0,0.06,0.06,0.06,0.119,0.06l0.062,0.06v0.06h0.181l0.061,0.12l0.059,0.06
	c0.061,0.06,0.061,0.06,0.061,0.06l0.059,0.06h0.061v0.12h0.181v0.06h0.118v0.12h0.062l0.119,0.12v0.06h0.06l0.121,0.12h0.059V9.793
	L45.229,9.793z"/>
<path fill="#FFFFFF" d="M45.229,46.872l0.119,0.121h0.061v0.06h0.121l0.119,0.121h0.061v0.18h0.119v0.062h0.061v0.119l0.121,0.061
	v0.24h0.06c0.062,0.06,0.062,0.06,0.062,0.06v0.3c0,0.062,0,0.062-0.062,0.062c0,0.06,0,0.06-0.06,0.06v0.18H45.89v0.061
	c0,0.061,0,0.061-0.061,0.061v0.121H45.71v0.06c0,0.061,0,0.061-0.061,0.061c0,0.062,0,0.062-0.061,0.062c0,0.06,0,0.06-0.06,0.06
	v0.06h-0.181c0,0.062,0,0.062-0.061,0.062c0,0.06,0,0.06-0.061,0.06v0.061h-0.061c0,0.061,0,0.061-0.06,0.061
	c0,0.062,0,0.062-0.062,0.062h-0.061v0.06l-0.119,0.061v0.061h-0.18v0.061l-0.121,0.06h-0.061v0.062l-0.119,0.061h-0.115
	c0,0.061,0,0.061-0.062,0.061h-0.12v0.06c0,0.062,0,0.062-0.06,0.062h-0.06l-0.061,0.06h-0.18v0.06l-0.061,0.061H43.55v0.048h-0.3
	v0.06l-0.06,0.061h-0.18c0,0.061,0,0.061-0.061,0.061h-0.18v0.061c0,0.061,0,0.061-0.062,0.061h-0.18c0,0.061,0,0.061-0.062,0.061
	h-0.3l-0.06,0.119h-0.24c0,0.061,0,0.061-0.061,0.061c0,0.061,0,0.061-0.061,0.061h-0.24c0,0.062,0,0.062-0.06,0.062
	c0,0.06,0,0.06-0.062,0.06h-0.299v0.061h-0.361v0.061l-0.115,0.055h-0.24c0,0.061,0,0.061-0.061,0.061h-0.539v0.121h-0.48v0.06
	l-0.119,0.06H38.75l-0.06,0.062H37.97l-0.061,0.119h-0.061c-0.18,0-0.359,0-0.539,0h-0.06c0,0.062,0,0.062-0.06,0.062H37.13
	c-0.32,0-0.641,0-0.959,0l-0.121,0.058v0.06h-0.18c-1.18-0.035-2.201,0.079-3.36,0.061h-0.48c-0.32,0-0.64,0-0.96,0h-0.18
	l-0.12-0.12h-1.02l-0.06-0.121l-0.12,0.062c-0.16,0-0.32,0-0.48,0h-0.12c0,0,0,0-0.06-0.062v-0.06h-0.12c-0.18,0-0.36,0-0.54,0
	h-0.12v-0.121h-0.54v-0.06h-0.36c-0.06,0-0.12,0-0.12-0.06v-0.06h-0.48v-0.061h-0.42v-0.119h-0.42v-0.062h-0.3l-0.06-0.06
	l-0.06-0.06h-0.36v-0.121h-0.24v-0.061h-0.3l-0.06-0.119h-0.3l-0.06-0.059h-0.12v-0.061l-0.06-0.061h-0.24l-0.06-0.12h-0.24v-0.059
	h-0.18v-0.121h-0.18v-0.06h-0.18l-0.06-0.061h-0.06l-0.12-0.061v-0.061h-0.06l-0.12-0.061h-0.12l-0.06-0.061V49.63h-0.12
	l-0.06-0.061v-0.06h-0.06l-0.06-0.062h-0.12v-0.06l-0.06-0.06h-0.06l-0.06-0.056c0,0,0,0-0.06-0.061v-0.06h-0.12l-0.06-0.061v-0.059
	h-0.06l-0.18-0.181h-0.06v-0.18h-0.06l-0.12-0.121v-0.181h-0.12v-0.479h0.12v-0.24h0.06v-0.119h0.12v-0.121h0.06v-0.06h0.12v-0.12
	h0.12v-0.06h0.06v-0.06h0.12v-0.121h0.06v-0.119h0.18v-0.061l0.12-0.06v-0.061h0.18v-0.12h0.12v-0.06h0.18v-0.12h0.18v-0.12h0.18
	v-0.061h0.24v-0.119h0.18v-0.06h0.24v-0.121h0.18v-0.121h0.3v-0.06h0.3v-0.12h0.24v-0.061h0.36v-0.118h0.36v-0.062h0.24v-0.118h0.42
	v-0.061h0.42v-0.12h0.42v-0.119h0.48v-0.061h0.54v-0.12h0.42l0.06,0.12h0.12v0.061h0.06v0.119h0.06l0.06,0.061h0.12l0.06,0.061
	v0.062h0.06c0.06,0.06,0.06,0.06,0.06,0.06l0.06,0.061v0.061l0.12,0.119h0.06v0.061l0.12,0.062v0.06h0.06l0.06,0.061h0.06v0.121
	h0.06c0.06,0.06,0.06,0.06,0.06,0.06h0.06l0.12,0.06V46.1h0.06l0.06,0.119v0.055h0.12l0.06,0.12h0.06v0.061h0.06l0.06,0.119h0.12
	l0.06,0.12h0.06v0.062h0.12v0.06l0.18,0.181v0.06h0.18v0.062l0.12,0.061l0.12,0.119h0.06v0.121h0.06v0.057h0.12l0.06,0.061v0.061
	h0.12c0.06,0.061,0.06,0.061,0.06,0.061l0.06,0.06v0.059h0.06l0.12,0.062v0.06h0.06v0.06l0.12,0.062v0.06h0.06
	c0.06,0.061,0.06,0.061,0.06,0.061h0.18v0.121l0.06,0.06h0.06l0.06,0.06v0.121h0.18v0.06h0.06c0.06,0.062,0.06,0.062,0.06,0.062
	l0.06,0.056v0.06h0.18v0.061h0.18l0.06,0.121h0.54v-0.121h0.24v-0.061h0.18v-0.119h0.061v-0.062h0.06v-0.119h0.239v-0.12h0.06v-0.06
	h0.121v-0.121h0.18v-0.06h0.119v-0.119h0.062v-0.061h0.119v-0.12h0.18v-0.12h0.12v-0.06h0.061v-0.12h0.181v-0.061h0.118v-0.121
	h0.062v-0.118h0.119v-0.06h0.06v-0.121h0.24v-0.06h0.119v-0.12h0.061v-0.12h0.121v-0.061h0.06v-0.119h0.18v-0.062h0.062v-0.119h0.18
	v-0.06h0.061v-0.12h0.12v-0.119h0.06v-0.061h0.181v-0.12h0.121v-0.062h0.06v-0.118h0.12v-0.121h0.06v-0.06h0.121v-0.121h0.119v-0.06
	h0.061v-0.06h0.121v-0.18h0.176v-0.06h0.061v-0.12h0.181v-0.061h0.06v-0.12h0.36l0.06,0.061v0.062h0.12
	c0.147,0.021,0.351-0.18,0.479,0v0.06h0.359l0.12,0.06v0.062h0.479v0.06h0.301l0.061,0.061v0.061h0.299l0.121,0.12h0.181l0.06-0.06
	l0.12,0.119h0.24l0.06,0.119h0.239v0.061h0.24l0.06,0.118h0.24l0.061,0.06h0.181l0.06,0.061h0.12l0.119,0.121h0.181l0.061,0.06v0.06
	h0.18c0.061,0.062,0.061,0.062,0.061,0.062h0.062l0.06,0.06v0.061h0.121l0.057,0.058h0.119l0.119,0.062v0.06h0.061l0.121,0.06v0.062
	h0.06c0.06,0.06,0.06,0.06,0.06,0.06h0.062l0.119,0.061v0.061h0.121c0.06,0.062,0.06,0.062,0.06,0.062l0.061,0.06v0.055
	 M29.869,16.574h0.06c0.38,0,0.76,0,1.14,0h0.06v0.06h0.48l0.06,0.12h0.24l0.12,0.12h0.18v0.06h0.18l0.061,0.12h0.12l0.06,0.06h0.12
	l0.06,0.12h0.12l0.12,0.12v0.06h0.12v0.06h0.18c0,0.12,0.06,0.12,0.18,0.06v-0.06h0.18v-0.06h0.119v-0.06h0.121l0.06-0.06v-0.06
	c0.06,0,0.06,0,0.06-0.06c0.061,0,0.061,0,0.061-0.06h0.12v-0.06h0.12c0.06,0,0.06,0,0.06-0.06c0.06,0,0.06,0,0.06-0.06h0.121
	c0.061,0,0.061,0,0.061-0.06h0.18l0.119-0.06v-0.06h0.24l0.062-0.12h0.42v-0.06h0.118c0.44,0,0.882,0,1.32,0h0.12v0.06h0.421
	l0.06,0.06l0.061,0.061h0.181l0.061,0.06h0.24v0.12h0.176l0.061,0.06v0.06h0.181c0.143,0.157,0.021-0.073,0.299,0.24h0.121v0.06
	c0.06,0.06,0.06,0.06,0.06,0.06l0.061,0.06h0.18v0.06h0.061l0.062,0.12h0.06v0.12h0.121v0.06l0.061,0.06l0.119,0.06v0.06l0.057,0.06
	l0.061,0.06h0.06l0.062,0.06l0.061,0.12l0.061,0.06v0.12h0.119v0.12h0.061l0.119,0.12v0.18h0.062v0.06l0.119,0.12v0.18h0.061v0.12
	h0.06l0.061,0.06v0.18h0.121v0.24l0.061,0.06v0.18l0.06,0.12h0.062v0.3l0.061,0.06v0.66h0.119v0.12c0,0.28,0,0.56,0,0.84v0.06
	h-0.125v0.12c0,0.22,0,0.44,0,0.66v0.12H41.21v0.48h-0.119v0.36H41.03v0.24h-0.121v0.3H40.79v0.3h-0.061v0.24H40.61v0.12H40.55v0.18
	h-0.119v0.12H40.37v0.18h-0.12v0.18h-0.12v0.12h-0.061v0.12H39.95v0.18H39.89v0.06h-0.119v0.12H39.71v0.18h-0.119v0.12H39.47v0.06
	h-0.061v0.12H39.29v0.06h-0.119v0.12H39.11v0.12h-0.121v0.06h-0.061v0.12H38.81v0.06H38.69v0.12h-0.18v0.12H38.45v0.06h-0.121v0.12
	h-0.18v0.06h-0.061v0.12H37.97v0.12h-0.181v0.06h-0.12v0.12h-0.06v0.06h-0.24v0.06h-0.062v0.12h-0.18v0.12h-0.061v0.12h-0.24v0.06
	h-0.18v0.12h-0.061v0.06h-0.181v0.12h-0.235v0.12h-0.182v0.06H35.87v0.12h-0.18v0.06h-0.18v0.12h-0.182v0.12h-0.18v0.06h-0.18v0.06
	h-0.181v0.12h-0.12v0.12h-0.181v0.06H34.25v0.12h-0.12v0.06h-0.18v0.12h-0.24v0.12h-0.54l-0.06-0.12h-0.18v-0.06
	c0-0.06,0-0.06-0.06,0h-0.12v-0.12h-0.18v-0.06l-0.06-0.06h-0.12v-0.061h-0.18v-0.06l-0.12-0.06v-0.06l-0.06-0.06h-0.12v-0.06h-0.18
	v-0.06h-0.18v-0.06l-0.06-0.06h-0.18v-0.06h-0.18v-0.12h-0.12l-0.12-0.12v-0.06h-0.18l-0.12-0.12h-0.06c0,0,0,0-0.06-0.06h-0.18
	v-0.06l-0.18-0.18h-0.06c0,0,0,0-0.06-0.06h-0.06v-0.06h-0.24v-0.18l-0.12,0.06v-0.06l-0.12-0.06v-0.06l-0.06-0.06h-0.12v-0.06
	h-0.12l-0.06-0.06v-0.12h-0.18c0,0,0,0-0.06-0.06h-0.06v-0.12h-0.06l-0.12-0.12h-0.12l-0.06-0.06l-0.06-0.12h-0.06v-0.06h-0.06
	v-0.12h-0.12l-0.06-0.06h-0.12v-0.12h-0.12v-0.06l-0.06-0.06v-0.061h-0.12v-0.12h-0.06l-0.06-0.06h-0.06v-0.12h-0.06l-0.06-0.06
	l-0.06-0.06v-0.06h-0.06v-0.12h-0.06l-0.12-0.12h-0.06v-0.12h-0.06v-0.12l-0.12-0.12v-0.06h-0.12v-0.06h-0.06v-0.18l-0.12-0.06
	v-0.12c0,0,0,0-0.06-0.06v-0.06l-0.12-0.06v-0.12l-0.06-0.06v-0.06l-0.06-0.06v-0.12l-0.06-0.06l-0.12-0.06v-0.24l-0.06-0.06v-0.24
	h-0.12v-0.3h-0.06v-0.3l-0.12-0.12v-0.42l-0.06-0.06v-0.72l-0.06-0.06l-0.06-0.06v-1.02h0.06l0.06-0.06v-0.6h0.06v-0.36h0.06
	c0.06,0,0.06,0,0.06-0.06v-0.24h0.06v-0.3h0.12v-0.18h0.06v-0.24l0.12-0.06c0.06,0,0.06,0,0.06-0.06v-0.06c0.06,0,0.06,0,0.06-0.06
	v-0.06l0.06-0.06v-0.12l0.12-0.06v-0.06c0.06,0,0.06,0,0.06-0.06l0.12-0.06v-0.18h0.06v-0.06l0.12-0.06v-0.061h0.06l0.06-0.12h0.06
	v-0.06h0.06l0.06-0.12h0.06c0.06,0,0.06,0,0.06-0.06l0.06-0.06v-0.06h0.06l0.12-0.12v-0.06h0.12c0.06,0,0.06,0,0.06-0.06v-0.06h0.12
	v-0.06h0.18v-0.06l0.12-0.06v-0.06h0.06l0.12-0.06v-0.06h0.12c0.06,0,0.06-0.06,0.06-0.12h0.18v-0.06h0.24l0.06-0.12h0.24
	c0.06,0,0.06,0,0.06-0.061h0.36c0.06,0,0.06,0,0.06-0.06c0.06,0,0.06,0,0.06-0.06H29.869z M34.37,11.534h-0.24l-0.061-0.06H32.75
	v0.06h-0.06c-0.26,0-0.52,0-0.78,0h-0.12v0.12h-0.54v0.12h-0.48v0.06h-0.36v0.12h-0.3v0.12h-0.24v0.06h-0.3v0.12h-0.3v0.12h-0.18
	v0.06h-0.3v0.06h-0.18v0.12h-0.18v0.12h-0.18v0.06h-0.18v0.12h-0.24v0.06h-0.06v0.12h-0.18v0.06h-0.18v0.12h-0.12v0.12h-0.18v0.12
	h-0.12v0.06h-0.18v0.06h-0.12v0.12h-0.06v0.06h-0.18v0.18h-0.12v0.06h-0.06v0.06h-0.06v0.12h-0.24v0.06h-0.12v0.12h-0.06v0.12h-0.12
	v0.06h-0.06v0.12h-0.12v0.06h-0.12v0.12h-0.06v0.12h-0.12v0.06h-0.06v0.12h-0.12v0.06h-0.12v0.12h-0.06v0.12h-0.06v0.18h-0.12v0.06
	h-0.06v0.18h-0.24v0.24h-0.06v0.06h-0.12v0.12h-0.12v0.18h-0.12v0.12h-0.06v0.18h-0.06v0.12h-0.12v0.12h-0.12v0.24h-0.06v0.06h-0.12
	v0.18h-0.06v0.24h-0.12v0.12h-0.06v0.24h-0.12v0.24l-0.06,0.06v0.18h-0.12v0.3h-0.12v0.18h-0.06v0.24h-0.12v0.3h-0.06v0.36h-0.12
	v0.42h-0.12v0.42h-0.06v0.12c0,0.16,0,0.32,0,0.48v0.12h-0.12v0.06c0,0.86,0,1.72,0,2.58v0.06h0.12v0.12c0,0.16,0,0.32,0,0.48v0.06
	h0.06v0.36l0.06,0.12h0.06v0.36l0.12,0.06v0.3h0.06v0.36h0.12v0.24h0.06v0.12l0.06,0.06h0.06v0.18l0.06,0.12h0.06v0.18h0.06v0.18
	h0.12v0.3c0.06,0.06,0.06,0.06,0.06,0.06v0.12h0.12v0.18h0.06v0.12l0.12,0.06v0.06l0.06,0.06v0.12l0.06,0.06h0.06v0.18l0.12,0.06
	c0.06,0.06,0.06,0.06,0.06,0.06v0.12l0.24,0.24h0.06v0.18l0.12,0.06v0.06h0.06v0.12l0.06,0.06l0.06,0.06h0.12v0.12h0.06v0.06
	l0.12,0.06v0.06c0.06,0.061,0.06,0.061,0.06,0.061v0.12h0.06l0.06,0.12h0.06v0.06l0.12,0.06v0.06l0.06,0.06h0.06l0.06,0.06v0.06
	h0.06l0.06,0.12h0.06v0.06l0.12,0.06v0.06h0.06l0.06,0.12h0.06v0.06h0.06v0.12h0.18l0.06,0.06h0.12v0.06l0.06,0.06v0.06
	c0.06,0.06,0.06,0.06,0.06,0.06l0.06,0.06h0.06v0.06l0.06,0.06h0.12v0.06h0.06l0.06,0.12h0.18v0.06h0.06l0.06,0.12h0.06v0.06h0.18
	v0.12h0.18l0.06,0.12h0.06v0.06h0.18v0.12h0.18l0.06,0.06h0.12v0.12h0.12v0.12h0.18l0.12,0.06h0.18v0.06l0.06,0.061h0.12v0.06h0.18
	l0.12,0.12h0.18v0.06h0.18v0.06l0.12,0.06h0.18v0.06l0.06,0.06h0.3v0.06h0.3v0.06c0.06,0.06,0.06,0.06,0.06,0.06h0.3v0.06h0.42
	l0.06,0.06c0,0.06,0.06,0.06,0.12,0.06h0.42l0.12,0.12h0.3c0.14,0,0.28,0,0.42,0h0.48c0.24,0,0.48,0,0.72,0l0.06-0.06h0.12
	c0.18,0,0.359,0,0.541,0h0.299v-0.06h0.48l0.061-0.06v-0.06h0.359l0.119-0.06v-0.06h0.301c0.061,0,0.061,0,0.061-0.06h0.3
	c0.062,0,0.062,0,0.062-0.06c0.061,0,0.061,0,0.061-0.06h0.238l0.061-0.12h0.24v-0.06h0.061l0.119-0.06v-0.06h0.182l0.119-0.06
	v-0.06h0.119c0.061,0,0.061,0,0.061-0.061h0.181v-0.12h0.298v-0.06h0.18l0.062-0.12h0.118v-0.06l0.121-0.06v-0.06h0.181v-0.12h0.18
	v-0.06c0.06,0,0.06,0,0.06-0.06c0.061,0,0.061,0,0.061-0.06h0.121l0.061-0.12h0.181v-0.06h0.059l0.062-0.12h0.057v-0.06h0.119
	c0.061,0,0.061,0,0.061-0.06v-0.06h0.12v-0.06h0.12l0.061-0.06v-0.06h0.119v-0.12c0.062,0,0.062,0,0.062-0.06l0.118-0.06v-0.06
	h0.062v-0.06h0.119c0.062,0,0.062,0,0.062-0.06c0.061,0,0.061,0,0.061-0.06h0.061v-0.06h0.06l0.062-0.12h0.061v-0.12h0.059
	c0.061,0,0.061,0,0.061-0.06c0.062,0,0.062,0,0.062-0.06h0.06l0.061-0.06v-0.06h0.061l0.062-0.12h0.06v-0.12h0.061
	c0.061,0,0.061,0,0.061-0.06c0.061,0,0.061,0,0.061-0.06c0.06,0,0.06,0,0.06-0.06h0.052v-0.18h0.062l0.06-0.06v-0.06
	c0.061,0,0.061,0,0.061-0.06l0.061-0.06h0.061l0.06-0.06v-0.06h0.062l0.061-0.12v-0.06c0.061,0,0.061,0,0.061-0.06
	c0.06,0,0.06,0,0.06-0.06l0.062-0.06v-0.12h0.061v-0.12h0.119v-0.06h0.055l0.061-0.12v-0.06c0.06,0,0.06,0,0.06-0.06v-0.18h0.062
	l0.061-0.06h0.061v-0.18c0.059,0,0.119,0,0.119-0.06v-0.12c0.061,0,0.061,0,0.061-0.06c0.06,0,0.06,0,0.06-0.06v-0.12h0.058v-0.06
	c0.062,0,0.062,0,0.062-0.06h0.06v-0.12l0.061-0.06v-0.24h0.061c0.061,0,0.061,0,0.061-0.06v-0.12l0.06-0.06
	c0.062,0,0.062,0,0.062-0.061v-0.12h0.061v-0.24c0.061,0,0.061,0,0.061-0.06v-0.12l0.119-0.06v-0.24h0.062v-0.36
	c0.059,0,0.118,0,0.118-0.06v-0.24l0.121-0.06v-0.36h0.06v-0.42h0.121v-0.12c0-0.16,0-0.32,0-0.479v-0.061c0.06,0,0.06,0,0.06-0.06
	c0.061,0,0.061,0,0.061-0.06v-0.06c0-0.82,0-1.64,0-2.46l-0.061-0.12h-0.06v-0.12c0-0.16,0-0.32,0-0.48v-0.06h-0.121v-0.42
	l-0.06-0.06v-0.36h-0.121v-0.36h-0.123v-0.3H44.21v-0.3h-0.119v-0.18H44.03v-0.3H43.97v-0.06l-0.119-0.12v-0.18l-0.061-0.06
	l-0.061-0.06v-0.12l-0.061-0.06v-0.06l-0.06-0.12h-0.06v-0.18h-0.061v-0.06l-0.061-0.12h-0.06v-0.06l-0.119-0.06v-0.12l-0.06-0.06
	v-0.06l-0.061-0.12h-0.062v-0.06l-0.06-0.061v-0.06l-0.059-0.06l-0.061-0.06v-0.06h-0.119v-0.18l-0.24-0.24v-0.06l-0.061-0.06
	h-0.062v-0.12h-0.06l-0.181-0.18v-0.12l-0.06-0.06H42.05v-0.12h-0.061l-0.061-0.12h-0.06l-0.062-0.06H41.75v-0.12h-0.06l-0.061-0.06
	h-0.062v-0.12h-0.06l-0.059-0.06l-0.061-0.06c0,0,0,0-0.062-0.06h-0.058v-0.12H41.21l-0.061-0.06h-0.061v-0.12h-0.06l-0.062-0.06
	h-0.061l-0.061-0.12h-0.119v-0.06H40.61l-0.061-0.06v-0.12l-0.119-0.06v-0.06H40.25v-0.12h-0.12v-0.06h-0.061v-0.06l-0.119-0.06
	H39.89l-0.062-0.06l-0.06-0.06v-0.06h-0.178l-0.061-0.12H39.47v-0.06h-0.18v-0.06l-0.119-0.06H39.11v-0.06l-0.121-0.06v-0.06h-0.18
	v-0.06l-0.061-0.06h-0.061c0,0,0,0-0.061-0.06H38.45v-0.06h-0.18v-0.12h-0.18l-0.121-0.12h-0.18v-0.06h-0.18l-0.061-0.12h-0.24
	v-0.06H37.07l-0.06-0.06l-0.121-0.06h-0.119l-0.062-0.06l-0.061-0.06h-0.181c0,0,0,0-0.061-0.06h-0.42v-0.06l-0.119-0.06
	c-0.471,0.025-0.039-0.097-0.721-0.06H35.03v-0.06l-0.061-0.06H34.37z"/>
<path fill="#B8CE63" d="M37.79,18.674v0.06h0.119l0.061,0.12h0.062l0.06,0.06h0.182v0.06l0.059,0.06v0.06h0.119v0.06l0.061,0.06
	v0.06l0.119,0.06l0.062,0.06l0.06,0.06l0.061,0.06v0.06h0.119v0.18l0.061,0.06v0.06h0.121v0.18h0.061v0.18l0.119,0.06v0.24h0.061
	l0.06,0.06v0.3h0.062v0.12c0,0.14,0,0.28,0,0.42v0.12c0.119,0.06,0.119,0.18,0.061,0.36H39.47v0.18c0,0.22,0,0.44,0,0.66v0.12
	h-0.061v0.36l-0.061,0.12h-0.06v0.3l-0.12,0.06v0.18h-0.06v0.3h-0.121v0.18h-0.06v0.18l-0.121,0.06v0.06H38.75v0.12
	c0,0.06,0,0.06-0.06,0.06c0,0.06,0,0.06-0.061,0.06l-0.121,0.06v0.12c0,0.06,0,0.06-0.06,0.06v0.06h-0.121v0.12h-0.058v0.06h-0.121
	v0.18l-0.061,0.06l-0.06,0.06h-0.06l-0.061,0.12h-0.061v0.06h-0.06v0.12h-0.12v0.06l-0.06,0.06h-0.121v0.06H37.37v0.12H37.31v0.06
	c0,0.06,0,0.06-0.061,0.06c0,0.06,0,0.06-0.061,0.06H37.13v0.12h-0.24v0.06h-0.061v0.12h-0.18v0.06h-0.061l-0.06,0.12h-0.06
	c0,0.06,0,0.06-0.061,0.06H36.29l-0.061,0.12h-0.061v0.06l-0.119,0.06h-0.062v0.06h-0.181v0.12H35.69v0.06h-0.18v0.12h-0.182
	l-0.059,0.12l-0.062,0.06h-0.18v0.12h-0.181v0.06h-0.181l-0.06,0.12h-0.121l-0.06,0.12H34.25v0.06c0,0.06,0,0.06-0.06,0.06v0.06
	h-0.18v0.06h-0.181v0.06l-0.119,0.06h-0.061c0,0.06,0,0.06-0.06,0.06h-0.36v-0.06h-0.06l-0.12-0.06v-0.06h-0.12l-0.06-0.06h-0.18
	v-0.06l-0.06-0.06l-0.06-0.06H32.45l-0.06-0.12h-0.18v-0.06h-0.12c0,0,0,0-0.06-0.06v-0.06h-0.12c-0.114-0.017-0.218-0.087-0.3-0.18
	h-0.06v-0.12h-0.18l-0.06-0.06h-0.06l-0.12-0.06v-0.06l-0.06-0.06h-0.06l-0.12-0.06v-0.06h-0.18v-0.06l-0.12-0.06v-0.06
	c0,0,0,0-0.06-0.06h-0.12l-0.06-0.06l-0.06-0.06c0,0,0,0-0.06-0.06v-0.06h-0.18v-0.06h-0.12v-0.12h-0.18l-0.06-0.06v-0.12h-0.12
	v-0.06l-0.12-0.12c0,0,0,0-0.06-0.06v-0.06h-0.18v-0.06h-0.06l-0.06-0.12h-0.06l-0.06-0.06h-0.06v-0.12l-0.12-0.061v-0.06h-0.06
	v-0.18h-0.06l-0.06-0.06l-0.06-0.06v-0.06h-0.12v-0.06h-0.12v-0.18l-0.06-0.06v-0.06h-0.12v-0.18l-0.06-0.06v-0.06h-0.06l-0.06-0.06
	v-0.12h-0.06l-0.06-0.06v-0.12h-0.06v-0.3h-0.06l-0.06-0.12v-0.06h-0.06v-0.36l-0.12-0.12v-0.36l-0.06-0.06c0-0.2,0-0.4,0-0.6v-0.3
	h-0.06l-0.06-0.36h0.12v-0.12c0-0.16,0-0.32,0-0.48v-0.06h0.06v-0.42h0.12v-0.24h0.06v-0.18h0.12v-0.24h0.06v-0.06h0.12v-0.18h0.12
	v-0.12h0.06v-0.12h0.12v-0.06h0.06v-0.06h0.12v-0.12h0.12v-0.12h0.06v-0.12h0.18v-0.06h0.12v-0.06h0.18v-0.12h0.18v-0.12h0.3v-0.06
	h0.36v-0.12h0.12c0.28,0,0.56,0,0.84,0h0.06l0.06,0.12h0.3v0.06h0.18l0.06,0.06v0.06h0.18v0.12c0.06,0,0.06,0,0.06-0.06l0.12,0.06
	v0.06h0.18v0.06h0.12v0.12h0.06c0.06,0.06,0.06,0.06,0.06,0.06l0.06,0.06v0.06l0.06,0.06l0.06,0.06h0.06v0.06h0.06l0.06,0.12h0.12
	l0.06,0.12l0.06-0.06l0.12,0.06v0.06h0.12c0.18,0,0.36,0,0.54,0h0.119v-0.12h0.181v-0.06h0.181v-0.12h0.06v-0.06h0.12v-0.12h0.119
	v-0.12h0.06v-0.12h0.121v-0.06h0.119v-0.06h0.18v-0.12h0.181v-0.06h0.18v-0.12h0.181v-0.12h0.36v-0.06h0.119c0.28,0,0.562,0,0.84,0
	h0.062v0.06h0.359l0.061,0.06h0.18l0.061,0.06l0.062,0.12H37.79"/>
</svg>
