<?xml version="1.0" encoding="utf-8"?>
<!-- Generator: Adobe Illustrator 16.0.0, SVG Export Plug-In . SVG Version: 6.00 Build 0)  -->
<!DOCTYPE svg PUBLIC "-//W3C//DTD SVG 1.1//EN" "http://www.w3.org/Graphics/SVG/1.1/DTD/svg11.dtd">
<svg version="1.1" id="Layer_1" xmlns="http://www.w3.org/2000/svg" xmlns:xlink="http://www.w3.org/1999/xlink" x="0px" y="0px"
	 width="67px" height="72px" viewBox="0 0 67 72" enable-background="new 0 0 67 72" xml:space="preserve">
<path fill="#9A9A9A" d="M45.846,61.684l1.02-0.18c0.061,0.18,0.12,0.361,0.24,0.48c0.12,0.061,0.3,0.121,0.54,0.121
	c0.3,0,0.479-0.061,0.601-0.121l0.119-0.24l-0.06-0.24c-0.06-0.059-0.181-0.059-0.36-0.119c-0.779-0.18-1.32-0.301-1.5-0.48
	c-0.3-0.18-0.48-0.48-0.48-0.84c0-0.301,0.121-0.6,0.42-0.84c0.24-0.24,0.66-0.359,1.201-0.359c0.539,0,0.899,0.119,1.14,0.299
	c0.239,0.18,0.42,0.42,0.54,0.721l-0.96,0.18c-0.06-0.18-0.12-0.301-0.24-0.359c-0.12-0.061-0.3-0.121-0.479-0.121
	c-0.301,0-0.48,0.061-0.541,0.121l-0.119,0.24l0.06,0.18c0.12,0.059,0.42,0.119,0.96,0.24c0.54,0.119,0.9,0.299,1.141,0.479
	c0.18,0.182,0.299,0.42,0.299,0.721c0,0.359-0.119,0.66-0.42,0.9c-0.299,0.24-0.779,0.359-1.319,0.359s-0.899-0.119-1.2-0.299
	C46.146,62.344,45.905,62.045,45.846,61.684 M42.485,60.785c0,0.42,0.06,0.719,0.24,0.898c0.18,0.182,0.36,0.301,0.6,0.301
	c0.24,0,0.421-0.119,0.601-0.301c0.18-0.18,0.24-0.479,0.24-0.84c0-0.42-0.061-0.719-0.24-0.898c-0.18-0.182-0.36-0.301-0.601-0.301
	c-0.239,0-0.42,0.119-0.6,0.301C42.545,60.125,42.485,60.424,42.485,60.785z M41.586,63.004l1.14,0.121
	c0.06,0.18,0.06,0.24,0.12,0.299c0.119,0.061,0.3,0.121,0.479,0.121c0.3,0,0.48-0.061,0.601-0.121c0.06-0.059,0.119-0.119,0.18-0.24
	c0.061-0.059,0.061-0.238,0.061-0.479v-0.541c-0.301,0.42-0.721,0.6-1.141,0.6c-0.54,0-0.9-0.238-1.2-0.658
	c-0.239-0.301-0.36-0.721-0.36-1.262c0-0.66,0.181-1.139,0.48-1.439c0.301-0.359,0.66-0.539,1.141-0.539c0.42,0,0.84,0.24,1.14,0.66
	v-0.541h0.96v3.42c0,0.42-0.061,0.779-0.12,0.961c-0.06,0.24-0.181,0.42-0.3,0.539c-0.18,0.121-0.36,0.24-0.54,0.301
	c-0.24,0.059-0.54,0.119-0.841,0.119c-0.659,0-1.079-0.119-1.379-0.359c-0.301-0.18-0.42-0.48-0.42-0.84V63.004z M40.686,62.764
	h-1.02v-1.92c0-0.42,0-0.66-0.061-0.779l-0.18-0.301c-0.061-0.059-0.18-0.119-0.36-0.119l-0.479,0.18
	c-0.121,0.061-0.181,0.18-0.24,0.359c-0.061,0.182-0.12,0.422-0.12,0.842v1.738h-0.96v-3.779h0.9v0.541
	c0.299-0.42,0.719-0.66,1.26-0.66l0.6,0.119c0.18,0.061,0.359,0.18,0.42,0.359l0.18,0.42c0.061,0.121,0.061,0.361,0.061,0.66V62.764
	z M36.186,62.764h-0.96v-3.779h0.96V62.764z M36.186,58.445h-0.96v-0.9h0.96V58.445z M34.565,58.984v0.779h-0.72v1.561
	c0,0.301,0,0.48,0.06,0.541l0.06,0.119l0.18,0.061c0.06,0,0.239-0.061,0.42-0.121l0.06,0.781c-0.24,0.059-0.479,0.119-0.78,0.119
	c-0.18,0-0.36,0-0.48-0.061l-0.36-0.238c-0.06-0.061-0.06-0.24-0.12-0.42c0-0.061,0-0.301,0-0.66v-1.682h-0.48v-0.779h0.48v-0.779
	l0.96-0.541v1.32H34.565z M30.965,60.545c0-0.301-0.06-0.48-0.18-0.66c-0.18-0.18-0.36-0.24-0.54-0.24c-0.24,0-0.42,0.061-0.54,0.24
	c-0.18,0.18-0.24,0.359-0.24,0.66H30.965z M30.905,61.564l1.02,0.18c-0.12,0.361-0.3,0.66-0.6,0.84c-0.3,0.18-0.66,0.24-1.08,0.24
	c-0.66,0-1.14-0.18-1.44-0.6c-0.24-0.359-0.36-0.779-0.36-1.32c0-0.66,0.18-1.141,0.48-1.5c0.3-0.359,0.72-0.539,1.26-0.539
	s1.02,0.18,1.32,0.6c0.3,0.359,0.48,0.9,0.48,1.68h-2.52c0,0.301,0.06,0.539,0.24,0.721c0.18,0.18,0.36,0.24,0.6,0.24
	c0.18,0,0.3-0.061,0.36-0.121C30.786,61.924,30.845,61.744,30.905,61.564z M26.885,60.545c0-0.301-0.06-0.48-0.18-0.66
	c-0.18-0.18-0.36-0.24-0.54-0.24c-0.24,0-0.42,0.061-0.54,0.24c-0.18,0.18-0.24,0.359-0.24,0.66H26.885z M26.825,61.564l1.02,0.18
	c-0.12,0.361-0.3,0.66-0.6,0.84c-0.3,0.18-0.66,0.24-1.08,0.24c-0.66,0-1.14-0.18-1.44-0.6c-0.24-0.359-0.36-0.779-0.36-1.32
	c0-0.66,0.18-1.141,0.48-1.5c0.3-0.359,0.72-0.539,1.26-0.539s1.02,0.18,1.32,0.6c0.3,0.359,0.48,0.9,0.48,1.68h-2.52
	c0,0.301,0.06,0.539,0.24,0.721c0.18,0.18,0.36,0.24,0.6,0.24c0.18,0,0.3-0.061,0.36-0.121
	C26.706,61.924,26.766,61.744,26.825,61.564z M18.605,62.764v-5.219h1.56l0.96,3.539l0.9-3.539h1.62v5.219h-1.02v-4.139l-1.02,4.139
	h-1.02l-1.02-4.139v4.139H18.605z"/>
<path fill-rule="evenodd" clip-rule="evenodd" fill="#02534D" d="M42.426,32.825h0.24l0.119,0.12h0.24l0.061,0.12h0.06v0.06h0.18
	v0.12h0.06v0.12h0.121v0.06l0.06,0.061v0.061h0.06c0.061,0.06,0.061,0.06,0.061,0.06v0.18h0.061l0.06,0.06v0.121h0.06v0.119
	l0.061,0.061l0.06,0.119v0.9c0,0.061,0,0.061-0.06,0.061c0,0.06,0,0.06-0.061,0.06v0.24h-0.06v0.12c0,0.06,0,0.06-0.06,0.06
	c0,0.06,0,0.06-0.061,0.06l-0.061,0.121h-0.06v0.119c0,0.061,0,0.061-0.06,0.061v0.06l-0.121,0.06v0.061c0,0.061,0,0.061-0.06,0.061
	h-0.12v0.06h-0.06v0.12h-0.06l-0.061,0.06h-0.061v0.119l-0.06,0.121c0,0.059,0,0.059-0.06,0.059c0,0.061,0,0.061-0.061,0.061v0.061
	l-0.06,0.119h-0.06v0.301h-0.061v0.84h0.061v0.24l0.119,0.119v0.121h0.061l0.06,0.119v0.121h0.06l0.061,0.059
	c0.061,0,0.061,0.061,0.061,0.121h0.06v0.059l0.06,0.061v0.061h0.12l0.06,0.061h0.121v0.119l0.06,0.061v0.061h0.06l0.061,0.119
	h0.061c0.06,0.061,0.06,0.061,0.06,0.061l0.06,0.059v0.061h0.061l0.06,0.121h0.06v0.18l0.061,0.059v0.061h0.12v0.24
	c0.06,0.061,0.06,0.119,0.06,0.18h-4.02l-0.061-0.061l-0.06-0.119v-0.061h0.12v-0.18h0.06v-0.24h0.06v-0.18h0.121v-0.119h0.119
	v-0.061h0.121v-0.119h0.06v-0.121h0.18v-0.119h0.06v-0.061h0.121v-0.121h0.119v-0.059h0.12v-0.24h0.12v-0.061h0.061v-0.24h0.119
	v-0.18h0.061v-0.48h0.119v-0.24h-0.119v-0.479c0,0,0,0-0.061-0.061v-0.18h-0.06l-0.06-0.061v-0.119h-0.061v-0.121l-0.12-0.119h-0.06
	l-0.061-0.06l-0.06-0.12h-0.06v-0.06l-0.121-0.121c0,0,0,0-0.06-0.06v-0.06l-0.12-0.061v-0.06h-0.06v-0.06h-0.06v-0.24h-0.121
	v-0.301h-0.06l-0.06-0.06v-0.42h-0.061l-0.061-0.24h0.121v-0.54h0.119v-0.24h0.121v-0.239h0.06v-0.06h0.06v-0.121h0.12v-0.06h0.06
	v-0.12h0.121v-0.12h0.06v-0.06h0.18v-0.12h0.3v-0.12h0.48v-0.061c0.061,0.061,0.061,0.061,0.061,0.061H42.426 M43.506,21.184
	l0.06,0.061v0.24h0.06c0.061,0.061,0.061,0.061,0.061,0.061h0.061c0.06,0.06,0.06,0.06,0.06,0.06v0.12l0.06,0.06v0.24l0.12,0.12
	v0.119c0,0.24,0,0.48,0,0.721l-0.06,0.061h-0.061v0.299l-0.06,0.061v0.061c0,0.06,0,0.06-0.06,0.06h-0.061v0.12
	c0,0.06,0,0.06-0.061,0.06c0,0.06,0,0.06-0.06,0.06v0.061h-0.06v0.12l-0.121,0.06c0,0.061,0,0.061-0.06,0.061v0.06h-0.12v0.12h-0.06
	v0.12h-0.06c0,0.06,0,0.06-0.061,0.06c0,0.061,0,0.061-0.061,0.061c0,0.061,0,0.061-0.06,0.061v0.119c0,0.061,0,0.061-0.06,0.061
	c0,0.06,0,0.06-0.061,0.06v0.12c0,0.061,0,0.061-0.06,0.061h-0.06v0.299h-0.061v0.721h0.061v0.3l0.119,0.12v0.061h0.061l0.06,0.119
	v0.12c0.06,0,0.06,0.06,0.06,0.12h0.061l0.061,0.061h0.06v0.119h0.06v0.061l0.12,0.06v0.06l0.06,0.061v0.061h0.181v0.06l0.24,0.24
	h0.06v0.06l0.18,0.18v0.121l0.061,0.06v0.18h0.12v0.181l0.06,0.119h-4.08l-0.06-0.119v-0.061h0.12v-0.24h0.06v-0.18h0.06v-0.12
	h0.121v-0.12h0.119v-0.06h0.121v-0.12h0.06v-0.12h0.06v-0.06h0.12v-0.121h0.181v-0.119h0.06v-0.061h0.06v-0.119h0.12v-0.061h0.12
	v-0.24h0.061v-0.119h0.119v-0.301h0.061v-0.359h0.119v-0.36h-0.119v-0.479h-0.061v-0.181l-0.119-0.12v-0.119h-0.061v-0.061
	l-0.12-0.12h-0.06l-0.061-0.12l-0.06-0.12h-0.06v-0.06l-0.061-0.061h-0.061c0,0,0,0-0.06-0.06v-0.12h-0.12v-0.061c0,0,0,0-0.06-0.06
	v-0.06h-0.06v-0.18l-0.121-0.061v-0.18h-0.06l-0.06-0.061v-0.54h-0.061l-0.061-0.06v-0.12h0.121v-0.479h0.119v-0.36h0.121v-0.06
	h0.06v-0.181h0.06v-0.181h0.12v-0.06h0.06v-0.06h0.121v-0.12h0.119v-0.12h0.24v-0.12h0.24v-0.06h0.119c0.24,0,0.48,0,0.721,0h0.061
	v0.06h0.239v0.06l0.06,0.061h0.121l0.06,0.061v0.06h0.06v0.12h0.18v0.06h0.121V21.184z M49.985,30.004
	c0.12,3.42,0.181,6.9,0.12,10.5v0.18l-0.12,0.061h-4.319l-0.061-0.061l-0.061-0.119v-0.301l-0.06-0.059v-0.18l-0.06-0.061v-0.18
	h-0.12v-0.18l-0.06-0.061v-0.18h-0.121v-0.061h-0.06v-0.18l-0.06-0.061l-0.061-0.119h-0.061l-0.06-0.061h-0.06v-0.061l-0.061-0.061
	v-0.059l-0.119-0.061v-0.061l-0.061-0.059v-0.061h-0.12v-0.061h-0.18v-0.119h-0.06l-0.061-0.061c0,0,0,0-0.061-0.061v-0.059
	l-0.06-0.061v-0.061l-0.12-0.061v-0.359h0.12v-0.061h0.06v-0.119h0.061v-0.121h0.12v-0.059h0.06v-0.121h0.12v-0.119h0.12v-0.061
	h0.061v-0.119h0.119v-0.121h0.061v-0.179h0.06v-0.18h0.12v-0.24h0.12v-0.18h0.06v-0.42h0.121v-0.121c0-0.42,0-0.84,0-1.26v-0.06
	h-0.121v-0.42h-0.06v-0.181h-0.06l-0.061-0.06v-0.12h-0.061l-0.06-0.12v-0.06c0,0,0,0-0.06-0.061v-0.18h-0.061v-0.061l-0.119-0.06
	v-0.06h-0.061v-0.24h-0.12v-0.061h-0.06l-0.061-0.119h-0.06v-0.061h-0.12c0,0,0,0-0.061-0.06v-0.06l-0.06-0.061v-0.061h-0.18v-0.119
	h-0.12v-0.061h-0.12c0,0,0,0-0.06-0.061v-0.06h-0.24l-0.061-0.12h-0.24v-0.06h-0.359l-0.12-0.12h-0.601c0,0.061,0,0.061-0.06,0.061
	c0,0.06,0,0.06-0.06,0.06h-0.36v0.06h-0.239v0.12h-0.181c0,0.06,0,0.06-0.06,0.06c0,0.061,0,0.061-0.061,0.061h-0.06l-0.06,0.061
	h-0.121l-0.06,0.119h-0.06v0.061l-0.121,0.061h-0.06v0.06l-0.06,0.06v0.061h-0.12v0.119h-0.06c0,0.061,0,0.061-0.061,0.061h-0.061
	v0.12h-0.06l-0.06,0.12h-0.061v0.18h-0.119v0.12h-0.061v0.12l-0.061,0.06v0.12c0,0.061,0,0.061-0.06,0.061c0,0.06,0,0.06-0.06,0.06
	v0.181h-0.061v0.239l-0.06,0.06h-0.06v0.48l-0.061,0.061v0.779l0.061,0.061v0.3l0.06,0.06l0.06,0.061v0.3l0.061,0.06v0.18h0.06
	l0.06,0.121v0.06h0.061v0.18l0.061,0.061v0.059l0.119,0.061v0.061h0.061l0.06,0.119v0.061h0.06v0.119h0.061
	c0.061,0,0.061,0.061,0.061,0.121h0.06v0.059l0.12,0.061v0.061h0.119v0.119h0.121v0.541l-0.121,0.061v0.059
	c0,0.061,0,0.061-0.06,0.061v0.061h-0.18v0.119h-0.06l-0.061,0.061h-0.061v0.061l-0.06,0.059c0,0.061,0,0.061-0.06,0.061
	c0,0.061,0,0.061-0.061,0.061v0.059c0,0.061-0.06,0.061-0.119,0.061v0.061h-0.061v0.061h-0.061l-0.06,0.119
	c0,0.061,0,0.061-0.06,0.061v0.059h-0.061v0.121c0,0.061,0,0.061-0.06,0.061h-0.06v0.059l-0.061,0.061v0.121l-0.061,0.119h-0.06
	v0.119l-0.06,0.061v0.18l-0.061,0.121h-0.061v0.359h-0.06c0,0.061,0,0.119-0.06,0.119c0,0.061,0,0.061-0.061,0.061h-4.199
	c-0.061,0-0.121,0-0.121-0.061V30.004H49.985z M34.385,17.825v10.68h4.381l0.06-0.119h0.06v-0.42h0.061c0.061,0,0.061,0,0.061-0.061
	v-0.12h0.06v-0.18c0.06,0,0.06,0,0.06-0.06c0.061,0,0.061,0,0.061-0.061v-0.12h0.061v-0.181c0.06,0,0.06,0,0.06-0.06
	c0.06,0,0.06,0,0.06-0.06h0.061v-0.18h0.06l0.06-0.061h0.061v-0.18h0.061v-0.061c0.06,0,0.119,0,0.119-0.06v-0.06h0.061l0.119-0.121
	v-0.06c0.061,0,0.061,0,0.061-0.06c0.061,0,0.061,0,0.061-0.061h0.18v-0.119h0.06v-0.061h0.06v-0.061l0.121-0.06v-0.42l-0.121-0.06
	v-0.061l-0.06-0.061v-0.06l-0.06-0.06v-0.061l-0.12-0.06l-0.06-0.06c0,0,0,0-0.061-0.061h-0.061v-0.12h-0.06l-0.06-0.12h-0.061
	v-0.18h-0.119v-0.061l-0.061-0.06v-0.181l-0.061-0.06v-0.06l-0.06-0.061h-0.06v-0.24h-0.061v-0.239c0,0,0,0-0.06-0.06h-0.06v-0.48
	h-0.061v-0.84l0.061-0.061v-0.359h0.06l0.06-0.12v-0.24c0.061,0,0.061,0,0.061-0.06v-0.181h0.06l0.06-0.06v-0.12l0.061-0.06v-0.181
	h0.061v-0.06c0.06,0,0.119,0,0.119-0.061v-0.06h0.061l0.06-0.06v-0.121l0.06-0.06v-0.06c0.061,0,0.061,0,0.061-0.061
	c0.061,0,0.061,0,0.061-0.06h0.06v-0.06h0.12v-0.121h0.119v-0.119l0.121-0.061v-0.061h0.18c0.061,0,0.061,0,0.061-0.06l0.06-0.12
	h0.12l0.06-0.06h0.24v-0.181h0.3v-0.06h0.061c0.399,0,0.799,0,1.199,0h0.12v0.06h0.3l0.061,0.181h0.119l0.061,0.06h0.12l0.06,0.12
	h0.181v0.06h0.18v0.061l0.06,0.061v0.119h0.061l0.061,0.121h0.06v0.06h0.06l0.12,0.12v0.06l0.12,0.06v0.061l0.061,0.061v0.06h0.119
	v0.18h0.061v0.06c0.06,0.061,0.06,0.061,0.06,0.061v0.12l0.06,0.06l0.061,0.061v0.06l0.061,0.06h0.06v0.24l0.06,0.061v0.3
	l0.121,0.06v0.121c0,0.399,0,0.799,0,1.199v0.061h-0.121v0.42h-0.06v0.359h-0.12v0.061h-0.12v0.18h-0.06v0.24h-0.061v0.061h-0.119
	v0.239h-0.061v0.12h-0.12v0.061h-0.12v0.06h-0.06v0.12h-0.181v0.119h-0.06v0.181h-0.12v0.3l0.12,0.061v0.18h0.12l0.061,0.061h0.06
	v0.119h0.06l0.12,0.12h0.12v0.06l0.061,0.061v0.061h0.119v0.06l0.061,0.06v0.061h0.06l0.06,0.18h0.061v0.061l0.061,0.06l0.06,0.06
	v0.061h0.06v0.24h0.121v0.06h0.06v0.181l0.12,0.06v0.239l0.06,0.061v0.061l0.06,0.119v0.301l0.061,0.119h4.38
	c0.12-3.42,0.181-6.899,0.12-10.5v-0.18H34.385z M29.465,45.244c3.06-0.18,5.94-0.061,8.52,0.361v0.539h-0.12v0.18h-0.06v0.121
	h-0.06c0,0.059,0,0.059-0.061,0.059c0,0.061,0,0.061-0.061,0.061v0.061l-0.06,0.059c0,0.061,0,0.061-0.06,0.061h-0.181v0.061
	c0,0.061,0,0.061-0.06,0.061h-0.061c0,0.059,0,0.059-0.06,0.059c0,0.061,0,0.061-0.06,0.061h-0.121c-2.18,0-4.359,0-6.54,0
	l-0.12-0.061v-0.059h-0.12c0,0,0,0-0.06-0.061v-0.061h-0.18v-0.061l-0.06-0.059l-0.06-0.061c0,0,0,0-0.06-0.061v-0.059h-0.06v-0.121
	h-0.06l-0.06-0.061v-0.119h-0.06l-0.06-0.061V45.244z M11.945,48.365v0.299l0.06,0.121h0.06v0.18h0.06v0.119l0.06,0.061l0.06,0.061
	v0.059h0.06v0.121l0.06,0.061h0.06v0.119h0.12v0.119h0.12l0.06,0.121h0.06v0.061h0.18v0.119h0.3v0.061l0.06,0.061h40.74
	c0.06,0,0.06,0,0.06-0.061c0.061,0,0.061,0,0.061-0.061h0.3l0.06-0.119h0.121l0.06-0.061h0.06v-0.121h0.061l0.06-0.119h0.06v-0.119
	h0.181v-0.182h0.06c0.061,0,0.061,0,0.061-0.059l0.06-0.061v-0.18h0.12v-0.18h0.061v-0.121c0-0.16,0-0.32,0-0.48v-2.939H39.365v0.42
	h-0.119v0.061c0,0.18,0,0.359,0,0.539v0.061h-0.061v0.359h-0.12v0.182h-0.06v0.18h-0.121v0.119h-0.06v0.18h-0.12v0.121h-0.06v0.119
	h-0.12v0.121h-0.061v0.059h-0.119v0.121h-0.18v0.061h-0.181v0.119h-0.12v0.119h-0.24v0.061h-0.3v0.121h-0.06c-2.36,0-4.72,0-7.08,0
	h-0.06v-0.061l-0.06-0.061h-0.24v-0.061h-0.24v-0.059l-0.12-0.061h-0.06v-0.061l-0.12-0.059l-0.06-0.061h-0.06l-0.06-0.121h-0.06
	l-0.06-0.059l-0.06-0.121h-0.06l-0.06-0.119l-0.12-0.121v-0.059h-0.12v-0.18l-0.06-0.061v-0.121l-0.12-0.059v-0.182h-0.06v-0.299
	l-0.06-0.061v-0.6c0,0,0,0-0.06-0.061h-0.06v-0.059c-5.16-0.422-10.56-0.541-16.2-0.361V48.365z M25.865,32.945h0.12l0.06,0.12h0.18
	v0.06h0.12v0.12h0.06v0.12h0.06l0.18,0.181h0.06v0.06l0.06,0.06v0.18h0.06l0.06,0.121v0.06l0.06,0.06v0.66l0.06,0.12h-0.06v0.479
	h-0.06v0.181l-0.06,0.12h-0.06v0.06c0,0.06,0,0.06-0.06,0.06v0.181h-0.06c0,0.06,0,0.06-0.06,0.06c0,0.061,0,0.061-0.06,0.061
	c0,0.06,0,0.06-0.06,0.06c0,0.06,0,0.06-0.06,0.06v0.061l-0.06,0.061v0.06h-0.12v0.12h-0.06v0.06h-0.12c0,0.061,0,0.061-0.06,0.061
	v0.059l-0.06,0.121h-0.06v0.18h-0.06v0.119l-0.06,0.061v0.42l-0.06,0.119h-0.06v0.301h0.06c0.06,0,0.06,0.061,0.06,0.121v0.299
	l0.06,0.061v0.119h0.06v0.24h0.06l0.06,0.061v0.061h0.06v0.18h0.12v0.059h0.06l0.12,0.061v0.061l0.06,0.061h0.06l0.06,0.119h0.12
	l0.06,0.061v0.061h0.06v0.119h0.06c0.06,0.061,0.06,0.061,0.06,0.061l0.06,0.059v0.182h0.12v0.059l0.06,0.061v0.18h0.06l0.06,0.061
	v0.119h0.06v0.18c0,0.061,0,0.061-0.06,0.061h-4.02v-0.061l-0.06-0.119h0.06v-0.24h0.12v-0.119h0.12v-0.18h0.06v-0.121h0.12v-0.119
	h0.06v-0.061h0.12v-0.119h0.06v-0.121h0.06v-0.119h0.12v-0.061h0.18v-0.121h0.12v-0.059h0.06v-0.18h0.12v-0.061h0.06v-0.18h0.12
	v-0.24h0.12v-0.24h0.06v-0.84h-0.06v-0.301h-0.12v-0.18l-0.12-0.061v-0.059h-0.06v-0.24h-0.12v-0.06h-0.06v-0.12h-0.12v-0.06h-0.12
	v-0.061c-0.313-0.277-0.083-0.158-0.24-0.3v-0.06h-0.06v-0.121l-0.12-0.06v-0.18h-0.06v-0.24l-0.12-0.06v-0.061
	c0-0.26,0-0.52,0-0.779v-0.121h0.12v-0.299h0.06v-0.181h0.12v-0.239h0.06v-0.121h0.06v-0.06h0.12v-0.12h0.06v-0.12h0.24v-0.06h0.06
	v-0.12h0.3v-0.12h0.54v-0.061h0.06v0.061h0.42v0.061l0.06,0.06H25.865z M25.806,20.705l-0.06-0.06c-0.28,0-0.56,0-0.84,0h-0.06v0.06
	h-0.3v0.12h-0.18v0.12h-0.12v0.12h-0.18v0.06h-0.12v0.06h-0.06v0.301h-0.06v0.061h-0.12v0.18h-0.06v0.3h-0.12v0.12
	c0,0.3,0,0.6,0,0.9v0.06l0.12,0.06v0.18c0.06,0.061,0.06,0.061,0.06,0.061v0.12h0.12v0.18c0.06,0.06,0.06,0.06,0.06,0.06l0.06,0.061
	l0.06,0.12l0.06,0.06h0.06v0.061l0.06,0.06h0.06v0.12h0.12v0.12h0.06v0.06l0.12,0.061v0.061h0.06v0.18l0.12,0.06v0.181h0.12v0.299
	h0.06v0.721h-0.06v0.3h-0.12v0.181h-0.12v0.18h-0.06v0.18h-0.12v0.061h-0.06v0.119h-0.12v0.061h-0.12v0.119h-0.06v0.121h-0.18v0.06
	h-0.06v0.12h-0.12v0.12h-0.06v0.06h-0.12v0.12h-0.06v0.181h-0.12v0.239h-0.12v0.181h-0.06l0.06,0.119h4.08v-0.18h-0.06v-0.12
	l-0.06-0.12h-0.06v-0.18h-0.06v-0.061l-0.12-0.06v-0.06l-0.06-0.061c0,0,0,0-0.06-0.06h-0.06v-0.06l-0.06-0.061v-0.061l-0.06-0.06
	c0,0,0,0-0.06-0.06h-0.06l-0.12-0.121h-0.06v-0.06l-0.12-0.06v-0.061h-0.06v-0.119h-0.12l-0.06-0.061v-0.18h-0.06l-0.06-0.061
	v-0.119h-0.06v-0.061c0.019-0.307-0.085-0.01-0.06-0.48l-0.06-0.119h-0.06v-0.36h0.06c0.06,0,0.06,0,0.06-0.06v-0.42
	c0.06,0,0.06,0,0.06-0.061v-0.12c0.06,0,0.06,0,0.06-0.06v-0.18h0.06c0.06,0,0.06,0,0.06-0.061v-0.061c0.06,0,0.06,0,0.06-0.06h0.12
	v-0.12h0.06v-0.12h0.12v-0.06l0.06-0.061c0.06,0,0.06,0,0.06-0.06c0.06,0,0.06-0.06,0.06-0.12h0.06c0.06,0,0.06,0,0.06-0.061
	l0.06-0.06v-0.06h0.06v-0.18c0.06,0,0.06,0,0.06-0.061h0.06v-0.18h0.06v-0.601h0.06l-0.06-0.06c0-0.18,0-0.36,0-0.54v-0.06h-0.06
	v-0.24l-0.12-0.12v-0.06h-0.06v-0.181h-0.06l-0.06-0.12l-0.06-0.061c0,0,0,0-0.06-0.06h-0.06v-0.06h-0.06v-0.12h-0.18v-0.06
	l-0.12-0.061h-0.06l-0.06-0.061l-0.06-0.06H25.806z M17.585,17.825h15.48l0.06,0.061v0.119c0.06,3.601,0,7.08-0.12,10.5h-0.6
	c0,0.061,0,0.061-0.06,0.061h-0.24v0.119h-0.06l-0.06,0.121h-0.06v0.18h-0.06v0.54h0.06v0.18l0.18,0.181h0.18l0.12,0.119h0.6
	c0.12,3.42,0.18,6.9,0.12,10.5v0.061c0,0.061,0,0.119-0.06,0.119c0,0.061,0,0.061-0.06,0.061h-4.2l-0.06-0.061l-0.06-0.119h-0.06
	l-0.06-0.061v-0.299l-0.06-0.121v-0.18l-0.12-0.119v-0.061h-0.06v-0.24l-0.06-0.061v-0.059h-0.12v-0.182h-0.06v-0.059l-0.12-0.061
	v-0.119h-0.06l-0.06-0.061h-0.06v-0.061l-0.12-0.119c0,0,0,0-0.06-0.061v-0.061l-0.12-0.119h-0.06v-0.061h-0.06l-0.06-0.119h-0.12
	l-0.06-0.061c0,0,0,0-0.06-0.061v-0.059c-0.208-0.158-0.092-0.229-0.12-0.541v-0.061h0.12v-0.119h0.18v-0.121h0.06v-0.059h0.12
	v-0.121h0.06v-0.119h0.12v-0.18h0.06v-0.121h0.12v-0.119h0.06v-0.18h0.12v-0.181h0.12v-0.239h0.06v-0.3h0.12v-0.6h0.06v-0.66
	l-0.06-0.061v-0.48h-0.12v-0.299h-0.06v-0.181l-0.12-0.06v-0.181l-0.06-0.06h-0.06v-0.12h-0.06v-0.12h-0.06l-0.06-0.061v-0.119
	h-0.06v-0.12h-0.06l-0.06-0.12h-0.06v-0.061h-0.06l-0.06-0.119h-0.06v-0.061c-0.276-0.298-0.024,0.059-0.3-0.24h-0.06v-0.119h-0.18
	v-0.061h-0.06l-0.12-0.061v-0.06h-0.18v-0.12h-0.24l-0.06-0.06h-0.3l-0.12-0.06v-0.061h-0.66v0.061l-0.06,0.06h-0.48v0.06h-0.3v0.12
	h-0.18v0.06c0,0.061,0,0.061-0.06,0.061h-0.06l-0.06,0.061h-0.12l-0.06,0.119h-0.06v0.061l-0.06,0.061c0,0.06,0,0.06-0.06,0.06
	c0,0.06,0,0.06-0.06,0.06h-0.12v0.061h-0.06v0.119h-0.06c0,0.061,0,0.061-0.06,0.061h-0.06v0.12h-0.06v0.12l-0.06,0.06
	c0,0.06,0,0.06-0.06,0.06v0.061h-0.06v0.12c0,0.06,0,0.06-0.06,0.06c0,0.061,0,0.061-0.06,0.061v0.18h-0.06v0.12l-0.06,0.06h-0.06
	v0.181h-0.06v0.36c0,0.06,0,0.06-0.06,0.06h-0.06v0.06c0,0.42,0,0.84,0,1.26v0.121h0.06c0.06,0.06,0.06,0.06,0.06,0.06v0.36h0.06
	v0.18h0.06l0.06,0.119v0.121h0.06v0.18h0.06l0.06,0.06v0.119l0.06,0.061v0.061h0.06l0.06,0.119h0.06v0.061h0.06l0.06,0.119h0.06
	v0.121h0.06v0.059l0.12,0.061v0.061h0.06l0.06,0.119h0.06v0.061h0.06l0.06,0.119v0.24h-0.06c0,0.061,0,0.061-0.06,0.061v0.061
	l-0.12,0.119c0,0.061,0,0.061-0.06,0.061v0.061h-0.18v0.119h-0.06l-0.06,0.061h-0.06v0.061c0,0.059,0,0.059-0.06,0.059
	c0,0.061,0,0.061-0.06,0.061c0,0.061,0,0.061-0.06,0.061v0.059l-0.12,0.121h-0.06v0.061h-0.06l-0.06,0.119
	c0,0.061,0,0.061-0.06,0.061v0.18h-0.06c0,0.061,0,0.061-0.06,0.061h-0.06v0.18l-0.06,0.061v0.119c0,0.061,0,0.061-0.06,0.061h-0.06
	v0.18l-0.06,0.061v0.18c0,0.059,0,0.059-0.06,0.059c0,0.061,0,0.061-0.06,0.061v0.359l-0.06,0.061h-4.38l-0.06-0.061V30.004h12
	v-0.119h0.18v-0.061h0.12v-0.12h0.06v-0.12h0.06v-0.18h0.12v-0.3h-0.06l-0.06-0.12v-0.061c0,0,0,0-0.06-0.06v-0.06h-0.06v-0.121
	h-0.06l-0.06-0.119h-0.24l-0.06-0.061h-0.54l-0.06-0.119h-0.06l-0.06-0.061v-0.359l-0.06-0.061v-0.12h-0.06l-0.06-0.12v-0.06
	c0,0,0,0-0.06-0.06v-0.181h-0.06v-0.181l-0.12-0.06v-0.06h-0.06v-0.18h-0.12v-0.061h-0.06l-0.06-0.18h-0.06v-0.061l-0.12-0.119
	h-0.06v-0.061l-0.12-0.12c0,0,0,0-0.06-0.06v-0.061h-0.18v-0.119h-0.06l-0.06-0.061h-0.06v-0.061
	c-0.218-0.18-0.088-0.166-0.12-0.479v-0.06h0.12v-0.121h0.06v-0.119h0.12v-0.12h0.06v-0.06h0.12v-0.061h0.06v-0.12h0.12v-0.12h0.06
	v-0.18h0.12v-0.12h0.06v-0.24h0.12v-0.12h0.12v-0.24h0.06v-0.299h0.12v-0.601h0.06v-0.601l-0.06-0.06v-0.6h-0.12v-0.24l-0.06-0.06
	v-0.181h-0.12v-0.18l-0.06-0.06l-0.06-0.061c0,0,0,0-0.06-0.061v-0.119l-0.12-0.12h-0.06v-0.181l-0.12-0.119c0,0,0,0-0.06-0.061
	v-0.06h-0.06l-0.06-0.06h-0.06v-0.121h-0.18v-0.119l-0.12-0.121h-0.12l-0.06-0.06h-0.06v-0.12h-0.24l-0.06-0.06h-0.12l-0.06-0.181
	h-0.24v-0.06h-0.12c-0.38,0-0.76,0-1.14,0h-0.12v0.06h-0.36v0.181h-0.18v0.06h-0.18v0.12h-0.18v0.06h-0.18v0.061l-0.06,0.061
	l-0.06,0.119h-0.06v0.121h-0.12v0.06h-0.06v0.06l-0.06,0.061c0,0.06,0,0.06-0.06,0.06c0,0.06,0,0.06-0.06,0.06v0.061
	c0,0.061,0,0.061-0.06,0.061l-0.06,0.06h-0.06v0.06l-0.06,0.061v0.06c0,0.06,0,0.06-0.06,0.06c0,0.061,0,0.061-0.06,0.061v0.18
	l-0.06,0.061v0.06c0,0.06,0,0.06-0.06,0.06h-0.06v0.24l-0.06,0.061v0.24c0,0.06,0,0.06-0.06,0.06c0,0.06,0,0.06-0.06,0.06v0.121
	c0,0.42,0,0.84,0,1.26v0.18h0.06l0.06,0.061v0.18h0.06v0.18l0.06,0.061l0.06,0.119v0.12l0.06,0.06v0.061l0.12,0.12v0.12h0.06v0.061
	h0.06l0.06,0.119v0.12h0.06v0.12h0.06c0.06,0.061,0.06,0.061,0.06,0.061l0.12,0.119v0.061h0.12l0.12,0.119l0.06,0.061v0.12
	l0.06,0.06l0.06,0.061v0.119l-0.06,0.061c0,0.061,0,0.061-0.06,0.061v0.18h-0.18v0.061h-0.12v0.119h-0.06v0.061l-0.06,0.06h-0.12
	v0.06c0,0.061,0,0.061-0.06,0.061l-0.06,0.061h-0.06v0.06l-0.06,0.06c0,0.061,0,0.061-0.06,0.061h-0.06v0.18h-0.06v0.061l-0.06,0.06
	c0,0.06,0,0.06-0.06,0.06v0.061h-0.06v0.119l-0.06,0.121h-0.06v0.06h-0.06v0.12c0,0.061,0,0.061-0.06,0.061c0,0.06,0,0.06-0.06,0.06
	v0.239l-0.06,0.061v0.061l-0.06,0.119h-0.06v0.42h-4.5v-10.68H17.585z M17.105,16.445v-0.06h33.24l0.06,0.06l0.06,0.06h0.121v0.061
	l0.06,0.06h0.12v0.06h0.06v0.121h0.06l0.121,0.119v0.061h0.06l0.06,0.12h0.061v0.12l0.061,0.06h0.06v0.42h0.06v0.12
	c0,7.66,0,15.32,0,22.98v0.061h-0.06v0.359h-0.12v0.18h-0.12v0.061h-0.06v0.24h-0.121v0.119h-0.119v0.061h-0.12v0.119h-0.3v0.121
	h-0.061c-11.02,0-22.04,0-33.06,0h-0.12v-0.061l-0.06-0.061h-0.18l-0.12-0.119v-0.061h-0.18v-0.061l-0.06-0.059v-0.18l-0.24-0.121
	v-0.18h-0.06v-0.301l-0.06-0.059V17.584h0.06v-0.3h0.06v-0.18h0.12v-0.12h0.12v-0.18h0.12l0.06-0.121h0.06v-0.06
	c0.06,0,0.06,0,0.06-0.06c0.06,0,0.06,0,0.06-0.061h0.18L17.105,16.445z M14.045,14.105c0.06,0,0.06,0,0.06-0.06l0.12-0.121v-0.06
	h0.06l0.06-0.12h0.12v-0.061h0.12c0.06,0,0.06,0,0.06-0.06c0.06,0,0.06,0,0.06-0.06h0.12l0.06-0.12h0.24v-0.06h0.18
	c12.14,0,24.28,0,36.42,0h0.6l0.06,0.06h0.24v0.12h0.181v0.06c0.06,0.06,0.06,0.06,0.06,0.06h0.12l0.06,0.061h0.061v0.12h0.12
	l0.12,0.12v0.061l0.119,0.06v0.06h0.061l0.12,0.12v0.06h0.06v0.24h0.12v0.061l0.06,0.06v0.06l0.061,0.061l0.061,0.061v0.18h0.06
	v0.42h0.12v0.6h0.061v5.1h-0.061v0.421h-0.12v0.12h-0.06v0.119h-0.181v0.121h-0.479v-0.061l-0.12-0.061h-0.06v-0.06
	c-0.141-0.172-0.199-0.101-0.181-0.3v-0.12h-0.12v-5.64l-0.06-0.061v-0.06l-0.06-0.06v-0.181c0,0,0,0-0.061-0.06l-0.061-0.061
	v-0.061h-0.06l-0.12-0.119v-0.061h-0.18v-0.119h-0.18v-0.061l-0.121-0.061c-12.159,0-24.319,0-36.479,0h-0.12v0.121h-0.12v0.119
	h-0.18v0.061h-0.12v0.119h-0.06v0.061h-0.12v0.12h-0.06v0.24h-0.12v27.239l0.06,0.061h0.06v0.18l0.06,0.061l0.06,0.061h0.06v0.18
	l0.06,0.061h0.12v0.059h0.06l0.06,0.121l0.06,0.059h0.06c0.06,0.061,0.06,0.061,0.06,0.061h0.12c12.16,0,24.32,0,36.479,0h0.121
	c0.06,0,0.06,0,0.06-0.061h0.12c0.06,0,0.06,0,0.06-0.059v-0.121h0.12v-0.059h0.12c0.06,0,0.06,0,0.06-0.061v-0.18h0.061
	c0.061,0,0.061,0,0.061-0.061v-0.061c0.06,0,0.06,0,0.06-0.059v-0.121h0.06v-0.061c0-0.18,0-0.359,0-0.539v-17.64l0.12-0.06v-0.24
	h0.06l0.061-0.12h0.061v-0.12h0.06v-0.06h0.659l0.061,0.06h0.061v0.12h0.06v0.12h0.12v0.36l0.061,0.06v17.639h-0.061v0.061
	c0,0.18,0,0.359,0,0.541v0.119h-0.12v0.301h-0.06v0.238h-0.121h0.061l0.061,0.061h1.68v0.061h0.48v0.119h0.06l0.12,0.121h0.06
	l0.181,0.18v5.221h-0.061v0.238h-0.12v0.182h-0.06v0.24h-0.12v0.119h-0.06v0.061h-0.061v0.119h-0.12v0.061h-0.12v0.119h-0.06v0.121
	h-0.12v0.119h-0.061v0.061h-0.119v0.119h-0.181v0.121h-0.18v0.059h-0.181v0.121h-0.239v0.119h-0.3v0.061h-0.061
	c-13.74,0-27.48,0-41.22,0h-0.12v-0.061h-0.36v-0.119h-0.12l-0.12-0.121h-0.12v-0.059h-0.18v-0.121h-0.06v-0.119h-0.18
	c0,0,0,0-0.06-0.061h-0.06v-0.119h-0.12l-0.06-0.061l-0.06-0.061v-0.119l-0.06-0.061h-0.06v-0.119h-0.06v-0.061h-0.12v-0.119h-0.06
	v-0.182l-0.12-0.059v-0.182h-0.06v-0.119c0,0,0,0-0.06-0.061v-0.119l-0.12-0.121v-0.18l-0.06-0.119h-0.06v-0.121
	c0-0.199,0-0.398,0-0.6v-0.061h-0.06v-3.238c0.06,0.059,0.06,0.059,0.06,0.059v-0.479h0.06l0.06-0.061c0.06,0,0.06,0,0.06-0.061
	c0.06,0,0.06,0,0.06-0.061v-0.119c0.06,0,0.06,0,0.06-0.061l0.06-0.059v-0.061h0.12l0.06-0.061v-0.061h0.12v-0.119h0.42v-0.061h1.74
	v-0.299h-0.12v-0.24l-0.06-0.061v-0.721h-0.06V15.905l0.06-0.061v-0.479h0.06v-0.3h0.12v-0.18l0.06-0.061v-0.12l0.12-0.06v-0.18
	h0.06l0.06-0.121h0.06v-0.06c0.06,0,0.06,0,0.06-0.06c0.06,0,0.06,0,0.06-0.061L14.045,14.105z"/>
<path fill-rule="evenodd" clip-rule="evenodd" fill="#FFFFFF" d="M34.385,17.825v10.68h4.381l0.06-0.119h0.06v-0.42h0.061
	c0.061,0,0.061,0,0.061-0.061v-0.12h0.06v-0.18c0.06,0,0.06,0,0.06-0.06c0.061,0,0.061,0,0.061-0.061v-0.12h0.061v-0.181
	c0.06,0,0.06,0,0.06-0.06c0.06,0,0.06,0,0.06-0.06h0.061v-0.18h0.06l0.06-0.061h0.061v-0.18h0.061v-0.061c0.06,0,0.119,0,0.119-0.06
	v-0.06h0.061l0.119-0.121v-0.06c0.061,0,0.061,0,0.061-0.06c0.061,0,0.061,0,0.061-0.061h0.18v-0.119h0.06v-0.061h0.06v-0.061
	l0.121-0.06v-0.42l-0.121-0.06v-0.061l-0.06-0.061v-0.06l-0.06-0.06v-0.061l-0.12-0.06l-0.06-0.06c0,0,0,0-0.061-0.061h-0.061v-0.12
	h-0.06l-0.06-0.12h-0.061v-0.18h-0.119v-0.061l-0.061-0.06v-0.181l-0.061-0.06v-0.06l-0.06-0.061h-0.06v-0.24h-0.061v-0.239
	c0,0,0,0-0.06-0.06h-0.06v-0.48h-0.061v-0.84l0.061-0.061v-0.359h0.06l0.06-0.12v-0.24c0.061,0,0.061,0,0.061-0.06v-0.181h0.06
	l0.06-0.06v-0.12l0.061-0.06v-0.181h0.061v-0.06c0.06,0,0.119,0,0.119-0.061v-0.06h0.061l0.06-0.06v-0.121l0.06-0.06v-0.06
	c0.061,0,0.061,0,0.061-0.061c0.061,0,0.061,0,0.061-0.06h0.06v-0.06h0.12v-0.121h0.119v-0.119l0.121-0.061v-0.061h0.18
	c0.061,0,0.061,0,0.061-0.06l0.06-0.12h0.12l0.06-0.06h0.24v-0.181h0.3v-0.06h0.061c0.399,0,0.799,0,1.199,0h0.12v0.06h0.3
	l0.061,0.181h0.119l0.061,0.06h0.12l0.06,0.12h0.181v0.06h0.18v0.061l0.06,0.061v0.119h0.061l0.061,0.121h0.06v0.06h0.06l0.12,0.12
	v0.06l0.12,0.06v0.061l0.061,0.061v0.06h0.119v0.18h0.061v0.06c0.06,0.061,0.06,0.061,0.06,0.061v0.12l0.06,0.06l0.061,0.061v0.06
	l0.061,0.06h0.06v0.24l0.06,0.061v0.3l0.121,0.06v0.121c0,0.399,0,0.799,0,1.199v0.061h-0.121v0.42h-0.06v0.359h-0.12v0.061h-0.12
	v0.18h-0.06v0.24h-0.061v0.061h-0.119v0.239h-0.061v0.12h-0.12v0.061h-0.12v0.06h-0.06v0.12h-0.181v0.119h-0.06v0.181h-0.12v0.3
	l0.12,0.061v0.18h0.12l0.061,0.061h0.06v0.119h0.06l0.12,0.12h0.12v0.06l0.061,0.061v0.061h0.119v0.06l0.061,0.06v0.061h0.06
	l0.06,0.18h0.061v0.061l0.061,0.06l0.06,0.06v0.061h0.06v0.24h0.121v0.06h0.06v0.181l0.12,0.06v0.239l0.06,0.061v0.061l0.06,0.119
	v0.301l0.061,0.119h4.38c0.12-3.42,0.181-6.899,0.12-10.5v-0.18H34.385 M17.585,17.825h15.48l0.06,0.061v0.119
	c0.06,3.601,0,7.08-0.12,10.5h-0.6c0,0.061,0,0.061-0.06,0.061h-0.24v0.119h-0.06l-0.06,0.121h-0.06v0.18h-0.06v0.54h0.06v0.18
	l0.18,0.181h0.18l0.12,0.119h0.6c0.12,3.42,0.18,6.9,0.12,10.5v0.061c0,0.061,0,0.119-0.06,0.119c0,0.061,0,0.061-0.06,0.061h-4.2
	l-0.06-0.061l-0.06-0.119h-0.06l-0.06-0.061v-0.299l-0.06-0.121v-0.18l-0.12-0.119v-0.061h-0.06v-0.24l-0.06-0.061v-0.059h-0.12
	v-0.182h-0.06v-0.059l-0.12-0.061v-0.119h-0.06l-0.06-0.061h-0.06v-0.061l-0.12-0.119c0,0,0,0-0.06-0.061v-0.061l-0.12-0.119h-0.06
	v-0.061h-0.06l-0.06-0.119h-0.12l-0.06-0.061c0,0,0,0-0.06-0.061v-0.059c-0.208-0.158-0.092-0.229-0.12-0.541v-0.061h0.12v-0.119
	h0.18v-0.121h0.06v-0.059h0.12v-0.121h0.06v-0.119h0.12v-0.18h0.06v-0.121h0.12v-0.119h0.06v-0.18h0.12v-0.181h0.12v-0.239h0.06
	v-0.3h0.12v-0.6h0.06v-0.66l-0.06-0.061v-0.48h-0.12v-0.299h-0.06v-0.181l-0.12-0.06v-0.181l-0.06-0.06h-0.06v-0.12h-0.06v-0.12
	h-0.06l-0.06-0.061v-0.119h-0.06v-0.12h-0.06l-0.06-0.12h-0.06v-0.061h-0.06l-0.06-0.119h-0.06v-0.061
	c-0.276-0.298-0.024,0.059-0.3-0.24h-0.06v-0.119h-0.18v-0.061h-0.06l-0.12-0.061v-0.06h-0.18v-0.12h-0.24l-0.06-0.06h-0.3
	l-0.12-0.06v-0.061h-0.66v0.061l-0.06,0.06h-0.48v0.06h-0.3v0.12h-0.18v0.06c0,0.061,0,0.061-0.06,0.061h-0.06l-0.06,0.061h-0.12
	l-0.06,0.119h-0.06v0.061l-0.06,0.061c0,0.06,0,0.06-0.06,0.06c0,0.06,0,0.06-0.06,0.06h-0.12v0.061h-0.06v0.119h-0.06
	c0,0.061,0,0.061-0.06,0.061h-0.06v0.12h-0.06v0.12l-0.06,0.06c0,0.06,0,0.06-0.06,0.06v0.061h-0.06v0.12c0,0.06,0,0.06-0.06,0.06
	c0,0.061,0,0.061-0.06,0.061v0.18h-0.06v0.12l-0.06,0.06h-0.06v0.181h-0.06v0.36c0,0.06,0,0.06-0.06,0.06h-0.06v0.06
	c0,0.42,0,0.84,0,1.26v0.121h0.06c0.06,0.06,0.06,0.06,0.06,0.06v0.36h0.06v0.18h0.06l0.06,0.119v0.121h0.06v0.18h0.06l0.06,0.06
	v0.119l0.06,0.061v0.061h0.06l0.06,0.119h0.06v0.061h0.06l0.06,0.119h0.06v0.121h0.06v0.059l0.12,0.061v0.061h0.06l0.06,0.119h0.06
	v0.061h0.06l0.06,0.119v0.24h-0.06c0,0.061,0,0.061-0.06,0.061v0.061l-0.12,0.119c0,0.061,0,0.061-0.06,0.061v0.061h-0.18v0.119
	h-0.06l-0.06,0.061h-0.06v0.061c0,0.059,0,0.059-0.06,0.059c0,0.061,0,0.061-0.06,0.061c0,0.061,0,0.061-0.06,0.061v0.059
	l-0.12,0.121h-0.06v0.061h-0.06l-0.06,0.119c0,0.061,0,0.061-0.06,0.061v0.18h-0.06c0,0.061,0,0.061-0.06,0.061h-0.06v0.18
	l-0.06,0.061v0.119c0,0.061,0,0.061-0.06,0.061h-0.06v0.18l-0.06,0.061v0.18c0,0.059,0,0.059-0.06,0.059c0,0.061,0,0.061-0.06,0.061
	v0.359l-0.06,0.061h-4.38l-0.06-0.061V30.004h12v-0.119h0.18v-0.061h0.12v-0.12h0.06v-0.12h0.06v-0.18h0.12v-0.3h-0.06l-0.06-0.12
	v-0.061c0,0,0,0-0.06-0.06v-0.06h-0.06v-0.121h-0.06l-0.06-0.119h-0.24l-0.06-0.061h-0.54l-0.06-0.119h-0.06l-0.06-0.061v-0.359
	l-0.06-0.061v-0.12h-0.06l-0.06-0.12v-0.06c0,0,0,0-0.06-0.06v-0.181h-0.06v-0.181l-0.12-0.06v-0.06h-0.06v-0.18h-0.12v-0.061h-0.06
	l-0.06-0.18h-0.06v-0.061l-0.12-0.119h-0.06v-0.061l-0.12-0.12c0,0,0,0-0.06-0.06v-0.061h-0.18v-0.119h-0.06l-0.06-0.061h-0.06
	v-0.061c-0.218-0.18-0.088-0.166-0.12-0.479v-0.06h0.12v-0.121h0.06v-0.119h0.12v-0.12h0.06v-0.06h0.12v-0.061h0.06v-0.12h0.12
	v-0.12h0.06v-0.18h0.12v-0.12h0.06v-0.24h0.12v-0.12h0.12v-0.24h0.06v-0.299h0.12v-0.601h0.06v-0.601l-0.06-0.06v-0.6h-0.12v-0.24
	l-0.06-0.06v-0.181h-0.12v-0.18l-0.06-0.06l-0.06-0.061c0,0,0,0-0.06-0.061v-0.119l-0.12-0.12h-0.06v-0.181l-0.12-0.119
	c0,0,0,0-0.06-0.061v-0.06h-0.06l-0.06-0.06h-0.06v-0.121h-0.18v-0.119l-0.12-0.121h-0.12l-0.06-0.06h-0.06v-0.12h-0.24l-0.06-0.06
	h-0.12l-0.06-0.181h-0.24v-0.06h-0.12c-0.38,0-0.76,0-1.14,0h-0.12v0.06h-0.36v0.181h-0.18v0.06h-0.18v0.12h-0.18v0.06h-0.18v0.061
	l-0.06,0.061l-0.06,0.119h-0.06v0.121h-0.12v0.06h-0.06v0.06l-0.06,0.061c0,0.06,0,0.06-0.06,0.06c0,0.06,0,0.06-0.06,0.06v0.061
	c0,0.061,0,0.061-0.06,0.061l-0.06,0.06h-0.06v0.06l-0.06,0.061v0.06c0,0.06,0,0.06-0.06,0.06c0,0.061,0,0.061-0.06,0.061v0.18
	l-0.06,0.061v0.06c0,0.06,0,0.06-0.06,0.06h-0.06v0.24l-0.06,0.061v0.24c0,0.06,0,0.06-0.06,0.06c0,0.06,0,0.06-0.06,0.06v0.121
	c0,0.42,0,0.84,0,1.26v0.18h0.06l0.06,0.061v0.18h0.06v0.18l0.06,0.061l0.06,0.119v0.12l0.06,0.06v0.061l0.12,0.12v0.12h0.06v0.061
	h0.06l0.06,0.119v0.12h0.06v0.12h0.06c0.06,0.061,0.06,0.061,0.06,0.061l0.12,0.119v0.061h0.12l0.12,0.119l0.06,0.061v0.12
	l0.06,0.06l0.06,0.061v0.119l-0.06,0.061c0,0.061,0,0.061-0.06,0.061v0.18h-0.18v0.061h-0.12v0.119h-0.06v0.061l-0.06,0.06h-0.12
	v0.06c0,0.061,0,0.061-0.06,0.061l-0.06,0.061h-0.06v0.06l-0.06,0.06c0,0.061,0,0.061-0.06,0.061h-0.06v0.18h-0.06v0.061l-0.06,0.06
	c0,0.06,0,0.06-0.06,0.06v0.061h-0.06v0.119l-0.06,0.121h-0.06v0.06h-0.06v0.12c0,0.061,0,0.061-0.06,0.061c0,0.06,0,0.06-0.06,0.06
	v0.239l-0.06,0.061v0.061l-0.06,0.119h-0.06v0.42h-4.5v-10.68H17.585z"/>
<path fill-rule="evenodd" clip-rule="evenodd" fill="#B8CF65" d="M42.426,32.825h0.24l0.119,0.12h0.24l0.061,0.12h0.06v0.06h0.18
	v0.12h0.06v0.12h0.121v0.06l0.06,0.061v0.061h0.06c0.061,0.06,0.061,0.06,0.061,0.06v0.18h0.061l0.06,0.06v0.121h0.06v0.119
	l0.061,0.061l0.06,0.119v0.9c0,0.061,0,0.061-0.06,0.061c0,0.06,0,0.06-0.061,0.06v0.24h-0.06v0.12c0,0.06,0,0.06-0.06,0.06
	c0,0.06,0,0.06-0.061,0.06l-0.061,0.121h-0.06v0.119c0,0.061,0,0.061-0.06,0.061v0.06l-0.121,0.06v0.061c0,0.061,0,0.061-0.06,0.061
	h-0.12v0.06h-0.06v0.12h-0.06l-0.061,0.06h-0.061v0.119l-0.06,0.121c0,0.059,0,0.059-0.06,0.059c0,0.061,0,0.061-0.061,0.061v0.061
	l-0.06,0.119h-0.06v0.301h-0.061v0.84h0.061v0.24l0.119,0.119v0.121h0.061l0.06,0.119v0.121h0.06l0.061,0.059
	c0.061,0,0.061,0.061,0.061,0.121h0.06v0.059l0.06,0.061v0.061h0.12l0.06,0.061h0.121v0.119l0.06,0.061v0.061h0.06l0.061,0.119
	h0.061c0.06,0.061,0.06,0.061,0.06,0.061l0.06,0.059v0.061h0.061l0.06,0.121h0.06v0.18l0.061,0.059v0.061h0.12v0.24
	c0.06,0.061,0.06,0.119,0.06,0.18h-4.02l-0.061-0.061l-0.06-0.119v-0.061h0.12v-0.18h0.06v-0.24h0.06v-0.18h0.121v-0.119h0.119
	v-0.061h0.121v-0.119h0.06v-0.121h0.18v-0.119h0.06v-0.061h0.121v-0.121h0.119v-0.059h0.12v-0.24h0.12v-0.061h0.061v-0.24h0.119
	v-0.18h0.061v-0.48h0.119v-0.24h-0.119v-0.479c0,0,0,0-0.061-0.061v-0.18h-0.06l-0.06-0.061v-0.119h-0.061v-0.121l-0.12-0.119h-0.06
	l-0.061-0.06l-0.06-0.12h-0.06v-0.06l-0.121-0.121c0,0,0,0-0.06-0.06v-0.06l-0.12-0.061v-0.06h-0.06v-0.06h-0.06v-0.24h-0.121
	v-0.301h-0.06l-0.06-0.06v-0.42h-0.061l-0.061-0.24h0.121v-0.54h0.119v-0.24h0.121v-0.239h0.06v-0.06h0.06v-0.121h0.12v-0.06h0.06
	v-0.12h0.121v-0.12h0.06v-0.06h0.18v-0.12h0.3v-0.12h0.48v-0.061c0.061,0.061,0.061,0.061,0.061,0.061H42.426 M43.506,21.184
	l0.06,0.061v0.24h0.06c0.061,0.061,0.061,0.061,0.061,0.061h0.061c0.06,0.06,0.06,0.06,0.06,0.06v0.12l0.06,0.06v0.24l0.12,0.12
	v0.119c0,0.24,0,0.48,0,0.721l-0.06,0.061h-0.061v0.299l-0.06,0.061v0.061c0,0.06,0,0.06-0.06,0.06h-0.061v0.12
	c0,0.06,0,0.06-0.061,0.06c0,0.06,0,0.06-0.06,0.06v0.061h-0.06v0.12l-0.121,0.06c0,0.061,0,0.061-0.06,0.061v0.06h-0.12v0.12h-0.06
	v0.12h-0.06c0,0.06,0,0.06-0.061,0.06c0,0.061,0,0.061-0.061,0.061c0,0.061,0,0.061-0.06,0.061v0.119c0,0.061,0,0.061-0.06,0.061
	c0,0.06,0,0.06-0.061,0.06v0.12c0,0.061,0,0.061-0.06,0.061h-0.06v0.299h-0.061v0.721h0.061v0.3l0.119,0.12v0.061h0.061l0.06,0.119
	v0.12c0.06,0,0.06,0.06,0.06,0.12h0.061l0.061,0.061h0.06v0.119h0.06v0.061l0.12,0.06v0.06l0.06,0.061v0.061h0.181v0.06l0.24,0.24
	h0.06v0.06l0.18,0.18v0.121l0.061,0.06v0.18h0.12v0.181l0.06,0.119h-4.08l-0.06-0.119v-0.061h0.12v-0.24h0.06v-0.18h0.06v-0.12
	h0.121v-0.12h0.119v-0.06h0.121v-0.12h0.06v-0.12h0.06v-0.06h0.12v-0.121h0.181v-0.119h0.06v-0.061h0.06v-0.119h0.12v-0.061h0.12
	v-0.24h0.061v-0.119h0.119v-0.301h0.061v-0.359h0.119v-0.36h-0.119v-0.479h-0.061v-0.181l-0.119-0.12v-0.119h-0.061v-0.061
	l-0.12-0.12h-0.06l-0.061-0.12l-0.06-0.12h-0.06v-0.06l-0.061-0.061h-0.061c0,0,0,0-0.06-0.06v-0.12h-0.12v-0.061c0,0,0,0-0.06-0.06
	v-0.06h-0.06v-0.18l-0.121-0.061v-0.18h-0.06l-0.06-0.061v-0.54h-0.061l-0.061-0.06v-0.12h0.121v-0.479h0.119v-0.36h0.121v-0.06
	h0.06v-0.181h0.06v-0.181h0.12v-0.06h0.06v-0.06h0.121v-0.12h0.119v-0.12h0.24v-0.12h0.24v-0.06h0.119c0.24,0,0.48,0,0.721,0h0.061
	v0.06h0.239v0.06l0.06,0.061h0.121l0.06,0.061v0.06h0.06v0.12h0.18v0.06h0.121V21.184z M11.945,48.365v0.299l0.06,0.121h0.06v0.18
	h0.06v0.119l0.06,0.061l0.06,0.061v0.059h0.06v0.121l0.06,0.061h0.06v0.119h0.12v0.119h0.12l0.06,0.121h0.06v0.061h0.18v0.119h0.3
	v0.061l0.06,0.061h40.74c0.06,0,0.06,0,0.06-0.061c0.061,0,0.061,0,0.061-0.061h0.3l0.06-0.119h0.121l0.06-0.061h0.06v-0.121h0.061
	l0.06-0.119h0.06v-0.119h0.181v-0.182h0.06c0.061,0,0.061,0,0.061-0.059l0.06-0.061v-0.18h0.12v-0.18h0.061v-0.121
	c0-0.16,0-0.32,0-0.48v-2.939H39.365v0.42h-0.119v0.061c0,0.18,0,0.359,0,0.539v0.061h-0.061v0.359h-0.12v0.182h-0.06v0.18h-0.121
	v0.119h-0.06v0.18h-0.12v0.121h-0.06v0.119h-0.12v0.121h-0.061v0.059h-0.119v0.121h-0.18v0.061h-0.181v0.119h-0.12v0.119h-0.24
	v0.061h-0.3v0.121h-0.06c-2.36,0-4.72,0-7.08,0h-0.06v-0.061l-0.06-0.061h-0.24v-0.061h-0.24v-0.059l-0.12-0.061h-0.06v-0.061
	l-0.12-0.059l-0.06-0.061h-0.06l-0.06-0.121h-0.06l-0.06-0.059l-0.06-0.121h-0.06l-0.06-0.119l-0.12-0.121v-0.059h-0.12v-0.18
	l-0.06-0.061v-0.121l-0.12-0.059v-0.182h-0.06v-0.299l-0.06-0.061v-0.6c0,0,0,0-0.06-0.061h-0.06v-0.059
	c-5.16-0.422-10.56-0.541-16.2-0.361V48.365z M25.865,32.945h0.12l0.06,0.12h0.18v0.06h0.12v0.12h0.06v0.12h0.06l0.18,0.181h0.06
	v0.06l0.06,0.06v0.18h0.06l0.06,0.121v0.06l0.06,0.06v0.66l0.06,0.12h-0.06v0.479h-0.06v0.181l-0.06,0.12h-0.06v0.06
	c0,0.06,0,0.06-0.06,0.06v0.181h-0.06c0,0.06,0,0.06-0.06,0.06c0,0.061,0,0.061-0.06,0.061c0,0.06,0,0.06-0.06,0.06
	c0,0.06,0,0.06-0.06,0.06v0.061l-0.06,0.061v0.06h-0.12v0.12h-0.06v0.06h-0.12c0,0.061,0,0.061-0.06,0.061v0.059l-0.06,0.121h-0.06
	v0.18h-0.06v0.119l-0.06,0.061v0.42l-0.06,0.119h-0.06v0.301h0.06c0.06,0,0.06,0.061,0.06,0.121v0.299l0.06,0.061v0.119h0.06v0.24
	h0.06l0.06,0.061v0.061h0.06v0.18h0.12v0.059h0.06l0.12,0.061v0.061l0.06,0.061h0.06l0.06,0.119h0.12l0.06,0.061v0.061h0.06v0.119
	h0.06c0.06,0.061,0.06,0.061,0.06,0.061l0.06,0.059v0.182h0.12v0.059l0.06,0.061v0.18h0.06l0.06,0.061v0.119h0.06v0.18
	c0,0.061,0,0.061-0.06,0.061h-4.02v-0.061l-0.06-0.119h0.06v-0.24h0.12v-0.119h0.12v-0.18h0.06v-0.121h0.12v-0.119h0.06v-0.061h0.12
	v-0.119h0.06v-0.121h0.06v-0.119h0.12v-0.061h0.18v-0.121h0.12v-0.059h0.06v-0.18h0.12v-0.061h0.06v-0.18h0.12v-0.24h0.12v-0.24
	h0.06v-0.84h-0.06v-0.301h-0.12v-0.18l-0.12-0.061v-0.059h-0.06v-0.24h-0.12v-0.06h-0.06v-0.12h-0.12v-0.06h-0.12v-0.061
	c-0.313-0.277-0.083-0.158-0.24-0.3v-0.06h-0.06v-0.121l-0.12-0.06v-0.18h-0.06v-0.24l-0.12-0.06v-0.061c0-0.26,0-0.52,0-0.779
	v-0.121h0.12v-0.299h0.06v-0.181h0.12v-0.239h0.06v-0.121h0.06v-0.06h0.12v-0.12h0.06v-0.12h0.24v-0.06h0.06v-0.12h0.3v-0.12h0.54
	v-0.061h0.06v0.061h0.42v0.061l0.06,0.06H25.865z M25.806,20.705l-0.06-0.06c-0.28,0-0.56,0-0.84,0h-0.06v0.06h-0.3v0.12h-0.18v0.12
	h-0.12v0.12h-0.18v0.06h-0.12v0.06h-0.06v0.301h-0.06v0.061h-0.12v0.18h-0.06v0.3h-0.12v0.12c0,0.3,0,0.6,0,0.9v0.06l0.12,0.06v0.18
	c0.06,0.061,0.06,0.061,0.06,0.061v0.12h0.12v0.18c0.06,0.06,0.06,0.06,0.06,0.06l0.06,0.061l0.06,0.12l0.06,0.06h0.06v0.061
	l0.06,0.06h0.06v0.12h0.12v0.12h0.06v0.06l0.12,0.061v0.061h0.06v0.18l0.12,0.06v0.181h0.12v0.299h0.06v0.721h-0.06v0.3h-0.12v0.181
	h-0.12v0.18h-0.06v0.18h-0.12v0.061h-0.06v0.119h-0.12v0.061h-0.12v0.119h-0.06v0.121h-0.18v0.06h-0.06v0.12h-0.12v0.12h-0.06v0.06
	h-0.12v0.12h-0.06v0.181h-0.12v0.239h-0.12v0.181h-0.06l0.06,0.119h4.08v-0.18h-0.06v-0.12l-0.06-0.12h-0.06v-0.18h-0.06v-0.061
	l-0.12-0.06v-0.06l-0.06-0.061c0,0,0,0-0.06-0.06h-0.06v-0.06l-0.06-0.061v-0.061l-0.06-0.06c0,0,0,0-0.06-0.06h-0.06l-0.12-0.121
	h-0.06v-0.06l-0.12-0.06v-0.061h-0.06v-0.119h-0.12l-0.06-0.061v-0.18h-0.06l-0.06-0.061v-0.119h-0.06v-0.061
	c0.019-0.307-0.085-0.01-0.06-0.48l-0.06-0.119h-0.06v-0.36h0.06c0.06,0,0.06,0,0.06-0.06v-0.42c0.06,0,0.06,0,0.06-0.061v-0.12
	c0.06,0,0.06,0,0.06-0.06v-0.18h0.06c0.06,0,0.06,0,0.06-0.061v-0.061c0.06,0,0.06,0,0.06-0.06h0.12v-0.12h0.06v-0.12h0.12v-0.06
	l0.06-0.061c0.06,0,0.06,0,0.06-0.06c0.06,0,0.06-0.06,0.06-0.12h0.06c0.06,0,0.06,0,0.06-0.061l0.06-0.06v-0.06h0.06v-0.18
	c0.06,0,0.06,0,0.06-0.061h0.06v-0.18h0.06v-0.601h0.06l-0.06-0.06c0-0.18,0-0.36,0-0.54v-0.06h-0.06v-0.24l-0.12-0.12v-0.06h-0.06
	v-0.181h-0.06l-0.06-0.12l-0.06-0.061c0,0,0,0-0.06-0.06h-0.06v-0.06h-0.06v-0.12h-0.18v-0.06l-0.12-0.061h-0.06l-0.06-0.061
	l-0.06-0.06H25.806z"/>
</svg>
