<?xml version="1.0" encoding="utf-8"?>
<!-- Generator: Adobe Illustrator 16.0.0, SVG Export Plug-In . SVG Version: 6.00 Build 0)  -->
<!DOCTYPE svg PUBLIC "-//W3C//DTD SVG 1.1//EN" "http://www.w3.org/Graphics/SVG/1.1/DTD/svg11.dtd">
<svg version="1.1" id="Layer_1" xmlns="http://www.w3.org/2000/svg" xmlns:xlink="http://www.w3.org/1999/xlink" x="0px" y="0px"
	 width="67px" height="72px" viewBox="0 0 67 72" enable-background="new 0 0 67 72" xml:space="preserve">
<path fill="#9A9A9A" d="M37.351,61.522l1.021-0.18c0.06,0.18,0.12,0.36,0.239,0.48c0.119,0.06,0.301,0.119,0.539,0.119
	c0.302,0,0.48-0.06,0.602-0.119l0.12-0.24l-0.062-0.24c-0.06-0.061-0.18-0.061-0.358-0.12c-0.78-0.18-1.32-0.3-1.5-0.479
	c-0.302-0.18-0.479-0.48-0.479-0.84c0-0.301,0.119-0.601,0.42-0.84c0.239-0.24,0.659-0.36,1.199-0.36s0.9,0.12,1.141,0.3
	s0.42,0.42,0.539,0.72l-0.959,0.181c-0.061-0.181-0.121-0.301-0.24-0.36s-0.301-0.12-0.479-0.12c-0.3,0-0.479,0.061-0.54,0.12
	l-0.119,0.24l0.061,0.18c0.119,0.06,0.42,0.12,0.96,0.24s0.899,0.3,1.14,0.479c0.18,0.18,0.301,0.42,0.301,0.721
	c0,0.359-0.121,0.66-0.42,0.899c-0.301,0.24-0.781,0.36-1.32,0.36c-0.541,0-0.899-0.12-1.199-0.301
	C37.65,62.183,37.412,61.883,37.351,61.522 M35.851,60.383c0-0.3-0.061-0.479-0.181-0.66c-0.181-0.18-0.36-0.239-0.54-0.239
	c-0.24,0-0.42,0.06-0.54,0.239c-0.18,0.181-0.239,0.36-0.239,0.66H35.851z M35.792,61.403l1.021,0.18
	c-0.121,0.359-0.301,0.66-0.601,0.84s-0.66,0.24-1.08,0.24c-0.659,0-1.14-0.18-1.44-0.6c-0.239-0.36-0.359-0.78-0.359-1.32
	c0-0.66,0.18-1.141,0.479-1.5c0.299-0.36,0.719-0.54,1.26-0.54c0.539,0,1.021,0.18,1.32,0.6c0.299,0.36,0.479,0.9,0.479,1.681
	h-2.521c0,0.3,0.061,0.539,0.239,0.72c0.181,0.18,0.36,0.239,0.601,0.239c0.181,0,0.301-0.06,0.359-0.119
	C35.67,61.763,35.73,61.583,35.792,61.403z M32.55,62.603h-0.96v-5.22h0.96V62.603z M30.51,62.603h-0.96v-3.779h0.96V62.603z
	 M30.51,58.283h-0.96v-0.9h0.96V58.283z M25.11,62.603v-5.22h3.601v0.9H26.19v1.2h2.16v0.899h-2.16v2.22H25.11z"/>
<path fill="#07544E" d="M27.992,41.603l0.06,2.34h0.06c3.181,0.121,6.419,0.121,9.721,0.061v-0.061c0.06-0.84,0.06-1.619,0-2.34
	l-9.721-0.06v0.06H27.992 M27.09,39.923h0.06v-0.061h0.24l0.061-0.119h10.979l0.061,0.119h0.359v0.061h0.061l0.061,0.061v0.06h0.18
	v0.06h0.061v0.061l0.18,0.18v0.061l0.062,0.06v0.12l0.118,0.12v0.06c0,1.32,0,2.641,0,3.961v0.119h-0.118v0.24h-0.062v0.18h-0.119
	v0.061h-0.061v0.119h-0.061v0.121h-0.239v0.06h-0.181v0.12h-0.301v0.06H27.452l-0.061-0.06h-0.24v-0.061l-0.06-0.06h-0.12
	l-0.06-0.06h-0.12l-0.061-0.061l-0.06-0.061v-0.06l-0.061-0.06v-0.061h-0.119v-0.18h-0.061v-0.12c0,0,0,0-0.06-0.06l-0.061-0.061
	c0-1.359,0-2.72,0-4.08v-0.06c0.061,0,0.061,0,0.061-0.06c0.06,0,0.06,0,0.06-0.061v-0.12h0.061v-0.12l0.119-0.06v-0.061
	c0.061,0,0.061,0,0.061-0.06v-0.061h0.06c0.061,0,0.061,0,0.061-0.06h0.12v-0.06c0.06,0,0.06,0,0.06-0.061H27.09z M20.61,18.203
	l0.061,0.06l0.06,0.06v1.62l-1.261,0.06h-0.42l-0.06,0.06l-0.061,0.12h-0.06c0,0.06,0,0.06-0.061,0.06h-0.06v0.06h-0.061v0.18h-0.06
	c0,0.06,0,0.06-0.061,0.06v5.28l-0.06,0.06h-1.44v0.06h-0.18v0.06l-0.12,0.06v0.06h-0.06v0.06l-0.12,0.06v0.18h-0.061v3.78
	l-0.06,0.06h-0.12c-1.32,0.06-2.58,0-3.72-0.12v-0.18h0.06v-0.18h0.12v-0.24h0.061v-0.12h0.12v-0.18h0.06v-0.24h0.12v-0.18h0.12
	v-0.18h0.06v-0.18h0.12v-0.18h0.06v-0.18h0.12v-0.18h0.061v-0.24h0.12v-0.18h0.06v-0.06h0.12v-0.18h0.12v-0.24h0.06v-0.12h0.12
	v-0.18h0.061v-0.24h0.06v-0.18h0.18v-0.18h0.061v-0.18h0.06v-0.18h0.12v-0.18h0.061v-0.18h0.119v-0.24h0.12v-0.12h0.061v-0.18h0.12
	v-0.24h0.06v-0.18h0.12v-0.18h0.12v-0.18h0.06v-0.18h0.061v-0.18h0.12v-0.18h0.12v-0.24h0.06v-0.18h0.12v-0.18h0.06v-0.18h0.12
	v-0.18h0.12v-0.18h0.06v-0.18h0.061v-0.18h0.12v-0.18h0.06v-0.24h0.12v-0.12h0.12v-0.24h0.06v-0.18h0.12v-0.18h0.061v-0.18h0.12
	v-0.18h0.06v-0.24h0.12v-0.12h0.12v-0.18h0.06v-0.24h0.12v-0.18h0.061v-0.18h0.119v-0.06h0.12v-0.24h0.061v-0.18h0.06v-0.12h0.12
	v-0.12h0.12v-0.12h0.06v-0.06h0.12v-0.12h0.181v-0.06h0.18v-0.12H20.61z M40.89,35.663h0.12v-0.12h0.06v-0.06h0.062v-0.18h0.12
	v-0.18h0.061v-0.24h0.119v-0.24h0.12v-0.24h0.06v-0.18h0.121v-0.12h0.061v-0.24h0.12v-0.24h0.06v-0.24h0.12v-0.18h0.12v-0.18h0.061
	v-0.24h0.119v-0.24h0.062v-0.18h0.06v-0.12h11.4l0.061,0.06h0.239v0.06l0.12,0.12h0.061v0.06l0.18,0.18v0.061h0.119v0.18h0.062v0.06
	c0,5.08,0,10.16,0,15.24v0.061h-0.062v0.18h-0.119v0.18l-0.119,0.12h-0.061v0.06c0,0.061,0,0.061-0.061,0.061h-0.12v0.061h-0.181
	v0.06h-0.479l-9.48,0.12c-3.18,0.061-6.359,0.061-9.54,0.061l-11.159-0.061l-11.04-0.12h-0.42l-0.061-0.06h-0.18v-0.061h-0.061
	l-0.119-0.061v-0.06h-0.061l-0.06-0.06c0,0,0,0-0.061-0.061v-0.18h-0.12v-0.18h-0.06v-0.061c0-5.08,0-10.16,0-15.24v-0.06h0.06
	v-0.18h0.12v-0.12h0.061v-0.12h0.12v-0.06h0.119v-0.12h0.061v-0.06h0.3v-0.06h11.34v0.12l0.12,0.06v0.12l0.12,0.12v0.12h0.06v0.24
	l0.12,0.12v0.06l0.061,0.06v0.12l0.06,0.06c0.061,0.06,0.061,0.06,0.061,0.06v0.12h0.06v0.18h0.12v0.3h0.06v0.12l0.12,0.061v0.12
	l0.12,0.12v0.12h0.061v0.24l0.06,0.06l0.06,0.06v0.12h0.061v0.18h0.12v0.18h0.06v0.06l0.061,0.06l0.06,0.06h0.061
	c0.06,0.06,0.06,0.06,0.06,0.06v0.12c0.06,0,0.06,0.06,0.06,0.12h0.181v0.06h0.06v0.06h0.12l0.12,0.12h0.06l0.12,0.06v0.06h0.12
	l0.061,0.06h0.54c4.42,0,8.84,0,13.26,0h0.181v-0.06h0.24v-0.12H40.3v-0.12h0.239v-0.06h0.062v-0.06h0.18v-0.12H40.9v-0.18H40.89z
	 M42.63,30.263h4.859c0.061,0,0.061,0,0.061-0.06c0.061,0,0.061,0,0.061-0.06v-2.46H47.55l-0.061-0.06H18.271v2.52l0.061,0.06
	l0.06,0.06h5.4l0.06,0.06h0.12v0.06l0.12,0.06h0.06l0.061,0.06h0.18v0.06l0.061,0.06v0.06h0.18l0.06,0.12h0.061v0.06h0.06v0.12
	l0.061,0.06l0.06,0.06v0.06h0.12v0.18h0.06v0.12l0.12,0.12v0.12l0.061,0.06v0.06l0.06,0.06v0.12l0.061,0.06
	c0.06,0.06,0.06,0.06,0.06,0.06v0.18l0.06,0.06h0.061v0.18h0.06v0.12l0.12,0.12v0.18h0.061v0.18l0.06,0.06h0.061v0.12l0.06,0.06
	h0.06v0.18l0.061,0.06v0.06l0.12,0.12v0.12l0.06,0.06v0.18l0.061,0.06h0.06v0.18h13.021v-0.18h0.119v-0.24
	c0.062,0,0.062,0,0.062-0.06c0.06,0,0.06,0,0.06-0.06v-0.12c0.062,0,0.062,0,0.062-0.06v-0.06c0.06,0,0.06,0,0.06-0.06
	c0.061,0,0.061,0,0.061-0.06v-0.12h0.06v-0.18h0.062c0.06,0,0.06,0,0.06-0.06v-0.18h0.061l0.061-0.12v-0.12
	c0.061,0,0.061,0,0.061-0.06v-0.12h0.061v-0.18h0.061c0.061,0,0.061,0,0.061-0.06v-0.18c0.061,0,0.061,0,0.061-0.06
	c0.06,0,0.06,0,0.06-0.06v-0.12h0.062v-0.12c0.06,0,0.06,0,0.06-0.06c0.062,0,0.062,0,0.062-0.06v-0.06c0.06,0,0.06,0,0.06-0.06
	v-0.18h0.062c0.06,0,0.06,0,0.06-0.06v-0.12h0.062c0.06,0,0.06,0,0.06-0.06v-0.06c0.06,0,0.06,0,0.06-0.06v-0.12h0.061v-0.06h0.121
	v-0.12h0.18v-0.06c0.061,0,0.061,0,0.061-0.06c0.061,0,0.061,0,0.061-0.06h0.119c0.061,0,0.061,0,0.061-0.06h0.061l0.121-0.06v-0.06
	h0.119c0.061,0,0.061,0,0.061-0.06H42.63z M45.51,21.683v4.14c0,0.06,0,0.06-0.06,0.06h-25.02c0,0,0,0-0.06-0.06v-4.2h25.08
	L45.51,21.683z M48.81,21.203v0.06l0.062,0.06l0.06,0.06v0.12l0.062,0.06v0.06l0.118,0.12v0.12h0.062v0.18l0.06,0.06v0.12h0.121
	v0.18h0.061l0.061,0.12v0.06l0.06,0.06h0.061v0.18l0.06,0.06v0.06l0.057,0.06v0.12l0.12,0.06v0.12l0.06,0.06v0.18h0.12v0.18h0.06
	c0.062,0.061,0.062,0.061,0.062,0.061v0.12l0.06,0.06v0.12h0.121v0.18h0.061v0.18l0.061,0.06l0.061,0.06v0.06l0.119,0.12v0.12h0.061
	v0.18h0.061l0.061,0.06v0.06l0.061,0.06v0.18h0.061c0.061,0.06,0.061,0.06,0.061,0.06v0.12h0.06v0.18h0.12v0.18l0.055,0.06v0.12
	l0.12,0.06v0.12h0.06l0.062,0.12v0.12l0.06,0.06v0.12h0.12v0.18h0.06v0.12l0.062,0.06v0.06l0.12,0.06l0.061,0.06v0.12l0.061,0.06
	v0.06l0.061,0.06v0.12l0.119,0.06v0.18h0.061v0.18h0.119v0.18l0.121,0.12v0.06h0.06v0.18l0.061,0.06l0.06,0.06v0.06l0.062,0.06v0.12
	l0.06,0.06l0.062,0.06v0.12h0.06v0.18h0.121v0.12l0.06,0.06v0.18h0.062c0.059,0.06,0.059,0.06,0.059,0.06v0.12l0.062,0.06h0.06v0.18
	l-3.84,0.06l-0.06-0.06l-0.062-0.06v-3.72h-0.06l-0.062-0.12v-0.12l-0.06-0.06h-0.062v-0.06l-0.123-0.06v-0.06H48.81v-0.06h-1.438
	v-0.06l-0.062-0.06v-5.22c0,0,0,0-0.06-0.06v-0.18h-0.12v-0.06H47.07v-0.06h-0.119v-0.12H46.89l-0.059-0.06h-0.48
	c-0.42,0.06-0.84,0-1.199-0.12v-1.68h1.619l0.062,0.06v0.06h0.181l0.059,0.06h0.121l0.061,0.12h0.061v0.06l0.061,0.06v0.06h0.12
	v0.12h0.06l0.061,0.06v0.06l0.061,0.06v0.06l0.12,0.06v0.12l0.06,0.06v0.12h0.121v0.18l0.119,0.12v0.06l0.061,0.06v0.18h0.061v0.18
	h0.12v0.12l0.06,0.06l0.062,0.12v0.06h0.06v0.18l0.121,0.061v0.12l0.059,0.06v0.12l0.062,0.06L48.81,21.203z M43.23,15.803h-20.7
	v4.08h0.061c3.42,0.06,6.84,0.06,10.32,0.06h10.38v-0.06c0.12-1.26,0.181-2.58,0.12-3.96v-0.06c0,0,0,0-0.061-0.06H43.23z
	 M44.851,14.243l0.061,0.06v0.06l0.119,0.12h0.061v0.24h0.061v1.44l0.061,0.06h1.859v0.12h0.421l0.06,0.06h0.12l0.12,0.12h0.18v0.06
	l0.12,0.06h0.06l0.062,0.06l0.06,0.06h0.182v0.12h0.061v0.06l0.119,0.06l0.061,0.06l0.061,0.12h0.061v0.06h0.119v0.12h0.062v0.06
	l0.118,0.06c0.062,0.06,0.062,0.06,0.062,0.06v0.12l0.06,0.06v0.12l0.121,0.12h0.061l0.061,0.06v0.18h0.119v0.18h0.061v0.12
	l0.061,0.06v0.12l0.12,0.12v0.12h0.06v0.12l0.062,0.06h0.06v0.12l0.121,0.12v0.12l0.06,0.06v0.06l0.061,0.12h0.06v0.18h0.062v0.12
	l0.06,0.06h0.062v0.12l0.06,0.06h0.061v0.18l0.061,0.06v0.12h0.121v0.18h0.059v0.18l0.121,0.06v0.18h0.06v0.06l0.062,0.06l0.06,0.06
	v0.18h0.062v0.06l0.119,0.12v0.18h0.12v0.18h0.06v0.18l0.121,0.06v0.12l0.06,0.06v0.06l0.062,0.06v0.12l0.06,0.06l0.12,0.06v0.18
	h0.061v0.18h0.061v0.06l0.06,0.12h0.062v0.12l0.06,0.06v0.12l0.062,0.061h0.06v0.18h0.12v0.18h0.06v0.12l0.062,0.06l0.06,0.06v0.18
	h0.062v0.06l0.119,0.12v0.18h0.061l0.12,0.12v0.06l0.06,0.06v0.12l0.12,0.12v0.06l0.062,0.12h0.06v0.18h0.062v0.18h0.119v0.12
	l0.061,0.06v0.12l0.06,0.06h0.062v0.18h0.119v0.18l0.061,0.06v0.12l0.12,0.06v0.12h0.06v0.12l0.062,0.06v0.18l0.06,0.06h0.061v0.06
	l0.061,0.12h0.061v0.18h0.061v0.12h0.061l0.061,0.06v0.18h0.061v0.12l0.119,0.12v0.12c0.061,0.06,0.061,0.06,0.061,0.06v0.06
	l0.061,0.06l0.061,0.06v0.06l0.061,0.06l0.061,0.06v0.18h0.061v0.18h0.12v0.18h0.06v0.06l0.062,0.12l0.06,0.06v0.12h0.061v0.12
	l0.061,0.06h0.061v0.18c0.061,0.06,0.061,0.06,0.061,0.06v0.06l0.061,0.06l0.061,0.06v0.12l0.12,0.06v0.18h0.06v0.12l0.12,0.06v0.18
	h0.06v0.12l0.062,0.06v0.12l0.06,0.06l0.121,0.06v0.12l0.061,0.06v0.12h0.061v0.12l0.061,0.06l0.06,0.06v0.12h0.06v0.3l0.062,0.12
	h0.06v0.54l0.062,0.06l0.06,0.06v14.64h-0.119v0.06c0,0.201,0,0.4,0,0.601v0.12H56.65v0.24h-0.06v0.18h-0.12v0.24h-0.06v0.119
	h-0.062v0.181h-0.18v0.12h-0.061v0.119h-0.061v0.061h-0.119v0.18h-0.181v0.12h-0.12v0.12h-0.061v0.061h-0.119v0.06h-0.182v0.12
	h-0.18v0.12h-0.18v0.06h-0.182v0.12h-0.299v0.06h-0.541v0.121h-41.82v-0.061l-0.06-0.061h-0.479l-0.061-0.06h-0.24v-0.12h-0.18
	v-0.061h-0.24l-0.06-0.119h-0.061v-0.061l-0.12-0.06h-0.06v-0.06h-0.12v-0.061h-0.06l-0.061-0.12l-0.06-0.06l-0.12-0.061h-0.06
	v-0.18h-0.12v-0.061H9.811l-0.06-0.06v-0.06l-0.061-0.061l-0.06-0.06v-0.06l-0.12-0.121v-0.119H9.45v-0.12l-0.12-0.12v-0.12
	l-0.06-0.06v-0.181l-0.06-0.06h-0.06v-0.721l-0.06-0.06v-14.58l0.06-0.06v-0.66h0.06l0.06-0.12v-0.24c0.06,0,0.06,0,0.06-0.06v-0.12
	c0.06,0,0.06,0,0.06-0.06c0.06,0,0.06,0,0.06-0.06v-0.12h0.06v-0.12c0.06,0,0.06,0,0.06-0.06c0.061,0,0.061,0,0.061-0.06v-0.06
	c0.06,0,0.06,0,0.06-0.06l0.061-0.06v-0.12c0.06,0,0.06,0,0.06-0.06v-0.12h0.061v-0.18l0.12-0.06v-0.12h0.06v-0.18l0.12-0.06
	c0.06,0,0.06,0,0.06-0.06v-0.12c0.061,0,0.061,0,0.061-0.06v-0.06c0.06,0,0.06,0,0.06-0.06v-0.18h0.12v-0.18h0.06v-0.12l0.12-0.06
	v-0.18h0.061l0.06-0.06v-0.12h0.061v-0.18h0.06l0.056-0.12v-0.06l0.06-0.06v-0.12c0.06,0,0.06,0,0.06-0.06
	c0.061,0,0.061,0,0.061-0.06v-0.06c0.06,0,0.06,0,0.06-0.06v-0.12l0.12-0.06v-0.18h0.061v-0.18c0.06,0,0.06,0,0.06-0.06h0.061v-0.12
	h0.06c0.06,0,0.06-0.06,0.06-0.12v-0.06h0.061v-0.18h0.06l0.061-0.06v-0.12l0.06-0.06v-0.18h0.061c0.06,0,0.06,0,0.06-0.06v-0.06
	l0.06-0.06v-0.12c0.061,0,0.061,0,0.061-0.06c0.06,0,0.06,0,0.06-0.06v-0.12h0.061c0.06,0,0.06,0,0.06-0.06v-0.12
	c0.061,0,0.061,0,0.061-0.06v-0.12h0.06v-0.18h0.12v-0.18h0.06l0.061-0.12v-0.06h0.06v-0.18c0.061,0,0.061,0,0.061-0.06
	c0.06,0,0.06,0,0.06-0.06l0.061-0.12v-0.06h0.12v-0.18h0.06v-0.18l0.12-0.06v-0.12h0.06l0.061-0.12v-0.12c0.06,0,0.06,0,0.06-0.06
	v-0.12h0.061c0.06,0,0.06,0,0.06-0.06v-0.12h0.06v-0.18h0.061c0.06,0,0.06,0,0.06-0.06v-0.12h0.061v-0.18h0.06
	c0.061,0,0.061-0.06,0.061-0.12v-0.06h0.06v-0.18h0.12v-0.18c0.06,0,0.06,0,0.06-0.06c0.061,0,0.061,0,0.061-0.06v-0.12
	c0.06,0,0.06,0,0.06-0.06v-0.06c0.061,0,0.061,0,0.061-0.06c0.06,0,0.06,0,0.06-0.06v-0.06l0.061-0.06v-0.18h0.06v-0.18h0.12
	c0.06,0,0.06,0,0.06-0.06v-0.18c0.061,0,0.061,0,0.061-0.06v-0.06h0.06v-0.18l0.12-0.06v-0.12h0.061v-0.18l0.119-0.06v-0.18h0.061
	c0.06,0,0.06,0,0.06-0.061v-0.12c0.061,0,0.061,0,0.061-0.06v-0.06c0.06,0,0.06,0,0.06-0.06c0.061,0,0.061-0.06,0.061-0.12v-0.06
	h0.06v-0.18h0.12v-0.18h0.06l0.061-0.12v-0.06l0.06-0.12v-0.06c0.061,0,0.061,0,0.061-0.06v-0.12c0.06,0,0.06,0,0.06-0.06
	c0.061,0,0.061,0,0.061-0.061v-0.12h0.06c0.061,0,0.061,0,0.061-0.06v-0.12h0.06v-0.12c0.06,0,0.06,0,0.06-0.06l0.061-0.06v-0.12
	h0.06v-0.18h0.061l0.06-0.06v-0.12h0.061l0.06-0.06v-0.12l0.06-0.06c0.061,0,0.061,0,0.061-0.06v-0.18h0.12v-0.18
	c0.06,0,0.06,0,0.06-0.06l0.12-0.06v-0.06h0.061l0.06-0.12h0.06v-0.06h0.061l0.06-0.12h0.061v-0.06l0.12-0.06v-0.06h0.06v-0.12h0.18
	c0.061,0,0.061,0,0.061-0.06l0.06-0.06h0.12c0.061,0,0.061,0,0.061-0.06v-0.06h0.239v-0.06c0.061,0,0.061,0,0.061-0.06h0.18v-0.06
	h0.42c0.061,0,0.061-0.06,0.061-0.12h1.8c0.06,0,0.06,0,0.06-0.06v-1.44h0.061c0.06,0,0.06,0,0.06-0.06v-0.18h0.061v-0.06l0.06-0.06
	v-0.06l0.12-0.06v-0.06h0.06l0.061-0.06h0.18l0.061-0.06v-0.06h22.979v0.06c0,0.06,0.062,0.06,0.12,0.06h0.181v0.06h0.061
	L44.851,14.243z"/>
<path fill="#FFFFFF" d="M27.992,41.603l0.06,2.34h0.06c3.181,0.121,6.419,0.121,9.721,0.061v-0.061c0.06-0.84,0.06-1.619,0-2.34
	l-9.721-0.06v0.06H27.992 M42.63,30.263h4.859c0.061,0,0.061,0,0.061-0.06c0.061,0,0.061,0,0.061-0.06v-2.46H47.55l-0.061-0.06
	H18.271v2.52l0.061,0.06l0.06,0.06h5.4l0.06,0.06h0.12v0.06l0.12,0.06h0.06l0.061,0.06h0.18v0.06l0.061,0.06v0.06h0.18l0.06,0.12
	h0.061v0.06h0.06v0.12l0.061,0.06l0.06,0.06v0.06h0.12v0.18h0.06v0.12l0.12,0.12v0.12l0.061,0.06v0.06l0.06,0.06v0.12l0.061,0.06
	c0.06,0.06,0.06,0.06,0.06,0.06v0.18l0.06,0.06h0.061v0.18h0.06v0.12l0.12,0.12v0.18h0.061v0.18l0.06,0.06h0.061v0.12l0.06,0.06
	h0.06v0.18l0.061,0.06v0.06l0.12,0.12v0.12l0.06,0.06v0.18l0.061,0.06h0.06v0.18h13.021v-0.18h0.119v-0.24
	c0.062,0,0.062,0,0.062-0.06c0.06,0,0.06,0,0.06-0.06v-0.12c0.062,0,0.062,0,0.062-0.06v-0.06c0.06,0,0.06,0,0.06-0.06
	c0.061,0,0.061,0,0.061-0.06v-0.12h0.06v-0.18h0.062c0.06,0,0.06,0,0.06-0.06v-0.18h0.061l0.061-0.12v-0.12
	c0.061,0,0.061,0,0.061-0.06v-0.12h0.061v-0.18h0.061c0.061,0,0.061,0,0.061-0.06v-0.18c0.061,0,0.061,0,0.061-0.06
	c0.06,0,0.06,0,0.06-0.06v-0.12h0.062v-0.12c0.06,0,0.06,0,0.06-0.06c0.062,0,0.062,0,0.062-0.06v-0.06c0.06,0,0.06,0,0.06-0.06
	v-0.18h0.062c0.06,0,0.06,0,0.06-0.06v-0.12h0.062c0.06,0,0.06,0,0.06-0.06v-0.06c0.06,0,0.06,0,0.06-0.06v-0.12h0.061v-0.06h0.121
	v-0.12h0.18v-0.06c0.061,0,0.061,0,0.061-0.06c0.061,0,0.061,0,0.061-0.06h0.119c0.061,0,0.061,0,0.061-0.06h0.061l0.121-0.06v-0.06
	h0.119c0.061,0,0.061,0,0.061-0.06H42.63z M45.51,21.683v4.14c0,0.06,0,0.06-0.06,0.06h-25.02c0,0,0,0-0.06-0.06v-4.2h25.08
	L45.51,21.683z M43.23,15.803h-20.7v4.08h0.061c3.42,0.06,6.84,0.06,10.32,0.06h10.38v-0.06c0.12-1.26,0.181-2.58,0.12-3.96v-0.06
	c0,0,0,0-0.061-0.06H43.23z"/>
<path fill="#B8CE63" d="M27.09,39.923h0.06v-0.061h0.24l0.061-0.119h10.979l0.061,0.119h0.359v0.061h0.061l0.061,0.061v0.06h0.18
	v0.06h0.061v0.061l0.18,0.18v0.061l0.062,0.06v0.12l0.118,0.12v0.06c0,1.32,0,2.641,0,3.961v0.119h-0.118v0.24h-0.062v0.18h-0.119
	v0.061h-0.061v0.119h-0.061v0.121h-0.239v0.06h-0.181v0.12h-0.301v0.06H27.452l-0.061-0.06h-0.24v-0.061l-0.06-0.06h-0.12
	l-0.06-0.06h-0.12l-0.061-0.061l-0.06-0.061v-0.06l-0.061-0.06v-0.061h-0.119v-0.18h-0.061v-0.12c0,0,0,0-0.06-0.06l-0.061-0.061
	c0-1.359,0-2.72,0-4.08v-0.06c0.061,0,0.061,0,0.061-0.06c0.06,0,0.06,0,0.06-0.061v-0.12h0.061v-0.12l0.119-0.06v-0.061
	c0.061,0,0.061,0,0.061-0.06v-0.061h0.06c0.061,0,0.061,0,0.061-0.06h0.12v-0.06c0.06,0,0.06,0,0.06-0.061H27.09 M20.61,18.203
	l0.061,0.06l0.06,0.06v1.62l-1.261,0.06h-0.42l-0.06,0.06l-0.061,0.12h-0.06c0,0.06,0,0.06-0.061,0.06h-0.06v0.06h-0.061v0.18h-0.06
	c0,0.06,0,0.06-0.061,0.06v5.28l-0.06,0.06h-1.44v0.06h-0.18v0.06l-0.12,0.06v0.06h-0.06v0.06l-0.12,0.06v0.18h-0.061v3.78
	l-0.06,0.06h-0.12c-1.32,0.06-2.58,0-3.72-0.12v-0.18h0.06v-0.18h0.12v-0.24h0.061v-0.12h0.12v-0.18h0.06v-0.24h0.12v-0.18h0.12
	v-0.18h0.06v-0.18h0.12v-0.18h0.06v-0.18h0.12v-0.18h0.061v-0.24h0.12v-0.18h0.06v-0.06h0.12v-0.18h0.12v-0.24h0.06v-0.12h0.12
	v-0.18h0.061v-0.24h0.06v-0.18h0.18v-0.18h0.061v-0.18h0.06v-0.18h0.12v-0.18h0.061v-0.18h0.119v-0.24h0.12v-0.12h0.061v-0.18h0.12
	v-0.24h0.06v-0.18h0.12v-0.18h0.12v-0.18h0.06v-0.18h0.061v-0.18h0.12v-0.18h0.12v-0.24h0.06v-0.18h0.12v-0.18h0.06v-0.18h0.12
	v-0.18h0.12v-0.18h0.06v-0.18h0.061v-0.18h0.12v-0.18h0.06v-0.24h0.12v-0.12h0.12v-0.24h0.06v-0.18h0.12v-0.18h0.061v-0.18h0.12
	v-0.18h0.06v-0.24h0.12v-0.12h0.12v-0.18h0.06v-0.24h0.12v-0.18h0.061v-0.18h0.119v-0.06h0.12v-0.24h0.061v-0.18h0.06v-0.12h0.12
	v-0.12h0.12v-0.12h0.06v-0.06h0.12v-0.12h0.181v-0.06h0.18v-0.12H20.61z M40.89,35.663h0.12v-0.12h0.06v-0.06h0.062v-0.18h0.12
	v-0.18h0.061v-0.24h0.119v-0.24h0.12v-0.24h0.06v-0.18h0.121v-0.12h0.061v-0.24h0.12v-0.24h0.06v-0.24h0.12v-0.18h0.12v-0.18h0.061
	v-0.24h0.119v-0.24h0.062v-0.18h0.06v-0.12h11.4l0.061,0.06h0.239v0.06l0.12,0.12h0.061v0.06l0.18,0.18v0.061h0.119v0.18h0.062v0.06
	c0,5.08,0,10.16,0,15.24v0.061h-0.062v0.18h-0.119v0.18l-0.119,0.12h-0.061v0.06c0,0.061,0,0.061-0.061,0.061h-0.12v0.061h-0.181
	v0.06h-0.479l-9.48,0.12c-3.18,0.061-6.359,0.061-9.54,0.061l-11.159-0.061l-11.04-0.12h-0.42l-0.061-0.06h-0.18v-0.061h-0.061
	l-0.119-0.061v-0.06h-0.061l-0.06-0.06c0,0,0,0-0.061-0.061v-0.18h-0.12v-0.18h-0.06v-0.061c0-5.08,0-10.16,0-15.24v-0.06h0.06
	v-0.18h0.12v-0.12h0.061v-0.12h0.12v-0.06h0.119v-0.12h0.061v-0.06h0.3v-0.06h11.34v0.12l0.12,0.06v0.12l0.12,0.12v0.12h0.06v0.24
	l0.12,0.12v0.06l0.061,0.06v0.12l0.06,0.06c0.061,0.06,0.061,0.06,0.061,0.06v0.12h0.06v0.18h0.12v0.3h0.06v0.12l0.12,0.061v0.12
	l0.12,0.12v0.12h0.061v0.24l0.06,0.06l0.06,0.06v0.12h0.061v0.18h0.12v0.18h0.06v0.06l0.061,0.06l0.06,0.06h0.061
	c0.06,0.06,0.06,0.06,0.06,0.06v0.12c0.06,0,0.06,0.06,0.06,0.12h0.181v0.06h0.06v0.06h0.12l0.12,0.12h0.06l0.12,0.06v0.06h0.12
	l0.061,0.06h0.54c4.42,0,8.84,0,13.26,0h0.181v-0.06h0.24v-0.12H40.3v-0.12h0.239v-0.06h0.062v-0.06h0.18v-0.12H40.9v-0.18H40.89z
	 M48.81,21.203v0.06l0.062,0.06l0.06,0.06v0.12l0.062,0.06v0.06l0.118,0.12v0.12h0.062v0.18l0.06,0.06v0.12h0.121v0.18h0.061
	l0.061,0.12v0.06l0.06,0.06h0.061v0.18l0.06,0.06v0.06l0.057,0.06v0.12l0.12,0.06v0.12l0.06,0.06v0.18h0.12v0.18h0.06
	c0.062,0.061,0.062,0.061,0.062,0.061v0.12l0.06,0.06v0.12h0.121v0.18h0.061v0.18l0.061,0.06l0.061,0.06v0.06l0.119,0.12v0.12h0.061
	v0.18h0.061l0.061,0.06v0.06l0.061,0.06v0.18h0.061c0.061,0.06,0.061,0.06,0.061,0.06v0.12h0.06v0.18h0.12v0.18l0.055,0.06v0.12
	l0.12,0.06v0.12h0.06l0.062,0.12v0.12l0.06,0.06v0.12h0.12v0.18h0.06v0.12l0.062,0.06v0.06l0.12,0.06l0.061,0.06v0.12l0.061,0.06
	v0.06l0.061,0.06v0.12l0.119,0.06v0.18h0.061v0.18h0.119v0.18l0.121,0.12v0.06h0.06v0.18l0.061,0.06l0.06,0.06v0.06l0.062,0.06v0.12
	l0.06,0.06l0.062,0.06v0.12h0.06v0.18h0.121v0.12l0.06,0.06v0.18h0.062c0.059,0.06,0.059,0.06,0.059,0.06v0.12l0.062,0.06h0.06v0.18
	l-3.84,0.06l-0.06-0.06l-0.062-0.06v-3.72h-0.06l-0.062-0.12v-0.12l-0.06-0.06h-0.062v-0.06l-0.123-0.06v-0.06H48.81v-0.06h-1.438
	v-0.06l-0.062-0.06v-5.22c0,0,0,0-0.06-0.06v-0.18h-0.12v-0.06H47.07v-0.06h-0.119v-0.12H46.89l-0.059-0.06h-0.48
	c-0.42,0.06-0.84,0-1.199-0.12v-1.68h1.619l0.062,0.06v0.06h0.181l0.059,0.06h0.121l0.061,0.12h0.061v0.06l0.061,0.06v0.06h0.12
	v0.12h0.06l0.061,0.06v0.06l0.061,0.06v0.06l0.12,0.06v0.12l0.06,0.06v0.12h0.121v0.18l0.119,0.12v0.06l0.061,0.06v0.18h0.061v0.18
	h0.12v0.12l0.06,0.06l0.062,0.12v0.06h0.06v0.18l0.121,0.061v0.12l0.059,0.06v0.12l0.062,0.06L48.81,21.203z"/>
</svg>
